{
	"asset":{
		"generator":"Khronos glTF Blender I/O v4.0.44",
		"version":"2.0"
	},
	"scene":0,
	"scenes":[
		{
			"name":"Scene",
			"nodes":[
				0
			]
		}
	],
	"nodes":[
		{
			"mesh":0,
			"name":"Curve",
			"scale":[
				60.0405387878418,
				60.0405387878418,
				60.0405387878418
			]
		}
	],
	"materials":[
		{
			"doubleSided":true,
			"name":"SVGMat",
			"pbrMetallicRoughness":{
				"baseColorFactor":[
					0,
					0,
					0,
					1
				],
				"metallicFactor":0,
				"roughnessFactor":0.4000000059604645
			}
		}
	],
	"meshes":[
		{
			"name":"Curve",
			"primitives":[
				{
					"attributes":{
						"POSITION":0,
						"NORMAL":1,
						"TEXCOORD_0":2
					},
					"indices":3,
					"material":0
				}
			]
		}
	],
	"accessors":[
		{
			"bufferView":0,
			"componentType":5126,
			"count":540,
			"max":[
				0.056462839245796204,
				0.008327706716954708,
				0.03875776380300522
			],
			"min":[
				-0.057740718126297,
				0,
				-0.06775063276290894
			],
			"type":"VEC3"
		},
		{
			"bufferView":1,
			"componentType":5126,
			"count":540,
			"type":"VEC3"
		},
		{
			"bufferView":2,
			"componentType":5126,
			"count":540,
			"type":"VEC2"
		},
		{
			"bufferView":3,
			"componentType":5123,
			"count":1068,
			"type":"SCALAR"
		}
	],
	"bufferViews":[
		{
			"buffer":0,
			"byteLength":6480,
			"byteOffset":0,
			"target":34962
		},
		{
			"buffer":0,
			"byteLength":6480,
			"byteOffset":6480,
			"target":34962
		},
		{
			"buffer":0,
			"byteLength":4320,
			"byteOffset":12960,
			"target":34962
		},
		{
			"buffer":0,
			"byteLength":2136,
			"byteOffset":17280,
			"target":34963
		}
	],
	"buffers":[
		{
			"byteLength":19416,
			"uri":"Profigure.bin"
		}
	]
}
