<?xml version="1.0" encoding="UTF-8"?>
<svg id="Layer_1" data-name="Layer 1" xmlns="http://www.w3.org/2000/svg" viewBox="0 0 388.6 344.89">
  <defs>
    <style>
      .cls-1 {
        fill: #ff7300;
      }
    </style>
  </defs>
  <path class="cls-1" d="M220.04,331.63l159.19-157.63c6.25-7.02,9.37-14.05,9.37-22.63,0-17.95-14.83-33.55-32.78-33.55-8.58,0-16.39,3.12-21.85,8.58l-92.86,92.08c-1.57,2.34-3.9,3.9-7.02,3.9-4.69,0-7.02-3.12-7.02-10.14V31.99c0-17.95-14.05-31.99-32-31.99s-31.99,14.05-31.99,31.99v182.59c0,7.02-2.34,10.93-7.02,10.93-3.12,0-5.46-1.56-7.02-4.68L55.4,127.97c-5.46-5.46-13.27-8.58-22.63-8.58-17.95,0-32.77,13.26-32.77,31.21,0,10.15,3.12,17.95,9.37,24.19l161.52,161.52c5.46,5.46,13.27,8.58,23.41,8.58,11.7,0,20.29-4.68,25.75-13.26h0Z"/>
</svg>