<?xml version="1.0" encoding="UTF-8"?>
<svg id="Layer_1" xmlns="http://www.w3.org/2000/svg" version="1.1" viewBox="0 0 1080 1080">
  <!-- Generator: Adobe Illustrator 29.1.0, SVG Export Plug-In . SVG Version: 2.1.0 Build 142)  -->
  <defs>
    <style>
      .st0 {
        fill: #ff7300;
      }

      .st1 {
        fill: #0f0f0f;
      }
    </style>
  </defs>
  <rect class="st1" width="1080" height="1080"/>
  <g>
    <path class="st0" d="M870.4,489.6l-121.55-210.54c-17.95-31.09-51.4-50.4-87.3-50.4h-243.11c-35.9,0-69.35,19.31-87.3,50.4l-121.55,210.54c-17.95,31.09-17.95,69.71,0,100.8l121.55,210.54c17.95,31.09,51.4,50.4,87.3,50.4h243.11c35.9,0,69.35-19.31,87.3-50.4l121.55-210.54c17.95-31.09,17.95-69.71,0-100.8ZM831.39,567.88l-121.55,210.54c-9.96,17.25-28.36,27.88-48.28,27.88h-243.11c-19.92,0-38.32-10.63-48.28-27.88l-121.55-210.54c-9.96-17.25-9.96-38.5,0-55.75l121.55-210.54c9.96-17.25,28.36-27.88,48.28-27.88h243.11c19.92,0,38.32,10.63,48.28,27.88l121.55,210.54c9.96,17.25,9.96,38.5,0,55.75Z"/>
    <path class="st0" d="M622.97,382.64c-12.59,0-22.48,9.89-22.48,22.03v39.56c0,4.05-1.35,7.19-4.05,9.44l-60.25,60.25c-2.25,2.7-5.4,4.05-9.44,4.05h-20.68c-10.34,0-17.98-8.09-17.98-18.43v-94.86c0-12.14-9.89-22.03-22.48-22.03s-22.03,9.89-22.03,22.03v270.65c0,12.14,9.44,22.03,22.03,22.03s22.48-9.89,22.48-22.03v-94.86c0-10.34,7.64-18.43,17.98-18.43h20.68c4.05,0,7.19,1.35,9.44,4.05l60.25,60.24c2.7,2.25,4.05,5.4,4.05,9.44v39.56c0,12.14,9.89,22.03,22.48,22.03s22.03-9.89,22.03-22.03v-54.85c0-4.95-1.35-10.79-6.29-15.74l-52.6-51.7c-3.6-4.05-5.4-8.54-5.4-13.04s1.8-8.99,5.4-13.04l52.6-51.7c4.95-4.94,6.29-10.79,6.29-15.73v-54.85c0-12.14-9.89-22.03-22.03-22.03Z"/>
  </g>
</svg>