<?xml version="1.0" encoding="UTF-8"?>
<svg id="Layer_1" data-name="Layer 1" xmlns="http://www.w3.org/2000/svg" version="1.1" viewBox="0 0 1200 133.9">
  <defs>
    <style>
      .cls-1 {
        fill: #fff;
        stroke-width: 0px;
      }
    </style>
  </defs>
  <polyline class="cls-1" points="16.8 5.5 .6 5.4 .3 133 83.7 133.2 83.8 118.4 16.5 118.2 16.8 5.5"/>
  <path class="cls-1" d="M119.1,117.4c-10.2-5.9-15.4-18.3-15.3-32.8,0-20.3,10.3-36.5,30.1-36.5s10.3,1.3,14.4,3.6c10.2,5.9,15.4,18.4,15.3,33-.1,20.3-10.2,36.4-29.9,36.3-5.7,0-10.5-1.3-14.6-3.6M156.3,41.9c-6.3-3.6-13.8-5.7-22.4-5.7-27.6,0-44.9,21.6-45,48.4,0,18.5,8.2,34.7,22.4,42.9,6.3,3.7,13.8,5.7,22.3,5.8,27.8.1,44.8-21.6,44.9-48.4,0-18.6-8-34.8-22.2-43"/>
  <polyline class="cls-1" points="207.8 5.5 193.2 5.5 192.9 133 207.4 133 207.5 96.1 221.2 83.3 253.9 133.2 271 133.2 231.3 74.1 266.9 41 248.4 41 207.6 80.2 207.8 5.5"/>
  <path class="cls-1" d="M295.1,119.4c-3.8-2.2-6.4-6-6.3-12.3,0-13.6,11.7-16,26.3-18.7,7.9-1.4,16.4-3.7,21.2-6.7v15.7c0,10.7-8.9,24.8-28.2,24.7-4.7.1-9.4-.6-13-2.7M337.2,42.3c-5.8-3.4-13.4-4.8-22-4.8-24.6,0-36.5,13.3-37.1,31.1h14c.6-13.9,8.1-20.3,23.2-20.3s10.1,1.1,13.5,3c4.7,2.7,7.3,7.2,7.2,13.3,0,10-9.2,11.2-22.3,13.1-23.2,3.5-40.4,7.9-40.5,29.7,0,10,4.5,17,11.7,21.2,5.3,3.1,12.2,4.6,19.7,4.6,15.8.1,25.3-7.4,30.9-14.5h.2c.8,5.7,3,9.6,6.7,11.7,2.4,1.4,5.5,2.1,9.2,2.1s6.1-.7,7.9-1.4v-10.5h-.5c-3,.7-5.2.5-6.7-.4-2.5-1.4-3.2-4.8-3.2-9.5v-43.9c.4-12.4-4.3-20.1-11.9-24.5"/>
  <polyline class="cls-1" points="385.8 5.7 371.3 5.7 371 133.2 385.5 133.2 385.8 5.7"/>
  <path class="cls-1" d="M452.8,66.7V19.6c.1,0,34.7.1,34.7.1,6.3,0,11.6,1.2,15.8,3.6,6.5,3.8,10.1,10.4,10,19.8,0,14.6-8.7,23.7-26.8,23.6h-33.7M512.3,11.1c-5.9-3.4-13.3-5.3-22-5.3h-53.5c0,0-.4,127.4-.4,127.4h16.2c0,.1.2-53.4.2-53.4h35c28,.2,41.5-13.9,41.6-37.2,0-9.6-3.2-18-8.6-24.3-2.3-2.9-5.2-5.3-8.5-7.2"/>
  <path class="cls-1" d="M565.1,117.4c-10.2-5.9-15.4-18.3-15.3-32.8,0-20.3,10.3-36.5,30.1-36.5s10.3,1.3,14.3,3.6c10.2,5.9,15.4,18.4,15.3,33,0,20.3-10.2,36.4-29.9,36.3-5.6,0-10.5-1.3-14.5-3.6M602.2,41.9c-6.3-3.6-13.8-5.7-22.3-5.7-27.7,0-45,21.6-45,48.4,0,18.5,8.2,34.7,22.4,42.9,6.3,3.7,13.8,5.7,22.4,5.8,27.8.1,44.8-21.6,44.8-48.4-.1-18.6-8.1-34.8-22.3-43"/>
  <path class="cls-1" d="M692.7,41.4c-5.6-3.2-12.9-5-22.1-5-21.5,0-33.4,9.9-33.5,25.2,0,10.5,4.4,16.5,11.2,20.5,6.3,3.6,14.6,5.4,23.4,7.3,8.2,1.7,14.1,3.3,18,5.5,4.2,2.4,6.2,5.8,6.1,11.1,0,8.6-6.3,15.1-21.6,15.1s-12.1-1-16.6-3.6c-5.3-3-8.9-8.3-9.9-17h-14.9c.8,12.3,6.1,21.5,15.6,27,6.5,3.8,15,5.8,25.4,5.8,21.4.1,36.7-9.4,36.7-27.9s-4.5-18-11.7-22.1c-6.1-3.5-14-5.3-22.5-7-8.6-1.7-15.1-3.1-19.3-5.6-3.7-2.1-5.6-5-5.6-9.7,0-7.3,5.4-13.2,18.7-13.1,5.7,0,10.2.9,13.7,2.9,4.8,2.8,7.4,7.5,8.2,14.6h14.9c-1.2-10.9-5.7-19.2-14.2-24"/>
  <path class="cls-1" d="M745.2,11.4h-14.5v29.1h-13.6v11.8h13.5l-.2,63.1c0,7.5,2.8,12.3,7.5,15,3.4,2,7.9,2.9,12.9,2.9s8.3-.5,11.7-1.2v-12.5h-.5c-1.6.5-4.9,1.2-7.7,1.2s-4.5-.4-6-1.3c-2.2-1.3-3.4-3.6-3.3-7.3l.2-59.9h18v-11.8h-18c0,0,0-29.1,0-29.1"/>
  <path class="cls-1" d="M787.2,77.1c2.2-16.8,11.6-29.6,28.8-29.5,5.4,0,10,1.2,13.9,3.4,8,4.6,12.6,13.8,13.2,26.3l-55.9-.2M837.2,41.4c-5.9-3.4-12.9-5.3-21.1-5.3-26.4,0-44.1,21.6-44.1,48.4,0,18.5,7.8,34.7,22,42.9,6.3,3.7,14,5.8,22.7,5.8,21,0,35.6-11.1,39.9-30.9h-14.2c-3.3,12.4-12.3,18.8-25.7,18.7-5.7,0-10.5-1.3-14.6-3.7-9.4-5.4-14.6-16.3-15.3-29.4l71.8.2c0-21.4-7.3-38.5-21.4-46.7"/>
  <path class="cls-1" d="M921.4,41.1c-1.8-.7-3.2-1.1-5.9-1.1-12.4,0-22.1,7.4-27.7,16.3h-.4v-15.3h-14.6l-.3,92.2h14.6c0,.1,0-51.1,0-51.1,0-17.3,12.6-28,27-27.9,2.9,0,4.3.2,6.5.9h.5l.2-14"/>
  <path class="cls-1" d="M1050.7,7.5c-7.9-4.6-17.7-7.2-29.4-7.2-38.2,0-60.9,28.9-61,66.4,0,26.6,11,48,29.8,58.8,8.6,4.9,18.7,7.7,30.1,7.7,16.3.1,29.5-4.5,38.5-13.3,9.2-8.9,15.3-23.1,15.5-35.8h-16c-1.7,18.7-13.2,35.1-37.4,35-8.1,0-15.3-2-21.4-5.5-14.2-8.2-22.7-25.1-22.6-46.9,0-30,15.9-52.6,44.1-52.5,8.3,0,15.3,1.9,20.9,5.1,8.1,4.7,13.3,12.4,15.1,21.8h15.8c-2-14.4-9.6-26.4-22-33.6"/>
  <path class="cls-1" d="M1115.3,117.4c-10.2-5.9-15.4-18.2-15.3-32.8,0-20.3,10.3-36.5,30.1-36.5s10.4,1.3,14.4,3.6c10.2,5.9,15.4,18.4,15.3,33,0,20.3-10.2,36.4-29.9,36.3-5.7,0-10.6-1.3-14.6-3.6M1152.4,41.9c-6.3-3.6-13.8-5.7-22.3-5.7-27.6,0-44.9,21.6-45,48.4,0,18.5,8.2,34.7,22.4,42.9,6.3,3.7,13.8,5.7,22.3,5.8,27.8.1,44.8-21.6,44.8-48.4,0-18.6-8-34.8-22.2-43"/>
  <polyline class="cls-1" points="1200 115.6 1182.6 115.5 1182.5 133.2 1199.9 133.2 1200 115.6"/>
</svg>