<?xml version="1.0" encoding="utf-8"?>
<!-- Generator: Adobe Illustrator 28.2.0, SVG Export Plug-In . SVG Version: 6.00 Build 0)  -->
<svg version="1.1" id="Layer_1" xmlns="http://www.w3.org/2000/svg" xmlns:xlink="http://www.w3.org/1999/xlink" x="0px" y="0px"
	 viewBox="0 0 1200 133.9" style="enable-background:new 0 0 1200 133.9;" xml:space="preserve">
<style type="text/css">
	.st0{fill:#010101;}
</style>
<polyline class="st0" points="16.8,5.5 0.6,5.4 0.3,133 83.7,133.2 83.8,118.4 16.5,118.2 16.8,5.5 "/>
<path class="st0" d="M119.1,117.4c-10.2-5.9-15.4-18.3-15.3-32.8c0.1-20.3,10.3-36.5,30.1-36.5c5.6,0,10.3,1.3,14.4,3.6
	c10.2,5.9,15.4,18.4,15.3,33c-0.1,20.3-10.2,36.4-29.9,36.3C128,121.1,123.2,119.7,119.1,117.4 M156.3,41.9
	c-6.3-3.6-13.8-5.7-22.4-5.7c-27.6-0.1-44.9,21.6-45,48.4c-0.1,18.5,8.2,34.7,22.4,42.9c6.3,3.7,13.8,5.7,22.3,5.8
	c27.8,0.1,44.8-21.6,44.9-48.4C178.5,66.3,170.5,50.1,156.3,41.9"/>
<polyline class="st0" points="207.8,5.5 193.2,5.5 192.9,133 207.4,133 207.5,96.1 221.2,83.3 253.9,133.2 271,133.2 231.3,74.1 
	266.9,41 248.4,41 207.6,80.2 207.8,5.5 "/>
<path class="st0" d="M295.1,119.4c-3.8-2.2-6.4-6-6.3-12.3c0-13.6,11.7-16,26.3-18.7c7.9-1.4,16.4-3.7,21.2-6.7l0,15.7
	c0,10.7-8.9,24.8-28.2,24.7C303.4,122.2,298.7,121.5,295.1,119.4 M337.2,42.3c-5.8-3.4-13.4-4.8-22-4.8
	c-24.6-0.1-36.5,13.3-37.1,31.1l14,0c0.6-13.9,8.1-20.3,23.2-20.3c5.6,0,10.1,1.1,13.5,3c4.7,2.7,7.3,7.2,7.2,13.3
	c0,10-9.2,11.2-22.3,13.1c-23.2,3.5-40.4,7.9-40.5,29.7c0,10,4.5,17,11.7,21.2c5.3,3.1,12.2,4.6,19.7,4.6
	c15.8,0.1,25.3-7.4,30.9-14.5l0.2,0c0.8,5.7,3,9.6,6.7,11.7c2.4,1.4,5.5,2.1,9.2,2.1c3.8,0,6.1-0.7,7.9-1.4l0-10.5l-0.5,0
	c-3,0.7-5.2,0.5-6.7-0.4c-2.5-1.4-3.2-4.8-3.2-9.5l0.1-43.9C349.5,54.4,344.8,46.7,337.2,42.3"/>
<polyline class="st0" points="385.8,5.7 371.3,5.7 371,133.2 385.5,133.2 385.8,5.7 "/>
<path class="st0" d="M452.8,66.7l0.1-47.1l34.6,0.1c6.3,0,11.6,1.2,15.8,3.6c6.5,3.8,10.1,10.4,10,19.8c0,14.6-8.7,23.7-26.8,23.6
	L452.8,66.7 M512.3,11.1c-5.9-3.4-13.3-5.3-22-5.3l-53.5-0.1l-0.4,127.5l16.2,0.1l0.2-53.5l35,0.1c28,0.1,41.5-14,41.6-37.3
	c0-9.6-3.2-18-8.6-24.3C518.5,15.4,515.6,13,512.3,11.1"/>
<path class="st0" d="M565.1,117.4c-10.2-5.9-15.4-18.3-15.3-32.8c0.1-20.3,10.3-36.5,30.1-36.5c5.6,0,10.3,1.3,14.3,3.6
	c10.2,5.9,15.4,18.4,15.3,33c-0.1,20.3-10.2,36.4-29.9,36.3C574,121.1,569.1,119.7,565.1,117.4 M602.2,41.9
	c-6.3-3.6-13.8-5.7-22.3-5.7c-27.7-0.1-45,21.6-45,48.4c-0.1,18.5,8.2,34.7,22.4,42.9c6.3,3.7,13.8,5.7,22.4,5.8
	c27.8,0.1,44.8-21.6,44.8-48.4C624.4,66.3,616.4,50.1,602.2,41.9"/>
<path class="st0" d="M692.7,41.4c-5.6-3.2-12.9-5-22.1-5c-21.5-0.1-33.4,9.9-33.5,25.2c0,10.5,4.4,16.5,11.2,20.5
	c6.3,3.6,14.6,5.4,23.4,7.3c8.2,1.7,14.1,3.3,18,5.5c4.2,2.4,6.2,5.8,6.1,11.1c0,8.6-6.3,15.1-21.6,15.1c-6.4,0-12.1-1-16.6-3.6
	c-5.3-3-8.9-8.3-9.9-17l-14.9,0c0.8,12.3,6.1,21.5,15.6,27c6.5,3.8,15,5.8,25.4,5.8c21.4,0.1,36.7-9.4,36.7-27.9
	c0-11.5-4.5-18-11.7-22.1c-6.1-3.5-14-5.3-22.5-7c-8.6-1.7-15.1-3.1-19.3-5.6c-3.7-2.1-5.6-5-5.6-9.7c0-7.3,5.4-13.2,18.7-13.1
	c5.7,0,10.2,0.9,13.7,2.9c4.8,2.8,7.4,7.5,8.2,14.6l14.9,0C705.7,54.5,701.2,46.2,692.7,41.4"/>
<path class="st0" d="M745.2,11.4l-14.5,0l-0.1,29.1l-13.5,0l0,11.8l13.5,0l-0.2,63.1c0,7.5,2.8,12.3,7.5,15c3.4,2,7.9,2.9,12.9,2.9
	c4.3,0,8.3-0.5,11.7-1.2l0-12.5l-0.5,0c-1.6,0.5-4.9,1.2-7.7,1.2c-2.4,0-4.5-0.4-6-1.3c-2.2-1.3-3.4-3.6-3.3-7.3l0.2-59.9l18,0
	l0-11.8l-18-0.1L745.2,11.4"/>
<path class="st0" d="M787.2,77.1c2.2-16.8,11.6-29.6,28.8-29.5c5.4,0,10,1.2,13.9,3.4c8,4.6,12.6,13.8,13.2,26.3L787.2,77.1
	 M837.2,41.4c-5.9-3.4-12.9-5.3-21.1-5.3c-26.4-0.1-44.1,21.6-44.1,48.4c-0.1,18.5,7.8,34.7,22,42.9c6.3,3.7,14,5.8,22.7,5.8
	c21,0,35.6-11.1,39.9-30.9l-14.2-0.1c-3.3,12.5-12.3,18.9-25.7,18.8c-5.7,0-10.5-1.3-14.6-3.7c-9.4-5.4-14.6-16.3-15.3-29.4
	l71.8,0.2C858.7,66.7,851.3,49.6,837.2,41.4"/>
<path class="st0" d="M921.4,41.1c-1.8-0.7-3.2-1.1-5.9-1.1c-12.4,0-22.1,7.4-27.7,16.3l-0.4,0l0-15.3l-14.6,0l-0.3,92.2l14.6,0.1
	l0.1-51.2c0-17.3,12.6-28,27-27.9c2.9,0,4.3,0.2,6.5,0.9l0.5,0L921.4,41.1"/>
<path class="st0" d="M1050.7,7.5c-7.9-4.6-17.7-7.2-29.4-7.2c-38.2-0.1-60.9,28.9-61,66.4c-0.1,26.6,11,48,29.8,58.8
	c8.6,4.9,18.7,7.7,30.1,7.7c16.3,0.1,29.5-4.5,38.5-13.3c9.2-8.9,15.3-23.1,15.5-35.8l-16,0c-1.7,18.7-13.2,35.1-37.4,35
	c-8.1,0-15.3-2-21.4-5.5c-14.2-8.2-22.7-25.1-22.6-46.9c0.1-30,15.9-52.6,44.1-52.5c8.3,0,15.3,1.9,20.9,5.1
	c8.1,4.7,13.3,12.4,15.1,21.8l15.8,0C1070.7,26.7,1063.1,14.7,1050.7,7.5"/>
<path class="st0" d="M1115.3,117.4c-10.2-5.9-15.4-18.2-15.3-32.8c0.1-20.3,10.3-36.5,30.1-36.5c5.6,0,10.4,1.3,14.4,3.6
	c10.2,5.9,15.4,18.4,15.3,33c-0.1,20.3-10.2,36.4-29.9,36.3C1124.2,121.1,1119.3,119.7,1115.3,117.4 M1152.4,41.9
	c-6.3-3.6-13.8-5.7-22.3-5.7c-27.6-0.1-44.9,21.6-45,48.4c-0.1,18.5,8.2,34.7,22.4,42.9c6.3,3.7,13.8,5.7,22.3,5.8
	c27.8,0.1,44.8-21.6,44.8-48.4C1174.6,66.3,1166.6,50.1,1152.4,41.9"/>
<polyline class="st0" points="1200,115.6 1182.6,115.5 1182.5,133.2 1199.9,133.2 1200,115.6 "/>
</svg>
