<?xml version="1.0" encoding="utf-8"?>
<!-- Generator: Adobe Illustrator 28.2.0, SVG Export Plug-In . SVG Version: 6.00 Build 0)  -->
<svg version="1.1" id="Layer_1" xmlns="http://www.w3.org/2000/svg" xmlns:xlink="http://www.w3.org/1999/xlink" x="0px" y="0px"
	 viewBox="0 0 1200 514.9" style="enable-background:new 0 0 1200 514.9;" xml:space="preserve">
<style type="text/css">
	.st0{fill:#010101;}
</style>
<g>
	<path class="st0" d="M53.1,515C19.5,515,0,496.7,0,457.8V58.6C0,19.7,19.5,1.4,53.1,1.4s53.1,18.3,53.1,57.2v399.2
		C106.1,496.7,86.7,515,53.1,515z M53.1,45c-7.1,0-8.3,2.9-8.3,13.6v399.2c0,11.2,1.8,13.6,8.3,13.6c7.1,0,8.3-2.4,8.3-13.6V58.6
		C61.3,47.4,59.6,45,53.1,45z"/>
	<path class="st0" d="M227.6,511.5H121.5v-43.6h30.7V76.3h-30.7V32.7h9.4c15.3,0,21.2-5.9,21.2-20.1V4.9H197v462.9h30.7V511.5z"/>
	<path class="st0" d="M304.3,173V58.6c0-11.2-1.8-13.6-8.3-13.6c-7.1,0-8.3,2.9-8.3,13.6V173h-44.8V58.6c0-38.9,19.5-57.2,53.1-57.2
		s53.1,18.3,53.1,57.2V173c0,57.8-61.3,73.1-61.3,127.4v167.5h16.5V285h44.8v226.4H242.9V300.4C242.9,232.6,304.3,213.1,304.3,173z"
		/>
	<path class="st0" d="M417.5,1.4c33.6,0,53.1,18.3,53.1,57.2V173c0,15.9-8.8,37.2-24.8,44.2c15.9,7.1,24.8,28.3,24.8,44.2v196.4
		c0,38.9-19.5,57.2-53.1,57.2s-53.1-18.3-53.1-57.2V285h44.8v172.8c0,10.6,1.2,13.6,8.3,13.6c6.5,0,8.3-2.4,8.3-13.6V251.4
		c0-9.4-2.9-17.1-11.2-17.1h-17.1v-34.2h17.1c8.3,0,11.2-7.7,11.2-17.1V58.6c0-11.2-1.8-13.6-8.3-13.6c-7.1,0-8.3,2.9-8.3,13.6V173
		h-44.8V58.6C364.4,19.7,383.9,1.4,417.5,1.4z"/>
	<path class="st0" d="M589.7,364.7h9.4v43.6h-9.4v103.2h-44.8V408.3h-59.6v-40.1l36-363.3h68.4V364.7z M544.9,364.7l7.7-258.9H549
		l-23,258.9H544.9z"/>
	<path class="st0" d="M713.5,4.9V173h-44.8V48.6h-16.5v155.1c5.9-10,15.3-14.7,27.7-14.7c21.2,0,33.6,13.6,33.6,41.3v227.6
		c0,38.9-19.5,57.2-53.1,57.2c-33.6,0-53.1-18.3-53.1-57.2V285h44.8v172.8c0,10.6,1.2,13.6,8.3,13.6c6.5,0,8.3-2.4,8.3-13.6V230.2
		c0-11.2-1.8-13.6-8.3-13.6c-7.1,0-8.3,2.9-8.3,13.6v17.7h-44.8V4.9H713.5z"/>
	<path class="st0" d="M781.9,1.4c33.6,0,53.1,18.3,53.1,57.2V173h-44.8V58.6c0-11.2-1.8-13.6-8.3-13.6c-7.1,0-8.3,3.5-8.3,13.6
		v145.1c5.9-10,15.3-14.7,27.7-14.7c21.2,0,33.6,13,33.6,41.3v227.6c0,40.1-19.5,57.2-53.1,57.2c-33.6,0-53.1-18.3-53.1-57.2V58.6
		C728.8,19.7,748.3,1.4,781.9,1.4z M781.9,216.6c-7.1,0-8.3,2.9-8.3,13.6v227.6c0,11.2,1.2,13.6,8.3,13.6c6.5,0,8.3-2.4,8.3-13.6
		V230.2C790.2,219,788.4,216.6,781.9,216.6z"/>
	<path class="st0" d="M920.5,354v157.5h-44.8V359.9c0-85.5,36-116.8,36-198.1V48.6h-16.5V173h-44.8V4.9h106.1v151
		C956.5,255,920.5,282.1,920.5,354z"/>
	<path class="st0" d="M1025.5,1.4c33.6,0,53.1,17.7,53.1,57.2v120.3c0,17.1-8.8,31.3-24.8,38.3c15.9,7.1,24.8,22.4,24.8,38.3v202.3
		c0,38.3-19.5,57.2-53.1,57.2c-33.6,0-53.1-18.9-53.1-57.2V255.6c0-15.9,8.8-31.3,24.8-38.3c-15.9-7.1-24.8-21.2-24.8-38.3V58.6
		C972.4,19.1,991.8,1.4,1025.5,1.4z M1025.5,45c-7.1,0-8.3,3.5-8.3,13.6V183c0,10,1.2,13.6,8.3,13.6c6.5,0,8.3-2.4,8.3-13.6V58.6
		C1033.7,47.4,1031.9,45,1025.5,45z M1025.5,471.4c6.5,0,8.3-2.4,8.3-13.6V251.4c0-10.6-1.2-13.6-8.3-13.6c-6.5,0-8.3,2.4-8.3,13.6
		v206.4C1017.2,468.4,1018.4,471.4,1025.5,471.4z"/>
	<path class="st0" d="M1146.9,515c-33.6,0-53.1-18.3-53.1-57.2V342.2h44.8v115.6c0,11.2,1.8,13.6,8.3,13.6c7.1,0,8.3-3.5,8.3-13.6
		V312.8c-5.9,10-15.3,14.7-27.7,14.7c-21.2,0-33.6-13-33.6-41.3V58.6c0-40.1,19.5-57.2,53.1-57.2c33.6,0,53.1,18.3,53.1,57.2v399.2
		C1200,496.7,1180.5,515,1146.9,515z M1146.9,299.8c7.1,0,8.3-2.9,8.3-13.6V58.6c0-11.2-1.2-13.6-8.3-13.6c-6.5,0-8.3,2.4-8.3,13.6
		v227.6C1138.7,297.4,1140.4,299.8,1146.9,299.8z"/>
</g>
</svg>
