<?xml version="1.0" encoding="UTF-8"?>
<svg id="Layer_1" data-name="Layer 1" xmlns="http://www.w3.org/2000/svg" viewBox="0 0 962.86 898.74">
  <defs>
    <style>
      .cls-1 {
        fill: #191c1a;
      }
    </style>
  </defs>
  <path class="cls-1" d="M962.76,748.51l-138.05-79.7h0l-86.4-49.86h0l-207.64-119.92v-239.75c35.69,6.42,69.12,19.92,98.58,39.19,71.67,46.27,120.2,125.21,124.55,215.57l96.5,55.62c1.61-13.88,2.46-28.04,2.46-42.3,0-152.12-92.16-283.37-223.41-340.59-30.88-13.6-63.93-22.85-98.58-27.48V0h-98.58v499.04l-207.64,119.92h0c-10.2-28.61-15.77-59.39-15.77-91.5,0-4.53.09-8.97.28-13.41,4.34-90.37,52.88-169.3,124.55-215.57v-111.61c-131.35,57.22-223.41,188.38-223.41,340.59,0,14.26.76,28.33,2.36,42.3,3.97,34.65,12.75,67.89,25.49,99.05h0L0,748.51l49.29,85.36,138.24-79.79h0l86.4-49.86h0l207.45-119.83,207.45,119.83h0c-23.04,26.91-51.18,49.48-83,65.81-37.39,19.26-79.6,30.12-124.45,30.12s-87.06-10.86-124.45-30.12l-96.5,55.62c61.75,45.89,138.33,73.09,220.96,73.09s159.2-27.19,220.96-73.09c27.48-20.49,52.12-44.57,72.99-71.67h0l138.24,79.79,49.29-85.36-.09.09Z"/>
</svg>