<?xml version="1.0" encoding="UTF-8"?>
<svg id="Layer_2" data-name="Layer 2" xmlns="http://www.w3.org/2000/svg" viewBox="0 0 55.84 119.06">
  <defs>
    <style>
      .cls-1, .cls-2, .cls-3 {
        stroke-width: 0px;
      }

      .cls-2 {
        fill: #171b1e;
      }

      .cls-3 {
        fill: #e6e7e8;
      }
    </style>
  </defs>
  <g id="Layer_1-2" data-name="Layer 1">
    <g>
      <g>
        <polygon class="cls-2" points="50.69 118.56 .5 89.58 .5 3.05 50.69 32.02 50.69 118.56"/>
        <g>
          <path class="cls-3" d="M10.84,35.58v-16.23c0-1.59-.23-2.06-1.08-2.55-.92-.53-1.08-.2-1.08,1.3v16.23s-5.84-3.37-5.84-3.37V14.74c0-5.52,2.54-6.65,6.92-4.12,4.38,2.53,6.92,6.59,6.92,12.11v16.23c0,8.2-7.99,5.76-7.99,13.45v23.76s2.15,1.24,2.15,1.24v-25.93s5.84,3.37,5.84,3.37v32.12s-13.83-7.99-13.83-7.99v-29.95c0-9.62,7.99-7.77,7.99-13.45Z"/>
          <path class="cls-3" d="M25.6,92.62c-4.38-2.53-6.92-6.59-6.92-12.11V23.88c0-5.52,2.54-6.65,6.92-4.12,4.38,2.53,6.92,6.59,6.92,12.11v56.63c0,5.52-2.54,6.65-6.92,4.12ZM25.6,25.95c-.92-.53-1.08-.2-1.08,1.3v56.63c0,1.59.23,2.06,1.08,2.55.92.53,1.08.29,1.08-1.3V28.49c0-1.59-.23-2.06-1.08-2.55Z"/>
          <path class="cls-3" d="M42.5,53.86v-16.23c0-1.59-.23-2.06-1.08-2.55-.92-.53-1.08-.2-1.08,1.3v16.23s-5.84-3.37-5.84-3.37v-16.23c0-5.52,2.54-6.65,6.92-4.12,4.38,2.53,6.92,6.59,6.92,12.11v16.23c0,8.2-7.99,5.76-7.99,13.45v23.76s2.15,1.24,2.15,1.24v-25.93s5.84,3.37,5.84,3.37v32.12s-13.83-7.99-13.83-7.99v-29.95c0-9.62,7.99-7.77,7.99-13.45Z"/>
        </g>
        <g>
          <path class="cls-3" d="M2.73,85.5l.49.28.31,1.53c.05.26.1.65.1.65h0s.06-.3.11-.51l.26-1.22.46.27.26,1.51c.05.27.11.65.11.65h0s.07-.32.12-.53l.3-1.18.47.27-.67,2.34-.45-.26-.29-1.62c-.04-.22-.08-.53-.08-.53h0s-.04.26-.08.44l-.29,1.29-.44-.26-.69-3.12Z"/>
          <path class="cls-3" d="M6.72,90.29c-.09.1-.22.15-.51-.02-.35-.2-.58-.54-.58-.93,0-.43.3-.4.68-.24.28.12.41.16.41.02,0-.14-.11-.29-.3-.41-.21-.12-.31-.1-.32.09l-.4-.23c0-.34.23-.51.73-.22s.73.68.73,1.14v.8c0,.13.02.18.12.22h0v.32s-.09,0-.19-.06c-.21-.12-.32-.26-.36-.47ZM6.72,89.83v-.29c-.08,0-.2-.03-.31-.07-.23-.07-.35-.08-.35.1,0,.18.11.31.26.4.26.15.4.05.4-.14Z"/>
          <path class="cls-3" d="M7.33,90.24l.42.24c.03.24.17.42.37.54s.31.09.31-.05c0-.19-.21-.33-.45-.52-.3-.24-.6-.51-.6-.94s.3-.45.69-.23c.45.26.69.66.73,1.07l-.41-.23c-.02-.22-.14-.36-.33-.47-.17-.1-.29-.09-.29.05,0,.17.22.31.47.51.28.23.6.5.6.96,0,.39-.29.46-.71.22-.49-.28-.77-.72-.79-1.15Z"/>
          <path class="cls-3" d="M9.48,90.42h0c.12-.13.26-.15.49-.02.35.2.58.64.58,1.07v1.28s-.45-.26-.45-.26v-1.2c0-.21-.11-.42-.29-.53-.2-.11-.34-.02-.34.25v1.11s-.45-.26-.45-.26v-2.72s.45.26.45.26v1.02Z"/>
          <path class="cls-3" d="M10.84,90.18l.45.26v.46s-.45-.26-.45-.26v-.46ZM10.84,90.95l.45.26v1.95s-.45-.26-.45-.26v-1.95Z"/>
          <path class="cls-3" d="M12.02,91.89h0c.12-.14.27-.16.5-.02.35.2.58.64.58,1.07v1.28s-.45-.26-.45-.26v-1.2c0-.21-.11-.42-.29-.53-.2-.11-.34-.02-.34.25v1.11s-.45-.26-.45-.26v-1.95s.44.25.44.25v.27Z"/>
          <path class="cls-3" d="M13.35,94.41l.45.26c.04.14.13.29.34.41.25.15.38.08.38-.19v-.21h0c-.1.07-.23.09-.44-.03-.38-.22-.75-.77-.75-1.36,0-.58.3-.78.73-.53.21.12.37.31.47.53h0s0-.2,0-.2l.43.25v1.81c0,.27-.08.42-.2.48-.14.07-.36.01-.61-.13-.46-.27-.75-.66-.79-1.07ZM14.53,93.97c0-.29-.13-.61-.4-.76-.23-.13-.38-.01-.38.31,0,.33.15.61.38.75.28.16.4,0,.4-.3Z"/>
          <path class="cls-3" d="M15.14,93.43l.23.14v-.61s.44.25.44.25v.61l.29.17v.34s-.29-.17-.29-.17v1.04c0,.14.07.23.17.29.06.03.13.07.13.07v.38s-.1-.05-.28-.15c-.22-.13-.46-.36-.46-.73v-1.15l-.23-.14v-.34Z"/>
          <path class="cls-3" d="M16.24,95.04c0-.58.36-.82.88-.52s.88.96.88,1.54c0,.58-.36.82-.88.52s-.88-.96-.88-1.54ZM17.55,95.8c0-.38-.16-.73-.43-.89s-.43.01-.43.39c0,.38.15.72.43.88s.43,0,.43-.39Z"/>
          <path class="cls-3" d="M18.65,95.72h0c.12-.14.27-.16.5-.02.35.2.58.64.58,1.07v1.28s-.45-.26-.45-.26v-1.2c0-.21-.11-.42-.29-.53-.2-.11-.34-.02-.34.25v1.11s-.45-.26-.45-.26v-1.95s.44.25.44.25v.27Z"/>
          <path class="cls-3" d="M20,98.64c.13,0,.24-.07.24-.31l-.24-.14v-.55s.48.28.48.28v.52c0,.39-.22.48-.48.39v-.19Z"/>
          <path class="cls-3" d="M21.34,96.24l.92.53c.63.36,1.04,1.18,1.04,1.99s-.13.76-.38.85c-.17.07-.4.03-.7-.14l-.88-.51v-2.72ZM22.19,98.97c.45.26.62.04.62-.5,0-.54-.2-1.04-.61-1.27l-.38-.22v1.78l.37.21Z"/>
          <path class="cls-3" d="M23.36,99.58l.48.28v.55s-.48-.28-.48-.28v-.55Z"/>
          <path class="cls-3" d="M23.91,99.09c0-.81.44-1.17,1.13-.77.58.34.92.93.97,1.48l-.48-.27c-.04-.3-.22-.58-.5-.74-.44-.25-.64.05-.64.59s.25,1.1.65,1.33c.28.16.48.08.51-.19l.47.27c-.01.23-.1.41-.26.49-.16.08-.39.06-.72-.12-.66-.38-1.14-1.25-1.14-2.06Z"/>
          <path class="cls-3" d="M26.16,101.19l.48.28v.55s-.48-.28-.48-.28v-.55Z"/>
        </g>
        <g>
          <path class="cls-3" d="M2.87,81.59l.11.07c0,.18.1.33.26.42.13.08.22.05.22-.1,0-.14-.09-.26-.25-.35l-.06-.03v-.1l.06.03c.15.08.22.06.22-.06s-.09-.24-.2-.31c-.14-.08-.22-.02-.22.13l-.11-.07c0-.21.13-.28.33-.16.17.1.31.29.31.48,0,.12-.06.16-.16.14h0c.13.12.19.25.19.39,0,.21-.15.24-.34.13-.21-.12-.37-.35-.38-.6Z"/>
          <path class="cls-3" d="M3.68,82.1c0-.16.09-.19.19-.17h0c-.09-.09-.15-.21-.15-.32,0-.17.14-.21.31-.11s.31.29.31.46c0,.11-.06.16-.14.15h0c.11.1.19.25.19.4,0,.25-.18.23-.35.13s-.36-.3-.36-.54ZM4.27,82.45c0-.14-.09-.28-.24-.37s-.24-.05-.24.09.09.28.24.36.24.05.24-.09ZM4.23,81.91c0-.11-.08-.22-.2-.29s-.2-.05-.2.06.08.22.2.29.2.05.2-.06Z"/>
          <path class="cls-3" d="M4.49,82.73l.13.08v.16l-.13-.08v-.16Z"/>
          <path class="cls-3" d="M4.73,82.71c0-.16.09-.19.19-.17h0c-.09-.09-.15-.21-.15-.32,0-.17.14-.21.31-.11s.31.29.31.46c0,.11-.06.16-.14.15h0c.11.1.19.25.19.4,0,.25-.18.23-.35.13s-.36-.3-.36-.54ZM5.33,83.06c0-.14-.09-.28-.24-.37s-.24-.05-.24.09.09.28.24.36.24.05.24-.09ZM5.29,82.52c0-.11-.08-.22-.2-.29s-.2-.05-.2.06.08.22.2.29.2.05.2-.06Z"/>
          <path class="cls-3" d="M5.54,83.2l.12.07c0,.12.08.25.21.33.07.04.12.05.16.02.06-.04.08-.15.08-.31h0c-.06.05-.15.05-.26-.01-.17-.1-.31-.35-.31-.55,0-.2.14-.29.33-.18.09.05.16.13.22.21.11.16.14.33.14.58,0,.22-.04.36-.13.4-.06.02-.13.01-.22-.04-.19-.11-.32-.31-.33-.51ZM6.09,83.06c0-.15-.1-.32-.23-.39s-.22-.02-.22.13.1.32.22.39c.14.08.23.03.23-.13Z"/>
          <path class="cls-3" d="M6.31,83.62l.11.07c.02.14.1.28.23.35s.22.02.22-.14-.1-.32-.22-.39c-.1-.06-.17-.05-.21,0l-.11-.06.1-.52.5.29v.12l-.42-.24-.06.29h0c.05-.03.13-.02.22.03.17.1.32.32.32.56s-.14.3-.34.18-.34-.33-.35-.54Z"/>
          <path class="cls-3" d="M7.25,83.68l-.21-.12v-.09c.12.06.21.07.23-.08l.09.05v1.09s-.12-.07-.12-.07v-.79Z"/>
          <path class="cls-3" d="M7.52,83.71c0-.11.08-.15.17-.1s.17.19.17.29c0,.11-.08.15-.17.1s-.17-.19-.17-.29ZM7.79,83.87c0-.07-.04-.14-.1-.18s-.1,0-.1.07.04.14.1.18.1,0,.1-.07Z"/>
          <path class="cls-3" d="M8.22,83.9l.13.08.45,1.05c.03.08.07.19.07.19h0s0-.93,0-.93l.12.07v1.13s-.13-.07-.13-.07l-.45-1.05c-.03-.07-.07-.18-.07-.18h0s0,.93,0,.93l-.12-.07v-1.13Z"/>
        </g>
        <g>
          <path class="cls-3" d="M19.25,90.44h0s-.54-.31-.54-.31v-.12l.66.38v.11c-.19.08-.38.33-.4.75l-.12-.07c.02-.37.19-.66.4-.73Z"/>
          <path class="cls-3" d="M19.98,90.86h0s-.54-.31-.54-.31v-.12s.66.38.66.38v.11c-.19.08-.38.33-.4.75l-.12-.07c.02-.37.19-.66.4-.73Z"/>
          <path class="cls-3" d="M20.09,91.73l.13.08v.16l-.13-.08v-.16Z"/>
          <path class="cls-3" d="M20.31,91.47c0-.35.14-.48.37-.36s.36.42.36.78c0,.35-.13.49-.37.36s-.37-.43-.37-.78ZM20.92,91.83c0-.28-.08-.5-.24-.6s-.25.03-.25.31c0,.28.08.5.25.6s.24-.03.24-.31Z"/>
          <path class="cls-3" d="M21.13,92.13l.11.07c0,.18.1.33.26.42.13.08.22.05.22-.1,0-.14-.09-.26-.25-.35l-.06-.03v-.1l.06.03c.15.08.22.06.22-.06s-.09-.24-.2-.31c-.14-.08-.22-.02-.22.13l-.11-.07c0-.21.13-.28.33-.16.17.1.31.29.31.48,0,.12-.06.16-.16.14h0c.13.12.19.25.19.39,0,.21-.15.24-.34.13-.21-.12-.37-.35-.38-.6Z"/>
          <path class="cls-3" d="M22.08,92.96c-.1-.16-.13-.33-.13-.55,0-.34.13-.49.36-.35.19.11.28.31.3.47l-.11-.07c0-.11-.07-.23-.18-.29-.18-.11-.25.03-.25.29h0c.06-.06.15-.06.26,0,.17.1.31.34.31.54,0,.2-.14.29-.32.19-.1-.06-.18-.14-.24-.23ZM22.52,92.95c0-.15-.09-.31-.22-.38-.13-.08-.23-.03-.23.13,0,.15.1.32.23.39.12.07.21.02.21-.14Z"/>
          <path class="cls-3" d="M22.73,93.12l.12.07c0,.12.08.25.21.33.07.04.12.05.16.02.06-.04.08-.15.08-.31h0c-.06.05-.15.05-.26-.01-.17-.1-.31-.35-.31-.55,0-.2.14-.29.33-.18.09.05.16.13.22.21.11.16.14.33.14.58,0,.22-.04.36-.13.4-.06.02-.13.01-.22-.04-.19-.11-.32-.31-.33-.51ZM23.28,92.99c0-.15-.1-.32-.23-.39s-.22-.02-.22.13.1.32.22.39c.14.08.23.03.23-.13Z"/>
          <path class="cls-3" d="M23.49,92.94c0-.11.08-.15.17-.1s.17.19.17.29-.08.15-.17.1-.17-.19-.17-.29ZM23.76,93.09c0-.07-.04-.14-.1-.18s-.1,0-.1.07.04.14.1.18.1,0,.1-.07Z"/>
          <path class="cls-3" d="M24.12,93.08l.13.07.16.83c.02.09.04.21.04.21h0s.02-.11.04-.17l.18-.63.13.08.17.83c.02.09.04.22.04.22h0s.02-.11.04-.17l.16-.64.13.07-.27.98-.12-.07-.18-.9c-.02-.08-.04-.19-.04-.19h0s-.02.09-.04.15l-.19.69-.12-.07-.25-1.28Z"/>
        </g>
        <g>
          <path class="cls-3" d="M34.62,103.91l.43.25c.11.07.2.15.26.25.06.1.09.2.09.31,0,.21-.12.29-.33.17l-.24-.14v.41s-.21-.12-.21-.12v-1.13ZM34.83,104.57l.21.12c.1.06.16.03.16-.08s-.06-.2-.16-.26l-.21-.12v.34Z"/>
          <path class="cls-3" d="M35.43,105.1c0-.24.15-.34.37-.22s.37.4.37.64c0,.24-.15.34-.37.22s-.37-.4-.37-.64ZM35.98,105.42c0-.16-.06-.3-.18-.37s-.18,0-.18.16.06.3.18.37.18,0,.18-.16Z"/>
          <path class="cls-3" d="M36.25,105.17l.18.1v.1h0s.11-.06.21,0c.19.11.31.35.31.61s-.12.36-.31.25c-.1-.06-.16-.14-.2-.23h0s0,.36,0,.36l-.19-.11v-1.08ZM36.76,105.88c0-.15-.05-.29-.16-.36s-.16.02-.16.17.06.28.17.34c.09.05.16,0,.16-.15Z"/>
          <path class="cls-3" d="M37.48,106.7v-.1h0s-.1.06-.2,0c-.16-.09-.24-.26-.24-.43v-.54s.19.11.19.11v.51c0,.1.04.17.12.22.09.05.14,0,.14-.1v-.47s.19.11.19.11v.81s-.18-.1-.18-.1Z"/>
          <path class="cls-3" d="M37.79,105.74l.19.11v1.13s-.19-.11-.19-.11v-1.13Z"/>
          <path class="cls-3" d="M38.52,107.2s-.09.06-.21,0c-.14-.08-.24-.23-.24-.39,0-.18.13-.17.28-.1.12.05.17.07.17,0,0-.06-.04-.12-.12-.17-.09-.05-.13-.04-.13.04l-.17-.1c0-.14.09-.21.3-.09s.3.28.3.47v.33c0,.05,0,.08.05.09h0v.13s-.04,0-.08-.03c-.09-.05-.13-.11-.15-.2ZM38.52,107.01v-.12s-.08-.01-.13-.03c-.1-.03-.15-.03-.15.04,0,.07.04.13.11.17.11.06.17.02.17-.06Z"/>
          <path class="cls-3" d="M38.76,106.62l.1.06v-.25l.18.11v.25l.12.07v.14s-.12-.07-.12-.07v.43c0,.06.03.1.07.12.02.01.05.03.05.03v.16s-.04-.02-.12-.06c-.09-.05-.19-.15-.19-.31v-.48l-.1-.06v-.14Z"/>
          <path class="cls-3" d="M39.26,106.59l.19.11v.19l-.19-.11v-.19ZM39.26,106.91l.19.11v.81s-.19-.11-.19-.11v-.81Z"/>
          <path class="cls-3" d="M39.53,107.47c0-.24.15-.34.37-.22s.37.4.37.64-.15.34-.37.22-.37-.4-.37-.64ZM40.08,107.79c0-.16-.06-.3-.18-.37s-.18,0-.18.16.06.3.18.37.18,0,.18-.16Z"/>
          <path class="cls-3" d="M40.54,107.76h0c.05-.06.11-.07.21-.01.15.08.24.27.24.45v.53s-.19-.11-.19-.11v-.5c0-.09-.04-.17-.12-.22-.08-.05-.14,0-.14.1v.46s-.19-.11-.19-.11v-.81s.18.11.18.11v.11Z"/>
          <path class="cls-3" d="M41.11,108.08l.2.12v.23l-.2-.12v-.23ZM41.11,108.56l.2.12v.23l-.2-.12v-.23Z"/>
          <path class="cls-3" d="M34.74,106.63c-.1-.16-.13-.33-.13-.55,0-.34.13-.49.36-.35.19.11.28.31.3.47l-.11-.07c0-.11-.07-.23-.18-.29-.18-.11-.25.03-.25.29h0c.06-.06.15-.06.26,0,.17.1.31.34.31.54,0,.2-.14.29-.32.19-.1-.06-.18-.14-.23-.23ZM35.19,106.61c0-.15-.09-.31-.22-.38-.13-.08-.23-.03-.23.13,0,.15.1.32.23.39.12.07.21.02.21-.14Z"/>
          <path class="cls-3" d="M35.39,106.77c0-.16.09-.19.19-.17h0c-.09-.09-.15-.21-.15-.32,0-.17.14-.21.31-.11s.31.29.31.46c0,.11-.06.16-.14.15h0c.11.1.19.25.19.4,0,.25-.18.23-.35.13s-.36-.3-.36-.54ZM35.99,107.11c0-.14-.09-.28-.24-.37s-.24-.05-.24.09.09.28.24.36.24.05.24-.09ZM35.95,106.57c0-.11-.08-.22-.2-.29s-.2-.05-.2.06.08.22.2.29.2.05.2-.06Z"/>
          <path class="cls-3" d="M36.2,107.25l.12.07c0,.12.08.25.21.33.07.04.12.05.16.02.06-.04.08-.15.08-.31h0c-.06.05-.15.05-.26-.01-.17-.1-.31-.35-.31-.55,0-.2.14-.29.33-.18.09.05.16.13.22.21.11.16.14.33.14.58,0,.22-.04.36-.13.4-.06.02-.13.01-.22-.04-.19-.11-.32-.31-.33-.51ZM36.75,107.11c0-.15-.1-.32-.23-.39s-.22-.02-.22.13.1.32.22.39c.14.08.23.03.23-.13Z"/>
          <path class="cls-3" d="M36.97,108.12s.06,0,.06-.1l-.06-.04v-.16l.13.08v.16c0,.12-.05.15-.13.12v-.07Z"/>
          <path class="cls-3" d="M37.19,107.8l.11.07c.02.14.1.28.23.35s.22.02.22-.14-.1-.32-.22-.39c-.1-.06-.17-.05-.21,0l-.11-.06.1-.52.5.29v.12l-.42-.24-.06.29h0c.05-.03.12-.02.22.03.17.1.32.32.32.56,0,.23-.14.3-.34.18s-.34-.33-.35-.54Z"/>
          <path class="cls-3" d="M38.4,108.55l-.44-.26v-.12l.47-.44.09.05v.73l.16.09v.11s-.16-.09-.16-.09v.27s-.11-.07-.11-.07v-.27ZM38.07,108.25l.33.19v-.51h0s-.33.31-.33.31h0Z"/>
          <path class="cls-3" d="M38.73,108.69l.11.07c.02.14.1.28.23.35s.22.02.22-.14-.1-.32-.22-.39c-.1-.06-.17-.05-.21,0l-.11-.06.1-.52.5.29v.12l-.42-.24-.06.29h0c.05-.03.12-.02.22.03.17.1.32.32.32.56s-.14.3-.34.18-.34-.33-.35-.54Z"/>
        </g>
        <g>
          <g>
            <polygon class="cls-3" points="47.15 111.14 46.62 110.83 46.62 113.56 47.15 113.86 47.15 111.14"/>
            <polygon class="cls-3" points="47.75 111.48 47.22 111.18 47.22 113.91 47.75 114.21 47.75 111.48"/>
            <polygon class="cls-3" points="48.35 111.83 47.82 111.53 47.82 114.25 48.35 114.55 48.35 111.83"/>
          </g>
          <path class="cls-3" d="M48.5,112.22c0-.18.11-.24.26-.16s.26.28.26.46-.12.24-.26.16-.26-.28-.26-.46ZM48.99,112.5c0-.16-.1-.33-.23-.41s-.23-.01-.23.14c0,.16.1.33.23.41s.23.02.23-.14ZM48.65,112.14l.14.08c.05.03.09.09.09.15,0,.04-.02.06-.05.05h0s.04.06.05.1c0,.05,0,.08.01.09h0s-.05-.03-.05-.03c0,0,0-.04-.01-.08,0-.04-.02-.07-.05-.09l-.06-.04v.13s-.05-.03-.05-.03v-.34ZM48.71,112.32l.07.04s.05,0,.05-.02c0-.03-.01-.06-.05-.08l-.07-.04v.1Z"/>
        </g>
        <path class="cls-3" d="M34.9,99.3l.21.12.35,1.33-.21-.12-.07-.28-.35-.2-.06.2-.2-.12.34-.94ZM34.87,100l.26.15-.09-.38c-.02-.07-.04-.2-.04-.2h0s-.02.1-.04.15l-.09.28Z"/>
        <path class="cls-3" d="M35.7,100.22h0c.04-.07.09-.08.17-.04.02.01.03.02.04.03v.19h0c-.12-.09-.21-.06-.21.11v.4l-.19-.11v-.81s.18.1.18.1v.13Z"/>
        <path class="cls-3" d="M35.94,100.63c0-.24.14-.35.35-.23.23.13.35.4.35.69l-.51-.3c.01.13.07.25.18.31.07.04.12.03.14-.02l.18.11c-.03.13-.14.19-.32.08-.23-.13-.37-.4-.37-.64ZM36.13,100.66l.31.18c0-.11-.06-.21-.15-.26-.1-.06-.15-.02-.16.08Z"/>
        <path class="cls-3" d="M37.15,101.64s-.09.06-.21,0c-.14-.08-.24-.23-.24-.39,0-.18.13-.17.28-.1.12.05.17.07.17,0,0-.06-.04-.12-.12-.17-.09-.05-.13-.04-.13.04l-.17-.1c0-.14.09-.21.3-.09s.3.28.3.47v.33c0,.05,0,.08.05.09h0v.13s-.04,0-.08-.03c-.09-.05-.13-.11-.15-.2ZM37.15,101.45v-.12s-.08-.01-.13-.03c-.1-.03-.15-.03-.15.04s.04.13.11.17c.11.06.17.02.17-.06Z"/>
        <path class="cls-3" d="M37.44,101.2l.2.12v.23l-.2-.12v-.23ZM37.44,101.68l.2.12v.23l-.2-.12v-.23Z"/>
        <path class="cls-3" d="M34.74,101.86c-.1-.16-.13-.33-.13-.55,0-.34.13-.49.36-.35.19.11.28.31.3.47l-.11-.07c0-.11-.07-.23-.18-.29-.18-.11-.25.03-.25.29h0c.06-.06.15-.06.26,0,.17.1.31.34.31.54,0,.2-.14.29-.32.19-.1-.06-.18-.14-.23-.23ZM35.19,101.85c0-.15-.09-.31-.22-.38-.13-.08-.23-.03-.23.13,0,.15.1.32.23.39.12.07.21.02.21-.14Z"/>
        <path class="cls-3" d="M35.39,102c0-.16.09-.19.19-.17h0c-.09-.09-.15-.21-.15-.32,0-.17.14-.21.31-.11s.31.29.31.46c0,.11-.06.16-.14.15h0c.11.1.19.25.19.4,0,.25-.18.23-.35.13s-.36-.3-.36-.54ZM35.99,102.35c0-.14-.09-.28-.24-.37s-.24-.05-.24.09.09.28.24.36.24.05.24-.09ZM35.95,101.81c0-.11-.08-.22-.2-.29s-.2-.05-.2.06c0,.11.08.22.2.29s.2.05.2-.06Z"/>
        <path class="cls-3" d="M36.21,102.63l.13.08v.16l-.13-.08v-.16Z"/>
        <path class="cls-3" d="M36.43,102.55l.11.07c0,.18.1.33.26.42.13.08.22.05.22-.1,0-.14-.09-.26-.25-.35l-.06-.03v-.1l.06.03c.15.08.22.06.22-.06s-.09-.24-.2-.31c-.14-.08-.22-.02-.22.13l-.11-.07c0-.21.13-.28.33-.16.17.1.31.29.31.48,0,.12-.06.16-.16.14h0c.13.12.19.25.19.39,0,.21-.15.24-.34.13-.21-.12-.37-.35-.38-.6Z"/>
        <path class="cls-3" d="M37.44,103.23l.11.07c.02.15.1.24.2.3.12.07.16.04.16-.04,0-.09-.05-.15-.19-.25-.14-.11-.27-.22-.27-.4,0-.14.09-.17.26-.08.18.1.26.25.28.42l-.11-.07c-.01-.11-.06-.19-.17-.25s-.14-.03-.14.03c0,.09.07.15.19.25.14.12.26.22.26.41,0,.17-.12.18-.28.09-.2-.11-.3-.28-.31-.47Z"/>
        <path class="cls-3" d="M38.65,104.09h0c-.05.05-.12.05-.22,0-.19-.11-.31-.35-.31-.61s.13-.36.31-.26c.1.06.17.15.22.26h0s0-.11,0-.11l.11.06v1.08s-.11-.06-.11-.06v-.36ZM38.66,103.79c0-.19-.07-.36-.23-.45-.13-.08-.2.02-.2.21s.06.36.2.44c.16.09.22,0,.22-.19Z"/>
        <path class="cls-3" d="M39.36,104.61v-.11h0c-.05.05-.11.07-.21,0-.15-.08-.24-.24-.24-.41v-.57s.11.06.11.06v.56c0,.11.06.2.16.26.11.07.19,0,.19-.12v-.5s.11.06.11.06v.82s-.11-.06-.11-.06Z"/>
        <path class="cls-3" d="M40.06,104.9h0s-.11.06-.23,0c-.13-.08-.24-.22-.24-.37,0-.19.13-.16.31-.08.11.05.17.06.17-.03s-.05-.18-.16-.23c-.12-.07-.17-.04-.18.08l-.11-.06c0-.15.1-.22.29-.11.15.09.26.21.26.41v.46c0,.06.01.11.03.13h0s-.11-.06-.11-.06c-.01-.02-.02-.05-.02-.13ZM40.07,104.71v-.13s-.1-.02-.16-.04c-.12-.05-.2-.07-.2.04,0,.11.08.18.15.22.15.09.21,0,.21-.1Z"/>
        <path class="cls-3" d="M40.42,104.53h0c.04-.05.12-.08.21-.02.02.01.03.02.05.04v.12s0,0,0,0c-.02-.02-.03-.02-.05-.04-.11-.06-.21-.02-.21.13v.46s-.11-.06-.11-.06v-.82s.11.06.11.06v.14Z"/>
        <path class="cls-3" d="M40.72,104.98c0-.24.13-.35.34-.24.21.12.33.38.33.65l-.55-.32c0,.17.09.34.23.43.1.06.17.04.2-.05l.11.06c-.03.16-.14.19-.31.1-.22-.13-.34-.39-.34-.63ZM40.83,104.98l.43.25c0-.17-.08-.31-.21-.38s-.2,0-.22.14Z"/>
        <path class="cls-3" d="M41.71,105.14l.11.06v.12h0c.04-.05.12-.07.21-.01s.16.14.19.25h0c.05-.07.13-.07.22-.02.13.07.22.22.22.39v.58s-.11-.06-.11-.06v-.57c0-.1-.06-.2-.13-.24-.09-.05-.17,0-.17.12v.51s-.11-.06-.11-.06v-.57c0-.1-.05-.19-.12-.23-.09-.05-.18-.01-.18.11v.51l-.11-.06v-.82Z"/>
        <path class="cls-3" d="M42.8,105.45l.11.06v.16l-.11-.06v-.16ZM42.8,105.77l.11.06v.82s-.11-.06-.11-.06v-.82Z"/>
        <path class="cls-3" d="M43.07,105.61l.11.06v1.13s-.11-.06-.11-.06v-1.13Z"/>
        <path class="cls-3" d="M43.29,106.46c0-.24.13-.35.34-.24.21.12.33.38.33.65l-.55-.32c0,.17.09.34.23.43.1.06.17.04.2-.05l.11.06c-.03.16-.14.19-.31.1-.22-.13-.34-.39-.34-.63ZM43.41,106.47l.43.25c0-.17-.08-.31-.21-.38s-.2,0-.22.14Z"/>
        <path class="cls-3" d="M44.02,107.03l.11.07c.02.15.1.24.2.3.12.07.16.04.16-.04,0-.09-.05-.15-.19-.25-.14-.11-.27-.22-.27-.4,0-.14.09-.17.26-.08.18.1.26.25.28.42l-.11-.07c-.01-.11-.06-.19-.17-.25s-.14-.03-.14.03c0,.09.07.15.19.25.14.12.26.22.26.41,0,.17-.12.18-.28.09-.2-.11-.3-.28-.31-.47Z"/>
      </g>
      <g>
        <path class="cls-1" d="M50.69,119.06c-.09,0-.17-.02-.25-.07L.25,90.01c-.15-.09-.25-.25-.25-.43V3.04c0-.18.1-.35.26-.44L4.91.06c.15-.08.34-.08.49,0l50.19,28.98c.15.09.25.25.25.43v86.53c0,.18-.1.35-.26.44l-4.65,2.54c-.08.04-.16.06-.24.06ZM1,89.29l49.7,28.69,4.14-2.27V29.77L5.14,1.07,1,3.34v85.95Z"/>
        <rect class="cls-1" x="50.37" y="30.5" width="5.29" height=".5" transform="translate(-8.25 29.25) rotate(-28.72)"/>
        <rect class="cls-1" x="25.35" y="-11.45" width=".5" height="57.96" transform="translate(-2.39 30.93) rotate(-60)"/>
        <rect class="cls-1" x="50.44" y="32.02" width=".5" height="86.53"/>
      </g>
    </g>
  </g>
</svg>