<?xml version="1.0" encoding="UTF-8"?>
<svg id="Layer_2" data-name="Layer 2" xmlns="http://www.w3.org/2000/svg" viewBox="0 0 55.84 119.06">
  <defs>
    <style>
      .cls-1, .cls-2, .cls-3 {
        stroke-width: 0px;
      }

      .cls-2 {
        fill: #584681;
      }

      .cls-3 {
        fill: #d2dcde;
      }
    </style>
  </defs>
  <g id="Layer_1-2" data-name="Layer 1">
    <g>
      <g>
        <polygon class="cls-3" points="55.33 89.58 5.14 118.56 5.14 32.02 55.33 3.05 55.33 89.58"/>
        <g>
          <path class="cls-2" d="M15.49,52.61v-16.23c0-1.59-.23-1.79-1.08-1.3-.92.53-1.08,1.04-1.08,2.55v16.23s-5.84,3.37-5.84,3.37v-16.23c0-5.52,2.54-9.58,6.92-12.11,4.38-2.53,6.92-1.4,6.92,4.12v16.23c0,8.2-7.99,14.99-7.99,22.68v23.76s2.15-1.24,2.15-1.24v-25.93s5.84-3.37,5.84-3.37v32.12s-13.83,7.99-13.83,7.99v-29.95c0-9.62,7.99-16.99,7.99-22.68Z"/>
          <path class="cls-2" d="M30.24,92.61c-4.38,2.53-6.92,1.4-6.92-4.12V31.86c0-5.52,2.54-9.58,6.92-12.11s6.92-1.4,6.92,4.12v56.63c0,5.52-2.54,9.58-6.92,12.11ZM30.24,25.94c-.92.53-1.08,1.04-1.08,2.55v56.63c0,1.59.23,1.79,1.08,1.3.92-.53,1.08-.96,1.08-2.55V27.25c0-1.59-.23-1.79-1.08-1.3Z"/>
          <path class="cls-2" d="M46.07,10.61c4.38-2.53,6.92-1.4,6.92,4.12v16.23s-5.84,3.37-5.84,3.37v-16.23c0-1.59-.23-1.79-1.08-1.3-.92.53-1.08,1.12-1.08,2.55v20.58c.77-1.87,2-3.24,3.61-4.18,2.77-1.6,4.38-.69,4.38,3.33v32.29c0,5.69-2.54,9.58-6.92,12.11s-6.92,1.4-6.92-4.12V22.72c0-5.52,2.54-9.58,6.92-12.11ZM46.07,41.14c-.92.53-1.08,1.04-1.08,2.55v32.29c0,1.59.15,1.84,1.08,1.3.85-.49,1.08-.96,1.08-2.55v-32.29c0-1.59-.23-1.79-1.08-1.3Z"/>
        </g>
        <g>
          <path class="cls-2" d="M7.44,113.74l.47-.27c.03.31.19.34.53.15.24-.14.46-.36.46-.62,0-.27-.22-.19-.58-.08-.42.13-.81.23-.81-.34,0-.54.38-1.03.9-1.34s.87-.2.91.32l-.46.26c-.03-.26-.21-.29-.46-.15-.26.15-.43.37-.43.57,0,.22.16.19.51.08.49-.16.88-.25.88.33,0,.55-.39,1.08-.92,1.39-.64.37-1,.25-1.02-.31Z"/>
          <path class="cls-2" d="M9.54,112.39c0-.58.34-1.22.83-1.51.54-.31.83,0,.83.7l-1.23.71c.03.28.18.38.43.24.17-.1.28-.25.33-.43l.44-.26c-.06.38-.33.83-.77,1.08-.56.32-.88.05-.88-.53ZM9.99,111.92l.75-.43c-.01-.24-.16-.33-.36-.21-.24.14-.35.37-.39.65Z"/>
          <path class="cls-2" d="M12.44,111.46c-.09.2-.22.41-.51.58-.35.2-.58.13-.58-.26,0-.43.3-.75.68-1.02.28-.21.41-.31.41-.46s-.11-.17-.3-.06c-.21.12-.31.26-.32.46l-.4.23c0-.35.23-.78.73-1.06s.73-.16.73.3v.8c0,.13.02.16.12.08h0s0,.31,0,.31c-.04.05-.09.1-.19.16-.21.12-.32.11-.36-.06ZM12.44,111.01v-.29c-.08.1-.2.2-.31.3-.23.2-.35.32-.35.5,0,.18.11.19.26.1.26-.15.4-.41.4-.6Z"/>
          <path class="cls-2" d="M13.02,109.41l.23-.14v-.61l.44-.25v.61s.29-.17.29-.17v.34l-.29.17v1.04c0,.14.07.15.17.1.06-.03.13-.08.13-.08v.38s-.1.07-.28.17c-.22.13-.46.17-.46-.2v-1.15s-.23.14-.23.14v-.34Z"/>
          <path class="cls-2" d="M14.08,108.79l.23-.14v-.61l.44-.25v.61l.29-.17v.34l-.29.17v1.04c0,.14.07.15.17.1.06-.03.13-.08.13-.08v.38s-.1.07-.28.17c-.22.13-.46.17-.46-.2v-1.15s-.23.14-.23.14v-.34Z"/>
          <path class="cls-2" d="M15.28,107.33l.45-.26v2.72l-.45.26v-2.72Z"/>
          <path class="cls-2" d="M15.94,108.69c0-.58.34-1.22.83-1.51.54-.31.83,0,.83.7l-1.23.71c.03.28.18.38.43.24.17-.1.28-.25.33-.43l.44-.26c-.06.38-.33.83-.77,1.08-.56.32-.88.05-.88-.53ZM16.39,108.22l.75-.43c-.01-.24-.16-.33-.36-.21-.24.14-.35.37-.39.65Z"/>
          <path class="cls-2" d="M17.78,109.06c.13-.15.24-.35.24-.58l-.24.14v-.55l.48-.28v.52c0,.39-.22.74-.48.94v-.19Z"/>
          <path class="cls-2" d="M18.95,105.21l.49-.28.31,1.18c.05.21.1.54.1.54h0s.06-.38.11-.65l.26-1.52.46-.27.26,1.22c.05.21.11.52.11.52h0s.07-.41.12-.67l.3-1.52.47-.27-.67,3.11-.45.26-.29-1.29c-.04-.18-.08-.44-.08-.44h0s-.04.31-.08.53l-.29,1.63-.44.26-.69-2.33Z"/>
          <path class="cls-2" d="M22.6,103.1l.49-.29.83,2.24-.5.29-.16-.49-.85.49-.16.67-.48.28.82-3.2ZM22.54,104.86l.62-.36-.21-.66c-.04-.12-.1-.36-.1-.36h0s-.06.31-.1.48l-.21.91Z"/>
        </g>
        <g>
          <path class="cls-2" d="M7.97,107.66l-.44.26v-.12l.47-.98.09-.05v.73s.16-.09.16-.09v.11l-.16.09v.27l-.11.07v-.27ZM7.64,107.74l.33-.19v-.51s0,0,0,0l-.33.69h0Z"/>
          <path class="cls-2" d="M8.83,106.46h0s-.54.31-.54.31v-.12l.66-.38v.11c-.19.31-.38.77-.4,1.21l-.12.07c.02-.39.19-.88.4-1.2Z"/>
          <path class="cls-2" d="M8.94,107.21l.13-.08v.16l-.13.08v-.16Z"/>
          <path class="cls-2" d="M9.29,107.09c-.1-.05-.13-.18-.13-.4,0-.34.13-.63.36-.77.19-.11.28-.02.3.13l-.11.07c0-.1-.07-.15-.18-.08-.18.11-.25.32-.25.58h0c.06-.13.15-.24.26-.3.17-.1.31-.01.31.19,0,.2-.14.45-.32.55-.1.06-.18.07-.24.04ZM9.73,106.56c0-.15-.09-.21-.22-.14-.13.08-.23.23-.23.39s.1.2.23.13c.12-.07.21-.23.21-.38Z"/>
          <path class="cls-2" d="M9.95,106.23c0-.35.14-.65.37-.78s.36,0,.36.36c0,.35-.13.64-.37.78s-.37-.01-.37-.36ZM10.56,105.88c0-.28-.08-.41-.24-.31s-.25.32-.25.6c0,.28.08.41.25.31s.24-.31.24-.59Z"/>
          <path class="cls-2" d="M10.94,106.14c-.1-.05-.13-.18-.13-.4,0-.34.13-.63.36-.77.19-.11.28-.02.3.13l-.11.07c0-.1-.07-.15-.18-.08-.18.11-.25.32-.25.58h0c.06-.13.15-.24.26-.3.17-.1.31-.01.31.19,0,.2-.14.45-.32.55-.1.06-.18.07-.24.04ZM11.38,105.61c0-.15-.09-.21-.22-.14-.13.08-.23.23-.23.39s.1.2.23.13c.12-.07.21-.23.21-.38Z"/>
          <path class="cls-2" d="M11.93,105.13c.12-.15.2-.25.2-.38,0-.13-.08-.18-.2-.11-.07.04-.12.09-.15.15-.04.07-.05.14-.05.25l-.12.07c0-.14.03-.25.09-.35.06-.1.15-.19.24-.24.19-.11.31-.04.31.15,0,.21-.12.35-.27.53-.1.12-.23.29-.26.42l.51-.3v.13l-.65.38c.01-.3.19-.51.35-.71Z"/>
          <path class="cls-2" d="M12.34,104.48c0-.11.08-.24.17-.29s.17-.01.17.1-.08.24-.17.29-.17.01-.17-.1ZM12.61,104.33c0-.07-.04-.1-.1-.06s-.1.11-.1.18.04.1.1.07.1-.11.1-.18Z"/>
          <path class="cls-2" d="M13.04,103.86l.13-.08.45.53s.07.1.07.1h0v-.94l.12-.07v1.13l-.13.07-.45-.53s-.07-.1-.07-.1h0v.93l-.12.07v-1.13Z"/>
        </g>
        <g>
          <path class="cls-2" d="M23.58,98.12l-.21.12v-.09c.12-.07.21-.18.23-.35l.09-.05v1.09l-.12.07v-.79Z"/>
          <path class="cls-2" d="M24.2,98.05c.12-.15.2-.25.2-.38s-.08-.18-.2-.11c-.07.04-.12.09-.15.15-.04.07-.05.14-.05.25l-.12.07c0-.14.03-.25.09-.35.06-.1.15-.19.24-.24.19-.11.31-.04.31.15,0,.21-.12.35-.27.53-.1.12-.23.29-.26.42l.51-.3v.13l-.65.38c.01-.3.19-.51.35-.71Z"/>
          <path class="cls-2" d="M24.96,97.61c.12-.15.2-.25.2-.38s-.08-.18-.2-.11c-.07.04-.12.09-.15.15-.04.07-.05.14-.05.25l-.12.07c0-.14.03-.25.09-.35.06-.1.15-.19.24-.24.19-.11.31-.04.31.15,0,.21-.12.35-.27.53-.1.12-.23.29-.26.42l.51-.3v.13l-.65.38c.01-.3.19-.51.35-.71Z"/>
          <path class="cls-2" d="M25.39,97.71l.13-.08v.16l-.13.08v-.16Z"/>
          <path class="cls-2" d="M25.61,97.38l.11-.07c0,.17.1.21.26.12.13-.08.22-.2.22-.36,0-.14-.09-.16-.25-.07l-.06.03v-.1l.06-.03c.15-.08.22-.2.22-.31s-.09-.14-.2-.07c-.14.08-.22.23-.22.38l-.11.07c0-.22.13-.43.33-.55.17-.1.31-.07.31.12,0,.12-.06.23-.16.32h0c.13-.03.19.03.19.17,0,.21-.15.41-.34.52-.21.12-.37.08-.38-.17Z"/>
          <path class="cls-2" d="M26.39,96.93l.11-.07c0,.17.1.21.26.12.13-.08.22-.2.22-.36,0-.14-.09-.16-.25-.07l-.06.03v-.1l.06-.03c.15-.08.22-.2.22-.31s-.09-.14-.2-.07c-.14.08-.22.23-.22.38l-.11.07c0-.22.13-.43.33-.55.17-.1.31-.07.31.12,0,.12-.06.23-.16.32h0c.13-.03.19.03.19.17,0,.21-.15.41-.34.52-.21.12-.37.08-.38-.17Z"/>
          <path class="cls-2" d="M27.54,96.12c.12-.15.2-.25.2-.38s-.08-.18-.2-.11c-.07.04-.12.09-.15.15-.04.07-.05.14-.05.25l-.12.07c0-.14.03-.25.09-.35.06-.1.15-.19.24-.24.19-.11.31-.04.31.15,0,.21-.12.35-.27.53-.1.12-.23.29-.26.42l.51-.3v.13l-.65.38c.01-.3.19-.51.35-.71Z"/>
          <path class="cls-2" d="M28.17,95.47l-.21.12v-.09c.12-.07.21-.18.23-.35l.09-.05v1.09l-.12.07v-.79Z"/>
          <path class="cls-2" d="M28.44,95.19c0-.11.08-.24.17-.29s.17-.01.17.1-.08.24-.17.29-.17.01-.17-.1ZM28.7,95.04c0-.07-.04-.1-.1-.06s-.1.11-.1.18.04.1.1.07.1-.11.1-.18Z"/>
          <path class="cls-2" d="M29.06,94.61l.13-.07.16.65c.02.07.04.17.04.17h0s.02-.14.04-.22l.18-.84.13-.08.17.64c.02.07.04.17.04.17h0s.02-.14.04-.22l.16-.83.13-.07-.27,1.29-.12.07-.18-.7c-.02-.06-.04-.15-.04-.15h0s-.02.12-.04.2l-.19.91-.12.07-.25-.99Z"/>
        </g>
        <g>
          <path class="cls-2" d="M39.27,93.48l.43-.25c.11-.07.2-.08.26-.04.06.03.09.1.09.21,0,.21-.12.43-.33.55l-.24.14v.41l-.21.12v-1.13ZM39.47,93.9l.21-.12c.1-.06.16-.16.16-.26s-.06-.13-.16-.08l-.21.12v.34Z"/>
          <path class="cls-2" d="M40.07,93.74c0-.24.15-.52.37-.64s.37-.03.37.22c0,.24-.15.52-.37.64s-.37.03-.37-.22ZM40.62,93.43c0-.16-.06-.23-.18-.16s-.18.21-.18.37c0,.16.06.23.18.16s.18-.21.18-.37Z"/>
          <path class="cls-2" d="M40.9,92.86l.18-.1v.1h0c.05-.1.11-.19.21-.25.19-.11.31,0,.31.25,0,.26-.12.5-.31.61-.1.06-.16.05-.2,0h0v.36l-.19.11v-1.08ZM41.41,92.98c0-.15-.05-.23-.16-.17s-.16.21-.16.36.06.21.17.15c.09-.05.16-.18.16-.33Z"/>
          <path class="cls-2" d="M42.13,92.97v-.1h0c-.05.1-.1.18-.2.24-.16.09-.24.03-.24-.15v-.54l.19-.11v.51c0,.1.04.13.12.08.09-.05.14-.16.14-.27v-.47l.19-.11v.81l-.18.1Z"/>
          <path class="cls-2" d="M42.43,91.65l.19-.11v1.13l-.19.11v-1.13Z"/>
          <path class="cls-2" d="M43.17,92.27c-.04.08-.09.17-.21.24-.14.08-.24.05-.24-.11,0-.18.13-.31.28-.43.12-.09.17-.13.17-.19,0-.06-.04-.07-.12-.02-.09.05-.13.11-.13.19l-.17.1c0-.15.09-.32.3-.44s.3-.07.3.13v.33c0,.05,0,.07.05.04h0s0,.13,0,.13c-.02.02-.04.04-.08.06-.09.05-.13.05-.15-.02ZM43.17,92.08v-.12s-.08.08-.13.12c-.1.08-.15.13-.15.21s.04.08.11.04c.11-.06.17-.17.17-.25Z"/>
          <path class="cls-2" d="M43.41,91.41l.1-.06v-.25l.18-.11v.25l.12-.07v.14l-.12.07v.43c0,.06.03.06.07.04.02-.01.05-.03.05-.03v.16s-.04.03-.12.07c-.09.05-.19.07-.19-.08v-.48s-.1.06-.1.06v-.14Z"/>
          <path class="cls-2" d="M43.91,90.8l.19-.11v.19l-.19.11v-.19ZM43.91,91.13l.19-.11v.81l-.19.11v-.81Z"/>
          <path class="cls-2" d="M44.18,91.38c0-.24.15-.52.37-.64s.37-.03.37.22c0,.24-.15.52-.37.64s-.37.03-.37-.22ZM44.73,91.06c0-.16-.06-.23-.18-.16s-.18.21-.18.37.06.23.18.16.18-.21.18-.37Z"/>
          <path class="cls-2" d="M45.19,90.5h0c.05-.12.11-.2.21-.26.15-.08.24-.01.24.16v.53l-.19.11v-.5c0-.09-.04-.12-.12-.08-.08.05-.14.16-.14.27v.46l-.19.11v-.81l.18-.11v.11Z"/>
          <path class="cls-2" d="M45.75,90.17l.2-.12v.23l-.2.12v-.23ZM45.75,90.64l.2-.12v.23l-.2.12v-.23Z"/>
          <path class="cls-2" d="M39.76,94.95h0s-.54.31-.54.31v-.12l.66-.38v.11c-.19.31-.38.77-.4,1.21l-.12.07c.02-.39.19-.88.4-1.2Z"/>
          <path class="cls-2" d="M40.07,95.67c-.1-.05-.13-.18-.13-.4,0-.34.13-.63.36-.77.19-.11.28-.02.3.13l-.11.07c0-.1-.07-.15-.18-.08-.18.11-.25.32-.25.58h0c.06-.13.15-.24.26-.3.17-.1.31-.01.31.19,0,.2-.14.45-.32.55-.1.06-.18.07-.23.04ZM40.52,95.14c0-.15-.09-.21-.22-.14-.13.08-.23.23-.23.39s.1.2.23.13c.12-.07.21-.23.21-.38Z"/>
          <path class="cls-2" d="M40.73,95.07l.12-.07c0,.11.08.16.21.09.07-.04.12-.09.16-.16.06-.1.08-.24.08-.4h0c-.06.12-.15.22-.26.29-.17.1-.31.02-.31-.18,0-.2.14-.45.33-.56.09-.05.16-.06.22-.04.11.03.14.17.14.41,0,.22-.04.4-.13.55-.06.09-.13.16-.22.21-.19.11-.32.06-.33-.13ZM41.28,94.3c0-.15-.1-.2-.23-.13s-.22.23-.22.39.1.2.22.13c.14-.08.23-.24.23-.39Z"/>
          <path class="cls-2" d="M41.5,95.05s.06-.08.06-.17l-.06.04v-.16l.13-.08v.16c0,.12-.05.21-.13.27v-.07Z"/>
          <path class="cls-2" d="M42.22,93.54h0s-.54.31-.54.31v-.12l.66-.38v.11c-.19.31-.38.77-.4,1.21l-.12.07c.02-.39.19-.88.4-1.2Z"/>
          <path class="cls-2" d="M42.61,93.49l-.21.12v-.09c.12-.07.21-.18.23-.35l.09-.05v1.09l-.12.07v-.79Z"/>
          <path class="cls-2" d="M43.31,93.61l-.44.26v-.12l.47-.98.09-.05v.73s.16-.09.16-.09v.11l-.16.09v.27l-.11.07v-.27ZM42.98,93.69l.33-.19v-.51s0,0,0,0l-.33.7h0Z"/>
        </g>
        <g>
          <g>
            <polygon class="cls-2" points="51.79 86.25 51.27 86.55 51.27 89.28 51.79 88.97 51.79 86.25"/>
            <polygon class="cls-2" points="52.39 85.9 51.87 86.21 51.87 88.93 52.39 88.63 52.39 85.9"/>
            <polygon class="cls-2" points="52.99 85.56 52.47 85.86 52.47 88.58 52.99 88.28 52.99 85.56"/>
          </g>
          <path class="cls-2" d="M53.14,85.77c0-.18.11-.37.26-.46s.26-.02.26.16-.12.37-.26.46-.26.02-.26-.16ZM53.63,85.49c0-.16-.1-.22-.23-.14s-.23.25-.23.41.1.22.23.14.23-.25.23-.41ZM53.3,85.51l.14-.08c.05-.03.09-.02.09.04,0,.04-.02.08-.05.11h0s.04,0,.05.05c0,.05,0,.07.01.07h0s-.05.04-.05.04c0,0,0-.03-.01-.07,0-.04-.02-.05-.05-.03l-.06.04v.13l-.05.03v-.34ZM53.35,85.63l.07-.04s.05-.05.05-.08c0-.03-.01-.04-.05-.02l-.07.04v.1Z"/>
        </g>
        <path class="cls-2" d="M39.54,88.56l.21-.12.35.93-.21.12-.07-.2-.35.2-.06.28-.2.12.34-1.33ZM39.51,89.3l.26-.15-.09-.28c-.02-.05-.04-.15-.04-.15h0s-.02.13-.04.2l-.09.38Z"/>
        <path class="cls-2" d="M40.34,88.55h0c.04-.12.09-.19.17-.24.02-.01.03-.02.04-.02v.19h0c-.12.06-.21.18-.21.36v.4l-.19.11v-.81l.18-.1v.13Z"/>
        <path class="cls-2" d="M40.59,88.68c0-.24.14-.51.35-.63.23-.13.35,0,.35.29l-.51.3c.01.12.07.16.18.1.07-.04.12-.1.14-.18l.18-.11c-.03.16-.14.35-.32.45-.23.13-.37.02-.37-.22ZM40.77,88.49l.31-.18c0-.1-.06-.14-.15-.09-.1.06-.15.15-.16.27Z"/>
        <path class="cls-2" d="M41.79,88.3c-.04.08-.09.17-.21.24-.14.08-.24.05-.24-.11,0-.18.13-.31.28-.43.12-.09.17-.13.17-.19,0-.06-.04-.07-.12-.02-.09.05-.13.11-.13.19l-.17.1c0-.15.09-.32.3-.44s.3-.07.3.13v.33c0,.05,0,.07.05.04h0s0,.13,0,.13c-.02.02-.04.04-.08.06-.09.05-.13.05-.15-.02ZM41.79,88.11v-.12s-.08.08-.13.12c-.1.08-.15.13-.15.21s.04.08.11.04c.11-.06.17-.17.17-.25Z"/>
        <path class="cls-2" d="M42.09,87.52l.2-.12v.23l-.2.12v-.23ZM42.09,87.99l.2-.12v.23l-.2.12v-.23Z"/>
        <path class="cls-2" d="M39.24,91.15c0-.16.09-.29.19-.39h0c-.09,0-.15-.04-.15-.15,0-.17.14-.36.31-.46s.31-.07.31.11c0,.11-.06.22-.14.31h0c.11-.02.19.03.19.18,0,.25-.18.44-.35.54s-.36.12-.36-.13ZM39.83,90.8c0-.14-.09-.18-.24-.09s-.24.23-.24.37.09.17.24.08.24-.22.24-.36ZM39.79,90.31c0-.11-.08-.13-.2-.06s-.2.18-.2.29.08.13.2.06.2-.18.2-.29Z"/>
        <path class="cls-2" d="M40.02,90.65l.11-.07c0,.17.1.21.26.12.13-.08.22-.2.22-.36,0-.14-.09-.16-.25-.07l-.06.03v-.1l.06-.03c.15-.08.22-.2.22-.31s-.09-.14-.2-.07c-.14.08-.22.23-.22.38l-.11.07c0-.22.13-.43.33-.55.17-.1.31-.07.31.12,0,.12-.06.23-.16.32h0c.13-.03.19.03.19.17,0,.21-.15.41-.34.52-.21.12-.37.08-.38-.17Z"/>
        <path class="cls-2" d="M40.84,90.38l.13-.08v.16l-.13.08v-.16Z"/>
        <path class="cls-2" d="M41.08,90.09c0-.16.09-.29.19-.39h0c-.09,0-.15-.04-.15-.15,0-.17.14-.36.31-.46s.31-.07.31.11c0,.11-.06.22-.14.31h0c.11-.02.19.03.19.18,0,.25-.18.44-.35.54s-.36.12-.36-.13ZM41.67,89.74c0-.14-.09-.18-.24-.09s-.24.23-.24.37c0,.14.09.17.24.08s.24-.22.24-.36ZM41.63,89.25c0-.11-.08-.13-.2-.06s-.2.18-.2.29.08.13.2.06.2-.18.2-.29Z"/>
        <path class="cls-2" d="M42.08,89.55l.11-.07c.02.13.1.13.2.07.12-.07.16-.15.16-.23,0-.09-.05-.08-.19-.04-.14.05-.27.09-.27-.09,0-.14.09-.28.26-.37.18-.1.26-.05.28.1l-.11.07c-.01-.1-.06-.12-.17-.06s-.14.13-.14.2c0,.09.07.07.19.02.14-.05.26-.08.26.11,0,.17-.12.32-.28.41-.2.11-.3.07-.31-.11Z"/>
        <path class="cls-2" d="M43.3,89.01h0c-.05.11-.12.19-.22.25-.19.11-.31.01-.31-.25,0-.27.13-.51.31-.61.1-.06.17-.05.22,0h0v-.11l.11-.06v1.08l-.11.06v-.36ZM43.3,88.7c0-.19-.07-.28-.23-.19-.13.08-.2.25-.2.44s.06.28.2.21c.16-.09.22-.27.22-.45Z"/>
        <path class="cls-2" d="M44.01,88.7v-.11h0c-.05.11-.11.2-.21.26-.15.08-.24.04-.24-.13v-.57l.11-.06v.56c0,.11.06.13.16.08.11-.07.19-.21.19-.34v-.5l.11-.06v.82l-.11.06Z"/>
        <path class="cls-2" d="M44.71,88.19h0c-.04.09-.11.19-.23.26-.13.08-.24.06-.24-.09,0-.19.13-.31.31-.44.11-.08.17-.13.17-.22s-.05-.11-.16-.05c-.12.07-.17.16-.18.29l-.11.06c0-.16.1-.34.29-.44.15-.09.26-.08.26.11v.46c0,.06.01.1.03.1h0s-.11.07-.11.07c-.01,0-.02-.03-.02-.1ZM44.71,87.99v-.13s-.1.1-.16.15c-.12.09-.2.15-.2.27,0,.11.08.09.15.05.15-.09.21-.25.21-.34Z"/>
        <path class="cls-2" d="M45.07,87.41h0c.04-.11.12-.22.21-.27.02-.01.03-.02.05-.02v.12h0s-.03.01-.05.02c-.11.06-.21.21-.21.37v.46l-.11.06v-.82l.11-.06v.14Z"/>
        <path class="cls-2" d="M45.37,87.51c0-.24.13-.51.34-.63.21-.12.33,0,.33.27l-.55.32c0,.16.09.24.23.16.1-.06.17-.16.2-.28l.11-.06c-.03.2-.14.36-.31.45-.22.13-.34,0-.34-.23ZM45.48,87.38l.43-.25c0-.16-.08-.22-.21-.14s-.2.23-.22.39Z"/>
        <path class="cls-2" d="M46.36,86.53l.11-.06v.12s0,0,0,0c.04-.1.12-.21.21-.26s.16-.04.19.04h0c.05-.12.13-.22.22-.27.13-.07.22-.03.22.14v.58l-.11.06v-.57c0-.1-.06-.13-.13-.09-.09.05-.17.19-.17.32v.51l-.11.06v-.57c0-.1-.05-.13-.12-.09-.09.05-.18.2-.18.33v.51l-.11.06v-.82Z"/>
        <path class="cls-2" d="M47.45,85.58l.11-.06v.16l-.11.06v-.16ZM47.45,85.9l.11-.06v.82l-.11.06v-.82Z"/>
        <path class="cls-2" d="M47.72,85.43l.11-.06v1.13l-.11.06v-1.13Z"/>
        <path class="cls-2" d="M47.94,86.02c0-.24.13-.51.34-.63.21-.12.33,0,.33.27l-.55.32c0,.16.09.24.23.16.1-.06.17-.16.2-.28l.11-.06c-.03.2-.14.36-.31.45-.22.13-.34,0-.34-.23ZM48.06,85.89l.43-.25c0-.16-.08-.22-.21-.14s-.2.23-.22.39Z"/>
        <path class="cls-2" d="M48.67,85.75l.11-.07c.02.13.1.13.2.07.12-.07.16-.15.16-.23,0-.09-.05-.08-.19-.04-.14.05-.27.09-.27-.09,0-.14.09-.28.26-.37.18-.1.26-.05.28.1l-.11.07c-.01-.1-.06-.12-.17-.06s-.14.13-.14.2c0,.09.07.07.19.02.14-.05.26-.08.26.11,0,.17-.12.32-.28.41-.2.11-.3.07-.31-.11Z"/>
      </g>
      <g>
        <path class="cls-1" d="M5.15,119.06c-.08,0-.17-.02-.24-.06l-4.65-2.54c-.16-.09-.26-.26-.26-.44V29.48c0-.18.1-.34.25-.43L50.44.07c.15-.09.34-.09.49,0l4.65,2.54c.16.09.26.26.26.44v86.53c0,.18-.1.34-.25.43L5.4,118.99c-.08.04-.16.07-.25.07ZM1,115.72l4.14,2.27,49.7-28.69V3.34l-4.14-2.27L1,29.77v85.95Z"/>
        <rect class="cls-1" x="2.57" y="28.1" width=".5" height="5.29" transform="translate(-25.49 18.44) rotate(-61.25)"/>
        <rect class="cls-1" x="1.26" y="17.28" width="57.96" height=".5" transform="translate(-4.72 17.48) rotate(-30.02)"/>
        <rect class="cls-1" x="4.9" y="32.02" width=".5" height="86.53"/>
      </g>
    </g>
  </g>
</svg>