<?xml version="1.0" encoding="UTF-8"?>
<svg id="Layer_2" data-name="Layer 2" xmlns="http://www.w3.org/2000/svg" viewBox="0 0 55.84 119.06">
  <defs>
    <style>
      .cls-1, .cls-2, .cls-3 {
        stroke-width: 0px;
      }

      .cls-2 {
        fill: #584681;
      }

      .cls-3 {
        fill: #d2dcde;
      }
    </style>
  </defs>
  <g id="Layer_1-2" data-name="Layer 1">
    <g>
      <g>
        <polygon class="cls-3" points="55.33 89.58 5.14 118.56 5.14 32.02 55.33 3.05 55.33 89.58"/>
        <g>
          <path class="cls-2" d="M15.49,52.61v-16.23c0-1.59-.23-1.79-1.08-1.3-.92.53-1.08,1.04-1.08,2.55v16.23s-5.84,3.37-5.84,3.37v-16.23c0-5.52,2.54-9.58,6.92-12.11,4.38-2.53,6.92-1.4,6.92,4.12v16.23c0,8.2-7.99,14.99-7.99,22.68v23.76s2.15-1.24,2.15-1.24v-25.93s5.84-3.37,5.84-3.37v32.12s-13.83,7.99-13.83,7.99v-29.95c0-9.62,7.99-16.99,7.99-22.68Z"/>
          <path class="cls-2" d="M37.16,88.12l-13.83,7.99v-6.19s4-2.31,4-2.31v-55.54s-4,2.31-4,2.31v-6.19s1.23-.71,1.23-.71c2-1.15,2.77-2.43,2.77-4.44v-1.09s5.84-3.37,5.84-3.37v65.67s4-2.31,4-2.31v6.19Z"/>
          <path class="cls-2" d="M46.07,83.47c-4.38,2.53-6.92,1.4-6.92-4.12V22.72c0-5.52,2.54-9.58,6.92-12.11,4.38-2.53,6.92-1.4,6.92,4.12v56.63c0,5.52-2.54,9.58-6.92,12.11ZM46.07,16.8c-.92.53-1.08,1.04-1.08,2.55v56.63c0,1.59.23,1.79,1.08,1.3.92-.53,1.08-.96,1.08-2.55V18.11c0-1.59-.23-1.79-1.08-1.3Z"/>
        </g>
        <g>
          <path class="cls-2" d="M7.44,113.74l.47-.27c.03.31.19.34.53.15.24-.14.46-.36.46-.62,0-.27-.22-.19-.58-.08-.42.13-.81.23-.81-.34,0-.54.38-1.03.9-1.34s.87-.2.91.32l-.46.26c-.03-.26-.21-.29-.46-.15-.26.15-.43.37-.43.57,0,.22.16.19.51.08.49-.16.88-.25.88.33,0,.55-.39,1.08-.92,1.39-.64.37-1,.25-1.02-.31Z"/>
          <path class="cls-2" d="M10.64,112.5c-.09.2-.22.41-.51.58-.35.2-.58.13-.58-.26,0-.43.3-.75.68-1.02.28-.21.41-.31.41-.46s-.11-.17-.3-.06c-.21.12-.31.26-.32.46l-.4.23c0-.35.23-.78.73-1.06s.73-.16.73.3v.8c0,.13.02.16.12.08h0s0,.31,0,.31c-.04.05-.09.1-.19.16-.21.12-.32.11-.36-.06ZM10.64,112.04v-.29c-.08.1-.2.2-.31.3-.23.2-.35.32-.35.5s.11.19.26.1c.26-.15.4-.41.4-.6Z"/>
          <path class="cls-2" d="M11.79,110.38h0c.12-.28.27-.48.5-.62.35-.2.58-.03.58.39v1.28l-.45.26v-1.2c0-.21-.11-.3-.29-.19-.2.11-.34.38-.34.65v1.11l-.45.26v-1.95l.44-.25v.27Z"/>
          <path class="cls-2" d="M14.4,107.84l.49-.29.83,2.24-.5.29-.16-.49-.85.49-.16.67-.48.28.82-3.2ZM14.33,109.6l.62-.36-.21-.66c-.04-.12-.1-.36-.1-.36h0s-.06.31-.1.48l-.21.91Z"/>
          <path class="cls-2" d="M16.33,107.76h0c.12-.28.27-.48.5-.62.35-.2.58-.03.58.39v1.28l-.45.26v-1.2c0-.21-.11-.3-.29-.19-.2.11-.34.38-.34.65v1.11l-.45.26v-1.95l.44-.25v.27Z"/>
          <path class="cls-2" d="M17.57,106.78l.23-.14v-.61l.44-.25v.61s.29-.17.29-.17v.34l-.29.17v1.04c0,.14.07.15.17.1.06-.03.13-.08.13-.08v.38s-.1.07-.28.17c-.22.13-.46.17-.46-.2v-1.15s-.23.14-.23.14v-.34Z"/>
          <path class="cls-2" d="M18.67,107.12c0-.58.36-1.24.88-1.54s.88-.06.88.52c0,.58-.36,1.24-.88,1.54s-.88.06-.88-.52ZM19.98,106.36c0-.38-.16-.55-.43-.39s-.43.51-.43.89.15.55.43.39.43-.5.43-.88Z"/>
          <path class="cls-2" d="M21.08,105.02h0c.12-.28.27-.48.5-.62.35-.2.58-.03.58.39v1.28l-.45.26v-1.2c0-.21-.11-.3-.29-.19-.2.11-.34.38-.34.65v1.11l-.45.26v-1.95l.44-.25v.27Z"/>
          <path class="cls-2" d="M22.46,103.19l.45-.26v.46l-.45.26v-.46ZM22.46,103.96l.45-.26v1.95l-.45.26v-1.95Z"/>
          <path class="cls-2" d="M23.11,104.56c0-.58.36-1.24.88-1.54s.88-.06.88.52-.36,1.24-.88,1.54-.88.06-.88-.52ZM24.43,103.8c0-.38-.16-.55-.43-.39s-.43.51-.43.89.15.55.43.39.43-.5.43-.88Z"/>
          <path class="cls-2" d="M25,104.89c.13-.15.24-.35.24-.58l-.24.14v-.55l.48-.28v.52c0,.39-.22.74-.48.94v-.19Z"/>
          <path class="cls-2" d="M26.21,101.02l1.9-1.1v.46l-.71.41v2.26l-.48.28v-2.26s-.71.41-.71.41v-.46Z"/>
          <path class="cls-2" d="M28.94,100.74l-.71-.89.54-.31.44.61h0s.44-1.12.44-1.12l.52-.3-.69,1.7.78.98-.56.32-.48-.72h0s-.49,1.28-.49,1.28l-.55.32.76-1.86Z"/>
        </g>
        <g>
          <path class="cls-2" d="M7.89,107.46c.12-.15.2-.25.2-.38s-.08-.18-.2-.11c-.07.04-.12.09-.15.15-.04.07-.05.14-.05.25l-.12.07c0-.14.03-.25.09-.35.06-.1.15-.19.24-.24.19-.11.31-.04.31.15,0,.21-.12.35-.27.53-.1.12-.23.29-.26.42l.51-.3v.13l-.65.38c.01-.3.19-.51.35-.71Z"/>
          <path class="cls-2" d="M8.32,107.43l.12-.07c0,.11.08.16.21.09.07-.04.12-.09.16-.16.06-.1.08-.24.08-.4h0c-.06.12-.15.22-.26.29-.17.1-.31.02-.31-.18,0-.2.14-.45.33-.56.09-.05.16-.06.22-.04.11.03.14.17.14.41,0,.22-.04.4-.13.55-.06.09-.13.16-.22.21-.19.11-.32.06-.33-.13ZM8.87,106.66c0-.15-.1-.2-.23-.13s-.22.23-.22.39.1.2.22.13c.14-.08.23-.24.23-.39Z"/>
          <path class="cls-2" d="M9.09,107.12l.13-.08v.16l-.13.08v-.16Z"/>
          <path class="cls-2" d="M9.72,106.65l-.44.26v-.12l.47-.98.09-.05v.73s.16-.09.16-.09v.11l-.16.09v.27l-.11.07v-.27ZM9.39,106.73l.33-.19v-.51s0,0,0,0l-.33.69h0Z"/>
          <path class="cls-2" d="M10.42,106c.12-.15.2-.25.2-.38s-.08-.18-.2-.11c-.07.04-.12.09-.15.15-.04.07-.05.14-.05.25l-.12.07c0-.14.03-.25.09-.35.06-.1.15-.19.24-.24.19-.11.31-.04.31.15,0,.21-.12.35-.27.53-.1.12-.23.29-.26.42l.51-.3v.13l-.65.38c.01-.3.19-.51.35-.71Z"/>
          <path class="cls-2" d="M11.22,105.78l-.44.26v-.12l.47-.98.09-.05v.73s.16-.09.16-.09v.11l-.16.09v.27l-.11.07v-.27ZM10.89,105.86l.33-.19v-.51s0,0,0,0l-.33.69h0Z"/>
          <path class="cls-2" d="M11.73,104.96l-.21.12v-.09c.12-.07.21-.18.23-.35l.09-.05v1.09l-.12.07v-.79Z"/>
          <path class="cls-2" d="M12,104.68c0-.11.08-.24.17-.29s.17-.01.17.1-.08.24-.17.29-.17.01-.17-.1ZM12.27,104.52c0-.07-.04-.1-.1-.06s-.1.11-.1.18.04.1.1.07.1-.11.1-.18Z"/>
          <path class="cls-2" d="M12.7,104.06l.13-.08.45.53s.07.1.07.1h0v-.94l.12-.07v1.13l-.13.07-.45-.53s-.07-.1-.07-.1h0v.93l-.12.07v-1.13Z"/>
        </g>
        <g>
          <path class="cls-2" d="M23.39,98.73l.12-.07c0,.11.08.16.21.09.07-.04.12-.09.16-.16.06-.1.08-.24.08-.4h0c-.06.12-.15.22-.26.29-.17.1-.31.02-.31-.18,0-.2.14-.45.33-.56.09-.05.16-.06.22-.04.11.03.14.17.14.41,0,.22-.04.4-.13.55-.06.09-.13.16-.22.21-.19.11-.32.06-.33-.13ZM23.94,97.96c0-.15-.1-.2-.23-.13s-.22.23-.22.39c0,.15.1.2.22.13.14-.08.23-.24.23-.39Z"/>
          <path class="cls-2" d="M24.17,98.26c0-.16.09-.29.19-.39h0c-.09,0-.15-.04-.15-.15,0-.17.14-.36.31-.46s.31-.07.31.11c0,.11-.06.22-.14.31h0c.11-.02.19.03.19.18,0,.25-.18.44-.35.54s-.36.12-.36-.13ZM24.76,97.92c0-.14-.09-.18-.24-.09s-.24.23-.24.37.09.17.24.08.24-.22.24-.36ZM24.72,97.43c0-.11-.08-.13-.2-.06s-.2.18-.2.29.08.13.2.06.2-.18.2-.29Z"/>
          <path class="cls-2" d="M24.99,97.94l.13-.08v.16l-.13.08v-.16Z"/>
          <path class="cls-2" d="M25.62,97.47l-.44.26v-.12s.47-.98.47-.98l.09-.05v.73s.16-.09.16-.09v.11l-.16.09v.27l-.11.07v-.27ZM25.29,97.55l.33-.19v-.51h0s-.33.7-.33.7h0Z"/>
          <path class="cls-2" d="M25.98,97.23l.12-.07c0,.11.08.16.21.09.07-.04.12-.09.16-.16.06-.1.08-.24.08-.4h0c-.06.12-.15.22-.26.29-.17.1-.31.02-.31-.18,0-.2.14-.45.33-.56.09-.05.16-.06.22-.04.11.03.14.17.14.41,0,.22-.04.4-.13.55-.06.09-.13.16-.22.21-.19.11-.32.06-.33-.13ZM26.53,96.46c0-.15-.1-.2-.23-.13s-.22.23-.22.39.1.2.22.13c.14-.08.23-.24.23-.39Z"/>
          <path class="cls-2" d="M26.74,96.73l.11-.07c0,.17.1.21.26.12.13-.08.22-.2.22-.36,0-.14-.09-.16-.25-.07l-.06.03v-.1l.06-.03c.15-.08.22-.2.22-.31s-.09-.14-.2-.07c-.14.08-.22.23-.22.38l-.11.07c0-.22.13-.43.33-.55.17-.1.31-.07.31.12,0,.12-.06.23-.16.32h0c.13-.03.19.03.19.17,0,.21-.15.41-.34.52-.21.12-.37.08-.38-.17Z"/>
          <path class="cls-2" d="M27.69,96.46c-.1-.05-.13-.18-.13-.4,0-.34.13-.63.36-.77.19-.11.28-.02.3.13l-.11.07c0-.1-.07-.15-.18-.08-.18.11-.25.32-.25.58h0c.06-.13.15-.24.26-.3.17-.1.31-.01.31.19,0,.2-.14.45-.32.55-.1.06-.18.07-.23.04ZM28.14,95.94c0-.15-.09-.21-.22-.14-.13.08-.23.23-.23.39s.1.2.23.13c.12-.07.21-.23.21-.38Z"/>
          <path class="cls-2" d="M28.33,95.25c0-.11.08-.24.17-.29s.17-.01.17.1-.08.24-.17.29-.17.01-.17-.1ZM28.6,95.1c0-.07-.04-.1-.1-.06s-.1.11-.1.18.04.1.1.07.1-.11.1-.18Z"/>
          <path class="cls-2" d="M28.96,94.67l.13-.07.16.65c.02.07.04.17.04.17h0s.02-.14.04-.22l.18-.84.13-.08.17.64c.02.07.04.17.04.17h0s.02-.14.04-.22l.16-.83.13-.07-.27,1.29-.12.07-.18-.7c-.02-.06-.04-.15-.04-.15h0s-.02.12-.04.2l-.19.91-.12.07-.25-.99Z"/>
        </g>
        <g>
          <path class="cls-2" d="M39.27,93.48l.43-.25c.11-.07.2-.08.26-.04.06.03.09.1.09.21,0,.21-.12.43-.33.55l-.24.14v.41l-.21.12v-1.13ZM39.47,93.9l.21-.12c.1-.06.16-.16.16-.26s-.06-.13-.16-.08l-.21.12v.34Z"/>
          <path class="cls-2" d="M40.07,93.75c0-.24.15-.52.37-.64s.37-.03.37.22-.15.52-.37.64-.37.03-.37-.22ZM40.62,93.43c0-.16-.06-.23-.18-.16s-.18.21-.18.37.06.23.18.16.18-.21.18-.37Z"/>
          <path class="cls-2" d="M40.9,92.86l.18-.1v.1h0c.05-.1.11-.19.21-.25.19-.11.31,0,.31.25,0,.26-.12.5-.31.61-.1.06-.16.05-.2,0h0v.36l-.19.11v-1.08ZM41.41,92.98c0-.15-.05-.23-.16-.17s-.16.21-.16.36.06.21.17.15c.09-.05.16-.18.16-.33Z"/>
          <path class="cls-2" d="M42.13,92.97v-.1h0c-.05.1-.1.18-.2.24-.16.09-.24.03-.24-.15v-.54l.19-.11v.51c0,.1.04.13.12.08.09-.05.14-.16.14-.27v-.47l.19-.11v.81l-.18.1Z"/>
          <path class="cls-2" d="M42.43,91.66l.19-.11v1.13l-.19.11v-1.13Z"/>
          <path class="cls-2" d="M43.17,92.27c-.04.08-.09.17-.21.24-.14.08-.24.05-.24-.11,0-.18.13-.31.28-.43.12-.09.17-.13.17-.19,0-.06-.04-.07-.12-.02-.09.05-.13.11-.13.19l-.17.1c0-.15.09-.32.3-.44s.3-.07.3.13v.33c0,.05,0,.07.05.04h0s0,.13,0,.13c-.02.02-.04.04-.08.06-.09.05-.13.05-.15-.02ZM43.17,92.08v-.12s-.08.08-.13.12c-.1.08-.15.13-.15.21s.04.08.11.04c.11-.06.17-.17.17-.25Z"/>
          <path class="cls-2" d="M43.41,91.41l.1-.06v-.25l.18-.11v.25l.12-.07v.14l-.12.07v.43c0,.06.03.06.07.04.02-.01.05-.03.05-.03v.16s-.04.03-.12.07c-.09.05-.19.07-.19-.08v-.48s-.1.06-.1.06v-.14Z"/>
          <path class="cls-2" d="M43.9,90.8l.19-.11v.19l-.19.11v-.19ZM43.9,91.13l.19-.11v.81l-.19.11v-.81Z"/>
          <path class="cls-2" d="M44.18,91.38c0-.24.15-.52.37-.64s.37-.03.37.22-.15.52-.37.64-.37.03-.37-.22ZM44.73,91.06c0-.16-.06-.23-.18-.16s-.18.21-.18.37.06.23.18.16.18-.21.18-.37Z"/>
          <path class="cls-2" d="M45.19,90.5h0c.05-.12.11-.2.21-.26.15-.08.24-.01.24.16v.53l-.19.11v-.5c0-.09-.04-.12-.12-.08-.08.05-.14.16-.14.27v.46l-.19.11v-.81l.18-.11v.11Z"/>
          <path class="cls-2" d="M45.75,90.17l.2-.12v.23l-.2.12v-.23ZM45.75,90.64l.2-.12v.23l-.2.12v-.23Z"/>
          <path class="cls-2" d="M39.45,95.31l-.21.12v-.09c.12-.07.21-.18.23-.35l.09-.05v1.09l-.12.07v-.79Z"/>
          <path class="cls-2" d="M39.73,96.07s.06-.08.06-.17l-.06.04v-.16l.13-.08v.16c0,.12-.05.21-.13.27v-.07Z"/>
          <path class="cls-2" d="M39.95,95.49l.11-.07c.02.13.1.16.23.09s.22-.23.22-.39c0-.16-.1-.2-.22-.13-.1.06-.17.15-.21.23l-.11.06.1-.64.5-.29v.12l-.42.24-.06.36h0c.05-.09.12-.17.22-.22.17-.1.32-.05.32.19,0,.23-.14.46-.34.57s-.34.06-.35-.14Z"/>
          <path class="cls-2" d="M40.74,94.81c0-.35.14-.65.37-.78s.36,0,.36.36-.13.64-.37.78-.37-.01-.37-.36ZM41.36,94.46c0-.28-.08-.41-.24-.31s-.25.32-.25.6.08.41.25.31.24-.31.24-.59Z"/>
          <path class="cls-2" d="M41.6,94.32c0-.35.14-.65.37-.78s.36,0,.36.36-.13.64-.37.78-.37-.01-.37-.36ZM42.21,93.96c0-.28-.08-.41-.24-.31s-.25.32-.25.6c0,.28.08.41.25.31s.24-.31.24-.59Z"/>
          <path class="cls-2" d="M42.42,94.52s.06-.08.06-.17l-.06.04v-.16l.13-.08v.16c0,.12-.05.21-.13.27v-.07Z"/>
          <path class="cls-2" d="M42.63,93.72c0-.35.14-.65.37-.78s.36,0,.36.36-.13.64-.37.78-.37-.01-.37-.36ZM43.25,93.36c0-.28-.08-.41-.24-.31s-.25.32-.25.6.08.41.25.31.24-.31.24-.59Z"/>
          <path class="cls-2" d="M43.49,93.22c0-.35.14-.65.37-.78s.36,0,.36.36c0,.35-.13.64-.37.78s-.37-.01-.37-.36ZM44.1,92.87c0-.28-.08-.41-.24-.31s-.25.32-.25.6c0,.28.08.41.25.31s.24-.31.24-.59Z"/>
          <path class="cls-2" d="M44.34,92.73c0-.35.14-.65.37-.78s.36,0,.36.36c0,.35-.13.64-.37.78s-.37-.01-.37-.36ZM44.95,92.38c0-.28-.08-.41-.24-.31s-.25.32-.25.6c0,.28.08.41.25.31s.24-.31.24-.59Z"/>
        </g>
        <g>
          <g>
            <polygon class="cls-2" points="51.79 86.25 51.27 86.55 51.27 89.28 51.79 88.97 51.79 86.25"/>
            <polygon class="cls-2" points="52.39 85.9 51.87 86.21 51.87 88.93 52.39 88.63 52.39 85.9"/>
            <polygon class="cls-2" points="52.99 85.56 52.47 85.86 52.47 88.58 52.99 88.28 52.99 85.56"/>
          </g>
          <path class="cls-2" d="M53.14,85.77c0-.18.11-.37.26-.46s.26-.02.26.16-.12.37-.26.46-.26.02-.26-.16ZM53.63,85.49c0-.16-.1-.22-.23-.14s-.23.25-.23.41.1.22.23.14.23-.25.23-.41ZM53.3,85.51l.14-.08c.05-.03.09-.02.09.04,0,.04-.02.08-.05.11h0s.04,0,.05.05c0,.05,0,.07.01.07h0s-.05.04-.05.04c0,0,0-.03-.01-.07,0-.04-.02-.05-.05-.03l-.06.04v.13l-.05.03v-.34ZM53.35,85.63l.07-.04s.05-.05.05-.08c0-.03-.01-.04-.05-.02l-.07.04v.1Z"/>
        </g>
        <path class="cls-2" d="M39.54,88.56l.21-.12.35.93-.21.12-.07-.2-.35.2-.06.28-.2.12.34-1.33ZM39.51,89.3l.26-.15-.09-.28c-.02-.05-.04-.15-.04-.15h0s-.02.13-.04.2l-.09.38Z"/>
        <path class="cls-2" d="M40.34,88.55h0c.04-.12.09-.19.17-.24.02-.01.03-.02.04-.02v.19h0c-.12.06-.21.18-.21.36v.4l-.19.11v-.81l.18-.1v.13Z"/>
        <path class="cls-2" d="M40.59,88.68c0-.24.14-.51.35-.63.23-.13.35,0,.35.29l-.51.3c.01.12.07.16.18.1.07-.04.12-.1.14-.18l.18-.11c-.03.16-.14.35-.32.45-.23.13-.37.02-.37-.22ZM40.77,88.49l.31-.18c0-.1-.06-.14-.15-.09-.1.06-.15.15-.16.27Z"/>
        <path class="cls-2" d="M41.79,88.3c-.04.08-.09.17-.21.24-.14.08-.24.05-.24-.11,0-.18.13-.31.28-.43.12-.09.17-.13.17-.19,0-.06-.04-.07-.12-.02-.09.05-.13.11-.13.19l-.17.1c0-.15.09-.32.3-.44s.3-.07.3.13v.33c0,.05,0,.07.05.04h0s0,.13,0,.13c-.02.02-.04.04-.08.06-.09.05-.13.05-.15-.02ZM41.79,88.11v-.12s-.08.08-.13.12c-.1.08-.15.13-.15.21s.04.08.11.04c.11-.06.17-.17.17-.25Z"/>
        <path class="cls-2" d="M42.09,87.52l.2-.12v.23l-.2.12v-.23ZM42.09,87.99l.2-.12v.23l-.2.12v-.23Z"/>
        <path class="cls-2" d="M39.67,90.94l-.44.26v-.12l.47-.98.09-.05v.73s.16-.09.16-.09v.11l-.16.09v.27l-.11.07v-.27ZM39.34,91.03l.33-.19v-.51s0,0,0,0l-.33.7h0Z"/>
        <path class="cls-2" d="M40.16,90.85c-.1-.05-.13-.18-.13-.4,0-.34.13-.63.36-.77.19-.11.28-.02.3.13l-.11.07c0-.1-.07-.15-.18-.08-.18.11-.25.32-.25.58h0c.06-.13.15-.24.26-.3.17-.1.31-.01.31.19,0,.2-.14.45-.32.55-.1.06-.18.07-.23.04ZM40.61,90.32c0-.15-.09-.21-.22-.14-.13.08-.23.23-.23.39s.1.2.23.13c.12-.07.21-.23.21-.38Z"/>
        <path class="cls-2" d="M41.02,89.64l-.21.12v-.09c.12-.07.21-.18.23-.35l.09-.05v1.09l-.12.07v-.79Z"/>
        <path class="cls-2" d="M41.31,90.11l.13-.08v.16l-.13.08v-.16Z"/>
        <path class="cls-2" d="M41.9,89.42c.12-.15.2-.25.2-.38s-.08-.18-.2-.11c-.07.04-.12.09-.15.15-.04.07-.05.14-.05.25l-.12.07c0-.14.03-.25.09-.35.06-.1.15-.19.24-.24.19-.11.31-.04.31.15,0,.21-.12.35-.27.53-.1.12-.23.29-.26.42l.51-.3v.13l-.65.38c.01-.3.19-.51.35-.71Z"/>
        <path class="cls-2" d="M42.51,89.3l.11-.07c.02.13.1.13.2.07.12-.07.16-.15.16-.23,0-.09-.05-.08-.19-.04-.14.05-.27.09-.27-.09,0-.14.09-.28.26-.37.18-.1.26-.05.28.1l-.11.07c-.01-.1-.06-.12-.17-.06s-.14.13-.14.2c0,.09.07.07.19.02.14-.05.26-.08.26.11,0,.17-.12.32-.28.41-.2.11-.3.07-.31-.11Z"/>
        <path class="cls-2" d="M43.73,88.77h0c-.05.11-.12.19-.22.25-.19.11-.31.01-.31-.25,0-.27.13-.51.31-.61.1-.06.17-.05.22,0h0v-.11l.11-.06v1.08l-.11.06v-.36ZM43.73,88.46c0-.19-.07-.28-.23-.19-.13.08-.2.25-.2.44s.06.28.2.21c.16-.09.22-.27.22-.45Z"/>
        <path class="cls-2" d="M44.44,88.45v-.11s0,0,0,0c-.05.11-.11.2-.21.26-.15.08-.24.04-.24-.13v-.57l.11-.06v.56c0,.11.06.13.16.08.11-.07.19-.21.19-.34v-.5l.11-.06v.82l-.11.06Z"/>
        <path class="cls-2" d="M45.14,87.94h0c-.04.09-.11.19-.23.26-.13.08-.24.06-.24-.09,0-.19.13-.31.31-.44.11-.08.17-.13.17-.22s-.05-.11-.16-.05c-.12.07-.17.16-.18.29l-.11.06c0-.16.1-.34.29-.44.15-.09.26-.08.26.11v.46c0,.06.01.1.03.1h0s-.11.07-.11.07c-.01,0-.02-.03-.02-.1ZM45.14,87.75v-.13s-.1.1-.16.15c-.12.09-.2.15-.2.27,0,.11.08.09.15.05.15-.09.21-.25.21-.34Z"/>
        <path class="cls-2" d="M45.5,87.16h0c.04-.11.12-.22.21-.27.02-.01.03-.02.05-.02v.12h0s-.03.01-.05.02c-.11.06-.21.21-.21.37v.46l-.11.06v-.82l.11-.06v.14Z"/>
        <path class="cls-2" d="M45.79,87.26c0-.24.13-.51.34-.63.21-.12.33,0,.33.27l-.55.32c0,.16.09.24.23.16.1-.06.17-.16.2-.28l.11-.06c-.03.2-.14.36-.31.45-.22.13-.34,0-.34-.23ZM45.91,87.13l.43-.25c0-.16-.08-.22-.21-.14s-.2.23-.22.39Z"/>
        <path class="cls-2" d="M46.79,86.28l.11-.06v.12h0c.04-.11.12-.21.21-.26s.16-.04.19.04h0c.05-.12.13-.22.22-.27.13-.07.22-.03.22.14v.58l-.11.06v-.57c0-.1-.06-.13-.13-.09-.09.05-.17.19-.17.32v.51l-.11.06v-.57c0-.1-.05-.13-.12-.09-.09.05-.18.2-.18.33v.51l-.11.06v-.82Z"/>
        <path class="cls-2" d="M47.88,85.34l.11-.06v.16l-.11.06v-.16ZM47.88,85.65l.11-.06v.82l-.11.06v-.82Z"/>
        <path class="cls-2" d="M48.14,85.18l.11-.06v1.13l-.11.06v-1.13Z"/>
        <path class="cls-2" d="M48.37,85.78c0-.24.13-.51.34-.63.21-.12.33,0,.33.27l-.55.32c0,.16.09.24.23.16.1-.06.17-.16.2-.28l.11-.06c-.03.2-.14.36-.31.45-.22.13-.34,0-.34-.23ZM48.49,85.64l.43-.25c0-.16-.08-.22-.21-.14s-.2.23-.22.39Z"/>
        <path class="cls-2" d="M49.1,85.5l.11-.07c.02.13.1.13.2.07.12-.07.16-.15.16-.23,0-.09-.05-.08-.19-.04-.14.05-.27.09-.27-.09,0-.14.09-.28.26-.37.18-.1.26-.05.28.1l-.11.07c-.01-.1-.06-.12-.17-.06s-.14.13-.14.2c0,.09.07.07.19.02.14-.05.26-.08.26.11,0,.17-.12.32-.28.41-.2.11-.3.07-.31-.11Z"/>
      </g>
      <g>
        <path class="cls-1" d="M5.15,119.06c-.08,0-.17-.02-.24-.06l-4.65-2.54c-.16-.09-.26-.26-.26-.44V29.48c0-.18.1-.34.25-.43L50.44.07c.15-.09.34-.09.49,0l4.65,2.54c.16.09.26.26.26.44v86.53c0,.18-.1.34-.25.43L5.4,118.99c-.08.04-.16.07-.25.07ZM1,115.72l4.14,2.27,49.7-28.69V3.34l-4.14-2.27L1,29.77v85.95Z"/>
        <rect class="cls-1" x="2.57" y="28.1" width=".5" height="5.29" transform="translate(-25.49 18.44) rotate(-61.25)"/>
        <rect class="cls-1" x="1.26" y="17.28" width="57.96" height=".5" transform="translate(-4.72 17.48) rotate(-30.02)"/>
        <rect class="cls-1" x="4.9" y="32.02" width=".5" height="86.53"/>
      </g>
    </g>
  </g>
</svg>