<?xml version="1.0" encoding="UTF-8"?>
<svg id="Layer_2" data-name="Layer 2" xmlns="http://www.w3.org/2000/svg" viewBox="0 0 55.84 119.06">
  <defs>
    <style>
      .cls-1, .cls-2, .cls-3 {
        stroke-width: 0px;
      }

      .cls-2 {
        fill: #2233b4;
      }

      .cls-3 {
        fill: #d6eae6;
      }
    </style>
  </defs>
  <g id="Layer_1-2" data-name="Layer 1">
    <g>
      <g>
        <polygon class="cls-2" points="55.35 89.57 5.16 118.55 5.16 32.01 55.35 3.04 55.35 89.57"/>
        <g>
          <path class="cls-3" d="M15.5,52.6v-16.23c0-1.59-.23-1.79-1.08-1.3-.92.53-1.08,1.04-1.08,2.55v16.23s-5.84,3.37-5.84,3.37v-16.23c0-5.52,2.54-9.58,6.92-12.11,4.38-2.53,6.92-1.4,6.92,4.12v16.23c0,8.2-7.99,14.99-7.99,22.68v23.76s2.15-1.24,2.15-1.24v-25.93s5.84-3.37,5.84-3.37v32.12s-13.83,7.99-13.83,7.99v-29.95c0-9.62,7.99-16.99,7.99-22.68Z"/>
          <path class="cls-3" d="M47.16,34.32v-16.23c0-1.59-.23-1.79-1.08-1.3-.92.53-1.08,1.04-1.08,2.55v16.23s-5.84,3.37-5.84,3.37v-16.23c0-5.52,2.54-9.58,6.92-12.11,4.38-2.53,6.92-1.4,6.92,4.12v16.23c0,8.2-7.99,14.99-7.99,22.68v23.76s2.15-1.24,2.15-1.24v-25.93s5.84-3.37,5.84-3.37v32.12s-13.83,7.99-13.83,7.99v-29.95c0-9.62,7.99-16.99,7.99-22.68Z"/>
          <path class="cls-3" d="M37.17,88.1l-13.83,7.99v-6.19s4-2.31,4-2.31v-55.54s-4,2.31-4,2.31v-6.19s1.23-.71,1.23-.71c2-1.15,2.77-2.43,2.77-4.44v-1.09s5.84-3.37,5.84-3.37v65.67s4-2.31,4-2.31v6.19Z"/>
        </g>
        <g>
          <path class="cls-3" d="M7.55,111.78l.49-.28.79,1.07c.08.1.16.29.16.29h0s-.01-.28-.01-.47v-1.43l.47-.27v2.72l-.46.27-.81-1.04c-.08-.1-.17-.28-.17-.28h0s.01.28.01.47v1.41l-.47.27v-2.72Z"/>
          <path class="cls-3" d="M9.7,112.29c0-.58.34-1.22.83-1.51.54-.31.83,0,.83.7l-1.23.71c.03.28.18.38.43.24.17-.1.28-.25.33-.43l.44-.26c-.06.38-.33.83-.77,1.08-.56.32-.88.05-.88-.53ZM10.15,111.82l.75-.43c-.01-.24-.16-.33-.36-.21-.24.14-.35.37-.39.65Z"/>
          <path class="cls-3" d="M11.41,110.33l.45-.26.2.79c.04.14.08.32.08.32h0s.04-.23.07-.42l.21-1.02.38-.22.22.78c.04.14.08.32.08.32h0s.04-.23.08-.41l.21-1.03.44-.25-.5,2.25-.41.24-.22-.83c-.04-.14-.08-.3-.08-.3h0s-.04.21-.08.39l-.23,1.09-.41.23-.49-1.67Z"/>
          <path class="cls-3" d="M15.21,109.04l-.79-1.22.52-.3.36.6c.07.12.16.3.16.3h0s.09-.28.16-.48l.35-1.01.5-.29-.79,2.13v1.05l-.48.28v-1.05Z"/>
          <path class="cls-3" d="M16.2,108.54c0-.58.36-1.24.88-1.54s.88-.06.88.52c0,.58-.36,1.24-.88,1.54s-.88.06-.88-.52ZM17.52,107.78c0-.38-.16-.55-.43-.39s-.43.51-.43.89c0,.38.15.55.43.39s.43-.5.43-.88Z"/>
          <path class="cls-3" d="M18.61,106.48h0c.1-.29.22-.47.42-.58.05-.03.08-.04.11-.05v.45h0c-.29.14-.5.44-.5.85v.95l-.45.26v-1.95l.43-.25v.31Z"/>
          <path class="cls-3" d="M19.98,106.44l-.19.34v.66l-.45.26v-2.72s.45-.26.45-.26v1.51s.6-1.09.6-1.09l.54-.31-.62,1.1.7.81-.54.31-.48-.62Z"/>
          <path class="cls-3" d="M21.63,105.03c0-.81.44-1.68,1.13-2.08.58-.34.92-.13.97.36l-.48.27c-.04-.25-.22-.33-.5-.17-.44.25-.64.79-.64,1.33,0,.56.25.81.65.58.28-.16.48-.47.51-.77l.47-.27c-.01.25-.1.53-.26.79-.16.27-.39.51-.72.7-.66.38-1.14.06-1.14-.75Z"/>
          <path class="cls-3" d="M23.95,102.32l.45-.26v.46l-.45.26v-.46ZM23.95,103.09l.45-.26v1.95l-.45.26v-1.95Z"/>
          <path class="cls-3" d="M24.59,102.72l.23-.14v-.61l.44-.25v.61s.29-.17.29-.17v.34l-.29.17v1.04c0,.14.07.15.17.1.06-.03.13-.08.13-.08v.38s-.1.07-.28.17c-.22.13-.46.17-.46-.2v-1.15s-.23.14-.23.14v-.34Z"/>
          <path class="cls-3" d="M25.86,104.17l.16-.09c.18-.1.25-.25.25-.41,0-.11-.03-.21-.13-.46l-.46-1.13.47-.27.25.74c.05.15.11.36.11.36h0s.05-.28.1-.49l.24-1.02.45-.26-.59,2.34c-.13.51-.25.74-.6.94l-.26.15v-.41Z"/>
          <path class="cls-3" d="M27.26,103.58c.13-.15.24-.35.24-.58l-.24.14v-.55l.48-.28v.52c0,.39-.22.74-.48.94v-.19Z"/>
          <path class="cls-3" d="M28.59,99.64l.49-.28.79,1.07c.08.1.16.29.16.29h0s-.01-.28-.01-.47v-1.43l.47-.27v2.72s-.46.27-.46.27l-.81-1.04c-.08-.1-.17-.28-.17-.28h0s.01.28.01.47v1.41l-.47.27v-2.72Z"/>
          <path class="cls-3" d="M31.47,99.65l-.79-1.22.52-.3.36.6c.07.12.16.3.16.3h0s.09-.28.16-.48l.35-1.01.5-.29-.79,2.13v1.05l-.48.28v-1.05Z"/>
        </g>
        <g>
          <path class="cls-3" d="M7.98,107.64l-.44.26v-.12l.47-.98.09-.05v.73s.16-.09.16-.09v.11l-.16.09v.27l-.11.07v-.27ZM7.65,107.73l.33-.19v-.51s0,0,0,0l-.33.69h0Z"/>
          <path class="cls-3" d="M8.34,107.16c0-.35.14-.65.37-.78s.36,0,.36.36-.13.64-.37.78-.37-.01-.37-.36ZM8.95,106.8c0-.28-.08-.41-.24-.31s-.25.32-.25.6.08.41.25.31.24-.31.24-.59Z"/>
          <path class="cls-3" d="M9.16,107.07l.13-.08v.16l-.13.08v-.16Z"/>
          <path class="cls-3" d="M9.88,105.85h0s-.54.31-.54.31v-.12l.66-.38v.11c-.19.31-.38.77-.4,1.21l-.12.07c.02-.39.19-.88.4-1.2Z"/>
          <path class="cls-3" d="M10.27,105.8l-.21.12v-.09c.12-.07.21-.18.23-.35l.09-.05v1.09l-.12.07v-.79Z"/>
          <path class="cls-3" d="M10.89,105.73c.12-.15.2-.25.2-.38,0-.13-.08-.18-.2-.11-.07.04-.12.09-.15.15-.04.07-.05.14-.05.25l-.12.07c0-.14.03-.25.09-.35.06-.1.15-.19.24-.24.19-.11.31-.04.31.15,0,.21-.12.35-.27.53-.1.12-.23.29-.26.42l.51-.3v.13l-.65.38c.01-.3.19-.51.35-.71Z"/>
          <path class="cls-3" d="M11.3,105.68c0-.16.09-.29.19-.39h0c-.09,0-.15-.04-.15-.15,0-.17.14-.36.31-.46s.31-.07.31.11c0,.11-.06.22-.14.31h0c.11-.02.19.03.19.18,0,.25-.18.44-.35.54s-.36.12-.36-.13ZM11.9,105.34c0-.14-.09-.18-.24-.09s-.24.23-.24.37.09.17.24.08.24-.22.24-.36ZM11.86,104.85c0-.11-.08-.13-.2-.06s-.2.18-.2.29.08.13.2.06.2-.18.2-.29Z"/>
          <path class="cls-3" d="M12.08,104.63c0-.11.08-.24.17-.29s.17-.01.17.1-.08.24-.17.29-.17.01-.17-.1ZM12.35,104.47c0-.07-.04-.1-.1-.06s-.1.11-.1.18.04.1.1.07.1-.11.1-.18Z"/>
          <path class="cls-3" d="M12.78,104l.13-.08.45.53s.07.1.07.1h0v-.94l.12-.07v1.13l-.13.07-.45-.53s-.07-.1-.07-.1h0v.93l-.12.07v-1.13Z"/>
        </g>
        <g>
          <path class="cls-3" d="M23.9,97.75h0s-.54.31-.54.31v-.12l.66-.38v.11c-.19.31-.38.77-.4,1.21l-.12.07c.02-.39.19-.88.4-1.2Z"/>
          <path class="cls-3" d="M24.42,98.15l-.44.26v-.12l.47-.98.09-.05v.73s.16-.09.16-.09v.11l-.16.09v.27l-.11.07v-.27ZM24.09,98.24l.33-.19v-.51s0,0,0,0l-.33.69h0Z"/>
          <path class="cls-3" d="M24.78,98.05l.13-.08v.16l-.13.08v-.16Z"/>
          <path class="cls-3" d="M25,97.54c0-.35.14-.65.37-.78s.36,0,.36.36-.13.64-.37.78-.37-.01-.37-.36ZM25.61,97.19c0-.28-.08-.41-.24-.31s-.25.32-.25.6.08.41.25.31.24-.31.24-.59Z"/>
          <path class="cls-3" d="M25.86,97.05c0-.35.14-.65.37-.78s.36,0,.36.36c0,.35-.13.64-.37.78s-.37-.01-.37-.36ZM26.47,96.69c0-.28-.08-.41-.24-.31s-.25.32-.25.6.08.41.25.31.24-.31.24-.59Z"/>
          <path class="cls-3" d="M26.84,96.95c-.1-.05-.13-.18-.13-.4,0-.34.13-.63.36-.77.19-.11.28-.02.3.13l-.11.07c0-.1-.07-.15-.18-.08-.18.11-.25.32-.25.58h0c.06-.13.15-.24.26-.3.17-.1.31-.01.31.19,0,.2-.14.45-.32.55-.1.06-.18.07-.24.04ZM27.29,96.42c0-.15-.09-.21-.22-.14-.13.08-.23.23-.23.39s.1.2.23.13c.12-.07.21-.23.21-.38Z"/>
          <path class="cls-3" d="M27.51,96.09c0-.35.14-.65.37-.78s.36,0,.36.36-.13.64-.37.78-.37-.01-.37-.36ZM28.12,95.74c0-.28-.08-.41-.24-.31s-.25.32-.25.6c0,.28.08.41.25.31s.24-.31.24-.59Z"/>
          <path class="cls-3" d="M28.32,95.25c0-.11.08-.24.17-.29s.17-.01.17.1-.08.24-.17.29-.17.01-.17-.1ZM28.59,95.1c0-.07-.04-.1-.1-.06s-.1.11-.1.18.04.1.1.07.1-.11.1-.18Z"/>
          <path class="cls-3" d="M28.95,94.67l.13-.07.16.65c.02.07.04.17.04.17h0s.02-.14.04-.22l.18-.84.13-.08.17.64c.02.07.04.17.04.17h0s.02-.14.04-.22l.16-.83.13-.07-.27,1.29-.12.07-.18-.7c-.02-.06-.04-.15-.04-.15h0s-.02.12-.04.2l-.19.91-.12.07-.25-.99Z"/>
        </g>
        <path class="cls-3" d="M39.28,93.47l.43-.25c.11-.07.2-.08.26-.04.06.03.09.1.09.21,0,.21-.12.43-.33.55l-.24.14v.41l-.21.12v-1.13ZM39.49,93.89l.21-.12c.1-.06.16-.16.16-.26s-.06-.13-.16-.08l-.21.12v.34Z"/>
        <path class="cls-3" d="M40.09,93.73c0-.24.15-.52.37-.64s.37-.03.37.22c0,.24-.15.52-.37.64s-.37.03-.37-.22ZM40.63,93.42c0-.16-.06-.23-.18-.16s-.18.21-.18.37.06.23.18.16.18-.21.18-.37Z"/>
        <path class="cls-3" d="M40.91,92.85l.18-.1v.1h0c.05-.1.11-.19.21-.25.19-.11.31,0,.31.25,0,.26-.12.5-.31.61-.1.06-.16.05-.2,0h0v.36l-.19.11v-1.08ZM41.42,92.97c0-.15-.05-.23-.16-.17s-.16.21-.16.36.06.21.17.15c.09-.05.16-.18.16-.33Z"/>
        <path class="cls-3" d="M42.14,92.95v-.1s0,0,0,0c-.05.1-.1.18-.2.23-.16.09-.24.03-.24-.15v-.54l.19-.11v.51c0,.1.04.13.12.08.09-.05.14-.16.14-.27v-.47l.19-.11v.81l-.18.1Z"/>
        <path class="cls-3" d="M42.44,91.64l.19-.11v1.13l-.19.11v-1.13Z"/>
        <path class="cls-3" d="M43.18,92.26c-.04.08-.09.17-.21.24-.14.08-.24.05-.24-.11,0-.18.13-.31.28-.43.12-.09.17-.13.17-.19,0-.06-.04-.07-.12-.02-.09.05-.13.11-.13.19l-.17.1c0-.15.09-.32.3-.44s.3-.07.3.13v.33c0,.05,0,.07.05.04h0s0,.13,0,.13c-.02.02-.04.04-.08.06-.09.05-.13.05-.15-.02ZM43.18,92.07v-.12s-.08.08-.13.12c-.1.08-.15.13-.15.21s.04.08.11.04c.11-.06.17-.17.17-.25Z"/>
        <path class="cls-3" d="M43.42,91.4l.1-.06v-.25l.18-.11v.25l.12-.07v.14l-.12.07v.43c0,.06.03.06.07.04.02-.01.05-.03.05-.03v.16s-.04.03-.12.07c-.09.05-.19.07-.19-.08v-.48s-.1.06-.1.06v-.14Z"/>
        <path class="cls-3" d="M43.92,90.79l.19-.11v.19l-.19.11v-.19ZM43.92,91.11l.19-.11v.81l-.19.11v-.81Z"/>
        <path class="cls-3" d="M44.19,91.36c0-.24.15-.52.37-.64s.37-.03.37.22-.15.52-.37.64-.37.03-.37-.22ZM44.74,91.05c0-.16-.06-.23-.18-.16s-.18.21-.18.37.06.23.18.16.18-.21.18-.37Z"/>
        <path class="cls-3" d="M45.2,90.48h0c.05-.12.11-.2.21-.26.15-.08.24-.01.24.16v.53l-.19.11v-.5c0-.09-.04-.12-.12-.08-.08.05-.14.16-.14.27v.46l-.19.11v-.81l.18-.11v.11Z"/>
        <path class="cls-3" d="M45.76,90.15l.2-.12v.23l-.2.12v-.23ZM45.76,90.63l.2-.12v.23l-.2.12v-.23Z"/>
        <path class="cls-3" d="M39.25,95.9c0-.16.09-.29.19-.39h0c-.09,0-.15-.04-.15-.15,0-.17.14-.36.31-.46s.31-.07.31.11c0,.11-.06.22-.14.31h0c.11-.02.19.03.19.18,0,.25-.18.44-.35.54s-.36.12-.36-.13ZM39.85,95.55c0-.14-.09-.18-.24-.09s-.24.23-.24.37.09.17.24.08.24-.22.24-.36ZM39.8,95.07c0-.11-.08-.13-.2-.06s-.2.18-.2.29.08.13.2.06.2-.18.2-.29Z"/>
        <path class="cls-3" d="M40.07,95.87s.06-.08.06-.17l-.06.04v-.16l.13-.08v.16c0,.12-.05.21-.13.27v-.07Z"/>
        <path class="cls-3" d="M40.7,95.11l-.44.26v-.12l.47-.98.09-.05v.73s.16-.09.16-.09v.11l-.16.09v.27l-.11.07v-.27ZM40.37,95.19l.33-.19v-.51s0,0,0,0l-.33.7h0Z"/>
        <path class="cls-3" d="M41.06,94.62c0-.35.14-.65.37-.78s.36,0,.36.36c0,.35-.13.64-.37.78s-.37-.01-.37-.36ZM41.67,94.27c0-.28-.08-.41-.24-.31s-.25.32-.25.6c0,.28.08.41.25.31s.24-.31.24-.59Z"/>
        <path class="cls-3" d="M41.91,94.13c0-.35.14-.65.37-.78s.36,0,.36.36-.13.64-.37.78-.37-.01-.37-.36ZM42.52,93.77c0-.28-.08-.41-.24-.31s-.25.32-.25.6.08.41.25.31.24-.31.24-.59Z"/>
        <path class="cls-3" d="M42.73,94.33s.06-.08.06-.17l-.06.04v-.16l.13-.08v.16c0,.12-.05.21-.13.27v-.07Z"/>
        <path class="cls-3" d="M42.95,93.53c0-.35.14-.65.37-.78s.36,0,.36.36c0,.35-.13.64-.37.78s-.37-.01-.37-.36ZM43.56,93.18c0-.28-.08-.41-.24-.31s-.25.32-.25.6c0,.28.08.41.25.31s.24-.31.24-.59Z"/>
        <path class="cls-3" d="M43.8,93.04c0-.35.14-.65.37-.78s.36,0,.36.36-.13.64-.37.78-.37-.01-.37-.36ZM44.41,92.68c0-.28-.08-.41-.24-.31s-.25.32-.25.6.08.41.25.31.24-.31.24-.59Z"/>
        <path class="cls-3" d="M44.65,92.54c0-.35.14-.65.37-.78s.36,0,.36.36-.13.64-.37.78-.37-.01-.37-.36ZM45.27,92.19c0-.28-.08-.41-.24-.31s-.25.32-.25.6.08.41.25.31.24-.31.24-.59Z"/>
        <g>
          <g>
            <polygon class="cls-3" points="51.8 86.24 51.28 86.54 51.28 89.27 51.8 88.96 51.8 86.24"/>
            <polygon class="cls-3" points="52.4 85.89 51.88 86.2 51.88 88.92 52.4 88.62 52.4 85.89"/>
            <polygon class="cls-3" points="53 85.55 52.48 85.85 52.48 88.57 53 88.27 53 85.55"/>
          </g>
          <path class="cls-3" d="M53.16,85.76c0-.18.11-.37.26-.46s.26-.02.26.16c0,.18-.12.37-.26.46s-.26.02-.26-.16ZM53.64,85.48c0-.16-.1-.22-.23-.14s-.23.25-.23.41.1.22.23.14.23-.25.23-.41ZM53.31,85.5l.14-.08c.05-.03.09-.02.09.04,0,.04-.02.08-.05.11h0s.04,0,.05.05c0,.05,0,.07.01.07h0s-.05.04-.05.04c0,0,0-.03-.01-.07,0-.04-.02-.05-.05-.03l-.06.04v.13l-.05.03v-.34ZM53.36,85.62l.07-.04s.05-.05.05-.08c0-.03-.01-.04-.05-.02l-.07.04v.1Z"/>
        </g>
        <g>
          <g>
            <polygon class="cls-3" points="51.8 86.24 51.28 86.54 51.28 89.27 51.8 88.96 51.8 86.24"/>
            <polygon class="cls-3" points="52.4 85.89 51.88 86.2 51.88 88.92 52.4 88.62 52.4 85.89"/>
            <polygon class="cls-3" points="53 85.55 52.48 85.85 52.48 88.57 53 88.27 53 85.55"/>
          </g>
          <path class="cls-3" d="M53.16,85.76c0-.18.11-.37.26-.46s.26-.02.26.16c0,.18-.12.37-.26.46s-.26.02-.26-.16ZM53.64,85.48c0-.16-.1-.22-.23-.14s-.23.25-.23.41.1.22.23.14.23-.25.23-.41ZM53.31,85.5l.14-.08c.05-.03.09-.02.09.04,0,.04-.02.08-.05.11h0s.04,0,.05.05c0,.05,0,.07.01.07h0s-.05.04-.05.04c0,0,0-.03-.01-.07,0-.04-.02-.05-.05-.03l-.06.04v.13l-.05.03v-.34ZM53.36,85.62l.07-.04s.05-.05.05-.08c0-.03-.01-.04-.05-.02l-.07.04v.1Z"/>
        </g>
        <path class="cls-3" d="M39.55,88.55l.21-.12.35.93-.21.12-.07-.2-.35.2-.06.28-.2.12.34-1.33ZM39.52,89.28l.26-.15-.09-.28c-.02-.05-.04-.15-.04-.15h0s-.02.13-.04.2l-.09.38Z"/>
        <path class="cls-3" d="M40.35,88.54h0c.04-.12.09-.19.17-.24.02-.01.03-.02.04-.02v.19h0c-.12.06-.21.18-.21.36v.4l-.19.11v-.81l.18-.1v.13Z"/>
        <path class="cls-3" d="M40.6,88.67c0-.24.14-.51.35-.63.23-.13.35,0,.35.29l-.51.3c.01.12.07.16.18.1.07-.04.12-.1.14-.18l.18-.11c-.03.16-.14.35-.32.45-.23.13-.37.02-.37-.22ZM40.79,88.48l.31-.18c0-.1-.06-.14-.15-.09-.1.06-.15.15-.16.27Z"/>
        <path class="cls-3" d="M41.8,88.29c-.04.08-.09.17-.21.24-.14.08-.24.05-.24-.11,0-.18.13-.31.28-.43.12-.09.17-.13.17-.19,0-.06-.04-.07-.12-.02-.09.05-.13.11-.13.19l-.17.1c0-.15.09-.32.3-.44s.3-.07.3.13v.33c0,.05,0,.07.05.04h0s0,.13,0,.13c-.02.02-.04.04-.08.06-.09.05-.13.05-.15-.02ZM41.8,88.1v-.12s-.08.08-.13.12c-.1.08-.15.13-.15.21s.04.08.11.04c.11-.06.17-.17.17-.25Z"/>
        <path class="cls-3" d="M42.1,87.5l.2-.12v.23l-.2.12v-.23ZM42.1,87.98l.2-.12v.23l-.2.12v-.23Z"/>
        <path class="cls-3" d="M39.68,90.93l-.44.26v-.12l.47-.98.09-.05v.73s.16-.09.16-.09v.11l-.16.09v.27l-.11.07v-.27ZM39.35,91.01l.33-.19v-.51s0,0,0,0l-.33.7h0Z"/>
        <path class="cls-3" d="M40.18,90.84c-.1-.05-.13-.18-.13-.4,0-.34.13-.63.36-.77.19-.11.28-.02.3.13l-.11.07c0-.1-.07-.15-.18-.08-.18.11-.25.32-.25.58h0c.06-.13.15-.24.26-.3.17-.1.31-.01.31.19,0,.2-.14.45-.32.55-.1.06-.18.07-.23.04ZM40.62,90.31c0-.15-.09-.21-.22-.14-.13.08-.23.23-.23.39,0,.15.1.2.23.13.12-.07.21-.23.21-.38Z"/>
        <path class="cls-3" d="M40.83,90.22c0-.16.09-.29.19-.39h0c-.09,0-.15-.04-.15-.15,0-.17.14-.36.31-.46s.31-.07.31.11c0,.11-.06.22-.14.31h0c.11-.02.19.03.19.18,0,.25-.18.44-.35.54s-.36.12-.36-.13ZM41.42,89.88c0-.14-.09-.18-.24-.09s-.24.23-.24.37.09.17.24.08.24-.22.24-.36ZM41.38,89.39c0-.11-.08-.13-.2-.06s-.2.18-.2.29.08.13.2.06.2-.18.2-.29Z"/>
        <path class="cls-3" d="M41.64,89.91l.13-.08v.16l-.13.08v-.16Z"/>
        <path class="cls-3" d="M41.88,89.63l.12-.07c0,.11.08.16.21.09.07-.04.12-.09.16-.16.06-.1.08-.24.08-.4h0c-.06.12-.15.22-.26.29-.17.1-.31.02-.31-.18,0-.2.14-.45.33-.56.09-.05.16-.06.22-.04.11.03.14.17.14.41,0,.22-.04.4-.13.55-.06.09-.13.16-.22.21-.19.11-.32.06-.33-.13ZM42.43,88.86c0-.15-.1-.2-.23-.13s-.22.23-.22.39c0,.15.1.2.22.13.14-.08.23-.24.23-.39Z"/>
        <path class="cls-3" d="M42.87,89.09l.11-.07c.02.13.1.13.2.07.12-.07.16-.15.16-.23,0-.09-.05-.08-.19-.04-.14.05-.27.09-.27-.09,0-.14.09-.28.26-.37.18-.1.26-.05.28.1l-.11.07c-.01-.1-.06-.12-.17-.06s-.14.13-.14.2c0,.09.07.07.19.02.14-.05.26-.08.26.11,0,.17-.12.32-.28.41-.2.11-.3.07-.31-.11Z"/>
        <path class="cls-3" d="M44.08,88.56h0c-.05.11-.12.19-.22.25-.19.11-.31.01-.31-.25s.13-.51.31-.61c.1-.06.17-.05.22,0h0v-.11l.11-.06v1.08l-.11.06v-.36ZM44.09,88.25c0-.19-.07-.28-.23-.19-.13.08-.2.25-.2.44s.06.28.2.21c.16-.09.22-.27.22-.45Z"/>
        <path class="cls-3" d="M44.79,88.25v-.11h0c-.05.11-.11.2-.21.26-.15.08-.24.04-.24-.13v-.57l.11-.06v.56c0,.11.06.13.16.08.11-.07.19-.21.19-.34v-.5l.11-.06v.82l-.11.06Z"/>
        <path class="cls-3" d="M45.49,87.73h0c-.04.09-.11.19-.23.26-.13.08-.24.06-.24-.09,0-.19.13-.31.31-.44.11-.08.17-.13.17-.22s-.05-.11-.16-.05c-.12.07-.17.16-.18.29l-.11.06c0-.16.1-.34.29-.44.15-.09.26-.08.26.11v.46c0,.06.01.1.03.1h0s-.11.07-.11.07c-.01,0-.02-.03-.02-.1ZM45.49,87.54v-.13s-.1.1-.16.15c-.12.09-.2.15-.2.27,0,.11.08.09.15.05.15-.09.21-.25.21-.34Z"/>
        <path class="cls-3" d="M45.85,86.95h0c.04-.11.12-.22.21-.27.02-.01.03-.02.05-.02v.12h0s-.03.01-.05.02c-.11.06-.21.21-.21.37v.46l-.11.06v-.82l.11-.06v.14Z"/>
        <path class="cls-3" d="M46.15,87.05c0-.24.13-.51.34-.63.21-.12.33,0,.33.27l-.55.32c0,.16.09.24.23.16.1-.06.17-.16.2-.28l.11-.06c-.03.2-.14.36-.31.45-.22.13-.34,0-.34-.23ZM46.26,86.92l.43-.25c0-.16-.08-.22-.21-.14s-.2.23-.22.39Z"/>
        <path class="cls-3" d="M47.14,86.07l.11-.06v.12h0c.04-.11.12-.21.21-.26s.16-.04.19.04h0c.05-.12.13-.22.22-.27.13-.07.22-.03.22.14v.58l-.11.06v-.57c0-.1-.06-.13-.13-.09-.09.05-.17.19-.17.32v.51l-.11.06v-.57c0-.1-.05-.13-.12-.09-.09.05-.18.2-.18.33v.51l-.11.06v-.82Z"/>
        <path class="cls-3" d="M48.23,85.13l.11-.06v.16l-.11.06v-.16ZM48.23,85.44l.11-.06v.82l-.11.06v-.82Z"/>
        <path class="cls-3" d="M48.5,84.97l.11-.06v1.13l-.11.06v-1.13Z"/>
        <path class="cls-3" d="M48.72,85.57c0-.24.13-.51.34-.63.21-.12.33,0,.33.27l-.55.32c0,.16.09.24.23.16.1-.06.17-.16.2-.28l.11-.06c-.03.2-.14.36-.31.45-.22.13-.34,0-.34-.23ZM48.84,85.43l.43-.25c0-.16-.08-.22-.21-.14s-.2.23-.22.39Z"/>
        <path class="cls-3" d="M49.45,85.29l.11-.07c.02.13.1.13.2.07.12-.07.16-.15.16-.23,0-.09-.05-.08-.19-.04-.14.05-.27.09-.27-.09,0-.14.09-.28.26-.37.18-.1.26-.05.28.1l-.11.07c-.01-.1-.06-.12-.17-.06s-.14.13-.14.2c0,.09.07.07.19.02.14-.05.26-.08.26.11,0,.17-.12.32-.28.41-.2.11-.3.07-.31-.11Z"/>
      </g>
      <g>
        <path class="cls-1" d="M5.15,119.06c-.08,0-.17-.02-.24-.06l-4.65-2.54c-.16-.09-.26-.26-.26-.44V29.48c0-.18.1-.34.25-.43L50.44.07c.15-.09.34-.09.49,0l4.65,2.54c.16.09.26.26.26.44v86.53c0,.18-.1.34-.25.43L5.4,118.99c-.08.04-.16.07-.25.07ZM1,115.72l4.14,2.27,49.7-28.7V3.34l-4.14-2.27L1,29.77v85.95Z"/>
        <rect class="cls-1" x="2.57" y="28.1" width=".5" height="5.29" transform="translate(-25.49 18.43) rotate(-61.25)"/>
        <rect class="cls-1" x="1.26" y="17.28" width="57.96" height=".5" transform="translate(-4.72 17.48) rotate(-30.02)"/>
        <rect class="cls-1" x="4.9" y="32.02" width=".5" height="86.53"/>
      </g>
    </g>
  </g>
</svg>