<?xml version="1.0" encoding="UTF-8"?>
<svg id="Layer_2" data-name="Layer 2" xmlns="http://www.w3.org/2000/svg" viewBox="0 0 55.84 119.06">
  <defs>
    <style>
      .cls-1, .cls-2, .cls-3 {
        stroke-width: 0px;
      }

      .cls-2 {
        fill: #0f1d20;
      }

      .cls-3 {
        fill: #e4e41b;
      }
    </style>
  </defs>
  <g id="Layer_1-2" data-name="Layer 1">
    <g>
      <g>
        <polygon class="cls-3" points="55.34 89.58 5.15 118.56 5.15 32.02 55.34 3.05 55.34 89.58"/>
        <g>
          <path class="cls-2" d="M15.49,52.61v-16.23c0-1.59-.23-1.79-1.08-1.3-.92.53-1.08,1.04-1.08,2.55v16.23s-5.84,3.37-5.84,3.37v-16.23c0-5.52,2.54-9.58,6.92-12.11,4.38-2.53,6.92-1.4,6.92,4.12v16.23c0,8.2-7.99,14.99-7.99,22.68v23.76s2.15-1.24,2.15-1.24v-25.93s5.84-3.37,5.84-3.37v32.12s-13.83,7.99-13.83,7.99v-29.95c0-9.62,7.99-16.99,7.99-22.68Z"/>
          <path class="cls-2" d="M37.16,88.12l-13.83,7.99v-6.19s4-2.31,4-2.31v-55.54s-4,2.31-4,2.31v-6.19s1.23-.71,1.23-.71c2-1.15,2.77-2.43,2.77-4.44v-1.09s5.84-3.37,5.84-3.37v65.67s4-2.31,4-2.31v6.19Z"/>
          <path class="cls-2" d="M46.07,10.61c4.38-2.53,6.92-1.4,6.92,4.12v16.23c0,2.26-1.15,5.94-3.23,8.14,2.08-.19,3.23,2.15,3.23,4.41v27.86c0,5.52-2.54,9.58-6.92,12.11-4.38,2.53-6.92,1.4-6.92-4.12v-24.51s5.84-3.37,5.84-3.37v24.51c0,1.51.15,1.84,1.08,1.3.85-.49,1.08-.96,1.08-2.55v-29.28c0-1.34-.38-2.2-1.46-1.58l-2.23,1.29v-4.85s2.23-1.29,2.23-1.29c1.08-.62,1.46-1.93,1.46-3.27v-17.65c0-1.59-.23-1.79-1.08-1.3-.92.53-1.08,1.04-1.08,2.55v16.23s-5.84,3.37-5.84,3.37v-16.23c0-5.52,2.54-9.58,6.92-12.11Z"/>
        </g>
        <g>
          <path class="cls-2" d="M7.55,111.8l.48-.28v2.26s1.11-.64,1.11-.64v.46l-1.59.92v-2.72Z"/>
          <path class="cls-2" d="M9.24,112.57c0-.58.36-1.24.88-1.54s.88-.06.88.52c0,.58-.36,1.24-.88,1.54s-.88.06-.88-.52ZM10.55,111.81c0-.38-.16-.55-.43-.39s-.43.51-.43.89c0,.38.15.55.43.39s.43-.5.43-.88Z"/>
          <path class="cls-2" d="M11.11,111.83l.42-.24c.03.21.17.23.37.11s.31-.27.31-.4c0-.19-.21-.08-.45,0-.3.11-.6.18-.6-.24s.3-.8.69-1.02c.45-.26.69-.14.73.23l-.41.23c-.02-.2-.14-.21-.33-.1-.17.1-.29.24-.29.38,0,.17.22.05.47-.03.28-.1.6-.18.6.27,0,.39-.29.8-.71,1.04-.49.28-.77.17-.79-.23Z"/>
          <path class="cls-2" d="M14.06,108.04l.49-.29.83,2.24-.5.29-.16-.49-.85.49-.16.67-.48.28.82-3.2ZM13.99,109.8l.62-.36-.21-.66c-.04-.12-.1-.36-.1-.36h0s-.06.31-.1.48l-.21.91Z"/>
          <path class="cls-2" d="M15.98,107.96h0c.12-.28.27-.48.5-.62.35-.2.58-.03.58.39v1.28l-.45.26v-1.2c0-.21-.11-.3-.29-.19-.2.11-.34.38-.34.65v1.11l-.45.26v-1.95l.44-.25v.27Z"/>
          <path class="cls-2" d="M17.31,108.94l.45-.26c.04.1.13.14.34.02.25-.15.38-.36.38-.62v-.21s0,0,0,0c-.1.19-.23.36-.44.48-.38.22-.75.09-.75-.5,0-.58.3-1.13.73-1.38.21-.12.37-.12.47-.01h0v-.21l.43-.25v1.81c0,.27-.08.5-.2.71-.14.23-.36.43-.61.57-.46.27-.75.2-.79-.15ZM18.5,107.14c0-.29-.13-.45-.4-.3-.23.13-.38.42-.38.75s.15.44.38.3c.28-.16.4-.47.4-.76Z"/>
          <path class="cls-2" d="M19.12,106.86c0-.58.34-1.22.83-1.51.54-.31.83,0,.83.7l-1.23.71c.03.28.18.38.43.24.17-.1.28-.25.33-.43l.44-.26c-.06.38-.33.83-.77,1.08-.56.32-.88.05-.88-.53ZM19.57,106.39l.75-.43c-.01-.24-.16-.33-.36-.21-.24.14-.35.37-.39.65Z"/>
          <path class="cls-2" d="M21.01,104.02l.45-.26v2.72s-.45.26-.45.26v-2.72Z"/>
          <path class="cls-2" d="M21.67,105.39c0-.58.34-1.22.83-1.51.54-.31.83,0,.83.7l-1.23.71c.03.28.18.38.43.24.17-.1.28-.25.33-.43l.44-.26c-.06.38-.33.83-.77,1.08-.56.32-.88.05-.88-.53ZM22.12,104.92l.75-.43c-.01-.24-.16-.33-.36-.21-.24.14-.35.37-.39.65Z"/>
          <path class="cls-2" d="M23.44,104.71l.42-.24c.03.21.17.23.37.11s.31-.27.31-.4c0-.19-.21-.08-.45,0-.3.11-.6.18-.6-.24s.3-.8.69-1.02c.45-.26.69-.14.73.23l-.41.23c-.02-.2-.14-.21-.33-.1-.17.1-.29.24-.29.38,0,.17.22.05.47-.03.28-.1.6-.18.6.27s-.29.8-.71,1.04c-.49.28-.77.17-.79-.23Z"/>
          <path class="cls-2" d="M25.13,104.82c.13-.15.24-.35.24-.58l-.24.14v-.55l.48-.28v.52c0,.39-.22.74-.48.94v-.19Z"/>
          <path class="cls-2" d="M26.36,102.31c0-.81.44-1.68,1.13-2.08.58-.34.92-.13.97.36l-.48.27c-.04-.25-.22-.33-.5-.17-.44.25-.64.79-.64,1.33,0,.56.25.81.65.58.28-.16.48-.47.51-.77l.47-.27c-.01.25-.1.53-.26.79-.16.27-.39.51-.72.7-.66.38-1.13.06-1.13-.75Z"/>
          <path class="cls-2" d="M29.3,99.24l.49-.29.83,2.24-.5.29-.16-.49-.85.49-.16.67-.48.28.82-3.2ZM29.23,101l.62-.36-.21-.66c-.04-.12-.1-.36-.1-.36h0s-.06.31-.1.48l-.21.91Z"/>
        </g>
        <g>
          <path class="cls-2" d="M7.52,107.83l.11-.07c0,.17.1.21.26.12.13-.08.22-.2.22-.36,0-.14-.09-.16-.25-.07l-.06.03v-.1l.06-.03c.15-.08.22-.2.22-.31s-.09-.14-.2-.07c-.14.08-.22.23-.22.38l-.11.07c0-.22.13-.43.33-.55.17-.1.31-.07.31.12,0,.12-.06.23-.16.32h0c.13-.03.19.03.19.17,0,.21-.15.41-.34.52-.21.12-.37.08-.38-.17Z"/>
          <path class="cls-2" d="M8.76,107.2l-.44.26v-.12l.47-.98.09-.05v.73s.16-.09.16-.09v.11l-.16.09v.27l-.11.07v-.27ZM8.42,107.29l.33-.19v-.51s0,0,0,0l-.33.69h0Z"/>
          <path class="cls-2" d="M9.12,107.11l.13-.08v.16l-.13.08v-.16Z"/>
          <path class="cls-2" d="M9.34,106.59c0-.35.14-.65.37-.78s.36,0,.36.36c0,.35-.13.64-.37.78s-.37-.01-.37-.36ZM9.95,106.24c0-.28-.08-.41-.24-.31s-.25.32-.25.6c0,.28.08.41.25.31s.24-.31.24-.59Z"/>
          <path class="cls-2" d="M10.16,106.35l.11-.07c.02.13.1.16.23.09s.22-.23.22-.39-.1-.2-.22-.13c-.1.06-.17.15-.21.23l-.11.06.1-.64.5-.29v.12l-.42.24-.06.36h0c.05-.09.13-.17.22-.22.17-.1.32-.05.32.19s-.14.46-.34.57-.34.06-.35-.14Z"/>
          <path class="cls-2" d="M11.28,105.5c.12-.15.2-.25.2-.38,0-.13-.08-.18-.2-.11-.07.04-.12.09-.15.15-.04.07-.05.14-.05.25l-.12.07c0-.14.03-.25.09-.35.06-.1.15-.19.24-.24.19-.11.31-.04.31.15,0,.21-.12.35-.27.53-.1.12-.23.29-.26.42l.51-.3v.13l-.65.38c.01-.3.19-.51.35-.71Z"/>
          <path class="cls-2" d="M12.05,105.06c.12-.15.2-.25.2-.38s-.08-.18-.2-.11c-.07.04-.12.09-.15.15-.04.07-.05.14-.05.25l-.12.07c0-.14.03-.25.09-.35.06-.1.15-.19.24-.24.19-.11.31-.04.31.15,0,.21-.12.35-.27.53-.1.12-.23.29-.26.42l.51-.3v.13l-.65.38c.01-.3.19-.51.35-.71Z"/>
          <path class="cls-2" d="M12.46,104.41c0-.11.08-.24.17-.29s.17-.01.17.1-.08.24-.17.29-.17.01-.17-.1ZM12.73,104.26c0-.07-.04-.1-.1-.06s-.1.11-.1.18.04.1.1.07.1-.11.1-.18Z"/>
          <path class="cls-2" d="M13.17,103.79l.13-.08.45.53s.07.1.07.1h0v-.94l.12-.07v1.13l-.13.07-.45-.53s-.07-.1-.07-.1h0v.93l-.12.07v-1.13Z"/>
        </g>
        <g>
          <path class="cls-2" d="M23.58,98.12l-.21.12v-.09c.12-.07.21-.18.23-.35l.09-.05v1.09l-.12.07v-.79Z"/>
          <path class="cls-2" d="M24.06,97.85l-.21.12v-.09c.12-.07.21-.18.23-.35l.09-.05v1.09l-.12.07v-.79Z"/>
          <path class="cls-2" d="M24.32,98.17c0-.16.09-.29.19-.39h0c-.09,0-.15-.04-.15-.15,0-.17.14-.36.31-.46s.31-.07.31.11c0,.11-.06.22-.14.31h0c.11-.02.19.03.19.18,0,.25-.18.44-.35.54s-.36.12-.36-.13ZM24.92,97.83c0-.14-.09-.18-.24-.09s-.24.23-.24.37.09.17.24.08.24-.22.24-.36ZM24.88,97.34c0-.11-.08-.13-.2-.06s-.2.18-.2.29.08.13.2.06.2-.18.2-.29Z"/>
          <path class="cls-2" d="M25.14,97.85l.13-.08v.16l-.13.08v-.16Z"/>
          <path class="cls-2" d="M25.73,97.16c.12-.15.2-.25.2-.38s-.08-.18-.2-.11c-.07.04-.12.09-.15.15-.04.07-.05.14-.05.25l-.12.07c0-.14.03-.25.09-.35.06-.1.15-.19.24-.24.19-.11.31-.04.31.15,0,.21-.12.35-.27.53-.1.12-.23.29-.26.42l.51-.3v.13l-.65.38c.01-.3.19-.51.35-.71Z"/>
          <path class="cls-2" d="M26.54,96.94l-.44.26v-.12l.47-.98.09-.05v.73s.16-.09.16-.09v.11l-.16.09v.27l-.11.07v-.27ZM26.21,97.02l.33-.19v-.51s0,0,0,0l-.33.69h0Z"/>
          <path class="cls-2" d="M26.86,96.66l.11-.07c0,.17.1.21.26.12.13-.08.22-.2.22-.36,0-.14-.09-.16-.25-.07l-.06.03v-.1l.06-.03c.15-.08.22-.2.22-.31s-.09-.14-.2-.07c-.14.08-.22.23-.22.38l-.11.07c0-.22.13-.43.33-.55.17-.1.31-.07.31.12,0,.12-.06.23-.16.32h0c.13-.03.19.03.19.17,0,.21-.15.41-.34.52-.21.12-.37.08-.38-.17Z"/>
          <path class="cls-2" d="M28.17,95.3h0s-.54.31-.54.31v-.12l.66-.38v.11c-.19.31-.38.77-.4,1.21l-.12.07c.02-.39.19-.88.4-1.2Z"/>
          <path class="cls-2" d="M28.38,95.22c0-.11.08-.24.17-.29s.17-.01.17.1-.08.24-.17.29-.17.01-.17-.1ZM28.65,95.07c0-.07-.04-.1-.1-.06s-.1.11-.1.18.04.1.1.07.1-.11.1-.18Z"/>
          <path class="cls-2" d="M29.01,94.64l.13-.07.16.65c.02.07.04.17.04.17h0s.02-.14.04-.22l.18-.84.13-.08.17.64c.02.07.04.17.04.17h0s.02-.14.04-.22l.16-.83.13-.07-.27,1.29-.12.07-.18-.7c-.02-.06-.04-.15-.04-.15h0s-.02.12-.04.2l-.19.91-.12.07-.25-.99Z"/>
        </g>
        <g>
          <path class="cls-2" d="M39.27,93.48l.43-.25c.11-.07.2-.08.26-.04.06.03.09.1.09.21,0,.21-.12.43-.33.55l-.24.14v.41l-.21.12v-1.13ZM39.48,93.9l.21-.12c.1-.06.16-.16.16-.26s-.06-.13-.16-.08l-.21.12v.34Z"/>
          <path class="cls-2" d="M40.08,93.74c0-.24.15-.52.37-.64s.37-.03.37.22-.15.52-.37.64-.37.03-.37-.22ZM40.62,93.43c0-.16-.06-.23-.18-.16s-.18.21-.18.37.06.23.18.16.18-.21.18-.37Z"/>
          <path class="cls-2" d="M40.9,92.86l.18-.1v.1s0,0,0,0c.05-.1.11-.19.21-.24.19-.11.31,0,.31.25s-.12.5-.31.61c-.1.06-.16.05-.2,0h0v.36l-.19.11v-1.08ZM41.41,92.98c0-.15-.05-.23-.16-.17s-.16.21-.16.36c0,.15.06.21.17.15.09-.05.16-.18.16-.33Z"/>
          <path class="cls-2" d="M42.13,92.97v-.1h0c-.05.1-.1.18-.2.24-.16.09-.24.03-.24-.15v-.54l.19-.11v.51c0,.1.04.13.12.08.09-.05.14-.16.14-.27v-.47l.19-.11v.81l-.18.1Z"/>
          <path class="cls-2" d="M42.43,91.65l.19-.11v1.13l-.19.11v-1.13Z"/>
          <path class="cls-2" d="M43.17,92.27c-.04.08-.09.17-.21.24-.14.08-.24.05-.24-.11,0-.18.13-.31.28-.43.12-.09.17-.13.17-.19,0-.06-.04-.07-.12-.02-.09.05-.13.11-.13.19l-.17.1c0-.15.09-.32.3-.44s.3-.07.3.13v.33c0,.05,0,.07.05.04h0s0,.13,0,.13c-.02.02-.04.04-.08.06-.09.05-.13.05-.15-.02ZM43.17,92.08v-.12s-.08.08-.13.12c-.1.08-.15.13-.15.21s.04.08.11.04c.11-.06.17-.17.17-.25Z"/>
          <path class="cls-2" d="M43.41,91.41l.1-.06v-.25l.18-.11v.25s.12-.07.12-.07v.14l-.12.07v.43c0,.06.03.06.07.04.02-.01.05-.03.05-.03v.16s-.04.03-.12.07c-.09.05-.19.07-.19-.08v-.48l-.1.06v-.14Z"/>
          <path class="cls-2" d="M43.91,90.8l.19-.11v.19l-.19.11v-.19ZM43.91,91.13l.19-.11v.81l-.19.11v-.81Z"/>
          <path class="cls-2" d="M44.18,91.38c0-.24.15-.52.37-.64s.37-.03.37.22-.15.52-.37.64-.37.03-.37-.22ZM44.73,91.06c0-.16-.06-.23-.18-.16s-.18.21-.18.37c0,.16.06.23.18.16s.18-.21.18-.37Z"/>
          <path class="cls-2" d="M45.19,90.5h0c.05-.12.11-.2.21-.26.15-.08.24-.01.24.16v.53l-.19.11v-.5c0-.09-.04-.12-.12-.08-.08.05-.14.16-.14.27v.46l-.19.11v-.81l.18-.11v.11Z"/>
          <path class="cls-2" d="M45.75,90.17l.2-.12v.23l-.2.12v-.23ZM45.75,90.64l.2-.12v.23l-.2.12v-.23Z"/>
          <path class="cls-2" d="M39.22,95.87l.11-.07c0,.17.1.21.26.12.13-.08.22-.2.22-.36,0-.14-.09-.16-.25-.07l-.06.03v-.1l.06-.03c.15-.08.22-.2.22-.31s-.09-.14-.2-.07c-.14.08-.22.23-.22.38l-.11.07c0-.22.13-.43.33-.55.17-.1.31-.07.31.12,0,.12-.06.23-.16.32h0c.13-.03.19.03.19.17,0,.21-.15.41-.34.52-.21.12-.37.08-.38-.17Z"/>
          <path class="cls-2" d="M40.04,95.89s.06-.08.06-.17l-.06.04v-.16l.13-.08v.16c0,.12-.05.21-.13.27v-.07Z"/>
          <path class="cls-2" d="M40.28,95.31c0-.16.09-.29.19-.39h0c-.09,0-.15-.04-.15-.15,0-.17.14-.36.31-.46s.31-.07.31.11c0,.11-.06.22-.14.31h0c.11-.02.19.03.19.18,0,.25-.18.44-.35.54s-.36.12-.36-.13ZM40.87,94.97c0-.14-.09-.18-.24-.09s-.24.23-.24.37.09.17.24.08.24-.22.24-.36ZM40.83,94.48c0-.11-.08-.13-.2-.06s-.2.18-.2.29c0,.11.08.13.2.06s.2-.18.2-.29Z"/>
          <path class="cls-2" d="M41.08,94.61c0-.35.14-.65.37-.78s.36,0,.36.36c0,.35-.13.64-.37.78s-.37-.01-.37-.36ZM41.69,94.26c0-.28-.08-.41-.24-.31s-.25.32-.25.6.08.41.25.31.24-.31.24-.59Z"/>
          <path class="cls-2" d="M41.93,94.12c0-.35.14-.65.37-.78s.36,0,.36.36c0,.35-.13.64-.37.78s-.37-.01-.37-.36ZM42.55,93.77c0-.28-.08-.41-.24-.31s-.25.32-.25.6.08.41.25.31.24-.31.24-.59Z"/>
          <path class="cls-2" d="M42.75,94.32s.06-.08.06-.17l-.06.04v-.16l.13-.08v.16c0,.12-.05.21-.13.27v-.07Z"/>
          <path class="cls-2" d="M42.97,93.52c0-.35.14-.65.37-.78s.36,0,.36.36-.13.64-.37.78-.37-.01-.37-.36ZM43.58,93.17c0-.28-.08-.41-.24-.31s-.25.32-.25.6.08.41.25.31.24-.31.24-.59Z"/>
          <path class="cls-2" d="M43.82,93.03c0-.35.14-.65.37-.78s.36,0,.36.36c0,.35-.13.64-.37.78s-.37-.01-.37-.36ZM44.44,92.68c0-.28-.08-.41-.24-.31s-.25.32-.25.6.08.41.25.31.24-.31.24-.59Z"/>
          <path class="cls-2" d="M44.68,92.54c0-.35.14-.65.37-.78s.36,0,.36.36c0,.35-.13.64-.37.78s-.37-.01-.37-.36ZM45.29,92.19c0-.28-.08-.41-.24-.31s-.25.32-.25.6c0,.28.08.41.25.31s.24-.31.24-.59Z"/>
        </g>
        <g>
          <g>
            <polygon class="cls-2" points="51.79 86.25 51.27 86.55 51.27 89.28 51.79 88.98 51.79 86.25"/>
            <polygon class="cls-2" points="52.39 85.9 51.87 86.21 51.87 88.93 52.39 88.63 52.39 85.9"/>
            <polygon class="cls-2" points="52.99 85.56 52.47 85.86 52.47 88.59 52.99 88.28 52.99 85.56"/>
          </g>
          <path class="cls-2" d="M53.15,85.77c0-.18.11-.37.26-.46s.26-.02.26.16-.12.37-.26.46-.26.02-.26-.16ZM53.64,85.49c0-.16-.1-.22-.23-.14s-.23.25-.23.41.1.22.23.14.23-.25.23-.41ZM53.3,85.51l.14-.08c.05-.03.09-.02.09.04,0,.04-.02.08-.05.11h0s.04,0,.05.05c0,.05,0,.07.01.07h0s-.05.04-.05.04c0,0,0-.03-.01-.07,0-.04-.02-.05-.05-.03l-.06.04v.13l-.05.03v-.34ZM53.35,85.64l.07-.04s.05-.05.05-.08c0-.03-.01-.04-.05-.02l-.07.04v.1Z"/>
        </g>
        <path class="cls-2" d="M39.54,88.56l.21-.12.35.93-.21.12-.07-.2-.35.2-.06.28-.2.12.34-1.33ZM39.51,89.3l.26-.15-.09-.28c-.02-.05-.04-.15-.04-.15h0s-.02.13-.04.2l-.09.38Z"/>
        <path class="cls-2" d="M40.34,88.55h0c.04-.12.09-.19.17-.24.02-.01.03-.02.04-.02v.19h0c-.12.06-.21.18-.21.36v.4l-.19.11v-.81l.18-.1v.13Z"/>
        <path class="cls-2" d="M40.59,88.68c0-.24.14-.51.35-.63.23-.13.35,0,.35.29l-.51.3c.01.12.07.16.18.1.07-.04.12-.1.14-.18l.18-.11c-.03.16-.14.35-.32.45-.23.13-.37.02-.37-.22ZM40.78,88.49l.31-.18c0-.1-.06-.14-.15-.09-.1.06-.15.15-.16.27Z"/>
        <path class="cls-2" d="M41.79,88.3c-.04.08-.09.17-.21.24-.14.08-.24.05-.24-.11,0-.18.13-.31.28-.43.12-.09.17-.13.17-.19,0-.06-.04-.07-.12-.02-.09.05-.13.11-.13.19l-.17.1c0-.15.09-.32.3-.44s.3-.07.3.13v.33c0,.05,0,.07.05.04h0s0,.13,0,.13c-.02.02-.04.04-.08.06-.09.05-.13.05-.15-.02ZM41.79,88.11v-.12s-.08.08-.13.12c-.1.08-.15.13-.15.21s.04.08.11.04c.11-.06.17-.17.17-.25Z"/>
        <path class="cls-2" d="M42.09,87.52l.2-.12v.23l-.2.12v-.23ZM42.09,87.99l.2-.12v.23l-.2.12v-.23Z"/>
        <path class="cls-2" d="M39.67,90.94l-.44.26v-.12l.47-.98.09-.05v.73s.16-.09.16-.09v.11l-.16.09v.27l-.11.07v-.27ZM39.34,91.03l.33-.19v-.51s0,0,0,0l-.33.7h0Z"/>
        <path class="cls-2" d="M40.17,90.85c-.1-.05-.13-.18-.13-.4,0-.34.13-.63.36-.77.19-.11.28-.02.3.13l-.11.07c0-.1-.07-.15-.18-.08-.18.11-.25.32-.25.58h0c.06-.13.15-.24.26-.3.17-.1.31-.01.31.19,0,.2-.14.45-.32.55-.1.06-.18.07-.23.04ZM40.61,90.32c0-.15-.09-.21-.22-.14-.13.08-.23.23-.23.39,0,.15.1.2.23.13.12-.07.21-.23.21-.38Z"/>
        <path class="cls-2" d="M40.82,90.24c0-.16.09-.29.19-.39h0c-.09,0-.15-.04-.15-.15,0-.17.14-.36.31-.46s.31-.07.31.11c0,.11-.06.22-.14.31h0c.11-.02.19.03.19.18,0,.25-.18.44-.35.54s-.36.12-.36-.13ZM41.41,89.89c0-.14-.09-.18-.24-.09s-.24.23-.24.37.09.17.24.08.24-.22.24-.36ZM41.37,89.4c0-.11-.08-.13-.2-.06s-.2.18-.2.29.08.13.2.06.2-.18.2-.29Z"/>
        <path class="cls-2" d="M41.64,89.92l.13-.08v.16l-.13.08v-.16Z"/>
        <path class="cls-2" d="M42.36,88.69h0s-.54.31-.54.31v-.12l.66-.38v.11c-.19.31-.38.77-.4,1.21l-.12.07c.02-.39.19-.88.4-1.2Z"/>
        <path class="cls-2" d="M42.74,89.17l.11-.07c.02.13.1.13.2.07.12-.07.16-.15.16-.23,0-.09-.05-.08-.19-.04-.14.05-.27.09-.27-.09,0-.14.09-.28.26-.37.18-.1.26-.05.28.1l-.11.07c-.01-.1-.06-.12-.17-.06s-.14.13-.14.2c0,.09.07.07.19.02.14-.05.26-.08.26.11,0,.17-.12.32-.28.41-.2.11-.3.07-.31-.11Z"/>
        <path class="cls-2" d="M43.96,88.64h0c-.05.11-.12.19-.22.25-.19.11-.31.01-.31-.25,0-.27.13-.51.31-.61.1-.06.17-.05.22,0h0v-.11l.11-.06v1.08l-.11.06v-.36ZM43.96,88.33c0-.19-.07-.28-.23-.19-.13.08-.2.25-.2.44s.06.28.2.21c.16-.09.22-.27.22-.45Z"/>
        <path class="cls-2" d="M44.67,88.32v-.11h0c-.05.11-.11.2-.21.26-.15.08-.24.04-.24-.13v-.57l.11-.06v.56c0,.11.06.13.16.08.11-.07.19-.21.19-.34v-.5l.11-.06v.82l-.11.06Z"/>
        <path class="cls-2" d="M45.37,87.81h0c-.04.09-.11.19-.23.26-.13.08-.24.06-.24-.09,0-.19.13-.31.31-.44.11-.08.17-.13.17-.22s-.05-.11-.16-.05c-.12.07-.17.16-.18.29l-.11.06c0-.16.1-.34.29-.44.15-.09.26-.08.26.11v.46c0,.06.01.1.03.1h0s-.11.07-.11.07c-.01,0-.02-.03-.02-.1ZM45.37,87.62v-.13s-.1.1-.16.15c-.12.09-.2.15-.2.27,0,.11.08.09.15.05.15-.09.21-.25.21-.34Z"/>
        <path class="cls-2" d="M45.73,87.03h0c.04-.11.12-.22.21-.27.02-.01.03-.02.05-.02v.12h0s-.03.01-.05.02c-.11.06-.21.21-.21.37v.46l-.11.06v-.82l.11-.06v.14Z"/>
        <path class="cls-2" d="M46.02,87.13c0-.24.13-.51.34-.63.21-.12.33,0,.33.27l-.55.32c0,.16.09.24.23.16.1-.06.17-.16.2-.28l.11-.06c-.03.2-.14.36-.31.45-.22.13-.34,0-.34-.23ZM46.14,87l.43-.25c0-.16-.08-.22-.21-.14s-.2.23-.22.39Z"/>
        <path class="cls-2" d="M47.01,86.15l.11-.06v.12h0c.04-.11.12-.21.21-.26s.16-.04.19.04h0c.05-.12.13-.22.22-.27.13-.07.22-.03.22.14v.58l-.11.06v-.57c0-.1-.06-.13-.13-.09-.09.05-.17.19-.17.32v.51l-.11.06v-.57c0-.1-.05-.13-.12-.09-.09.05-.18.2-.18.33v.51l-.11.06v-.82Z"/>
        <path class="cls-2" d="M48.11,85.2l.11-.06v.16l-.11.06v-.16ZM48.11,85.52l.11-.06v.82l-.11.06v-.82Z"/>
        <path class="cls-2" d="M48.37,85.05l.11-.06v1.13l-.11.06v-1.13Z"/>
        <path class="cls-2" d="M48.6,85.64c0-.24.13-.51.34-.63.21-.12.33,0,.33.27l-.55.32c0,.16.09.24.23.16.1-.06.17-.16.2-.28l.11-.06c-.03.2-.14.36-.31.45-.22.13-.34,0-.34-.23ZM48.72,85.51l.43-.25c0-.16-.08-.22-.21-.14s-.2.23-.22.39Z"/>
        <path class="cls-2" d="M49.33,85.37l.11-.07c.02.13.1.13.2.07.12-.07.16-.15.16-.23,0-.09-.05-.08-.19-.04-.14.05-.27.09-.27-.09,0-.14.09-.28.26-.37.18-.1.26-.05.28.1l-.11.07c-.01-.1-.06-.12-.17-.06s-.14.13-.14.2c0,.09.07.07.19.02.14-.05.26-.08.26.11,0,.17-.12.32-.28.41-.2.11-.3.07-.31-.11Z"/>
      </g>
      <g>
        <path class="cls-1" d="M5.15,119.06c-.08,0-.17-.02-.24-.06l-4.65-2.54c-.16-.09-.26-.26-.26-.44V29.48c0-.18.1-.34.25-.43L50.44.07c.15-.09.34-.09.49,0l4.65,2.54c.16.09.26.26.26.44v86.53c0,.18-.1.34-.25.43L5.4,118.99c-.08.04-.16.07-.25.07ZM1,115.72l4.14,2.27,49.7-28.69V3.34l-4.14-2.27L1,29.77v85.95Z"/>
        <rect class="cls-1" x="2.57" y="28.1" width=".5" height="5.29" transform="translate(-25.49 18.43) rotate(-61.25)"/>
        <rect class="cls-1" x="1.26" y="17.28" width="57.96" height=".5" transform="translate(-4.72 17.48) rotate(-30.02)"/>
        <rect class="cls-1" x="4.9" y="32.02" width=".5" height="86.53"/>
      </g>
    </g>
  </g>
</svg>