<?xml version="1.0" encoding="UTF-8"?>
<svg id="Layer_2" data-name="Layer 2" xmlns="http://www.w3.org/2000/svg" viewBox="0 0 126.25 78.54">
  <defs>
    <style>
      .cls-1, .cls-2, .cls-3 {
        stroke-width: 0px;
      }

      .cls-2 {
        fill: #584681;
      }

      .cls-3 {
        fill: #d2dcde;
      }
    </style>
  </defs>
  <g id="Layer_1-2" data-name="Layer 1">
    <g>
      <g>
        <polygon class="cls-3" points="50.7 72.73 .51 43.75 75.45 .49 125.64 29.46 50.7 72.73"/>
        <g>
          <path class="cls-2" d="M62.79,19.74l14.05-8.11c1.38-.79,1.44-1.1.59-1.58-.92-.53-1.44-.41-2.74.34l-14.05,8.11-5.84-3.37,14.05-8.11c4.78-2.76,9.56-2.59,13.94-.06,4.38,2.53,4.67,5.29-.11,8.05l-14.05,8.11c-7.1,4.1-16.98.57-23.64,4.42l-20.57,11.88,2.15,1.24,22.46-12.97,5.84,3.37-27.82,16.06-13.83-7.99,25.93-14.97c8.33-4.81,18.71-1.58,23.64-4.42Z"/>
          <path class="cls-2" d="M42.88,56.26l-13.83-7.99,5.36-3.1,4,2.31,48.1-27.77-4-2.31,5.36-3.1,1.23.71c2,1.15,3.49,1.18,5.23.18l.94-.54,5.84,3.37-56.87,32.83,4,2.31-5.36,3.1Z"/>
          <path class="cls-2" d="M76.44,54.81l1.23.71-5.36,3.1-1.23-.71-12.68,7.32-5.84-3.37,12.68-7.32-7.76-4.48,4.93-2.84,49.31-23.06,8.92,5.15-44.19,25.51ZM70.6,51.44l32.8-17.78-.46-.27-34.8,16.63,2.46,1.42Z"/>
        </g>
        <g>
          <path class="cls-2" d="M7.56,42.45l.92.53c.63.36.53.89-.17,1.29-.38.22-.85.34-1.3.32-.32-.02-.63-.1-.93-.27l-.88-.51,2.36-1.36ZM6.47,44.07c.45.26.9.2,1.37-.07s.59-.58.18-.81l-.38-.22-1.54.89.37.21Z"/>
          <path class="cls-2" d="M8.59,45.53c-.22.02-.47,0-.76-.16-.35-.2-.41-.44-.07-.63.37-.22.8-.11,1.23.08.32.14.47.2.6.13s.1-.18-.1-.29c-.21-.12-.38-.14-.56-.05l-.4-.23c.31-.17.79-.19,1.28.1s.5.55.1.78l-.69.4c-.11.06-.13.1-.01.14h0s-.27.16-.27.16c-.06-.01-.13-.03-.23-.09-.21-.12-.26-.22-.13-.34ZM8.98,45.31l.25-.14c-.13-.02-.27-.07-.41-.12-.29-.1-.45-.14-.61-.05s-.11.18.05.28c.26.15.56.14.72.04Z"/>
          <path class="cls-2" d="M11.46,44.7l.45.26-2.36,1.36-.45-.26,2.36-1.36Z"/>
          <path class="cls-2" d="M12.21,45.14l.45.26-2.36,1.36-.45-.26,2.36-1.36Z"/>
          <path class="cls-2" d="M11.82,47.4c-.22.02-.47,0-.76-.16-.35-.2-.41-.44-.07-.63.37-.22.8-.11,1.23.08.32.14.47.2.6.13s.1-.18-.1-.29c-.21-.12-.38-.14-.56-.05l-.4-.23c.31-.17.79-.19,1.28.1s.5.55.1.78l-.69.4c-.11.06-.13.1-.01.14h0s-.27.16-.27.16c-.06-.01-.13-.03-.23-.09-.21-.12-.26-.22-.13-.34ZM12.21,47.17l.25-.14c-.13-.02-.27-.07-.41-.12-.29-.1-.45-.14-.61-.05s-.11.18.05.28c.26.15.56.14.72.04Z"/>
          <path class="cls-2" d="M12.77,47.55l.42.24c-.16.13-.11.26.09.38s.39.14.5.07c.16-.09-.04-.23-.22-.39-.24-.21-.46-.43-.09-.64s.84-.14,1.23.09c.45.26.47.53.16.74l-.41-.23c.16-.12.11-.22-.08-.33-.17-.1-.36-.13-.48-.06-.15.08.07.22.26.39.22.2.46.42.06.65-.34.2-.83.15-1.26-.1-.49-.28-.53-.58-.19-.8Z"/>
          <path class="cls-2" d="M13.52,49.06c.19.04.42.03.62-.09l-.24-.14.48-.28.48.28-.45.26c-.34.19-.75.18-1.05.06l.16-.09Z"/>
          <path class="cls-2" d="M17.47,48.17l1.9,1.1-.4.23-.71-.41-1.96,1.13-.48-.28,1.96-1.13-.71-.41.4-.23Z"/>
          <path class="cls-2" d="M19.08,50.4l.42-1.06.54.31-.31.68h0s1.18-.18,1.18-.18l.52.3-1.81.25-.46,1.17-.56-.32.38-.78h0s-1.35.21-1.35.21l-.55-.32,2-.27Z"/>
        </g>
        <g>
          <path class="cls-2" d="M10.99,40.44l.11.07c-.15.09-.13.19.02.28.13.08.29.09.42.01.12-.07.09-.16-.06-.25l-.06-.03.09-.05.06.03c.15.08.28.09.38.03s.07-.15-.04-.21c-.14-.08-.31-.07-.44,0l-.11-.07c.19-.11.44-.11.64.01.17.1.22.24.05.33-.11.06-.23.06-.35.02h0c.1.1.07.18-.05.25-.18.1-.43.08-.62-.03-.21-.12-.25-.28-.04-.41Z"/>
          <path class="cls-2" d="M12.27,41.04c.2.03.32.05.43-.02s.11-.16-.01-.23c-.07-.04-.14-.05-.21-.05-.08,0-.15.02-.24.08l-.12-.07c.12-.07.23-.1.34-.1.12,0,.24.03.33.09.19.11.19.25.03.35-.18.1-.37.07-.6.03-.16-.03-.37-.06-.5-.01l.51.3-.11.06-.65-.38c.26-.14.53-.09.79-.05Z"/>
          <path class="cls-2" d="M12.4,41.46l.13.08-.14.08-.13-.08.14-.08Z"/>
          <path class="cls-2" d="M13.82,41.47h0s-.54-.31-.54-.31l.1-.06.66.38-.09.05c-.36-.01-.85.05-1.25.26l-.12-.07c.35-.18.86-.27,1.24-.25Z"/>
          <path class="cls-2" d="M14.54,41.89h0s-.54-.31-.54-.31l.1-.06.66.38-.09.05c-.36-.01-.85.05-1.25.26l-.12-.07c.35-.18.86-.27,1.24-.25Z"/>
          <path class="cls-2" d="M14.08,42.52c0-.11.09-.2.28-.32.29-.17.61-.21.85-.07.19.11.16.23.04.32l-.11-.07c.08-.06.09-.14-.02-.2-.18-.11-.4-.06-.63.07h0c.14-.01.28.01.39.08.17.1.17.26,0,.36-.17.1-.46.1-.64,0-.1-.06-.15-.12-.15-.18ZM14.76,42.64c.13-.08.13-.18,0-.25-.13-.08-.32-.08-.45,0s-.13.19,0,.26c.12.07.3.07.44,0Z"/>
          <path class="cls-2" d="M16.01,42.74h0s-.54-.31-.54-.31l.1-.06.66.38-.09.05c-.36-.01-.85.05-1.25.26l-.12-.07c.35-.18.86-.27,1.24-.25Z"/>
          <path class="cls-2" d="M16.18,42.88c.09-.05.25-.05.34,0s.1.14,0,.2-.24.05-.34,0-.1-.14,0-.2ZM16.45,43.04c.06-.03.07-.08,0-.12s-.14-.03-.2,0-.07.08,0,.12.14.03.2,0Z"/>
          <path class="cls-2" d="M17.07,43.18l.13.08-.23.65s-.05.11-.05.11h0s.81-.47.81-.47l.12.07-.98.57-.13-.07.23-.66s.05-.11.05-.11h0s-.81.46-.81.46l-.12-.07.98-.57Z"/>
        </g>
        <g>
          <path class="cls-2" d="M26.81,49.64l.12.07c-.09.06-.1.15.03.22.07.04.14.06.22.06.12,0,.24-.05.39-.13h0c-.14,0-.27-.02-.38-.08-.17-.1-.17-.26,0-.36.17-.1.46-.11.65,0,.09.05.13.11.15.17.02.11-.08.21-.29.33-.19.11-.37.17-.54.16-.11,0-.21-.03-.3-.08-.19-.11-.21-.25-.05-.35ZM27.75,49.73c.13-.08.12-.19,0-.26s-.31-.08-.45,0-.13.19,0,.26c.14.08.32.08.46,0Z"/>
          <path class="cls-2" d="M27.54,50.29c0-.11.09-.2.28-.32.29-.17.61-.21.85-.07.19.11.16.23.04.32l-.11-.07c.08-.06.09-.14-.02-.2-.18-.11-.4-.06-.63.07h0c.14-.01.28.01.39.08.17.1.17.26,0,.36-.17.1-.46.1-.64,0-.1-.06-.15-.12-.15-.18ZM28.22,50.41c.13-.08.13-.18,0-.25-.13-.08-.32-.08-.45,0s-.13.19,0,.26c.12.07.3.07.44,0Z"/>
          <path class="cls-2" d="M28.27,50.62l.13.08-.14.08-.13-.08.14-.08Z"/>
          <path class="cls-2" d="M29.69,50.63h0s-.54-.31-.54-.31l.1-.06.66.38-.09.05c-.36-.01-.85.05-1.25.26l-.12-.07c.35-.18.86-.27,1.24-.25Z"/>
          <path class="cls-2" d="M29.3,51.08l.12.07c-.09.06-.1.15.03.22.07.04.14.06.22.06.12,0,.24-.05.39-.13h0c-.14,0-.27-.02-.38-.08-.17-.1-.17-.26,0-.36.17-.1.46-.11.65,0,.09.05.13.11.15.17.02.11-.08.21-.29.33-.19.11-.37.17-.54.16-.11,0-.21-.03-.3-.08-.19-.11-.21-.25-.05-.35ZM30.24,51.17c.13-.08.12-.19,0-.26s-.31-.08-.45,0-.13.19,0,.26c.14.08.32.08.46,0Z"/>
          <path class="cls-2" d="M31.16,51.49h0s-.54-.31-.54-.31l.1-.06.66.38-.09.05c-.36-.01-.85.05-1.25.26l-.12-.07c.35-.18.86-.27,1.24-.25Z"/>
          <path class="cls-2" d="M30.98,51.8c.31-.18.64-.2.86-.07s.18.32-.13.49-.62.21-.86.07-.17-.32.13-.5ZM31.59,52.15c.24-.14.31-.27.15-.37s-.4-.06-.64.08-.31.27-.14.37.39.06.64-.08Z"/>
          <path class="cls-2" d="M32.11,52.08c.09-.05.25-.05.34,0s.1.14,0,.2-.24.05-.34,0-.1-.14,0-.2ZM32.38,52.23c.06-.03.07-.08,0-.12s-.14-.03-.2,0-.07.08,0,.12.14.03.2,0Z"/>
          <path class="cls-2" d="M32.93,52.33l.13.07-.48.46s-.13.12-.13.12h0s.13-.05.21-.07l.81-.26.13.08-.46.47s-.13.12-.13.12h0s.13-.05.2-.07l.8-.27.13.07-1.26.41-.12-.07.51-.5s.11-.11.11-.11h0s-.11.04-.19.06l-.89.29-.12-.07.73-.71Z"/>
        </g>
        <g>
          <path class="cls-2" d="M39.29,60.77l.43.25c.11.07.17.13.16.2,0,.06-.05.13-.14.18-.19.11-.43.11-.64-.01l-.24-.14-.36.21-.21-.12.98-.57ZM39.03,61.16l.21.12c.1.06.22.06.31,0s.09-.12-.01-.17l-.21-.12-.29.17Z"/>
          <path class="cls-2" d="M39.46,61.6c.21-.12.52-.13.74,0s.21.31,0,.43-.52.13-.74,0-.21-.31,0-.43ZM40.01,61.91c.14-.08.17-.17.05-.24s-.27-.05-.41.03-.17.17-.05.24.27.05.41-.03Z"/>
          <path class="cls-2" d="M40.64,61.87l.18.1-.09.05h0c.11,0,.22,0,.31.06.19.11.15.26-.07.39s-.5.14-.68.04c-.1-.06-.12-.12-.1-.18h0s-.31.18-.31.18l-.19-.11.94-.54ZM40.79,62.37c.13-.08.18-.16.06-.22s-.26-.04-.39.04-.15.16-.04.22c.09.05.23.04.37-.03Z"/>
          <path class="cls-2" d="M41.16,62.99l.08-.05h0c-.11,0-.2,0-.3-.06-.16-.09-.14-.2,0-.29l.47-.27.19.11-.44.25c-.08.05-.09.1-.01.14.09.05.21.04.3-.01l.41-.23.19.11-.7.41-.18-.1Z"/>
          <path class="cls-2" d="M42.45,62.6l.19.11-.98.57-.19-.11.98-.57Z"/>
          <path class="cls-2" d="M42.29,63.54c-.09,0-.19,0-.31-.07-.14-.08-.17-.18-.03-.26.16-.09.33-.05.51.03.13.06.2.08.25.05.05-.03.04-.07-.04-.12-.09-.05-.16-.06-.23-.02l-.17-.1c.13-.07.33-.08.53.04s.21.23.04.32l-.29.17s-.05.04,0,.06h0s-.11.07-.11.07c-.02,0-.05-.01-.1-.04-.09-.05-.11-.09-.06-.14ZM42.45,63.44l.1-.06c-.05,0-.11-.03-.17-.05-.12-.04-.19-.06-.25-.02s-.05.08.02.12c.11.06.23.06.3.02Z"/>
          <path class="cls-2" d="M43.15,63.32l.1.06.22-.13.18.11-.22.13.12.07-.12.07-.12-.07-.37.22c-.05.03-.04.06,0,.08.02.01.06.03.06.03l-.14.08s-.05-.02-.12-.07c-.09-.05-.16-.13-.02-.21l.41-.24-.1-.06.12-.07Z"/>
          <path class="cls-2" d="M43.92,63.45l.19.11-.17.1-.19-.11.17-.1ZM43.65,63.61l.19.11-.7.41-.19-.11.7-.41Z"/>
          <path class="cls-2" d="M43.57,63.97c.21-.12.52-.13.74,0s.21.31,0,.43-.52.13-.74,0-.21-.31,0-.43ZM44.11,64.28c.14-.08.17-.17.05-.24s-.27-.05-.41.03-.17.17-.05.24.27.05.41-.03Z"/>
          <path class="cls-2" d="M44.83,64.4h0c.12-.01.23,0,.32.06.15.08.13.2-.02.29l-.46.27-.19-.11.43-.25c.08-.04.09-.1,0-.15-.08-.05-.21-.04-.31.01l-.4.23-.19-.11.7-.41.18.11-.1.06Z"/>
          <path class="cls-2" d="M45.4,64.73l.2.12-.2.11-.2-.12.2-.11ZM44.99,64.96l.2.12-.2.12-.2-.12.2-.12Z"/>
          <path class="cls-2" d="M37.79,61.84l-.21-.12.08-.04c.12.06.26.1.42.03l.09.05-.95.55-.12-.07.69-.4Z"/>
          <path class="cls-2" d="M37.28,62.46s.1.01.18-.03l-.06-.04.14-.08.13.08-.14.08c-.1.06-.21.06-.3.02l.06-.04Z"/>
          <path class="cls-2" d="M37.92,62.34l.11.07c-.15.09-.13.19.02.28.13.08.29.09.42.01.12-.07.09-.16-.06-.25l-.06-.03.09-.05.06.03c.15.08.28.09.38.03s.07-.15-.04-.21c-.14-.08-.31-.07-.44,0l-.11-.07c.19-.11.44-.11.64.01.17.1.22.24.05.33-.11.06-.23.06-.35.02h0c.1.1.07.18-.05.25-.18.1-.43.08-.62-.03-.21-.12-.25-.28-.04-.41Z"/>
          <path class="cls-2" d="M38.9,62.72c.31-.18.64-.2.86-.07s.18.32-.13.49-.62.21-.86.07-.17-.32.13-.5ZM39.51,63.08c.24-.14.31-.27.15-.37s-.4-.06-.64.08-.31.27-.14.37.39.06.64-.08Z"/>
          <path class="cls-2" d="M39.75,63.22c.31-.18.64-.2.86-.07s.18.32-.13.49-.62.21-.86.07-.17-.32.13-.5ZM40.36,63.57c.24-.14.31-.27.15-.37s-.4-.06-.64.08-.31.27-.14.37.39.06.64-.08Z"/>
          <path class="cls-2" d="M39.99,64.03s.1.01.18-.03l-.06-.04.14-.08.13.08-.14.08c-.1.06-.21.06-.3.02l.06-.04Z"/>
          <path class="cls-2" d="M40.79,63.81c.31-.18.64-.2.86-.07s.18.32-.13.49-.62.21-.86.07-.17-.32.13-.5ZM41.4,64.17c.24-.14.31-.27.15-.37s-.4-.06-.64.08-.31.27-.14.37.39.06.64-.08Z"/>
          <path class="cls-2" d="M41.64,64.31c.31-.18.64-.2.86-.07s.18.32-.13.49-.62.21-.86.07-.17-.32.13-.5ZM42.25,64.66c.24-.14.31-.27.15-.37s-.4-.06-.64.08-.31.27-.14.37.39.06.64-.08Z"/>
          <path class="cls-2" d="M42.49,64.8c.31-.18.64-.2.86-.07s.18.32-.13.49-.62.21-.86.07-.17-.32.13-.5ZM43.11,65.15c.24-.14.31-.27.15-.37s-.4-.06-.64.08-.31.27-.14.37.39.06.64-.08Z"/>
        </g>
        <g>
          <g>
            <polygon class="cls-2" points="51.81 68 51.29 67.7 48.93 69.06 49.45 69.36 51.81 68"/>
            <polygon class="cls-2" points="52.41 68.34 51.89 68.04 49.53 69.4 50.05 69.71 52.41 68.34"/>
            <polygon class="cls-2" points="53.01 68.69 52.49 68.39 50.13 69.75 50.65 70.05 53.01 68.69"/>
          </g>
          <path class="cls-2" d="M52.91,68.93c.15-.09.38-.09.53,0s.15.22,0,.31-.38.09-.53,0-.15-.22,0-.3ZM53.39,69.21c.14-.08.14-.19.01-.27s-.33-.07-.47,0-.14.19,0,.27.33.07.47,0ZM53.2,68.93l.14.08c.05.03.06.07.01.1-.03.02-.08.02-.13,0h0s.02.04-.02.06c-.04.03-.06.04-.06.05h0s-.05-.03-.05-.03c0,0,.02-.02.06-.04.03-.02.03-.04,0-.06l-.06-.04-.12.07-.05-.03.29-.17ZM53.13,69.04l.07.04s.07.02.1,0c.03-.02.03-.03,0-.05l-.07-.04-.09.05Z"/>
        </g>
        <path class="cls-2" d="M43.68,58.54l.21.12-.64.77-.21-.12.14-.16-.35-.2-.27.08-.2-.12,1.32-.37ZM43.03,58.89l.26.15.2-.21s.11-.11.11-.11h0s-.12.04-.19.06l-.37.11Z"/>
        <path class="cls-2" d="M44.09,59.23h0c.12-.02.21-.02.29.03.02.01.03.02.04.03l-.16.09h0c-.11-.08-.26-.09-.41,0l-.34.2-.19-.11.7-.41.18.1-.11.07Z"/>
        <path class="cls-2" d="M44.1,59.51c.21-.12.51-.13.72-.01.23.13.17.3-.08.45l-.51-.3c-.09.07-.1.14,0,.21.07.04.15.05.22.03l.18.11c-.15.06-.37.05-.55-.05-.23-.13-.2-.31,0-.43ZM44.36,59.58l.31.18c.08-.05.09-.12,0-.17-.1-.06-.21-.05-.31,0Z"/>
        <path class="cls-2" d="M45.04,60.36c-.09,0-.19,0-.31-.07-.14-.08-.17-.18-.03-.26.16-.09.33-.05.51.03.13.06.2.08.25.05.05-.03.04-.07-.04-.12-.09-.05-.16-.06-.23-.02l-.17-.1c.13-.07.33-.08.53.04s.21.23.04.32l-.29.17s-.05.04,0,.06h0s-.11.07-.11.07c-.02,0-.05-.01-.1-.04-.09-.05-.11-.09-.06-.14ZM45.2,60.27l.1-.06c-.05,0-.11-.03-.17-.05-.12-.04-.19-.06-.25-.02s-.05.08.02.12c.11.06.23.06.3.02Z"/>
        <path class="cls-2" d="M45.86,60.23l.2.12-.2.11-.2-.12.2-.11ZM45.45,60.47l.2.12-.2.12-.2-.12.2-.12Z"/>
        <path class="cls-2" d="M41.31,59.54l.11.07c-.15.09-.13.19.02.28.13.08.29.09.42.01.12-.07.09-.16-.06-.25l-.06-.03.09-.05.06.03c.15.08.28.09.38.03s.07-.15-.04-.21c-.14-.08-.31-.07-.44,0l-.11-.07c.19-.11.44-.11.64.01.17.1.22.24.05.33-.11.06-.23.06-.35.02h0c.1.1.07.18-.05.25-.18.1-.43.08-.62-.03-.21-.12-.25-.28-.04-.41Z"/>
        <path class="cls-2" d="M42.08,60.03c.14-.08.3-.07.44-.03h0c-.05-.07-.04-.15.05-.2.15-.09.38-.06.56.04s.21.23.06.32c-.1.06-.22.06-.34.03h0c.07.08.07.18-.05.25-.21.12-.47.06-.64-.04s-.28-.25-.07-.38ZM42.67,60.37c.12-.07.11-.17-.04-.25s-.31-.09-.44-.02-.1.16.05.25.31.09.43.02ZM43.07,60.09c.1-.06.08-.13-.04-.2s-.25-.08-.35-.02-.08.13.04.2.25.08.35.02Z"/>
        <path class="cls-2" d="M42.87,60.48l.11.07c-.1.08-.09.17.04.24s.31.08.45,0,.13-.19,0-.26c-.1-.06-.21-.08-.31-.07l-.11-.06.61-.23.5.29-.1.06-.42-.24-.34.13h0c.1,0,.2.03.3.08.17.1.2.25,0,.37s-.47.11-.67,0-.22-.26-.05-.37Z"/>
        <path class="cls-2" d="M43.52,61.02l.13.08-.14.08-.13-.08.14-.08Z"/>
        <path class="cls-2" d="M43.89,61.08c.14-.08.3-.07.44-.03h0c-.05-.07-.04-.15.05-.2.15-.09.38-.06.56.04s.21.23.06.32c-.1.06-.22.06-.34.03h0c.07.08.07.18-.05.25-.21.12-.47.06-.64-.04s-.28-.25-.07-.38ZM44.49,61.42c.12-.07.11-.17-.04-.25s-.31-.09-.44-.02-.1.16.05.25.31.09.43.02ZM44.89,61.14c.1-.06.08-.13-.04-.2s-.25-.08-.35-.02-.08.13.04.2.25.08.35.02Z"/>
        <path class="cls-2" d="M44.86,61.68l.11.07c-.11.08-.06.15.05.21.12.07.22.07.28.03.08-.05.05-.09-.06-.18-.11-.1-.21-.19-.05-.28.12-.07.29-.06.45.03.18.1.18.2.06.29l-.11-.07c.08-.06.07-.11-.03-.17s-.19-.06-.24-.02c-.08.04-.02.09.07.18.11.1.2.19.04.28-.14.08-.33.06-.5-.04-.2-.11-.21-.23-.06-.33Z"/>
        <path class="cls-2" d="M45.93,62.46h0c-.12,0-.23,0-.33-.07-.19-.11-.16-.26.06-.39s.51-.14.68-.04c.1.06.13.12.11.19h0s.09-.05.09-.05l.11.06-.94.54-.11-.06.31-.18ZM46.2,62.31c.16-.1.21-.2.05-.29-.13-.08-.32-.05-.48.05s-.21.2-.08.28c.16.09.34.06.5-.03Z"/>
        <path class="cls-2" d="M46.56,62.93l.1-.06h0c-.12,0-.23,0-.33-.06-.15-.08-.15-.19,0-.27l.49-.28.11.06-.49.28c-.09.05-.09.12.01.18.11.07.27.06.38,0l.44-.25.11.06-.71.41-.11-.06Z"/>
        <path class="cls-2" d="M47.35,63.27h0c-.1,0-.22,0-.34-.07-.13-.08-.18-.18-.04-.26.17-.1.34-.04.53.05.12.06.2.08.27.04s.07-.1-.03-.16c-.12-.07-.23-.07-.34-.02l-.11-.06c.14-.07.34-.08.53.03.15.09.2.18.03.28l-.4.23c-.05.03-.08.06-.07.07h0s-.11-.06-.11-.06c0-.01.02-.03.08-.07ZM47.52,63.18l.11-.06c-.06-.01-.14-.04-.21-.07-.14-.06-.23-.09-.33-.04-.09.05-.04.11.03.15.15.09.32.06.41.01Z"/>
        <path class="cls-2" d="M48.21,63.2h0c.11-.01.24,0,.34.05.02.01.03.02.04.03l-.11.06h0s-.02-.02-.04-.03c-.11-.06-.29-.07-.42,0l-.39.23-.11-.06.71-.41.11.06-.12.07Z"/>
        <path class="cls-2" d="M48.27,63.5c.21-.12.51-.14.71-.02.21.12.16.28-.07.42l-.55-.32c-.14.09-.17.2-.02.28.1.06.22.07.34.03l.11.06c-.19.07-.38.05-.54-.04-.22-.13-.18-.3.03-.41ZM48.44,63.54l.43.25c.13-.09.15-.18.02-.25s-.3-.06-.45,0Z"/>
        <path class="cls-2" d="M49.61,63.87l.11.06-.1.06h0c.11-.01.24,0,.33.05s.11.11.06.18h0c.13-.02.26,0,.34.05.13.07.13.17-.01.26l-.5.29-.11-.06.49-.28c.09-.05.08-.12,0-.16-.09-.05-.25-.05-.37,0l-.44.26-.11-.06.49-.28c.09-.05.09-.11.02-.15-.09-.05-.26-.06-.37,0l-.44.26-.11-.06.71-.41Z"/>
        <path class="cls-2" d="M50.98,64.34l.11.06-.14.08-.11-.06.14-.08ZM50.71,64.5l.11.06-.71.41-.11-.06.71-.41Z"/>
        <path class="cls-2" d="M51.24,64.5l.11.06-.98.57-.11-.06.98-.57Z"/>
        <path class="cls-2" d="M50.84,64.99c.21-.12.51-.14.71-.02.21.12.16.28-.07.42l-.55-.32c-.14.09-.17.2-.02.28.1.06.22.07.34.03l.11.06c-.19.07-.38.05-.54-.04-.22-.13-.18-.3.03-.41ZM51.02,65.03l.43.25c.13-.09.15-.18.02-.25s-.3-.06-.45,0Z"/>
        <path class="cls-2" d="M51.45,65.48l.11.07c-.11.08-.06.15.05.21.12.07.22.07.28.03.08-.05.05-.09-.06-.18-.11-.1-.21-.19-.05-.28.12-.07.29-.06.45.03.18.1.18.2.06.29l-.11-.07c.08-.06.07-.11-.03-.17s-.19-.06-.24-.02c-.08.04-.02.09.07.18.11.1.2.19.04.28-.14.08-.33.06-.5-.04-.2-.11-.21-.23-.06-.33Z"/>
      </g>
      <g>
        <path class="cls-1" d="M50.81,78.54c-.09,0-.17-.02-.25-.07L.37,49.49c-.15-.09-.25-.25-.25-.42L0,43.78c0-.18.09-.35.25-.44L75.19.07c.15-.09.35-.09.5,0l50.19,28.98c.15.09.25.25.25.42l.12,5.3c0,.18-.09.35-.25.44l-74.94,43.26c-.08.04-.16.07-.25.07ZM1.11,48.77l49.7,28.69,74.44-42.97-.11-4.72L75.44,1.08,1.01,44.05l.11,4.72Z"/>
        <polygon class="cls-1" points="50.56 78.04 50.44 72.75 50.94 72.74 51.06 78.03 50.56 78.04"/>
        <rect class="cls-1" x="25.35" y="29.28" width=".5" height="57.96" transform="translate(-37.65 51.29) rotate(-60)"/>
        <rect class="cls-1" x="44.89" y="50.86" width="86.53" height=".5" transform="translate(-13.74 50.87) rotate(-29.97)"/>
      </g>
    </g>
  </g>
</svg>