<?xml version="1.0" encoding="UTF-8"?>
<svg id="Layer_2" data-name="Layer 2" xmlns="http://www.w3.org/2000/svg" viewBox="0 0 55.84 119.06">
  <defs>
    <style>
      .cls-1, .cls-2, .cls-3 {
        stroke-width: 0px;
      }

      .cls-2 {
        fill: #2233b4;
      }

      .cls-3 {
        fill: #d6eae6;
      }
    </style>
  </defs>
  <g id="Layer_1-2" data-name="Layer 1">
    <g>
      <g>
        <polygon class="cls-2" points="50.69 118.59 .5 89.61 .5 3.08 50.69 32.05 50.69 118.59"/>
        <g>
          <path class="cls-3" d="M9.77,10.65c4.38,2.53,6.92,6.59,6.92,12.11v16.23c0,2.26-1.15,4.6-3.23,4.41,2.08,2.2,3.23,5.88,3.23,8.14v27.86c0,5.52-2.54,6.65-6.92,4.12s-6.92-6.59-6.92-12.11v-24.51s5.84,3.37,5.84,3.37v24.51c0,1.51.15,2.01,1.08,2.55.85.49,1.08.29,1.08-1.3v-29.28c0-1.34-.38-2.65-1.46-3.27l-2.23-1.29v-4.85s2.23,1.29,2.23,1.29c1.08.62,1.46-.24,1.46-1.58v-17.65c0-1.59-.23-2.06-1.08-2.55-.92-.53-1.08-.2-1.08,1.3v16.23s-5.84-3.37-5.84-3.37V14.77c0-5.52,2.54-6.65,6.92-4.12Z"/>
          <path class="cls-3" d="M25.6,92.64c-4.38-2.53-6.92-6.59-6.92-12.11V23.91c0-5.52,2.54-6.65,6.92-4.12,4.38,2.53,6.92,6.59,6.92,12.11v56.63c0,5.52-2.54,6.65-6.92,4.12ZM25.6,25.98c-.92-.53-1.08-.2-1.08,1.3v56.63c0,1.59.23,2.06,1.08,2.55.92.53,1.08.29,1.08-1.3V28.52c0-1.59-.23-2.06-1.08-2.55Z"/>
          <path class="cls-3" d="M48.35,33.42v23.84s-5.84-3.37-5.84-3.37v-17.65s-2.15-1.24-2.15-1.24v22c.77-.98,2-.94,3.61,0,2.77,1.6,4.38,4.45,4.38,8.38v32.29c0,5.52-2.54,6.65-6.92,4.12-4.38-2.53-6.92-6.59-6.92-12.11v-24.51s5.84,3.37,5.84,3.37v24.51c0,1.51.15,2.01,1.08,2.55.85.49,1.08.29,1.08-1.3v-32.29c0-1.59-.23-2.06-1.08-2.55-.92-.53-1.08-.2-1.08,1.3v2.51s-5.84-3.37-5.84-3.37V25.43s13.83,7.99,13.83,7.99Z"/>
        </g>
        <g>
          <path class="cls-3" d="M2.9,85.62l.67.39.33,1.56c.08.39.15.82.15.82h0s.06-.35.15-.65l.33-1.18.68.39v2.72s-.45-.26-.45-.26v-1.56c0-.22.02-.55.02-.55h0s-.05.29-.1.46l-.41,1.37-.46-.26-.4-1.84c-.05-.23-.1-.58-.1-.58h0s.02.35.02.57v1.56s-.44-.25-.44-.25v-2.72Z"/>
          <path class="cls-3" d="M5.55,87.15l.45.26v.46l-.45-.26v-.46ZM5.55,87.92l.45.26v1.95s-.45-.26-.45-.26v-1.95Z"/>
          <path class="cls-3" d="M7.31,90.66c-.09.1-.22.15-.51-.02-.35-.2-.58-.54-.58-.93,0-.43.3-.4.68-.24.28.12.41.16.41.02s-.11-.29-.3-.41c-.21-.12-.31-.1-.32.09l-.4-.23c0-.34.23-.51.73-.22s.73.68.73,1.14v.8c0,.13.02.18.12.22h0v.32s-.09,0-.19-.06c-.21-.12-.32-.26-.36-.47ZM7.31,90.2v-.29c-.08,0-.2-.03-.31-.07-.23-.07-.35-.08-.35.1s.11.31.26.4c.26.15.4.05.4-.14Z"/>
          <path class="cls-3" d="M8.01,89.34l.43.25v.26h0c.09-.12.26-.16.49-.03.21.12.39.36.47.61h0c.12-.14.29-.17.51-.05.36.21.56.59.56,1.02v1.31s-.45-.26-.45-.26v-1.23c0-.22-.1-.39-.26-.49-.19-.11-.3,0-.3.25v1.14s-.45-.26-.45-.26v-1.23c0-.22-.1-.39-.26-.49-.18-.1-.3,0-.3.25v1.14s-.45-.26-.45-.26v-1.95Z"/>
          <path class="cls-3" d="M10.77,90.16l.45.26v.46s-.45-.26-.45-.26v-.46ZM10.77,90.93l.45.26v1.95s-.45-.26-.45-.26v-1.95Z"/>
          <path class="cls-3" d="M11.48,93.75c.13,0,.24-.07.24-.31l-.24-.14v-.55s.48.28.48.28v.52c0,.39-.22.48-.48.39v-.19Z"/>
          <path class="cls-3" d="M12.82,91.35l1.69.98v.47l-1.21-.7v.66l1.03.59v.47s-1.03-.59-1.03-.59v1.13s-.48-.28-.48-.28v-2.72Z"/>
          <path class="cls-3" d="M14.78,92.48l.48.28v2.26s1.11.64,1.11.64v.46s-1.59-.92-1.59-.92v-2.72Z"/>
        </g>
        <g>
          <path class="cls-3" d="M3.24,81.69c.12-.01.2-.02.2-.15,0-.13-.08-.27-.2-.34-.07-.04-.12-.04-.15-.02-.04.02-.05.08-.05.19l-.12-.07c0-.14.03-.21.09-.24.06-.03.15-.02.24.04.19.11.31.32.31.51s-.12.21-.27.22c-.1,0-.23.02-.26.13l.51.3v.13l-.65-.38c.01-.28.19-.29.35-.3Z"/>
          <path class="cls-3" d="M3.65,82.11l.11.07c.02.14.1.28.23.35s.22.02.22-.14c0-.16-.1-.32-.22-.39-.1-.06-.17-.05-.21,0l-.11-.06.1-.52.5.29v.12s-.42-.24-.42-.24l-.06.29h0c.05-.03.13-.02.22.03.17.1.32.32.32.56,0,.23-.14.3-.34.18s-.34-.33-.35-.54Z"/>
          <path class="cls-3" d="M4.43,82.72l.13.08v.16l-.13-.08v-.16Z"/>
          <path class="cls-3" d="M5.16,82.33h0s-.54-.31-.54-.31v-.12s.66.38.66.38v.11c-.19.08-.38.33-.4.75l-.12-.07c.02-.37.19-.66.4-.73Z"/>
          <path class="cls-3" d="M5.47,83.4c-.1-.16-.13-.33-.13-.55,0-.34.13-.49.36-.35.19.11.28.31.3.47l-.11-.07c0-.11-.07-.23-.18-.29-.18-.11-.25.03-.25.29h0c.06-.06.15-.06.26,0,.17.1.31.34.31.54,0,.2-.14.29-.32.19-.1-.06-.18-.14-.24-.23ZM5.91,83.39c0-.15-.09-.31-.22-.38-.13-.08-.23-.03-.23.13s.1.32.23.39c.12.07.21.02.21-.14Z"/>
          <path class="cls-3" d="M6.32,83.18l-.21-.12v-.09c.12.06.21.07.23-.08l.09.05v1.09s-.12-.07-.12-.07v-.79Z"/>
          <path class="cls-3" d="M7.12,83.46h0s-.54-.31-.54-.31v-.12s.66.38.66.38v.11c-.19.08-.38.33-.4.75l-.12-.07c.02-.37.19-.66.4-.73Z"/>
          <path class="cls-3" d="M7.33,83.63c0-.11.08-.15.17-.1s.17.19.17.29-.08.15-.17.1-.17-.19-.17-.29ZM7.59,83.79c0-.07-.04-.14-.1-.18s-.1,0-.1.07.04.14.1.18.1,0,.1-.07Z"/>
          <path class="cls-3" d="M8.03,83.82l.13.08.45,1.05c.03.08.07.19.07.19h0s0-.93,0-.93l.12.07v1.13s-.13-.07-.13-.07l-.45-1.05c-.03-.07-.07-.18-.07-.18h0s0,.93,0,.93l-.12-.07v-1.13Z"/>
        </g>
        <g>
          <path class="cls-3" d="M18.73,90.82c0-.16.09-.19.19-.17h0c-.09-.09-.15-.21-.15-.32,0-.17.14-.21.31-.11s.31.29.31.46c0,.11-.06.16-.14.15h0c.11.1.19.25.19.4,0,.25-.18.23-.35.13s-.36-.3-.36-.54ZM19.32,91.16c0-.14-.09-.28-.24-.37s-.24-.05-.24.09.09.28.24.36.24.05.24-.09ZM19.28,90.62c0-.11-.08-.22-.2-.29s-.2-.05-.2.06.08.22.2.29.2.05.2-.06Z"/>
          <path class="cls-3" d="M19.53,91.05c0-.35.14-.48.37-.36s.36.42.36.78c0,.35-.13.49-.37.36s-.37-.43-.37-.78ZM20.14,91.4c0-.28-.08-.5-.24-.6s-.25.03-.25.31c0,.28.08.5.25.6s.24-.03.24-.31Z"/>
          <path class="cls-3" d="M20.35,91.91l.13.08v.16s-.13-.08-.13-.08v-.16Z"/>
          <path class="cls-3" d="M20.66,91.45l-.21-.12v-.09c.12.06.21.07.23-.08l.09.05v1.09s-.12-.07-.12-.07v-.79Z"/>
          <path class="cls-3" d="M20.95,92.12l.12.07c0,.12.08.25.21.33.07.04.12.05.16.02.06-.04.08-.15.08-.31h0c-.06.05-.15.05-.26-.01-.17-.1-.31-.35-.31-.55,0-.2.14-.29.33-.18.09.05.16.13.22.21.11.16.14.33.14.58,0,.22-.04.36-.13.4-.06.02-.13.01-.22-.04-.19-.11-.32-.31-.33-.51ZM21.49,91.98c0-.15-.1-.32-.23-.39s-.22-.02-.22.13c0,.15.1.32.22.39.14.08.23.03.23-.13Z"/>
          <path class="cls-3" d="M21.93,92.19l-.21-.12v-.09c.12.06.21.07.23-.08l.09.05v1.09s-.12-.07-.12-.07v-.79Z"/>
          <path class="cls-3" d="M22.2,92.83c0-.16.09-.19.19-.17h0c-.09-.09-.15-.21-.15-.32,0-.17.14-.21.31-.11s.31.29.31.46c0,.11-.06.16-.14.15h0c.11.1.19.25.19.4s-.18.23-.35.13-.36-.3-.36-.54ZM22.8,93.17c0-.14-.09-.28-.24-.37s-.24-.05-.24.09.09.28.24.36.24.05.24-.09ZM22.75,92.63c0-.11-.08-.22-.2-.29s-.2-.05-.2.06c0,.11.08.22.2.29s.2.05.2-.06Z"/>
          <path class="cls-3" d="M22.98,92.67c0-.11.08-.15.17-.1s.17.19.17.29-.08.15-.17.1-.17-.19-.17-.29ZM23.25,92.82c0-.07-.04-.14-.1-.18s-.1,0-.1.07.04.14.1.18.1,0,.1-.07Z"/>
          <path class="cls-3" d="M23.61,92.81l.13.07.16.83c.02.09.04.21.04.21h0s.02-.11.04-.17l.18-.63.13.08.17.83c.02.09.04.22.04.22h0s.02-.11.04-.17l.16-.64.13.07-.27.98-.12-.07-.18-.9c-.02-.08-.04-.19-.04-.19h0s-.02.09-.04.15l-.19.69-.12-.07-.25-1.28Z"/>
        </g>
        <g>
          <path class="cls-3" d="M34.62,103.94l.43.25c.11.07.2.15.26.25.06.1.09.2.09.31,0,.21-.12.29-.33.17l-.24-.14v.41s-.21-.12-.21-.12v-1.13ZM34.83,104.59l.21.12c.1.06.16.03.16-.08s-.06-.2-.16-.26l-.21-.12v.34Z"/>
          <path class="cls-3" d="M35.43,105.13c0-.24.15-.34.37-.22s.37.4.37.64c0,.24-.15.34-.37.22s-.37-.4-.37-.64ZM35.98,105.45c0-.16-.06-.3-.18-.37s-.18,0-.18.16.06.3.18.37.18,0,.18-.16Z"/>
          <path class="cls-3" d="M36.25,105.2l.18.1v.1h0s.11-.06.21,0c.19.11.31.35.31.61,0,.26-.12.36-.31.25-.1-.06-.16-.14-.2-.23h0s0,.36,0,.36l-.19-.11v-1.08ZM36.76,105.91c0-.15-.05-.29-.16-.36s-.16.02-.16.17c0,.15.06.28.17.34.09.05.16,0,.16-.15Z"/>
          <path class="cls-3" d="M37.48,106.72v-.1h0s-.1.06-.2,0c-.16-.09-.24-.26-.24-.43v-.54l.19.11v.51c0,.1.04.17.12.22.09.05.14,0,.14-.1v-.47l.19.11v.81l-.18-.1Z"/>
          <path class="cls-3" d="M37.79,105.76l.19.11v1.13s-.19-.11-.19-.11v-1.13Z"/>
          <path class="cls-3" d="M38.52,107.23s-.09.06-.21,0c-.14-.08-.24-.23-.24-.39s.13-.17.28-.1c.12.05.17.07.17,0,0-.06-.04-.12-.12-.17-.09-.05-.13-.04-.13.04l-.17-.1c0-.14.09-.21.3-.09s.3.28.3.47v.33c0,.05,0,.08.05.09h0v.13s-.04,0-.08-.03c-.09-.05-.13-.11-.15-.2ZM38.52,107.04v-.12s-.08-.01-.13-.03c-.1-.03-.15-.03-.15.04s.04.13.11.17c.11.06.17.02.17-.06Z"/>
          <path class="cls-3" d="M38.76,106.65l.1.06v-.25s.18.11.18.11v.25l.12.07v.14l-.12-.07v.43c0,.06.03.1.07.12.02.01.05.03.05.03v.16s-.04-.02-.12-.06c-.09-.05-.19-.15-.19-.31v-.48l-.1-.06v-.14Z"/>
          <path class="cls-3" d="M39.26,106.62l.19.11v.19s-.19-.11-.19-.11v-.19ZM39.26,106.94l.19.11v.81s-.19-.11-.19-.11v-.81Z"/>
          <path class="cls-3" d="M39.53,107.5c0-.24.15-.34.37-.22s.37.4.37.64-.15.34-.37.22-.37-.4-.37-.64ZM40.08,107.82c0-.16-.06-.3-.18-.37s-.18,0-.18.16c0,.16.06.3.18.37s.18,0,.18-.16Z"/>
          <path class="cls-3" d="M40.54,107.79h0c.05-.06.11-.07.21-.01.15.08.24.27.24.45v.53l-.19-.11v-.5c0-.09-.04-.17-.12-.22-.08-.05-.14,0-.14.1v.46l-.19-.11v-.81s.18.11.18.11v.11Z"/>
          <path class="cls-3" d="M41.11,108.11l.2.12v.23s-.2-.12-.2-.12v-.23ZM41.11,108.58l.2.12v.23s-.2-.12-.2-.12v-.23Z"/>
          <path class="cls-3" d="M35.03,106.63l-.44-.26v-.12s.47-.44.47-.44l.09.05v.73l.16.09v.11s-.16-.09-.16-.09v.27l-.11-.07v-.27ZM34.7,106.33l.33.19v-.51h0s-.33.31-.33.31h0Z"/>
          <path class="cls-3" d="M35.81,107.08l-.44-.26v-.12l.47-.44.09.05v.73l.16.09v.11l-.16-.09v.27s-.11-.07-.11-.07v-.27ZM35.47,106.78l.33.19v-.51h0s-.33.31-.33.31h0Z"/>
          <path class="cls-3" d="M36.5,107.24c.12-.01.2-.02.2-.15s-.08-.27-.2-.34c-.07-.04-.12-.04-.15-.02-.04.02-.05.08-.05.19l-.12-.07c0-.14.03-.21.09-.24.06-.03.15-.02.24.04.19.11.31.32.31.51,0,.21-.12.21-.27.22-.1,0-.23.02-.26.13l.51.3v.13s-.65-.38-.65-.38c.01-.28.19-.29.35-.3Z"/>
          <path class="cls-3" d="M36.93,108.12s.06,0,.06-.1l-.06-.04v-.16s.13.08.13.08v.16c0,.12-.05.15-.13.12v-.07Z"/>
          <path class="cls-3" d="M37.52,107.83c.12-.01.2-.02.2-.15,0-.13-.08-.27-.2-.34-.07-.04-.12-.04-.15-.02-.04.02-.05.08-.05.19l-.12-.07c0-.14.03-.21.09-.24.06-.03.15-.02.24.04.19.11.31.32.31.51,0,.21-.12.21-.27.22-.1,0-.23.02-.26.13l.51.3v.13s-.65-.38-.65-.38c.01-.28.19-.29.35-.3Z"/>
          <path class="cls-3" d="M38.33,108.53l-.44-.26v-.12l.47-.44.09.05v.73l.16.09v.11l-.16-.09v.27s-.11-.07-.11-.07v-.27ZM37.99,108.23l.33.19v-.51h0s-.33.31-.33.31h0Z"/>
          <path class="cls-3" d="M38.84,108.3l-.21-.12v-.09c.12.06.21.07.23-.08l.09.05v1.09s-.12-.07-.12-.07v-.79Z"/>
        </g>
        <g>
          <g>
            <polygon class="cls-3" points="47.15 111.17 46.62 110.86 46.62 113.59 47.15 113.89 47.15 111.17"/>
            <polygon class="cls-3" points="47.75 111.51 47.22 111.21 47.22 113.93 47.75 114.24 47.75 111.51"/>
            <polygon class="cls-3" points="48.35 111.86 47.82 111.56 47.82 114.28 48.35 114.58 48.35 111.86"/>
          </g>
          <path class="cls-3" d="M48.5,112.25c0-.18.11-.24.26-.16s.26.28.26.46-.12.24-.26.16-.26-.28-.26-.46ZM48.99,112.53c0-.16-.1-.33-.23-.41s-.23-.01-.23.14.1.33.23.41.23.02.23-.14ZM48.65,112.17l.14.08c.05.03.09.09.09.15,0,.04-.02.06-.05.05h0s.04.06.05.1c0,.05,0,.08.01.09h0s-.05-.03-.05-.03c0,0,0-.04-.01-.08,0-.04-.02-.07-.05-.09l-.06-.04v.13l-.05-.03v-.34ZM48.71,112.35l.07.04s.05,0,.05-.02c0-.03-.01-.06-.05-.08l-.07-.04v.1Z"/>
        </g>
        <path class="cls-3" d="M34.9,99.33l.21.12.35,1.33-.21-.12-.07-.28-.35-.2-.06.2-.2-.12.34-.94ZM34.87,100.03l.26.15-.09-.38c-.02-.07-.04-.2-.04-.2h0s-.02.1-.04.15l-.09.28Z"/>
        <path class="cls-3" d="M35.7,100.24h0c.04-.07.09-.08.17-.04.02.01.03.02.04.03v.19h0c-.12-.09-.21-.06-.21.11v.4s-.19-.11-.19-.11v-.81s.18.1.18.1v.13Z"/>
        <path class="cls-3" d="M35.94,100.66c0-.24.14-.35.35-.23.23.13.35.4.35.69l-.51-.3c.01.13.07.25.18.31.07.04.12.03.14-.02l.18.11c-.03.13-.14.19-.32.08-.23-.13-.37-.4-.37-.64ZM36.13,100.68l.31.18c0-.11-.06-.21-.15-.26-.1-.06-.15-.02-.16.08Z"/>
        <path class="cls-3" d="M37.15,101.67s-.09.06-.21,0c-.14-.08-.24-.23-.24-.39s.13-.17.28-.1c.12.05.17.07.17,0,0-.06-.04-.12-.12-.17-.09-.05-.13-.04-.13.04l-.17-.1c0-.14.09-.21.3-.09s.3.28.3.47v.33c0,.05,0,.08.05.09h0v.13s-.04,0-.08-.03c-.09-.05-.13-.11-.15-.2ZM37.15,101.48v-.12s-.08-.01-.13-.03c-.1-.03-.15-.03-.15.04s.04.13.11.17c.11.06.17.02.17-.06Z"/>
        <path class="cls-3" d="M37.44,101.23l.2.12v.23l-.2-.12v-.23ZM37.44,101.71l.2.12v.23l-.2-.12v-.23Z"/>
        <path class="cls-3" d="M34.58,101.56l.11.07c.02.14.1.28.23.35s.22.02.22-.14-.1-.32-.22-.39c-.1-.06-.17-.05-.21,0l-.11-.06.1-.52.5.29v.12l-.42-.24-.06.29h0c.05-.03.12-.02.22.03.17.1.32.32.32.56,0,.23-.14.3-.34.18s-.34-.33-.35-.54Z"/>
        <path class="cls-3" d="M35.34,102l.11.07c.02.14.1.28.23.35s.22.02.22-.14-.1-.32-.22-.39c-.1-.06-.17-.05-.21,0l-.11-.06.1-.52.5.29v.12l-.42-.24-.06.29h0c.05-.03.12-.02.22.03.17.1.32.32.32.56,0,.23-.14.3-.34.18s-.34-.33-.35-.54Z"/>
        <path class="cls-3" d="M36.13,102.61l.13.08v.16l-.13-.08v-.16Z"/>
        <path class="cls-3" d="M36.35,102.53l.11.07c0,.18.1.33.26.42.13.08.22.05.22-.1s-.09-.26-.25-.35l-.06-.03v-.1l.06.03c.15.08.22.06.22-.06s-.09-.24-.2-.31c-.14-.08-.22-.02-.22.13l-.11-.07c0-.21.13-.28.33-.16.17.1.31.29.31.48,0,.12-.06.16-.16.14h0c.13.12.19.25.19.39,0,.21-.15.24-.34.13-.21-.12-.37-.35-.38-.6Z"/>
        <path class="cls-3" d="M37.36,103.21l.11.07c.02.15.1.24.2.3.12.07.16.04.16-.04,0-.09-.05-.15-.19-.25-.14-.11-.27-.22-.27-.4,0-.14.09-.17.26-.08.18.1.26.25.28.42l-.11-.07c-.01-.11-.06-.19-.17-.25s-.14-.03-.14.03.07.15.19.25c.14.12.26.22.26.41,0,.17-.12.18-.28.09-.2-.11-.3-.28-.31-.47Z"/>
        <path class="cls-3" d="M38.57,104.07h0c-.05.05-.12.05-.22,0-.19-.11-.31-.35-.31-.61s.13-.36.31-.26c.1.06.17.15.22.26h0s0-.11,0-.11l.11.06v1.08s-.11-.06-.11-.06v-.36ZM38.57,103.77c0-.19-.07-.36-.23-.45-.13-.08-.2.02-.2.21s.06.36.2.44c.16.09.22,0,.22-.19Z"/>
        <path class="cls-3" d="M39.28,104.59v-.11h0c-.05.05-.11.07-.21,0-.15-.08-.24-.24-.24-.41v-.57s.11.06.11.06v.56c0,.11.06.2.16.26.11.07.19,0,.19-.12v-.5l.11.06v.82s-.11-.06-.11-.06Z"/>
        <path class="cls-3" d="M39.98,104.88h0s-.11.06-.23,0c-.13-.08-.24-.22-.24-.37s.13-.16.31-.08c.11.05.17.06.17-.03s-.05-.18-.16-.23c-.12-.07-.17-.04-.18.08l-.11-.06c0-.15.1-.22.29-.11.15.09.26.21.26.41v.46c0,.06.01.11.03.13h0s-.11-.06-.11-.06c-.01-.02-.02-.05-.02-.13ZM39.98,104.69v-.13s-.1-.02-.16-.04c-.12-.05-.2-.07-.2.04,0,.11.08.18.15.22.15.09.21,0,.21-.1Z"/>
        <path class="cls-3" d="M40.34,104.51h0c.04-.05.12-.08.21-.02.02.01.03.02.05.04v.12h0s-.03-.03-.05-.04c-.11-.06-.21-.02-.21.13v.46l-.11-.06v-.82l.11.06v.14Z"/>
        <path class="cls-3" d="M40.64,104.96c0-.24.13-.35.34-.24.21.12.33.38.33.65l-.55-.32c0,.17.09.34.23.43.1.06.17.04.2-.05l.11.06c-.03.16-.14.19-.31.1-.22-.13-.34-.39-.34-.63ZM40.75,104.96l.43.25c0-.17-.08-.31-.21-.38s-.2,0-.22.14Z"/>
        <path class="cls-3" d="M41.63,105.12l.11.06v.12h0c.04-.05.12-.07.21-.01s.16.14.19.25h0c.05-.07.13-.07.22-.02.13.07.22.22.22.39v.58s-.11-.06-.11-.06v-.57c0-.1-.06-.2-.13-.24-.09-.05-.17,0-.17.12v.51l-.11-.06v-.57c0-.1-.05-.19-.12-.23-.09-.05-.18-.01-.18.11v.51s-.11-.06-.11-.06v-.82Z"/>
        <path class="cls-3" d="M42.72,105.44l.11.06v.16l-.11-.06v-.16ZM42.72,105.75l.11.06v.82s-.11-.06-.11-.06v-.82Z"/>
        <path class="cls-3" d="M42.99,105.59l.11.06v1.13s-.11-.06-.11-.06v-1.13Z"/>
        <path class="cls-3" d="M43.21,106.45c0-.24.13-.35.34-.24.21.12.33.38.33.65l-.55-.32c0,.17.09.34.23.43.1.06.17.04.2-.05l.11.06c-.03.16-.14.19-.31.1-.22-.13-.34-.39-.34-.63ZM43.33,106.45l.43.25c0-.17-.08-.31-.21-.38s-.2,0-.22.14Z"/>
        <path class="cls-3" d="M43.94,107.01l.11.07c.02.15.1.24.2.3.12.07.16.04.16-.04,0-.09-.05-.15-.19-.25-.14-.11-.27-.22-.27-.4s.09-.17.26-.08c.18.1.26.25.28.42l-.11-.07c-.01-.11-.06-.19-.17-.25s-.14-.03-.14.03c0,.09.07.15.19.25.14.12.26.22.26.41,0,.17-.12.18-.28.09-.2-.11-.3-.28-.31-.47Z"/>
      </g>
      <g>
        <path class="cls-1" d="M50.69,119.06c-.09,0-.17-.02-.25-.07L.25,90.01c-.15-.09-.25-.25-.25-.43V3.04c0-.18.1-.35.26-.44L4.91.06c.15-.08.34-.08.49,0l50.19,28.98c.15.09.25.25.25.43v86.53c0,.18-.1.35-.26.44l-4.65,2.54c-.08.04-.16.06-.24.06ZM1,89.29l49.7,28.69,4.14-2.27V29.77L5.14,1.07,1,3.34v85.95Z"/>
        <rect class="cls-1" x="50.37" y="30.5" width="5.29" height=".5" transform="translate(-8.25 29.25) rotate(-28.72)"/>
        <rect class="cls-1" x="25.35" y="-11.45" width=".5" height="57.96" transform="translate(-2.39 30.93) rotate(-60)"/>
        <rect class="cls-1" x="50.44" y="32.02" width=".5" height="86.53"/>
      </g>
    </g>
  </g>
</svg>