<?xml version="1.0" encoding="UTF-8"?>
<svg id="Layer_2" data-name="Layer 2" xmlns="http://www.w3.org/2000/svg" viewBox="0 0 55.84 119.06">
  <defs>
    <style>
      .cls-1, .cls-2, .cls-3 {
        stroke-width: 0px;
      }

      .cls-2 {
        fill: #171b1e;
      }

      .cls-3 {
        fill: #e6e7e8;
      }
    </style>
  </defs>
  <g id="Layer_1-2" data-name="Layer 1">
    <g>
      <g>
        <polygon class="cls-2" points="50.69 118.56 .5 89.58 .5 3.05 50.69 32.02 50.69 118.56"/>
        <g>
          <path class="cls-3" d="M16.38,65.96l1.23.71v6.19s-1.23-.71-1.23-.71v14.64s-5.84-3.37-5.84-3.37v-14.64s-7.76-4.48-7.76-4.48v-5.69S7.46,9.79,7.46,9.79l8.91,5.15v51.03ZM10.54,62.59l1-36.15-.46-.27-3,34.99,2.46,1.42Z"/>
          <path class="cls-3" d="M25.6,92.62c-4.38-2.53-6.92-6.59-6.92-12.11V23.88c0-5.52,2.54-6.65,6.92-4.12,4.38,2.53,6.92,6.59,6.92,12.11v56.63c0,5.52-2.54,6.65-6.92,4.12ZM25.6,25.95c-.92-.53-1.08-.2-1.08,1.3v56.63c0,1.59.23,2.06,1.08,2.55.92.53,1.08.29,1.08-1.3V28.49c0-1.59-.23-2.06-1.08-2.55Z"/>
          <path class="cls-3" d="M48.04,84.24l1.23.71v6.19s-1.23-.71-1.23-.71v14.64s-5.84-3.37-5.84-3.37v-14.64s-7.76-4.48-7.76-4.48v-5.69s4.69-48.82,4.69-48.82l8.92,5.15v51.03ZM42.2,80.87l1-36.15-.46-.27-3,34.99,2.46,1.42Z"/>
        </g>
        <g>
          <path class="cls-3" d="M3.55,85.97l.49.29.83,3.2-.5-.29-.16-.67-.85-.49-.16.49-.48-.28.82-2.25ZM3.48,87.65l.62.36-.21-.91c-.04-.17-.1-.47-.1-.47h0s-.06.24-.1.36l-.21.66Z"/>
          <path class="cls-3" d="M4.84,87.48l.23.14v-.61s.44.25.44.25v.61l.29.17v.34s-.29-.17-.29-.17v1.04c0,.14.07.23.17.29.06.03.13.07.13.07v.38s-.1-.05-.28-.15c-.22-.13-.46-.36-.46-.73v-1.15l-.23-.14v-.34Z"/>
          <path class="cls-3" d="M6.04,87.4l.45.26v2.72s-.45-.26-.45-.26v-2.72Z"/>
          <path class="cls-3" d="M7.81,90.91c-.09.1-.22.15-.51-.02-.35-.2-.58-.54-.58-.93,0-.43.3-.4.68-.24.28.12.41.16.41.02,0-.14-.11-.29-.3-.41-.21-.12-.31-.1-.32.09l-.4-.23c0-.34.23-.51.73-.22s.73.68.73,1.14v.8c0,.13.02.18.12.22h0v.32s-.09,0-.19-.06c-.21-.12-.32-.26-.36-.47ZM7.81,90.46v-.29c-.08,0-.2-.03-.31-.07-.23-.07-.35-.08-.35.1,0,.18.11.31.26.4.26.15.4.05.4-.14Z"/>
          <path class="cls-3" d="M8.96,90.12h0c.12-.14.27-.16.5-.02.35.2.58.64.58,1.07v1.28s-.45-.26-.45-.26v-1.2c0-.21-.11-.42-.29-.53-.2-.11-.34-.02-.34.25v1.11s-.45-.26-.45-.26v-1.95s.44.25.44.25v.27Z"/>
          <path class="cls-3" d="M10.2,90.57l.23.14v-.61s.44.25.44.25v.61l.29.17v.34l-.29-.17v1.04c0,.14.07.23.17.29.06.03.13.07.13.07v.38s-.1-.05-.28-.15c-.22-.13-.46-.36-.46-.73v-1.15l-.23-.14v-.34Z"/>
          <path class="cls-3" d="M12.42,93.58c-.09.1-.22.15-.51-.02-.35-.2-.58-.54-.58-.93,0-.43.3-.4.68-.24.28.12.41.16.41.02s-.11-.29-.3-.41c-.21-.12-.31-.1-.32.09l-.4-.23c0-.34.23-.51.73-.22s.73.68.73,1.14v.8c0,.13.02.18.12.22h0v.32s-.09,0-.19-.06c-.21-.12-.32-.26-.36-.47ZM12.42,93.12v-.29c-.08,0-.2-.03-.31-.07-.23-.07-.35-.08-.35.1s.11.31.26.4c.26.15.4.05.4-.14Z"/>
          <path class="cls-3" d="M13.16,94.68c.13,0,.24-.07.24-.31l-.24-.14v-.55s.48.28.48.28v.52c0,.39-.22.48-.48.39v-.19Z"/>
          <path class="cls-3" d="M16.21,95.63h0c-.16.22-.38.2-.66.04-.36-.21-.63-.51-.83-.87-.19-.36-.31-.78-.31-1.19,0-.45.14-.77.39-.89.19-.09.44-.06.76.13.59.34.93.92,1.01,1.49l-.47-.27c-.05-.29-.23-.58-.53-.76-.45-.26-.67.04-.67.58s.25,1.11.66,1.34c.37.21.61.03.61-.27v-.02l-.57-.33v-.43s.99.57.99.57v1.45s-.36-.21-.36-.21l-.02-.38Z"/>
          <path class="cls-3" d="M17.57,94.06l.49.29.83,3.2-.5-.29-.16-.67-.85-.49-.16.49-.48-.28.82-2.25ZM17.5,95.74l.62.36-.21-.91c-.04-.17-.1-.47-.1-.47h0s-.06.24-.1.36l-.21.66Z"/>
        </g>
        <g>
          <path class="cls-3" d="M2.88,81.59l.11.07c0,.18.1.33.26.42.13.08.22.05.22-.1,0-.14-.09-.26-.25-.35l-.06-.03v-.1l.06.03c.15.08.22.06.22-.06,0-.12-.09-.24-.2-.31-.14-.08-.22-.02-.22.13l-.11-.07c0-.21.13-.28.33-.16.17.1.31.29.31.48,0,.12-.06.16-.16.14h0c.13.12.19.25.19.39,0,.21-.15.24-.34.13-.21-.12-.37-.35-.38-.6Z"/>
          <path class="cls-3" d="M3.66,82.04l.11.07c0,.18.1.33.26.42.13.08.22.05.22-.1,0-.14-.09-.26-.25-.35l-.06-.03v-.1l.06.03c.15.08.22.06.22-.06s-.09-.24-.2-.31c-.14-.08-.22-.02-.22.13l-.11-.07c0-.21.13-.28.33-.16.17.1.31.29.31.48,0,.12-.06.16-.16.14h0c.13.12.19.25.19.39,0,.21-.15.24-.34.13-.21-.12-.37-.35-.38-.6Z"/>
          <path class="cls-3" d="M4.48,82.72l.13.08v.16l-.13-.08v-.16Z"/>
          <path class="cls-3" d="M5.2,82.32h0s-.54-.31-.54-.31v-.12l.66.38v.11c-.19.08-.38.33-.4.75l-.12-.07c.02-.37.19-.66.4-.73Z"/>
          <path class="cls-3" d="M5.72,83.32l-.44-.26v-.12l.47-.44.09.05v.73l.16.09v.11l-.16-.09v.27s-.11-.07-.11-.07v-.27ZM5.39,83.02l.33.19v-.51h0s-.33.31-.33.31h0Z"/>
          <path class="cls-3" d="M6.08,83.5l.12.07c0,.12.08.25.21.33.07.04.12.05.16.02.06-.04.08-.15.08-.31h0c-.06.05-.15.05-.26-.01-.17-.1-.31-.35-.31-.55,0-.2.14-.29.33-.18.09.05.16.13.22.21.11.16.14.33.14.58,0,.22-.04.36-.13.4-.06.02-.13.01-.22-.04-.19-.11-.32-.31-.33-.51ZM6.63,83.37c0-.15-.1-.32-.23-.39s-.22-.02-.22.13.1.32.22.39c.14.08.23.03.23-.13Z"/>
          <path class="cls-3" d="M6.88,83.71c0-.35.14-.48.37-.36s.36.42.36.78c0,.35-.13.49-.37.36s-.37-.43-.37-.78ZM7.49,84.07c0-.28-.08-.5-.24-.6s-.25.03-.25.31c0,.28.08.5.25.6s.24-.03.24-.31Z"/>
          <path class="cls-3" d="M7.69,83.81c0-.11.08-.15.17-.1s.17.19.17.29c0,.11-.08.15-.17.1s-.17-.19-.17-.29ZM7.96,83.96c0-.07-.04-.14-.1-.18s-.1,0-.1.07.04.14.1.18.1,0,.1-.07Z"/>
          <path class="cls-3" d="M8.39,84l.13.08.45,1.05c.03.08.07.19.07.19h0s0-.93,0-.93l.12.07v1.13s-.13-.07-.13-.07l-.45-1.05c-.03-.07-.07-.18-.07-.18h0s0,.93,0,.93l-.12-.07v-1.13Z"/>
        </g>
        <g>
          <path class="cls-3" d="M18.73,90.79c0-.16.09-.19.19-.17h0c-.09-.09-.15-.21-.15-.32,0-.17.14-.21.31-.11s.31.29.31.46c0,.11-.06.16-.14.15h0c.11.1.19.25.19.4,0,.25-.18.23-.35.13s-.36-.3-.36-.54ZM19.33,91.13c0-.14-.09-.28-.24-.37s-.24-.05-.24.09.09.28.24.36.24.05.24-.09ZM19.28,90.59c0-.11-.08-.22-.2-.29s-.2-.05-.2.06.08.22.2.29.2.05.2-.06Z"/>
          <path class="cls-3" d="M19.97,91.55l-.44-.26v-.12l.47-.44.09.05v.73l.16.09v.11s-.16-.09-.16-.09v.27s-.11-.07-.11-.07v-.27ZM19.63,91.25l.33.19v-.51h0s-.33.31-.33.31h0Z"/>
          <path class="cls-3" d="M20.33,91.87l.13.08v.16s-.13-.08-.13-.08v-.16Z"/>
          <path class="cls-3" d="M20.54,91.79l.11.07c0,.18.1.33.26.42.13.08.22.05.22-.1,0-.14-.09-.26-.25-.35l-.06-.03v-.1l.06.03c.15.08.22.06.22-.06s-.09-.24-.2-.31c-.14-.08-.22-.02-.22.13l-.11-.07c0-.21.13-.28.33-.16.17.1.31.29.31.48,0,.12-.06.16-.16.14h0c.13.12.19.25.19.39,0,.21-.15.24-.34.13-.21-.12-.37-.35-.38-.6Z"/>
          <path class="cls-3" d="M21.35,92.3c0-.16.09-.19.19-.17h0c-.09-.09-.15-.21-.15-.32,0-.17.14-.21.31-.11s.31.29.31.46c0,.11-.06.16-.14.15h0c.11.1.19.25.19.4,0,.25-.18.23-.35.13s-.36-.3-.36-.54ZM21.94,92.65c0-.14-.09-.28-.24-.37s-.24-.05-.24.09.09.28.24.36.24.05.24-.09ZM21.9,92.11c0-.11-.08-.22-.2-.29s-.2-.05-.2.06.08.22.2.29.2.05.2-.06Z"/>
          <path class="cls-3" d="M22.15,92.77c0-.16.09-.19.19-.17h0c-.09-.09-.15-.21-.15-.32,0-.17.14-.21.31-.11s.31.29.31.46c0,.11-.06.16-.14.15h0c.11.1.19.25.19.4,0,.25-.18.23-.35.13s-.36-.3-.36-.54ZM22.75,93.11c0-.14-.09-.28-.24-.37s-.24-.05-.24.09.09.28.24.36.24.05.24-.09ZM22.7,92.57c0-.11-.08-.22-.2-.29s-.2-.05-.2.06.08.22.2.29.2.05.2-.06Z"/>
          <path class="cls-3" d="M22.95,93c0-.35.14-.48.37-.36s.36.42.36.78-.13.49-.37.36-.37-.43-.37-.78ZM23.57,93.35c0-.28-.08-.5-.24-.6s-.25.03-.25.31.08.5.25.6.24-.03.24-.31Z"/>
          <path class="cls-3" d="M23.77,93.09c0-.11.08-.15.17-.1s.17.19.17.29-.08.15-.17.1-.17-.19-.17-.29ZM24.03,93.25c0-.07-.04-.14-.1-.18s-.1,0-.1.07.04.14.1.18.1,0,.1-.07Z"/>
          <path class="cls-3" d="M24.39,93.24l.13.07.16.83c.02.09.04.21.04.21h0s.02-.11.04-.17l.18-.63.13.08.17.83c.02.09.04.22.04.22h0s.02-.11.04-.17l.16-.64.13.07-.27.98-.12-.07-.18-.9c-.02-.08-.04-.19-.04-.19h0s-.02.09-.04.15l-.19.69-.12-.07-.25-1.28Z"/>
        </g>
        <g>
          <path class="cls-3" d="M34.63,103.91l.43.25c.11.07.2.15.26.25.06.1.09.2.09.31,0,.21-.12.29-.33.17l-.24-.14v.41s-.21-.12-.21-.12v-1.13ZM34.83,104.56l.21.12c.1.06.16.03.16-.08s-.06-.2-.16-.26l-.21-.12v.34Z"/>
          <path class="cls-3" d="M35.43,105.1c0-.24.15-.34.37-.22s.37.4.37.64c0,.24-.15.34-.37.22s-.37-.4-.37-.64ZM35.98,105.42c0-.16-.06-.3-.18-.37s-.18,0-.18.16c0,.16.06.3.18.37s.18,0,.18-.16Z"/>
          <path class="cls-3" d="M36.26,105.17l.18.1v.1h0s.11-.06.21,0c.19.11.31.35.31.61,0,.26-.12.36-.31.25-.1-.06-.16-.14-.2-.23h0s0,.36,0,.36l-.19-.11v-1.08ZM36.77,105.88c0-.15-.05-.29-.16-.36s-.16.02-.16.17.06.28.17.34c.09.05.16,0,.16-.15Z"/>
          <path class="cls-3" d="M37.49,106.69v-.1h0s-.1.06-.2,0c-.16-.09-.24-.26-.24-.43v-.54s.19.11.19.11v.51c0,.1.04.17.12.22.09.05.14,0,.14-.1v-.47l.19.11v.81s-.18-.1-.18-.1Z"/>
          <path class="cls-3" d="M37.79,105.74l.19.11v1.13s-.19-.11-.19-.11v-1.13Z"/>
          <path class="cls-3" d="M38.53,107.2s-.09.06-.21,0c-.14-.08-.24-.23-.24-.39,0-.18.13-.17.28-.1.12.05.17.07.17,0,0-.06-.04-.12-.12-.17-.09-.05-.13-.04-.13.04l-.17-.1c0-.14.09-.21.3-.09s.3.28.3.47v.33c0,.05,0,.08.05.09h0v.13s-.04,0-.08-.03c-.09-.05-.13-.11-.15-.2ZM38.53,107.01v-.12s-.08-.01-.13-.03c-.1-.03-.15-.03-.15.04s.04.13.11.17c.11.06.17.02.17-.06Z"/>
          <path class="cls-3" d="M38.77,106.62l.1.06v-.25l.18.11v.25l.12.07v.14s-.12-.07-.12-.07v.43c0,.06.03.1.07.12.02.01.05.03.05.03v.16s-.04-.02-.12-.06c-.09-.05-.19-.15-.19-.31v-.48l-.1-.06v-.14Z"/>
          <path class="cls-3" d="M39.26,106.59l.19.11v.19l-.19-.11v-.19ZM39.26,106.91l.19.11v.81s-.19-.11-.19-.11v-.81Z"/>
          <path class="cls-3" d="M39.54,107.47c0-.24.15-.34.37-.22s.37.4.37.64-.15.34-.37.22-.37-.4-.37-.64ZM40.09,107.79c0-.16-.06-.3-.18-.37s-.18,0-.18.16.06.3.18.37.18,0,.18-.16Z"/>
          <path class="cls-3" d="M40.54,107.76h0c.05-.06.11-.07.21-.01.15.08.24.27.24.45v.53s-.19-.11-.19-.11v-.5c0-.09-.04-.17-.12-.22-.08-.05-.14,0-.14.1v.46s-.19-.11-.19-.11v-.81s.18.11.18.11v.11Z"/>
          <path class="cls-3" d="M41.11,108.08l.2.12v.23l-.2-.12v-.23ZM41.11,108.56l.2.12v.23l-.2-.12v-.23Z"/>
          <path class="cls-3" d="M35.03,106.6l-.44-.26v-.12s.47-.44.47-.44l.09.05v.73l.16.09v.11l-.16-.09v.27l-.11-.07v-.27ZM34.7,106.3l.33.19v-.51h0s-.33.31-.33.31h0Z"/>
          <path class="cls-3" d="M35.4,106.78l.12.07c0,.12.08.25.21.33.07.04.12.05.16.02.06-.04.08-.15.08-.31h0c-.06.05-.15.05-.26-.01-.17-.1-.31-.35-.31-.55,0-.2.14-.29.33-.18.09.05.16.13.22.21.11.16.14.33.14.58,0,.22-.04.36-.13.4-.06.02-.13.01-.22-.04-.19-.11-.32-.31-.33-.51ZM35.95,106.65c0-.15-.1-.32-.23-.39s-.22-.02-.22.13c0,.15.1.32.22.39.14.08.23.03.23-.13Z"/>
          <path class="cls-3" d="M36.18,107.21c0-.16.09-.19.19-.17h0c-.09-.09-.15-.21-.15-.32,0-.17.14-.21.31-.11s.31.29.31.46c0,.11-.06.16-.14.15h0c.11.1.19.25.19.4,0,.25-.18.23-.35.13s-.36-.3-.36-.54ZM36.77,107.56c0-.14-.09-.28-.24-.37s-.24-.05-.24.09.09.28.24.36.24.05.24-.09ZM36.73,107.02c0-.11-.08-.22-.2-.29s-.2-.05-.2.06c0,.11.08.22.2.29s.2.05.2-.06Z"/>
          <path class="cls-3" d="M36.99,108.13s.06,0,.06-.1l-.06-.04v-.16l.13.08v.16c0,.12-.05.15-.13.12v-.07Z"/>
          <path class="cls-3" d="M37.71,107.45h0s-.54-.31-.54-.31v-.12l.66.38v.11c-.19.08-.38.33-.4.75l-.12-.07c.02-.37.19-.66.4-.73Z"/>
          <path class="cls-3" d="M38.1,107.85l-.21-.12v-.09c.12.06.21.07.23-.08l.09.05v1.09s-.12-.07-.12-.07v-.79Z"/>
          <path class="cls-3" d="M38.36,108.47l.11.07c.02.14.1.28.23.35s.22.02.22-.14-.1-.32-.22-.39c-.1-.06-.17-.05-.21,0l-.11-.06.1-.52.5.29v.12l-.42-.24-.06.29h0c.05-.03.12-.02.22.03.17.1.32.32.32.56,0,.23-.14.3-.34.18s-.34-.33-.35-.54Z"/>
        </g>
        <g>
          <g>
            <polygon class="cls-3" points="47.15 111.14 46.63 110.83 46.63 113.56 47.15 113.86 47.15 111.14"/>
            <polygon class="cls-3" points="47.75 111.48 47.23 111.18 47.23 113.9 47.75 114.21 47.75 111.48"/>
            <polygon class="cls-3" points="48.35 111.83 47.83 111.53 47.83 114.25 48.35 114.55 48.35 111.83"/>
          </g>
          <path class="cls-3" d="M48.5,112.22c0-.18.11-.24.26-.16s.26.28.26.46c0,.18-.12.24-.26.16s-.26-.28-.26-.46ZM48.99,112.5c0-.16-.1-.33-.23-.41s-.23-.01-.23.14.1.33.23.41.23.02.23-.14ZM48.66,112.13l.14.08c.05.03.09.09.09.15,0,.04-.02.06-.05.05h0s.04.06.05.1c0,.05,0,.08.01.09h0s-.05-.03-.05-.03c0,0,0-.04-.01-.08,0-.04-.02-.07-.05-.09l-.06-.04v.13l-.05-.03v-.34ZM48.71,112.32l.07.04s.05,0,.05-.02c0-.03-.01-.06-.05-.08l-.07-.04v.1Z"/>
        </g>
        <path class="cls-3" d="M34.9,99.3l.21.12.35,1.33-.21-.12-.07-.28-.35-.2-.06.2-.2-.12.34-.94ZM34.87,100l.26.15-.09-.38c-.02-.07-.04-.2-.04-.2h0s-.02.1-.04.15l-.09.28Z"/>
        <path class="cls-3" d="M35.7,100.21h0c.04-.07.09-.08.17-.04.02.01.03.02.04.03v.19h0c-.12-.09-.21-.06-.21.11v.4s-.19-.11-.19-.11v-.81s.18.1.18.1v.13Z"/>
        <path class="cls-3" d="M35.95,100.63c0-.24.14-.35.35-.23.23.13.35.4.35.69l-.51-.3c.01.13.07.25.18.31.07.04.12.03.14-.02l.18.11c-.03.13-.14.19-.32.08-.23-.13-.37-.4-.37-.64ZM36.13,100.65l.31.18c0-.11-.06-.21-.15-.26-.1-.06-.15-.02-.16.08Z"/>
        <path class="cls-3" d="M37.15,101.64s-.09.06-.21,0c-.14-.08-.24-.23-.24-.39,0-.18.13-.17.28-.1.12.05.17.07.17,0,0-.06-.04-.12-.12-.17-.09-.05-.13-.04-.13.04l-.17-.1c0-.14.09-.21.3-.09s.3.28.3.47v.33c0,.05,0,.08.05.09h0v.13s-.04,0-.08-.03c-.09-.05-.13-.11-.15-.2ZM37.15,101.45v-.12s-.08-.01-.13-.03c-.1-.03-.15-.03-.15.04s.04.13.11.17c.11.06.17.02.17-.06Z"/>
        <path class="cls-3" d="M37.45,101.2l.2.12v.23l-.2-.12v-.23ZM37.45,101.68l.2.12v.23l-.2-.12v-.23Z"/>
        <path class="cls-3" d="M34.81,101.18l-.21-.12v-.09c.12.06.21.07.23-.08l.09.05v1.09s-.12-.07-.12-.07v-.79Z"/>
        <path class="cls-3" d="M35.05,101.75l.11.07c0,.18.1.33.26.42.13.08.22.05.22-.1,0-.14-.09-.26-.25-.35l-.06-.03v-.1l.06.03c.15.08.22.06.22-.06s-.09-.24-.2-.31c-.14-.08-.22-.02-.22.13l-.11-.07c0-.21.13-.28.33-.16.17.1.31.29.31.48,0,.12-.06.16-.16.14h0c.13.12.19.25.19.39,0,.21-.15.24-.34.13-.21-.12-.37-.35-.38-.6Z"/>
        <path class="cls-3" d="M36.29,102.56l-.44-.26v-.12l.47-.44.09.05v.73l.16.09v.11s-.16-.09-.16-.09v.27s-.11-.07-.11-.07v-.27ZM35.96,102.26l.33.19v-.51h0s-.33.31-.33.31h0Z"/>
        <path class="cls-3" d="M36.65,102.88l.13.08v.16l-.13-.08v-.16Z"/>
        <path class="cls-3" d="M36.87,102.62c0-.35.14-.48.37-.36s.36.42.36.78c0,.35-.13.49-.37.36s-.37-.43-.37-.78ZM37.48,102.97c0-.28-.08-.5-.24-.6s-.25.03-.25.31c0,.28.08.5.25.6s.24-.03.24-.31Z"/>
        <path class="cls-3" d="M37.91,103.5l.11.07c.02.15.1.24.2.3.12.07.16.04.16-.04,0-.09-.05-.15-.19-.25-.14-.11-.27-.22-.27-.4,0-.14.09-.17.26-.08.18.1.26.25.28.42l-.11-.07c-.01-.11-.06-.19-.17-.25s-.14-.03-.14.03c0,.09.07.15.19.25.14.12.26.22.26.41,0,.17-.12.18-.28.09-.2-.11-.3-.28-.31-.47Z"/>
        <path class="cls-3" d="M39.12,104.36h0c-.05.05-.12.05-.22,0-.19-.11-.31-.35-.31-.61s.13-.36.31-.26c.1.06.17.15.22.26h0s0-.11,0-.11l.11.06v1.08s-.11-.06-.11-.06v-.36ZM39.13,104.06c0-.19-.07-.36-.23-.45-.13-.08-.2.02-.2.21s.06.36.2.44c.16.09.22,0,.22-.19Z"/>
        <path class="cls-3" d="M39.84,104.88v-.11h0c-.05.05-.11.07-.21,0-.15-.08-.24-.24-.24-.41v-.57s.11.06.11.06v.56c0,.11.06.2.16.26.11.07.19,0,.19-.12v-.5s.11.06.11.06v.82s-.11-.06-.11-.06Z"/>
        <path class="cls-3" d="M40.53,105.17h0s-.11.06-.23,0c-.13-.08-.24-.22-.24-.37,0-.19.13-.16.31-.08.11.05.17.06.17-.03,0-.09-.05-.18-.16-.23-.12-.07-.17-.04-.18.08l-.11-.06c0-.15.1-.22.29-.11.15.09.26.21.26.41v.46c0,.06.01.11.03.13h0s-.11-.06-.11-.06c-.01-.02-.02-.05-.02-.13ZM40.54,104.98v-.13s-.1-.02-.16-.04c-.12-.05-.2-.07-.2.04,0,.11.08.18.15.22.15.09.21,0,.21-.1Z"/>
        <path class="cls-3" d="M40.9,104.8h0c.04-.05.12-.08.21-.02.02.01.03.02.05.04v.12h0s-.03-.03-.05-.04c-.11-.06-.21-.02-.21.13v.46s-.11-.06-.11-.06v-.82s.11.06.11.06v.14Z"/>
        <path class="cls-3" d="M41.19,105.25c0-.24.13-.35.34-.24.21.12.33.38.33.65l-.55-.32c0,.17.09.34.23.43.1.06.17.04.2-.05l.11.06c-.03.16-.14.19-.31.1-.22-.13-.34-.39-.34-.63ZM41.31,105.25l.43.25c0-.17-.08-.31-.21-.38s-.2,0-.22.14Z"/>
        <path class="cls-3" d="M42.18,105.41l.11.06v.12h0c.04-.05.12-.07.21-.01s.16.14.19.25h0c.05-.07.13-.07.22-.02.13.07.22.22.22.39v.58l-.11-.06v-.57c0-.1-.06-.2-.13-.24-.09-.05-.17,0-.17.12v.51l-.11-.06v-.57c0-.1-.05-.19-.12-.23-.09-.05-.18-.01-.18.11v.51s-.11-.06-.11-.06v-.82Z"/>
        <path class="cls-3" d="M43.27,105.73l.11.06v.16l-.11-.06v-.16ZM43.27,106.04l.11.06v.82s-.11-.06-.11-.06v-.82Z"/>
        <path class="cls-3" d="M43.54,105.88l.11.06v1.13s-.11-.06-.11-.06v-1.13Z"/>
        <path class="cls-3" d="M43.77,106.74c0-.24.13-.35.34-.24.21.12.33.38.33.65l-.55-.32c0,.17.09.34.23.43.1.06.17.04.2-.05l.11.06c-.03.16-.14.19-.31.1-.22-.13-.34-.39-.34-.63ZM43.88,106.74l.43.25c0-.17-.08-.31-.21-.38s-.2,0-.22.14Z"/>
        <path class="cls-3" d="M44.5,107.3l.11.07c.02.15.1.24.2.3.12.07.16.04.16-.04,0-.09-.05-.15-.19-.25-.14-.11-.27-.22-.27-.4,0-.14.09-.17.26-.08.18.1.26.25.28.42l-.11-.07c-.01-.11-.06-.19-.17-.25s-.14-.03-.14.03c0,.09.07.15.19.25.14.12.26.22.26.41,0,.17-.12.18-.28.09-.2-.11-.3-.28-.31-.47Z"/>
      </g>
      <g>
        <path class="cls-1" d="M50.69,119.06c-.09,0-.17-.02-.25-.07L.25,90.01c-.15-.09-.25-.25-.25-.43V3.04c0-.18.1-.35.26-.44L4.91.06c.15-.08.34-.08.49,0l50.19,28.98c.15.09.25.25.25.43v86.53c0,.18-.1.35-.26.44l-4.65,2.54c-.08.04-.16.06-.24.06ZM1,89.29l49.7,28.7,4.14-2.27V29.77L5.14,1.07,1,3.34v85.95Z"/>
        <rect class="cls-1" x="50.37" y="30.5" width="5.29" height=".5" transform="translate(-8.26 29.31) rotate(-28.77)"/>
        <rect class="cls-1" x="25.35" y="-11.45" width=".5" height="57.96" transform="translate(-2.39 30.93) rotate(-60)"/>
        <rect class="cls-1" x="50.44" y="32.02" width=".5" height="86.53"/>
      </g>
    </g>
  </g>
</svg>