<?xml version="1.0" encoding="UTF-8"?>
<svg id="Layer_2" data-name="Layer 2" xmlns="http://www.w3.org/2000/svg" viewBox="0 0 126.25 78.54">
  <defs>
    <style>
      .cls-1, .cls-2, .cls-3 {
        stroke-width: 0px;
      }

      .cls-2 {
        fill: #0f1d20;
      }

      .cls-3 {
        fill: #eb5e24;
      }
    </style>
  </defs>
  <g id="Layer_1-2" data-name="Layer 1">
    <g>
      <g>
        <polygon class="cls-3" points="50.69 72.74 .5 43.77 75.44 .5 125.63 29.48 50.69 72.74"/>
        <g>
          <path class="cls-2" d="M44.77,36.54l1.23.71-5.36,3.1-1.23-.71-12.68,7.32-5.84-3.37,12.68-7.32-7.76-4.48,4.93-2.84L80.05,5.88l8.91,5.15-44.19,25.51ZM38.93,33.17l32.8-17.78-.46-.27-34.8,16.63,2.46,1.42Z"/>
          <path class="cls-2" d="M35.52,52.53c-4.38-2.53-4.67-5.29.11-8.05l49.04-28.32c4.78-2.76,9.56-2.59,13.94-.06,4.38,2.53,4.67,5.29-.11,8.05l-49.04,28.32c-4.78,2.76-9.56,2.59-13.94.06ZM93.26,19.2c-.92-.53-1.44-.41-2.74.34l-49.04,28.32c-1.38.79-1.44,1.1-.59,1.58.92.53,1.37.45,2.74-.34l49.04-28.32c1.38-.79,1.44-1.1.59-1.58Z"/>
          <path class="cls-2" d="M76.43,54.82l1.23.71-5.36,3.1-1.23-.71-12.68,7.32-5.84-3.37,12.68-7.32-7.76-4.48,4.93-2.84,49.31-23.06,8.92,5.15-44.19,25.51ZM70.59,51.45l32.8-17.78-.46-.27-34.8,16.63,2.46,1.42Z"/>
        </g>
        <g>
          <path class="cls-2" d="M8.21,42.84l.49.29-1.53,1.84-.5-.29.34-.38-.85-.49-.66.2-.48-.28,3.18-.89ZM6.65,43.66l.62.36.47-.51c.09-.1.27-.26.27-.26h0s-.3.1-.46.15l-.89.27Z"/>
          <path class="cls-2" d="M8.83,43.97l.23.14.53-.3.44.25-.53.3.29.17-.3.17-.29-.17-.9.52c-.13.07-.1.14,0,.19.06.03.14.07.14.07l-.33.19s-.11-.06-.29-.16c-.22-.13-.37-.31-.05-.5l.99-.57-.23-.14.3-.17Z"/>
          <path class="cls-2" d="M10.7,44.28l.45.26-2.36,1.36-.45-.26,2.36-1.36Z"/>
          <path class="cls-2" d="M10.3,46.54c-.22.02-.47,0-.76-.16-.35-.2-.41-.44-.07-.63.37-.22.8-.11,1.23.08.32.14.47.2.6.13s.1-.18-.1-.29c-.21-.12-.38-.14-.56-.05l-.4-.23c.31-.17.79-.19,1.28.1s.5.55.1.78l-.69.4c-.11.06-.13.1-.01.14h0s-.27.16-.27.16c-.06-.01-.13-.03-.23-.09-.21-.12-.26-.22-.13-.34ZM10.7,46.31l.25-.14c-.13-.02-.27-.07-.41-.12-.29-.1-.45-.14-.61-.05s-.11.18.05.28c.26.15.56.14.72.04Z"/>
          <path class="cls-2" d="M12.71,46.48h0c.3-.03.55,0,.78.14.35.2.32.49-.05.7l-1.11.64-.45-.26,1.04-.6c.18-.1.2-.24.02-.35-.2-.11-.5-.11-.73.03l-.96.55-.45-.26,1.69-.98.44.25-.23.13Z"/>
          <path class="cls-2" d="M14.18,47.06l.23.14.53-.3.44.25-.53.3.29.17-.3.17-.29-.17-.9.52c-.13.07-.1.14,0,.19.06.03.14.07.14.07l-.33.19s-.11-.06-.29-.16c-.22-.13-.37-.31-.05-.5l.99-.57-.23-.14.3-.17Z"/>
          <path class="cls-2" d="M14.92,49.21c-.22.02-.47,0-.76-.16-.35-.2-.41-.44-.07-.63.37-.22.8-.11,1.23.08.32.14.47.2.6.13s.1-.18-.1-.29c-.21-.12-.38-.14-.56-.05l-.4-.23c.31-.17.79-.19,1.28.1s.5.55.1.78l-.69.4c-.11.06-.13.1-.01.14h0s-.27.16-.27.16c-.06-.01-.13-.03-.23-.09-.21-.12-.26-.22-.13-.34ZM15.32,48.98l.25-.14c-.13-.02-.27-.07-.41-.12-.29-.1-.45-.14-.61-.05s-.11.18.05.28c.26.15.56.14.72.04Z"/>
          <path class="cls-2" d="M15.07,49.97c.19.04.42.03.62-.09l-.24-.14.48-.28.48.28-.45.26c-.34.19-.75.18-1.05.06l.16-.09Z"/>
          <path class="cls-2" d="M18.82,51.32h0c-.43.06-.75-.01-1.03-.18-.36-.21-.5-.44-.49-.68.02-.24.21-.48.57-.68.39-.23.87-.34,1.35-.33.37,0,.71.1,1.03.28.59.34.61.73.22,1.04l-.47-.27c.17-.16.16-.36-.14-.53-.45-.26-1.04-.17-1.5.1s-.58.63-.17.86c.37.21.88.19,1.14.04h.01s-.57-.34-.57-.34l.37-.21.99.57-1.25.72-.36-.21.3-.19Z"/>
          <path class="cls-2" d="M22.22,50.93l.49.29-1.53,1.84-.5-.29.34-.38-.85-.49-.66.2-.48-.28,3.18-.89ZM20.66,51.75l.62.36.47-.51c.09-.1.27-.26.27-.26h0s-.3.1-.46.15l-.89.27Z"/>
        </g>
        <g>
          <path class="cls-2" d="M10.98,40.46l.11.07c-.15.09-.13.19.02.28.13.08.29.09.42.01.12-.07.09-.16-.06-.25l-.06-.03.09-.05.06.03c.15.08.28.09.38.03s.07-.15-.04-.21c-.14-.08-.31-.07-.44,0l-.11-.07c.19-.11.44-.11.64.01.17.1.22.24.05.33-.11.06-.23.06-.35.02h0c.1.1.07.18-.05.25-.18.1-.43.08-.62-.03-.21-.12-.25-.28-.04-.41Z"/>
          <path class="cls-2" d="M11.76,40.91l.11.07c-.15.09-.13.19.02.28.13.08.29.09.42.01.12-.07.09-.16-.06-.25l-.06-.03.09-.05.06.03c.15.08.28.09.38.03s.07-.15-.04-.21c-.14-.08-.31-.07-.44,0l-.11-.07c.19-.11.44-.11.64.01.17.1.22.24.05.33-.11.06-.23.06-.35.02h0c.1.1.07.18-.05.25-.18.1-.43.08-.62-.03-.21-.12-.25-.28-.04-.41Z"/>
          <path class="cls-2" d="M12.41,41.48l.13.08-.14.08-.13-.08.14-.08Z"/>
          <path class="cls-2" d="M13.83,41.49h0s-.54-.31-.54-.31l.1-.06.66.38-.09.05c-.36-.01-.85.05-1.25.26l-.12-.07c.35-.18.86-.27,1.24-.25Z"/>
          <path class="cls-2" d="M13.74,42.14l-.44-.26.1-.06,1.08-.09.09.05-.63.36.16.09-.09.05-.16-.09-.23.13-.11-.07.23-.13ZM13.5,41.9l.33.19.44-.25h0s-.77.06-.77.06h0Z"/>
          <path class="cls-2" d="M14.13,42.34l.12.07c-.09.06-.1.15.03.22.07.04.14.06.22.06.12,0,.24-.05.39-.13h0c-.14,0-.27-.02-.38-.08-.17-.1-.17-.26,0-.36.17-.1.46-.11.65,0,.09.05.13.11.15.17.02.11-.08.21-.29.33-.19.11-.37.17-.54.16-.11,0-.21-.03-.3-.08-.19-.11-.21-.25-.05-.35ZM15.07,42.43c.13-.08.12-.19,0-.26s-.31-.08-.45,0-.13.19,0,.26c.14.08.32.08.46,0Z"/>
          <path class="cls-2" d="M15.14,42.67c.31-.18.64-.2.86-.07s.18.32-.13.49-.62.21-.86.07-.17-.32.13-.5ZM15.75,43.03c.24-.14.31-.27.15-.37s-.4-.06-.64.08-.31.27-.14.37.39.06.64-.08Z"/>
          <path class="cls-2" d="M16.28,42.96c.09-.05.25-.05.34,0s.1.14,0,.2-.24.05-.34,0-.1-.14,0-.2ZM16.55,43.11c.06-.03.07-.08,0-.12s-.14-.03-.2,0-.07.08,0,.12.14.03.2,0Z"/>
          <path class="cls-2" d="M17.17,43.25l.13.08-.24.65s-.05.11-.05.11h0s.81-.47.81-.47l.12.07-.98.57-.13-.07.23-.66s.05-.11.05-.11h0s-.81.46-.81.46l-.12-.07.98-.57Z"/>
        </g>
        <g>
          <path class="cls-2" d="M26.79,49.63c.14-.08.3-.07.44-.03h0c-.05-.07-.04-.15.05-.2.15-.09.38-.06.56.04s.21.23.06.32c-.1.06-.22.06-.34.03h0c.07.08.07.18-.05.25-.21.12-.47.06-.64-.04s-.28-.25-.07-.38ZM27.39,49.98c.12-.07.11-.17-.04-.25s-.31-.09-.44-.02-.1.16.05.25.31.09.43.02ZM27.79,49.7c.1-.06.08-.13-.04-.2s-.25-.08-.35-.02-.08.13.04.2.25.08.35.02Z"/>
          <path class="cls-2" d="M27.99,50.37l-.44-.26.1-.06,1.08-.09.09.05-.63.36.16.09-.09.05-.16-.09-.23.13-.11-.07.23-.13ZM27.75,50.12l.33.19.44-.25h0s-.77.06-.77.06h0Z"/>
          <path class="cls-2" d="M28.26,50.63l.13.08-.14.08-.13-.08.14-.08Z"/>
          <path class="cls-2" d="M28.65,50.66l.11.07c-.15.09-.13.19.02.28.13.08.29.09.42.01.12-.07.09-.16-.06-.25l-.06-.03.09-.05.06.03c.15.08.28.09.38.03s.07-.15-.04-.21c-.14-.08-.31-.07-.44,0l-.11-.07c.19-.11.44-.11.64.01.17.1.22.24.05.33-.11.06-.23.06-.35.02h0c.1.1.07.18-.05.25-.18.1-.43.08-.62-.03-.21-.12-.25-.28-.04-.41Z"/>
          <path class="cls-2" d="M29.41,51.15c.14-.08.3-.07.44-.03h0c-.05-.07-.04-.15.05-.2.15-.09.38-.06.56.04s.21.23.06.32c-.1.06-.22.06-.34.03h0c.07.08.07.18-.05.25-.21.12-.47.06-.64-.04s-.28-.25-.07-.38ZM30.01,51.49c.12-.07.11-.17-.04-.25s-.31-.09-.44-.02-.1.16.05.25.31.09.43.02ZM30.41,51.21c.1-.06.08-.13-.04-.2s-.25-.08-.35-.02-.08.13.04.2.25.08.35.02Z"/>
          <path class="cls-2" d="M30.21,51.61c.14-.08.3-.07.44-.03h0c-.05-.07-.04-.15.05-.2.15-.09.38-.06.56.04s.21.23.06.32c-.1.06-.22.06-.34.03h0c.07.08.07.18-.05.25-.21.12-.47.06-.64-.04s-.28-.25-.07-.38ZM30.81,51.95c.12-.07.11-.17-.04-.25s-.31-.09-.44-.02-.1.16.05.25.31.09.43.02ZM31.21,51.67c.1-.06.08-.13-.04-.2s-.25-.08-.35-.02-.08.13.04.2.25.08.35.02Z"/>
          <path class="cls-2" d="M31.22,51.96c.31-.18.64-.2.86-.07s.18.32-.13.49-.62.21-.86.07-.17-.32.13-.5ZM31.83,52.31c.24-.14.31-.27.15-.37s-.4-.06-.64.08-.31.27-.14.37.39.06.64-.08Z"/>
          <path class="cls-2" d="M32.36,52.24c.09-.05.25-.05.34,0s.1.14,0,.2-.24.05-.34,0-.1-.14,0-.2ZM32.62,52.39c.06-.03.07-.08,0-.12s-.14-.03-.2,0-.07.08,0,.12.14.03.2,0Z"/>
          <path class="cls-2" d="M33.17,52.49l.13.07-.48.46s-.13.12-.13.12h0s.13-.05.21-.07l.81-.27.13.08-.46.47s-.13.12-.13.12h0s.13-.05.2-.07l.8-.27.13.07-1.26.41-.12-.07.51-.5s.11-.11.11-.11h0s-.11.04-.19.06l-.89.29-.12-.07.73-.71Z"/>
        </g>
        <g>
          <path class="cls-2" d="M39.28,60.78l.43.25c.11.07.17.13.16.2,0,.06-.05.13-.14.18-.19.11-.43.11-.64-.01l-.24-.14-.36.21-.21-.12.98-.57ZM39.02,61.17l.21.12c.1.06.22.06.31,0s.09-.12-.01-.17l-.21-.12-.29.17Z"/>
          <path class="cls-2" d="M39.46,61.61c.21-.12.52-.13.74,0s.21.31,0,.43-.52.13-.74,0-.21-.31,0-.43ZM40,61.93c.14-.08.17-.17.05-.24s-.27-.05-.41.03-.17.17-.05.24.27.05.41-.03Z"/>
          <path class="cls-2" d="M40.63,61.88l.18.1-.09.05h0c.11,0,.22,0,.31.06.19.11.15.26-.07.39s-.5.14-.68.04c-.1-.06-.12-.12-.1-.18h0s-.31.18-.31.18l-.19-.11.94-.54ZM40.78,62.38c.13-.08.18-.16.06-.22s-.26-.04-.39.04-.15.16-.04.22c.09.05.23.04.37-.03Z"/>
          <path class="cls-2" d="M41.16,63l.08-.05h0c-.11,0-.2,0-.3-.06-.16-.09-.14-.2,0-.29l.47-.27.19.11-.44.25c-.08.05-.09.1-.01.14.09.05.21.04.3-.01l.41-.23.19.11-.7.41-.18-.1Z"/>
          <path class="cls-2" d="M42.44,62.61l.19.11-.98.57-.19-.11.98-.57Z"/>
          <path class="cls-2" d="M42.28,63.55c-.09,0-.19,0-.31-.07-.14-.08-.17-.18-.03-.26.16-.09.33-.05.51.03.13.06.2.08.25.05.05-.03.04-.07-.04-.12-.09-.05-.16-.06-.23-.02l-.17-.1c.13-.07.33-.08.53.04s.21.23.04.32l-.29.17s-.05.04,0,.06h0s-.11.07-.11.07c-.02,0-.05-.01-.1-.04-.09-.05-.11-.09-.06-.14ZM42.44,63.46l.1-.06c-.05,0-.11-.03-.17-.05-.12-.04-.19-.06-.25-.02s-.05.08.02.12c.11.06.23.06.3.02Z"/>
          <path class="cls-2" d="M43.14,63.33l.1.06.22-.13.18.11-.22.13.12.07-.12.07-.12-.07-.37.22c-.05.03-.04.06,0,.08.02.01.06.03.06.03l-.14.08s-.05-.02-.12-.07c-.09-.05-.16-.13-.02-.21l.41-.24-.1-.06.12-.07Z"/>
          <path class="cls-2" d="M43.92,63.46l.19.11-.17.1-.19-.11.17-.1ZM43.64,63.62l.19.11-.7.41-.19-.11.7-.41Z"/>
          <path class="cls-2" d="M43.56,63.98c.21-.12.52-.13.74,0s.21.31,0,.43-.52.13-.74,0-.21-.31,0-.43ZM44.11,64.3c.14-.08.17-.17.05-.24s-.27-.05-.41.03-.17.17-.05.24.27.05.41-.03Z"/>
          <path class="cls-2" d="M44.82,64.41h0c.12-.01.23,0,.32.06.15.08.13.2-.02.29l-.46.27-.19-.11.43-.25c.08-.04.09-.1,0-.15-.08-.05-.21-.04-.31.01l-.4.23-.19-.11.7-.41.18.11-.1.06Z"/>
          <path class="cls-2" d="M45.39,64.74l.2.12-.2.11-.2-.12.2-.11ZM44.98,64.98l.2.12-.2.12-.2-.12.2-.12Z"/>
          <path class="cls-2" d="M37.56,62.24l-.44-.26.1-.06,1.08-.09.09.05-.63.36.16.09-.09.05-.16-.09-.23.13-.11-.07.23-.13ZM37.32,62l.33.19.44-.25h0s-.77.06-.77.06h0Z"/>
          <path class="cls-2" d="M37.95,62.44l.12.07c-.09.06-.1.15.03.22.07.04.14.06.22.06.12,0,.24-.05.39-.13h0c-.14,0-.27-.02-.38-.08-.17-.1-.17-.26,0-.36.17-.1.46-.11.65,0,.09.05.13.11.15.17.02.11-.08.21-.29.33-.19.11-.37.17-.54.16-.11,0-.21-.03-.3-.08-.19-.11-.21-.25-.05-.35ZM38.89,62.53c.13-.08.12-.19,0-.26s-.31-.08-.45,0-.13.19,0,.26c.14.08.32.08.46,0Z"/>
          <path class="cls-2" d="M38.74,62.88c.14-.08.3-.07.44-.03h0c-.05-.07-.04-.15.05-.2.15-.09.38-.06.56.04s.21.23.06.32c-.1.06-.22.06-.34.03h0c.07.08.07.18-.05.25-.21.12-.47.06-.64-.04s-.28-.25-.07-.38ZM39.34,63.23c.12-.07.11-.17-.04-.25s-.31-.09-.44-.02-.1.16.05.25.31.09.43.02ZM39.74,62.94c.1-.06.08-.13-.04-.2s-.25-.08-.35-.02-.08.13.04.2.25.08.35.02Z"/>
          <path class="cls-2" d="M39.18,63.58s.1.01.18-.03l-.06-.04.14-.08.13.08-.14.08c-.1.06-.21.06-.3.02l.06-.04Z"/>
          <path class="cls-2" d="M40.84,63.44h0s-.54-.31-.54-.31l.1-.06.66.38-.09.05c-.36-.01-.85.05-1.25.26l-.12-.07c.35-.18.86-.27,1.24-.25Z"/>
          <path class="cls-2" d="M41.08,63.75l-.21-.12.08-.04c.12.06.26.1.42.03l.09.05-.95.55-.12-.07.69-.4Z"/>
          <path class="cls-2" d="M40.93,64.14l.11.07c-.1.08-.09.17.04.24s.31.08.45,0,.13-.19,0-.26c-.1-.06-.21-.08-.31-.07l-.11-.06.61-.23.5.29-.1.06-.42-.24-.34.13h0c.1,0,.2.03.3.08.17.1.2.25,0,.37s-.47.11-.67,0-.22-.26-.05-.37Z"/>
        </g>
        <g>
          <g>
            <polygon class="cls-2" points="51.8 68.01 51.28 67.71 48.92 69.07 49.45 69.37 51.8 68.01"/>
            <polygon class="cls-2" points="52.4 68.36 51.88 68.05 49.52 69.42 50.05 69.72 52.4 68.36"/>
            <polygon class="cls-2" points="53 68.7 52.48 68.4 50.12 69.76 50.65 70.07 53 68.7"/>
          </g>
          <path class="cls-2" d="M52.9,68.94c.15-.09.38-.09.53,0s.15.22,0,.31-.38.09-.53,0-.15-.22,0-.3ZM53.39,69.22c.14-.08.14-.19.01-.27s-.33-.07-.47,0-.14.19,0,.27.33.07.47,0ZM53.2,68.94l.14.08c.05.03.06.07.01.1-.03.02-.08.02-.13,0h0s.02.04-.02.06c-.04.03-.06.04-.06.05h0s-.05-.03-.05-.03c0,0,.02-.02.06-.04.03-.02.03-.04,0-.06l-.06-.04-.12.07-.05-.03.29-.17ZM53.12,69.05l.07.04s.07.02.1,0c.03-.02.03-.03,0-.05l-.07-.04-.09.05Z"/>
        </g>
        <path class="cls-2" d="M43.68,58.56l.21.12-.64.77-.21-.12.14-.16-.35-.2-.27.08-.2-.12,1.32-.37ZM43.03,58.9l.26.15.2-.21s.11-.11.11-.11h0s-.12.04-.19.06l-.37.11Z"/>
        <path class="cls-2" d="M44.09,59.24h0c.12-.02.21-.02.29.03.02.01.03.02.04.03l-.16.09h0c-.11-.08-.26-.09-.41,0l-.34.2-.19-.11.7-.41.18.1-.11.07Z"/>
        <path class="cls-2" d="M44.09,59.53c.21-.12.51-.13.72-.01.23.13.17.3-.08.45l-.51-.3c-.09.07-.1.14,0,.21.07.04.15.05.22.03l.18.11c-.15.06-.37.05-.55-.05-.23-.13-.2-.31,0-.43ZM44.36,59.59l.31.18c.08-.05.09-.12,0-.17-.1-.06-.21-.05-.31,0Z"/>
        <path class="cls-2" d="M45.03,60.38c-.09,0-.19,0-.31-.07-.14-.08-.17-.18-.03-.26.16-.09.33-.05.51.03.13.06.2.08.25.05.05-.03.04-.07-.04-.12-.09-.05-.16-.06-.23-.02l-.17-.1c.13-.07.33-.08.53.04s.21.23.04.32l-.29.17s-.05.04,0,.06h0s-.11.07-.11.07c-.02,0-.05-.01-.1-.04-.09-.05-.11-.09-.06-.14ZM45.2,60.28l.1-.06c-.05,0-.11-.03-.17-.05-.12-.04-.19-.06-.25-.02s-.05.08.02.12c.11.06.23.06.3.02Z"/>
        <path class="cls-2" d="M45.86,60.24l.2.12-.2.11-.2-.12.2-.11ZM45.44,60.48l.2.12-.2.12-.2-.12.2-.12Z"/>
        <path class="cls-2" d="M41.91,59.47l-.21-.12.08-.04c.12.06.26.1.42.03l.09.05-.95.55-.12-.07.69-.4Z"/>
        <path class="cls-2" d="M41.78,59.83l.11.07c-.15.09-.13.19.02.28.13.08.29.09.42.01.12-.07.09-.16-.06-.25l-.06-.03.09-.05.06.03c.15.08.28.09.38.03s.07-.15-.04-.21c-.14-.08-.31-.07-.44,0l-.11-.07c.19-.11.44-.11.64.01.17.1.22.24.05.33-.11.06-.23.06-.35.02h0c.1.1.07.18-.05.25-.18.1-.43.08-.62-.03-.21-.12-.25-.28-.04-.41Z"/>
        <path class="cls-2" d="M42.94,60.59l-.44-.26.1-.06,1.08-.09.09.05-.63.36.16.09-.09.05-.16-.09-.23.13-.11-.07.23-.13ZM42.7,60.34l.33.19.44-.25h0s-.77.06-.77.06h0Z"/>
        <path class="cls-2" d="M43.21,60.85l.13.08-.14.08-.13-.08.14-.08Z"/>
        <path class="cls-2" d="M43.76,60.78c.31-.18.64-.2.86-.07s.18.32-.13.49-.62.21-.86.07-.17-.32.13-.5ZM44.37,61.14c.24-.14.31-.27.15-.37s-.4-.06-.64.08-.31.27-.14.37.39.06.64-.08Z"/>
        <path class="cls-2" d="M44.56,61.52l.11.07c-.11.08-.06.15.05.21.12.07.22.07.28.03.08-.05.05-.09-.06-.18-.11-.1-.21-.19-.05-.28.12-.07.29-.06.45.03.18.1.18.2.06.29l-.11-.07c.08-.06.07-.11-.03-.17s-.19-.06-.24-.02c-.08.04-.02.09.07.18.11.1.2.19.04.28-.14.08-.33.06-.5-.04-.2-.11-.21-.23-.06-.33Z"/>
        <path class="cls-2" d="M45.63,62.31h0c-.12,0-.23,0-.33-.07-.19-.11-.16-.26.06-.39s.51-.14.68-.04c.1.06.13.12.11.19h0s.09-.05.09-.05l.11.06-.94.54-.11-.06.31-.18ZM45.9,62.16c.16-.1.21-.2.05-.29-.13-.08-.32-.05-.48.05s-.21.2-.08.28c.16.09.34.06.5-.03Z"/>
        <path class="cls-2" d="M46.26,62.77l.1-.06h0c-.12,0-.23,0-.33-.06-.15-.08-.15-.19,0-.27l.49-.28.11.06-.49.28c-.09.05-.09.12.01.18.11.07.27.06.38,0l.44-.25.11.06-.71.41-.11-.06Z"/>
        <path class="cls-2" d="M47.05,63.12h0c-.1,0-.22,0-.34-.07-.13-.08-.18-.18-.04-.26.17-.1.34-.04.53.05.12.06.2.08.27.04s.07-.1-.03-.16c-.12-.07-.23-.07-.34-.02l-.11-.06c.14-.07.34-.08.53.03.15.09.2.18.03.28l-.4.23c-.05.03-.08.06-.07.07h0s-.11-.06-.11-.06c0-.01.02-.03.08-.07ZM47.22,63.02l.11-.06c-.06-.01-.14-.04-.21-.07-.14-.06-.23-.09-.33-.04-.09.05-.04.11.03.15.15.09.32.06.41.01Z"/>
        <path class="cls-2" d="M47.91,63.04h0c.11-.01.24,0,.34.05.02.01.03.02.04.03l-.11.06h0s-.02-.02-.04-.03c-.11-.06-.29-.07-.42,0l-.39.23-.11-.06.71-.41.11.06-.12.07Z"/>
        <path class="cls-2" d="M47.97,63.35c.21-.12.51-.14.71-.02.21.12.16.28-.07.42l-.55-.32c-.14.09-.17.2-.02.28.1.06.22.07.34.03l.11.06c-.19.07-.38.05-.54-.04-.22-.13-.18-.3.03-.41ZM48.14,63.38l.43.25c.13-.09.15-.18.02-.25s-.3-.06-.45,0Z"/>
        <path class="cls-2" d="M49.31,63.71l.11.06-.1.06h0c.11-.01.24,0,.33.05s.11.11.06.18h0c.13-.02.26,0,.34.05.13.07.13.17-.01.26l-.5.29-.11-.06.49-.28c.09-.05.08-.12,0-.16-.09-.05-.25-.05-.37,0l-.44.26-.11-.06.49-.28c.09-.05.09-.11.02-.15-.09-.05-.26-.06-.37,0l-.44.26-.11-.06.71-.41Z"/>
        <path class="cls-2" d="M50.68,64.19l.11.06-.14.08-.11-.06.14-.08ZM50.4,64.34l.11.06-.71.41-.11-.06.71-.41Z"/>
        <path class="cls-2" d="M50.94,64.34l.11.06-.98.57-.11-.06.98-.57Z"/>
        <path class="cls-2" d="M50.54,64.83c.21-.12.51-.14.71-.02.21.12.16.28-.07.42l-.55-.32c-.14.09-.17.2-.02.28.1.06.22.07.34.03l.11.06c-.19.07-.38.05-.54-.04-.22-.13-.18-.3.03-.41ZM50.72,64.87l.43.25c.13-.09.15-.18.02-.25s-.3-.06-.45,0Z"/>
        <path class="cls-2" d="M51.15,65.33l.11.07c-.11.08-.06.15.05.21.12.07.22.07.28.03.08-.05.05-.09-.06-.18-.11-.1-.21-.19-.05-.28.12-.07.29-.06.45.03.18.1.18.2.06.29l-.11-.07c.08-.06.07-.11-.03-.17s-.19-.06-.24-.02c-.08.04-.02.09.07.18.11.1.2.19.04.28-.14.08-.33.06-.5-.04-.2-.11-.21-.23-.06-.33Z"/>
      </g>
      <g>
        <path class="cls-1" d="M50.81,78.54c-.09,0-.17-.02-.25-.07L.37,49.49c-.15-.09-.25-.25-.25-.42L0,43.78c0-.18.09-.35.25-.44L75.19.07c.15-.09.35-.09.5,0l50.19,28.98c.15.09.25.25.25.42l.12,5.3c0,.18-.09.35-.25.44l-74.94,43.26c-.08.04-.16.07-.25.07ZM1.11,48.77l49.7,28.69,74.44-42.97-.11-4.72L75.44,1.08,1.01,44.05l.11,4.72Z"/>
        <polygon class="cls-1" points="50.56 78.04 50.44 72.75 50.94 72.74 51.06 78.03 50.56 78.04"/>
        <rect class="cls-1" x="25.35" y="29.28" width=".5" height="57.96" transform="translate(-37.65 51.29) rotate(-60)"/>
        <rect class="cls-1" x="44.9" y="50.86" width="86.53" height=".5" transform="translate(-13.74 50.87) rotate(-29.97)"/>
      </g>
    </g>
  </g>
</svg>