<?xml version="1.0" encoding="UTF-8"?>
<svg id="Layer_2" data-name="Layer 2" xmlns="http://www.w3.org/2000/svg" viewBox="0 0 55.84 119.06">
  <defs>
    <style>
      .cls-1, .cls-2, .cls-3 {
        stroke-width: 0px;
      }

      .cls-2 {
        fill: #0f1d20;
      }

      .cls-3 {
        fill: #e4e41b;
      }
    </style>
  </defs>
  <g id="Layer_1-2" data-name="Layer 1">
    <g>
      <g>
        <polygon class="cls-3" points="55.33 89.58 5.14 118.56 5.14 32.02 55.33 3.05 55.33 89.58"/>
        <g>
          <path class="cls-2" d="M14.41,28.89c4.38-2.53,6.92-1.4,6.92,4.12v16.23s-5.84,3.37-5.84,3.37v-16.23c0-1.59-.23-1.79-1.08-1.3-.92.53-1.08,1.12-1.08,2.55v20.58c.77-1.87,2-3.24,3.61-4.18,2.77-1.6,4.38-.69,4.38,3.33v32.29c0,5.69-2.54,9.58-6.92,12.11s-6.92,1.4-6.92-4.12v-56.63c0-5.52,2.54-9.58,6.92-12.11ZM14.41,59.42c-.92.53-1.08,1.04-1.08,2.55v32.29c0,1.59.15,1.84,1.08,1.3.85-.49,1.08-.96,1.08-2.55v-32.29c0-1.59-.23-1.79-1.08-1.3Z"/>
          <path class="cls-2" d="M37.16,88.12l-13.83,7.99v-6.19s4-2.31,4-2.31v-55.54s-4,2.31-4,2.31v-6.19s1.23-.71,1.23-.71c2-1.15,2.77-2.43,2.77-4.44v-1.09s5.84-3.37,5.84-3.37v65.67s4-2.31,4-2.31v6.19Z"/>
          <path class="cls-2" d="M48.3,59.35v22.33s-5.84,3.37-5.84,3.37v-21.5c0-12.13,4.69-19.27,4.69-30.81v-16.06s-2.15,1.24-2.15,1.24v17.65s-5.84,3.37-5.84,3.37V15.11s13.83-7.99,13.83-7.99v21.41c0,14.05-4.69,20.61-4.69,30.81Z"/>
        </g>
        <g>
          <path class="cls-2" d="M7.54,111.8l1.06-.61c.25-.15.45-.19.57-.13.13.06.19.19.19.4,0,.28-.15.54-.37.76h0c.26-.05.44.1.44.43,0,.26-.07.47-.21.69-.14.22-.34.42-.59.56l-1.08.62v-2.72ZM8.54,112.32c.21-.12.35-.32.35-.53,0-.2-.13-.25-.34-.12l-.53.3v.65s.52-.3.52-.3ZM8.02,113.79l.55-.32c.23-.13.37-.36.37-.58,0-.26-.16-.3-.38-.17l-.54.31v.76Z"/>
          <path class="cls-2" d="M9.62,112.34c0-.58.36-1.24.88-1.54s.88-.06.88.52c0,.58-.36,1.24-.88,1.54-.52.3-.88.06-.88-.52ZM10.94,111.59c0-.38-.16-.55-.43-.39s-.43.51-.43.89c0,.38.15.55.43.39s.43-.5.43-.88Z"/>
          <path class="cls-2" d="M11.49,111.61l.42-.24c.03.21.17.23.37.11s.31-.27.31-.4c0-.19-.21-.08-.45,0-.3.11-.6.18-.6-.24,0-.42.3-.8.69-1.02.45-.26.69-.14.73.23l-.41.23c-.02-.2-.14-.21-.33-.1-.17.1-.29.24-.29.38,0,.17.22.05.47-.03.28-.1.6-.18.6.27,0,.39-.29.8-.71,1.04-.49.28-.77.17-.79-.23Z"/>
          <path class="cls-2" d="M13.07,109.38l.23-.14v-.61l.44-.25v.61s.29-.17.29-.17v.34l-.29.17v1.04c0,.14.07.15.17.1.06-.03.13-.08.13-.08v.38s-.1.07-.28.17c-.22.13-.46.17-.46-.2v-1.15s-.23.14-.23.14v-.34Z"/>
          <path class="cls-2" d="M14.16,109.72c0-.58.36-1.24.88-1.54s.88-.06.88.52c0,.58-.36,1.24-.88,1.54s-.88.06-.88-.52ZM15.48,108.96c0-.38-.16-.55-.43-.39s-.43.51-.43.89.15.55.43.39.43-.5.43-.88Z"/>
          <path class="cls-2" d="M16.58,107.62h0c.12-.28.27-.48.5-.62.35-.2.58-.03.58.39v1.28l-.45.26v-1.2c0-.21-.11-.3-.29-.19-.2.11-.34.38-.34.65v1.11l-.45.26v-1.95l.44-.25v.27Z"/>
          <path class="cls-2" d="M17.93,108.97c.13-.15.24-.35.24-.58l-.24.14v-.55l.48-.28v.52c0,.39-.22.74-.48.94v-.19Z"/>
          <path class="cls-2" d="M19.26,105.03l.67-.39.33,1.18c.08.3.15.65.15.65h0s.06-.43.15-.82l.33-1.56.68-.39v2.72s-.45.26-.45.26v-1.56c0-.22.02-.58.02-.58h0s-.05.35-.1.58l-.41,1.84-.46.26-.4-1.38c-.05-.17-.1-.46-.1-.46h0s.02.34.02.56v1.56l-.44.25v-2.72Z"/>
          <path class="cls-2" d="M22.6,103.1l.49-.29.83,2.24-.5.29-.16-.49-.85.49-.16.67-.48.28.82-3.2ZM22.53,104.87l.62-.36-.21-.66c-.04-.12-.1-.36-.1-.36h0s-.06.31-.1.48l-.21.91Z"/>
        </g>
        <g>
          <path class="cls-2" d="M7.97,107.65l-.44.26v-.12l.47-.98.09-.05v.73s.16-.09.16-.09v.11l-.16.09v.27l-.11.07v-.27ZM7.64,107.74l.33-.19v-.51s0,0,0,0l-.33.69h0Z"/>
          <path class="cls-2" d="M8.67,107.01c.12-.15.2-.25.2-.38s-.08-.18-.2-.11c-.07.04-.12.09-.15.15-.04.07-.05.14-.05.25l-.12.07c0-.14.03-.25.09-.35.06-.1.15-.19.24-.24.19-.11.31-.04.31.15,0,.21-.12.35-.27.53-.1.12-.23.29-.26.42l.51-.3v.13l-.65.38c.01-.3.19-.51.35-.71Z"/>
          <path class="cls-2" d="M9.1,107.12l.13-.08v.16l-.13.08v-.16Z"/>
          <path class="cls-2" d="M9.31,106.79l.11-.07c0,.17.1.21.26.12.13-.08.22-.2.22-.36,0-.14-.09-.16-.25-.07l-.06.03v-.1l.06-.03c.15-.08.22-.2.22-.31s-.09-.14-.2-.07c-.14.08-.22.23-.22.38l-.11.07c0-.22.13-.43.33-.55.17-.1.31-.07.31.12,0,.12-.06.23-.16.32h0c.13-.03.19.03.19.17,0,.21-.15.41-.34.52-.21.12-.37.08-.38-.17Z"/>
          <path class="cls-2" d="M10.27,106.52c-.1-.05-.13-.18-.13-.4,0-.34.13-.63.36-.77.19-.11.28-.02.3.13l-.11.07c0-.1-.07-.15-.18-.08-.18.11-.25.32-.25.58h0c.06-.13.15-.24.26-.3.17-.1.31-.01.31.19,0,.2-.14.45-.32.55-.1.06-.18.07-.24.04ZM10.71,106c0-.15-.09-.21-.22-.14-.13.08-.23.23-.23.39s.1.2.23.13c.12-.07.21-.23.21-.38Z"/>
          <path class="cls-2" d="M10.93,105.67c0-.35.14-.65.37-.78s.36,0,.36.36-.13.64-.37.78-.37-.01-.37-.36ZM11.54,105.32c0-.28-.08-.41-.24-.31s-.25.32-.25.6.08.41.25.31.24-.31.24-.59Z"/>
          <path class="cls-2" d="M11.96,104.83l-.21.12v-.09c.12-.07.21-.18.23-.35l.09-.05v1.09l-.12.07v-.79Z"/>
          <path class="cls-2" d="M12.23,104.55c0-.11.08-.24.17-.29s.17-.01.17.1-.08.24-.17.29-.17.01-.17-.1ZM12.49,104.39c0-.07-.04-.1-.1-.06s-.1.11-.1.18.04.1.1.07.1-.11.1-.18Z"/>
          <path class="cls-2" d="M12.93,103.93l.13-.08.45.53s.07.1.07.1h0v-.94l.12-.07v1.13l-.13.07-.45-.53s-.07-.1-.07-.1h0v.93l-.12.07v-1.13Z"/>
        </g>
        <g>
          <path class="cls-2" d="M23.89,97.76h0s-.54.31-.54.31v-.12l.66-.38v.11c-.19.31-.38.77-.4,1.21l-.12.07c.02-.39.19-.88.4-1.2Z"/>
          <path class="cls-2" d="M24.28,97.71l-.21.12v-.09c.12-.07.21-.18.23-.35l.09-.05v1.09l-.12.07v-.79Z"/>
          <path class="cls-2" d="M24.57,98.18l.13-.08v.16l-.13.08v-.16Z"/>
          <path class="cls-2" d="M24.79,97.67c0-.35.14-.65.37-.78s.36,0,.36.36c0,.35-.13.64-.37.78s-.37-.01-.37-.36ZM25.4,97.32c0-.28-.08-.41-.24-.31s-.25.32-.25.6c0,.28.08.41.25.31s.24-.31.24-.59Z"/>
          <path class="cls-2" d="M25.61,97.42l.11-.07c.02.13.1.16.23.09s.22-.23.22-.39-.1-.2-.22-.13c-.1.06-.17.15-.21.23l-.11.06.1-.64.5-.29v.12l-.42.24-.06.36h0c.05-.09.13-.17.22-.22.17-.1.32-.05.32.19,0,.23-.14.46-.34.57s-.34.06-.35-.14Z"/>
          <path class="cls-2" d="M26.38,96.98c0-.16.09-.29.19-.39h0c-.09,0-.15-.04-.15-.15,0-.17.14-.36.31-.46s.31-.07.31.11c0,.11-.06.22-.14.31h0c.11-.02.19.03.19.18,0,.25-.18.44-.35.54s-.36.12-.36-.13ZM26.98,96.64c0-.14-.09-.18-.24-.09s-.24.23-.24.37.09.17.24.08.24-.22.24-.36ZM26.94,96.15c0-.11-.08-.13-.2-.06s-.2.18-.2.29.08.13.2.06.2-.18.2-.29Z"/>
          <path class="cls-2" d="M27.19,96.53l.12-.07c0,.11.08.16.21.09.07-.04.12-.09.16-.16.06-.1.08-.24.08-.4h0c-.06.12-.15.22-.26.29-.17.1-.31.02-.31-.18,0-.2.14-.45.33-.56.09-.05.16-.06.22-.04.11.03.14.17.14.41,0,.22-.04.4-.13.55-.06.09-.13.16-.22.21-.19.11-.32.06-.33-.13ZM27.74,95.76c0-.15-.1-.2-.23-.13s-.22.23-.22.39.1.2.22.13c.14-.08.23-.24.23-.39Z"/>
          <path class="cls-2" d="M27.95,95.47c0-.11.08-.24.17-.29s.17-.01.17.1-.08.24-.17.29-.17.01-.17-.1ZM28.22,95.31c0-.07-.04-.1-.1-.06s-.1.11-.1.18.04.1.1.07.1-.11.1-.18Z"/>
          <path class="cls-2" d="M28.58,94.89l.13-.07.16.65c.02.07.04.17.04.17h0s.02-.14.04-.22l.18-.84.13-.08.17.64c.02.07.04.17.04.17h0s.02-.14.04-.22l.16-.83.13-.07-.27,1.29-.12.07-.18-.7c-.02-.06-.04-.15-.04-.15h0s-.02.12-.04.2l-.19.91-.12.07-.25-.99Z"/>
        </g>
        <g>
          <path class="cls-2" d="M39.27,93.48l.43-.25c.11-.07.2-.08.26-.04.06.03.09.1.09.21,0,.21-.12.43-.33.55l-.24.14v.41l-.21.12v-1.13ZM39.47,93.9l.21-.12c.1-.06.16-.16.16-.26s-.06-.13-.16-.08l-.21.12v.34Z"/>
          <path class="cls-2" d="M40.07,93.74c0-.24.15-.52.37-.64s.37-.03.37.22c0,.24-.15.52-.37.64s-.37.03-.37-.22ZM40.62,93.43c0-.16-.06-.23-.18-.16s-.18.21-.18.37.06.23.18.16.18-.21.18-.37Z"/>
          <path class="cls-2" d="M40.9,92.86l.18-.1v.1h0c.05-.1.11-.19.21-.25.19-.11.31,0,.31.25,0,.26-.12.5-.31.61-.1.06-.16.05-.2,0h0v.36l-.19.11v-1.08ZM41.41,92.98c0-.15-.05-.23-.16-.17s-.16.21-.16.36.06.21.17.15c.09-.05.16-.18.16-.33Z"/>
          <path class="cls-2" d="M42.13,92.96v-.1s0,0,0,0c-.05.1-.1.18-.2.23-.16.09-.24.03-.24-.15v-.54l.19-.11v.51c0,.1.04.13.12.08.09-.05.14-.16.14-.27v-.47l.19-.11v.81l-.18.1Z"/>
          <path class="cls-2" d="M42.43,91.65l.19-.11v1.13l-.19.11v-1.13Z"/>
          <path class="cls-2" d="M43.17,92.27c-.04.08-.09.17-.21.24-.14.08-.24.05-.24-.11,0-.18.13-.31.28-.43.12-.09.17-.13.17-.19,0-.06-.04-.07-.12-.02-.09.05-.13.11-.13.19l-.17.1c0-.15.09-.32.3-.44s.3-.07.3.13v.33c0,.05,0,.07.05.04h0s0,.13,0,.13c-.02.02-.04.04-.08.06-.09.05-.13.05-.15-.02ZM43.17,92.08v-.12s-.08.08-.13.12c-.1.08-.15.13-.15.21s.04.08.11.04c.11-.06.17-.17.17-.25Z"/>
          <path class="cls-2" d="M43.41,91.41l.1-.06v-.25l.18-.11v.25l.12-.07v.14l-.12.07v.43c0,.06.03.06.07.04.02-.01.05-.03.05-.03v.16s-.04.03-.12.07c-.09.05-.19.07-.19-.08v-.48s-.1.06-.1.06v-.14Z"/>
          <path class="cls-2" d="M43.9,90.8l.19-.11v.19l-.19.11v-.19ZM43.9,91.13l.19-.11v.81l-.19.11v-.81Z"/>
          <path class="cls-2" d="M44.18,91.37c0-.24.15-.52.37-.64s.37-.03.37.22-.15.52-.37.64-.37.03-.37-.22ZM44.73,91.06c0-.16-.06-.23-.18-.16s-.18.21-.18.37.06.23.18.16.18-.21.18-.37Z"/>
          <path class="cls-2" d="M45.19,90.5h0c.05-.12.11-.2.21-.26.15-.08.24-.01.24.16v.53l-.19.11v-.5c0-.09-.04-.12-.12-.08-.08.05-.14.16-.14.27v.46l-.19.11v-.81l.18-.11v.11Z"/>
          <path class="cls-2" d="M45.75,90.17l.2-.12v.23l-.2.12v-.23ZM45.75,90.64l.2-.12v.23l-.2.12v-.23Z"/>
          <path class="cls-2" d="M39.39,96.06c-.1-.05-.13-.18-.13-.4,0-.34.13-.63.36-.77.19-.11.28-.02.3.13l-.11.07c0-.1-.07-.15-.18-.08-.18.11-.25.32-.25.58h0c.06-.13.15-.24.26-.3.17-.1.31-.01.31.19,0,.2-.14.45-.32.55-.1.06-.18.07-.23.04ZM39.83,95.54c0-.15-.09-.21-.22-.14-.13.08-.23.23-.23.39s.1.2.23.13c.12-.07.21-.23.21-.38Z"/>
          <path class="cls-2" d="M40.04,95.46l.12-.07c0,.11.08.16.21.09.07-.04.12-.09.16-.16.06-.1.08-.24.08-.4h0c-.06.12-.15.22-.26.29-.17.1-.31.02-.31-.18,0-.2.14-.45.33-.56.09-.05.16-.06.22-.04.11.03.14.17.14.41,0,.22-.04.4-.13.55-.06.09-.13.16-.22.21-.19.11-.32.06-.33-.13ZM40.59,94.69c0-.15-.1-.2-.23-.13s-.22.23-.22.39c0,.15.1.2.22.13.14-.08.23-.24.23-.39Z"/>
          <path class="cls-2" d="M41.03,94.4l-.21.12v-.09c.12-.07.21-.18.23-.35l.09-.05v1.09l-.12.07v-.79Z"/>
          <path class="cls-2" d="M41.31,95.15s.06-.08.06-.17l-.06.04v-.16l.13-.08v.16c0,.12-.05.21-.13.27v-.07Z"/>
          <path class="cls-2" d="M42.03,93.64h0s-.54.31-.54.31v-.12l.66-.38v.11c-.19.31-.38.77-.4,1.21l-.12.07c.02-.39.19-.88.4-1.2Z"/>
          <path class="cls-2" d="M42.57,93.79c.12-.15.2-.25.2-.38s-.08-.18-.2-.11c-.07.04-.12.09-.15.15-.04.07-.05.14-.05.25l-.12.07c0-.14.03-.25.09-.35.06-.1.15-.19.24-.24.19-.11.31-.04.31.15,0,.21-.12.35-.27.53-.1.12-.23.29-.26.42l.51-.3v.13l-.65.38c.01-.3.19-.51.35-.71Z"/>
          <path class="cls-2" d="M43,93.75l.12-.07c0,.11.08.16.21.09.07-.04.12-.09.16-.16.06-.1.08-.24.08-.4h0c-.06.12-.15.22-.26.29-.17.1-.31.02-.31-.18,0-.2.14-.45.33-.56.09-.05.16-.06.22-.04.11.03.14.17.14.41,0,.22-.04.4-.13.55-.06.09-.13.16-.22.21-.19.11-.32.06-.33-.13ZM43.55,92.99c0-.15-.1-.2-.23-.13s-.22.23-.22.39.1.2.22.13c.14-.08.23-.24.23-.39Z"/>
        </g>
        <g>
          <g>
            <polygon class="cls-2" points="51.79 86.25 51.27 86.55 51.27 89.28 51.79 88.97 51.79 86.25"/>
            <polygon class="cls-2" points="52.39 85.9 51.87 86.21 51.87 88.93 52.39 88.63 52.39 85.9"/>
            <polygon class="cls-2" points="52.99 85.56 52.47 85.86 52.47 88.58 52.99 88.28 52.99 85.56"/>
          </g>
          <path class="cls-2" d="M53.14,85.77c0-.18.11-.37.26-.46s.26-.02.26.16-.12.37-.26.46-.26.02-.26-.16ZM53.63,85.49c0-.16-.1-.22-.23-.14s-.23.25-.23.41.1.22.23.14.23-.25.23-.41ZM53.3,85.51l.14-.08c.05-.03.09-.02.09.04,0,.04-.02.08-.05.11h0s.04,0,.05.05c0,.05,0,.07.01.07h0s-.05.04-.05.04c0,0,0-.03-.01-.07,0-.04-.02-.05-.05-.03l-.06.04v.13l-.05.03v-.34ZM53.35,85.63l.07-.04s.05-.05.05-.08c0-.03-.01-.04-.05-.02l-.07.04v.1Z"/>
        </g>
        <path class="cls-2" d="M39.54,88.56l.21-.12.35.93-.21.12-.07-.2-.35.2-.06.28-.2.12.34-1.33ZM39.51,89.3l.26-.15-.09-.28c-.02-.05-.04-.15-.04-.15h0s-.02.13-.04.2l-.09.38Z"/>
        <path class="cls-2" d="M40.34,88.55h0c.04-.12.09-.19.17-.24.02-.01.03-.02.04-.02v.19h0c-.12.06-.21.18-.21.36v.4l-.19.11v-.81l.18-.1v.13Z"/>
        <path class="cls-2" d="M40.59,88.68c0-.24.14-.51.35-.63.23-.13.35,0,.35.29l-.51.3c.01.12.07.16.18.1.07-.04.12-.1.14-.18l.18-.11c-.03.16-.14.35-.32.45-.23.13-.37.02-.37-.22ZM40.77,88.49l.31-.18c0-.1-.06-.14-.15-.09-.1.06-.15.15-.16.27Z"/>
        <path class="cls-2" d="M41.79,88.3c-.04.08-.09.17-.21.24-.14.08-.24.05-.24-.11,0-.18.13-.31.28-.43.12-.09.17-.13.17-.19,0-.06-.04-.07-.12-.02-.09.05-.13.11-.13.19l-.17.1c0-.15.09-.32.3-.44s.3-.07.3.13v.33c0,.05,0,.07.05.04h0s0,.13,0,.13c-.02.02-.04.04-.08.06-.09.05-.13.05-.15-.02ZM41.79,88.11v-.12s-.08.08-.13.12c-.1.08-.15.13-.15.21,0,.07.04.08.11.04.11-.06.17-.17.17-.25Z"/>
        <path class="cls-2" d="M42.09,87.52l.2-.12v.23l-.2.12v-.23ZM42.09,87.99l.2-.12v.23l-.2.12v-.23Z"/>
        <path class="cls-2" d="M39.67,90.94l-.44.26v-.12l.47-.98.09-.05v.73s.16-.09.16-.09v.11l-.16.09v.27l-.11.07v-.27ZM39.34,91.03l.33-.19v-.51h0s-.33.7-.33.7h0Z"/>
        <path class="cls-2" d="M40.02,90.7c0-.16.09-.29.19-.39h0c-.09,0-.15-.04-.15-.15,0-.17.14-.36.31-.46s.31-.07.31.11c0,.11-.06.22-.14.31h0c.11-.02.19.03.19.18,0,.25-.18.44-.35.54s-.36.12-.36-.13ZM40.61,90.35c0-.14-.09-.18-.24-.09s-.24.23-.24.37.09.17.24.08.24-.22.24-.36ZM40.57,89.86c0-.11-.08-.13-.2-.06s-.2.18-.2.29.08.13.2.06.2-.18.2-.29Z"/>
        <path class="cls-2" d="M40.83,90.38l.13-.08v.16l-.13.08v-.16Z"/>
        <path class="cls-2" d="M41.47,89.9l-.44.26v-.12l.47-.98.09-.05v.73s.16-.09.16-.09v.11l-.16.09v.27l-.11.07v-.27ZM41.13,89.99l.33-.19v-.51s0,0,0,0l-.33.7h0Z"/>
        <path class="cls-2" d="M42.01,89.59l.11-.07c.02.13.1.13.2.07.12-.07.16-.15.16-.23,0-.09-.05-.08-.19-.04-.14.05-.27.09-.27-.09,0-.14.09-.28.26-.37.18-.1.26-.05.28.1l-.11.07c-.01-.1-.06-.12-.17-.06s-.14.13-.14.2c0,.09.07.07.19.02.14-.05.26-.08.26.11,0,.17-.12.32-.28.41-.2.11-.3.07-.31-.11Z"/>
        <path class="cls-2" d="M43.23,89.06h0c-.05.11-.12.19-.22.25-.19.11-.31.01-.31-.25,0-.27.13-.51.31-.61.1-.06.17-.05.22,0h0v-.11l.11-.06v1.08l-.11.06v-.36ZM43.23,88.74c0-.19-.07-.28-.23-.19-.13.08-.2.25-.2.44s.06.28.2.21c.16-.09.22-.27.22-.45Z"/>
        <path class="cls-2" d="M43.94,88.74v-.11h0c-.05.11-.11.2-.21.26-.15.08-.24.04-.24-.13v-.57l.11-.06v.56c0,.11.06.13.16.08.11-.07.19-.21.19-.34v-.5l.11-.06v.82l-.11.06Z"/>
        <path class="cls-2" d="M44.64,88.23h0c-.04.09-.11.19-.23.26-.13.08-.24.06-.24-.09,0-.19.13-.31.31-.44.11-.08.17-.13.17-.22,0-.09-.05-.11-.16-.05-.12.07-.17.16-.18.29l-.11.06c0-.16.1-.34.29-.44.15-.09.26-.08.26.11v.46c0,.06.01.1.03.1h0s-.11.07-.11.07c-.01,0-.02-.03-.02-.1ZM44.64,88.03v-.13s-.1.1-.16.15c-.12.09-.2.15-.2.27,0,.11.08.09.15.05.15-.09.21-.25.21-.34Z"/>
        <path class="cls-2" d="M45,87.45h0c.04-.11.12-.22.21-.27.02-.01.03-.02.05-.02v.12h0s-.03.01-.05.02c-.11.06-.21.21-.21.37v.46l-.11.06v-.82l.11-.06v.14Z"/>
        <path class="cls-2" d="M45.3,87.55c0-.24.13-.51.34-.63.21-.12.33,0,.33.27l-.55.32c0,.16.09.24.23.16.1-.06.17-.16.2-.28l.11-.06c-.03.2-.14.36-.31.45-.22.13-.34,0-.34-.23ZM45.41,87.42l.43-.25c0-.16-.08-.22-.21-.14s-.2.23-.22.39Z"/>
        <path class="cls-2" d="M46.29,86.57l.11-.06v.12h0c.04-.11.12-.21.21-.26s.16-.04.19.04h0c.05-.12.13-.22.22-.27.13-.07.22-.03.22.14v.58l-.11.06v-.57c0-.1-.06-.13-.13-.09-.09.05-.17.19-.17.32v.51l-.11.06v-.57c0-.1-.05-.13-.12-.09-.09.05-.18.2-.18.33v.51l-.11.06v-.82Z"/>
        <path class="cls-2" d="M47.38,85.62l.11-.06v.16l-.11.06v-.16ZM47.38,85.94l.11-.06v.82l-.11.06v-.82Z"/>
        <path class="cls-2" d="M47.65,85.47l.11-.06v1.13l-.11.06v-1.13Z"/>
        <path class="cls-2" d="M47.87,86.06c0-.24.13-.51.34-.63.21-.12.33,0,.33.27l-.55.32c0,.16.09.24.23.16.1-.06.17-.16.2-.28l.11-.06c-.03.2-.14.36-.31.45-.22.13-.34,0-.34-.23ZM47.99,85.93l.43-.25c0-.16-.08-.22-.21-.14s-.2.23-.22.39Z"/>
        <path class="cls-2" d="M48.6,85.79l.11-.07c.02.13.1.13.2.07.12-.07.16-.15.16-.23,0-.09-.05-.08-.19-.04-.14.05-.27.09-.27-.09,0-.14.09-.28.26-.37.18-.1.26-.05.28.1l-.11.07c-.01-.1-.06-.12-.17-.06s-.14.13-.14.2c0,.09.07.07.19.02.14-.05.26-.08.26.11,0,.17-.12.32-.28.41-.2.11-.3.07-.31-.11Z"/>
      </g>
      <g>
        <path class="cls-1" d="M5.15,119.06c-.08,0-.17-.02-.24-.06l-4.65-2.54c-.16-.09-.26-.26-.26-.44V29.48c0-.18.1-.34.25-.43L50.44.07c.15-.09.34-.09.49,0l4.65,2.54c.16.09.26.26.26.44v86.53c0,.18-.1.34-.25.43L5.4,118.99c-.08.04-.16.07-.25.07ZM1,115.72l4.14,2.27,49.7-28.69V3.34l-4.14-2.27L1,29.77v85.95Z"/>
        <rect class="cls-1" x="2.57" y="28.1" width=".5" height="5.29" transform="translate(-25.49 18.43) rotate(-61.25)"/>
        <rect class="cls-1" x="1.26" y="17.28" width="57.96" height=".5" transform="translate(-4.72 17.48) rotate(-30.02)"/>
        <rect class="cls-1" x="4.9" y="32.02" width=".5" height="86.53"/>
      </g>
    </g>
  </g>
</svg>