<?xml version="1.0" encoding="UTF-8"?>
<svg id="Layer_2" data-name="Layer 2" xmlns="http://www.w3.org/2000/svg" viewBox="0 0 55.84 119.06">
  <defs>
    <style>
      .cls-1, .cls-2, .cls-3 {
        stroke-width: 0px;
      }

      .cls-2 {
        fill: #584681;
      }

      .cls-3 {
        fill: #d2dcde;
      }
    </style>
  </defs>
  <g id="Layer_1-2" data-name="Layer 1">
    <g>
      <polygon class="cls-3" points="55.34 89.58 5.15 118.56 5.15 32.03 55.34 3.05 55.34 89.58"/>
      <path class="cls-2" d="M16.64,77.63v22.33s-5.84,3.37-5.84,3.37v-21.5c0-12.13,4.69-19.27,4.69-30.81v-16.06s-2.15,1.24-2.15,1.24v17.65s-5.84,3.37-5.84,3.37v-23.84s13.83-7.99,13.83-7.99v21.41c0,14.05-4.69,20.61-4.69,30.81ZM30.32,92.57c-4.38,2.53-6.92,1.4-6.92-4.12V31.82c0-5.52,2.54-9.58,6.92-12.11,4.38-2.53,6.92-1.4,6.92,4.12v56.63c0,5.52-2.54,9.58-6.92,12.11ZM30.32,25.9c-.92.53-1.08,1.04-1.08,2.55v56.63c0,1.59.23,1.79,1.08,1.3.92-.53,1.08-.96,1.08-2.55V27.2c0-1.59-.23-1.79-1.08-1.3ZM47.23,34.29v-16.23c0-1.59-.23-1.79-1.08-1.3-.92.53-1.08,1.04-1.08,2.55v16.23s-5.84,3.37-5.84,3.37v-16.23c0-5.52,2.54-9.58,6.92-12.11,4.38-2.53,6.92-1.4,6.92,4.12v16.23c0,8.2-7.99,14.99-7.99,22.68v23.76s2.15-1.24,2.15-1.24v-25.93s5.84-3.37,5.84-3.37v32.12s-13.83,7.99-13.83,7.99v-29.95c0-9.62,7.99-16.99,7.99-22.68ZM7.55,111.8l.48-.28v2.26s1.11-.64,1.11-.64v.46l-1.59.92v-2.72ZM10.39,112.65c-.09.2-.22.41-.51.58-.35.2-.58.13-.58-.26s.3-.75.68-1.02c.28-.21.41-.31.41-.46s-.11-.17-.3-.06c-.21.12-.31.26-.32.46l-.4.23c0-.35.23-.78.73-1.06s.73-.16.73.3v.8c0,.13.02.16.12.08h0s0,.31,0,.31c-.04.05-.09.1-.19.16-.21.12-.32.11-.36-.06ZM10.39,112.19v-.29c-.08.1-.2.2-.31.3-.23.2-.35.32-.35.5s.11.19.26.1c.26-.15.4-.41.4-.6ZM10.99,111.9l.42-.24c.03.21.17.23.37.11s.31-.27.31-.4c0-.19-.21-.08-.45,0-.3.11-.6.18-.6-.24,0-.42.3-.8.69-1.02.45-.26.69-.14.73.23l-.41.23c-.02-.2-.14-.21-.33-.1-.17.1-.29.24-.29.38,0,.17.22.05.47-.03.28-.1.6-.18.6.27,0,.39-.29.8-.71,1.04-.49.28-.77.17-.79-.23ZM13.11,108.58l.5-.29.42,1.34c.05.15.1.38.1.38h0s.06-.3.1-.5l.41-1.82.49-.28-.8,3.18-.44.25-.8-2.26ZM14.98,109.25c0-.58.34-1.22.83-1.51.54-.31.83,0,.83.7l-1.23.71c.03.28.18.38.43.24.17-.1.28-.25.33-.43l.44-.26c-.06.38-.33.83-.77,1.08-.56.32-.88.05-.88-.53ZM15.43,108.78l.75-.43c-.01-.24-.16-.33-.36-.21-.24.14-.35.37-.39.65ZM16.81,109.23l.45-.26c.04.1.13.14.34.02.25-.15.38-.36.38-.62v-.21h0c-.1.19-.23.37-.44.49-.38.22-.75.09-.75-.5,0-.58.3-1.13.73-1.38.21-.12.37-.12.47-.01h0v-.21l.43-.25v1.81c0,.27-.08.5-.2.71-.14.23-.36.43-.61.57-.46.27-.75.2-.79-.15ZM17.99,107.43c0-.29-.13-.45-.4-.3-.23.13-.38.42-.38.75s.15.44.38.3c.28-.16.4-.47.4-.76ZM19.72,107.26c-.09.2-.22.41-.51.58-.35.2-.58.13-.58-.26,0-.43.3-.75.68-1.02.28-.21.41-.31.41-.46s-.11-.17-.3-.06c-.21.12-.31.26-.32.46l-.4.23c0-.35.23-.78.73-1.06s.73-.16.73.3v.8c0,.13.02.16.12.08h0s0,.31,0,.31c-.04.05-.09.1-.19.16-.21.12-.32.11-.36-.06ZM19.72,106.8v-.29c-.08.1-.2.2-.31.3-.23.2-.35.32-.35.5,0,.18.11.19.26.1.26-.15.4-.41.4-.6ZM20.32,106.51l.42-.24c.03.21.17.23.37.11s.31-.27.31-.4c0-.19-.21-.08-.45,0-.3.11-.6.18-.6-.24s.3-.8.69-1.02c.45-.26.69-.14.73.23l-.41.23c-.02-.2-.14-.21-.33-.1-.17.1-.29.24-.29.38,0,.17.22.05.47-.03.28-.1.6-.18.6.27,0,.39-.29.8-.71,1.04-.49.28-.77.17-.79-.23ZM22.01,106.62c.13-.15.24-.35.24-.58l-.24.14v-.55l.48-.28v.52c0,.39-.22.74-.48.94v-.19ZM23.34,102.68l.49-.28.79,1.07c.08.1.16.29.16.29h0s-.01-.28-.01-.47v-1.43l.47-.27v2.72l-.46.27-.81-1.04c-.08-.1-.17-.28-.17-.28h0s.01.28.01.47v1.41l-.47.27v-2.72ZM25.43,101.47l.5-.29.42,1.34c.05.15.1.38.1.38h0s.06-.3.1-.5l.41-1.82.49-.28-.8,3.18-.44.25-.8-2.26ZM7.52,107.83l.11-.07c0,.17.1.21.26.12.13-.08.22-.2.22-.36,0-.14-.09-.16-.25-.07l-.06.03v-.1l.06-.03c.15-.08.22-.2.22-.31s-.09-.14-.2-.07c-.14.08-.22.23-.22.38l-.11.07c0-.22.13-.43.33-.55.17-.1.31-.07.31.12,0,.12-.06.23-.16.32h0c.13-.03.19.03.19.17,0,.21-.15.41-.34.52-.21.12-.37.08-.38-.17ZM8.47,107.56c-.1-.05-.13-.18-.13-.4,0-.34.13-.63.36-.77.19-.11.28-.02.3.13l-.11.07c0-.1-.07-.15-.18-.08-.18.11-.25.32-.25.58h0c.06-.13.15-.24.26-.3.17-.1.31-.01.31.19,0,.2-.14.45-.32.55-.1.06-.18.07-.23.04ZM8.92,107.04c0-.15-.09-.21-.22-.14-.13.08-.23.23-.23.39s.1.2.23.13c.12-.07.21-.23.21-.38ZM9.12,107.1l.13-.08v.16l-.13.08v-.16ZM9.43,106.29l-.21.12v-.09c.12-.07.21-.18.23-.35l.09-.05v1.09l-.12.07v-.79ZM9.85,106.77c-.1-.05-.13-.18-.13-.4,0-.34.13-.63.36-.77.19-.11.28-.02.3.13l-.11.07c0-.1-.07-.15-.18-.08-.18.11-.25.32-.25.58h0c.06-.13.15-.24.26-.3.17-.1.31-.01.31.19,0,.2-.14.45-.32.55-.1.06-.18.07-.24.04ZM10.29,106.24c0-.15-.09-.21-.22-.14-.13.08-.23.23-.23.39s.1.2.23.13c.12-.07.21-.23.21-.38ZM10.51,106.17l.12-.07c0,.11.08.16.21.09.07-.04.12-.09.16-.16.06-.1.08-.24.08-.4h0c-.06.12-.15.22-.26.29-.17.1-.31.02-.31-.18,0-.2.14-.45.33-.56.09-.05.16-.06.22-.04.11.03.14.17.14.41,0,.22-.04.4-.13.55-.06.09-.13.16-.22.21-.19.11-.32.06-.33-.13ZM11.05,105.4c0-.15-.1-.2-.23-.13s-.22.23-.22.39c0,.15.1.2.22.13.14-.08.23-.24.23-.39ZM11.3,105.71l.12-.07c0,.11.08.16.21.09.07-.04.12-.09.16-.16.06-.1.08-.24.08-.4h0c-.06.12-.15.22-.26.29-.17.1-.31.02-.31-.18,0-.2.14-.45.33-.56.09-.05.16-.06.22-.04.11.03.14.17.14.41,0,.22-.04.4-.13.55-.06.09-.13.16-.22.21-.19.11-.32.06-.33-.13ZM11.85,104.94c0-.15-.1-.2-.23-.13s-.22.23-.22.39.1.2.22.13c.14-.08.23-.24.23-.39ZM12.06,104.64c0-.11.08-.24.17-.29s.17-.01.17.1-.08.24-.17.29-.17.01-.17-.1ZM12.33,104.49c0-.07-.04-.1-.1-.06s-.1.11-.1.18.04.1.1.07.1-.11.1-.18ZM12.77,104.02l.13-.08.45.53s.07.1.07.1h0v-.94l.12-.07v1.13l-.13.07-.45-.53s-.07-.1-.07-.1h0v.93l-.12.07v-1.13ZM23.58,98.12l-.21.12v-.09c.12-.07.21-.18.23-.35l.09-.05v1.09l-.12.07v-.79ZM24.06,97.85l-.21.12v-.09c.12-.07.21-.18.23-.35l.09-.05v1.09l-.12.07v-.79ZM24.31,98.18l.11-.07c.02.13.1.16.23.09s.22-.23.22-.39c0-.16-.1-.2-.22-.13-.1.06-.17.15-.21.23l-.11.06.1-.64.5-.29v.12l-.42.24-.06.36h0c.05-.09.13-.17.22-.22.17-.1.32-.05.32.19,0,.23-.14.46-.34.57s-.34.06-.35-.14ZM25.1,97.88l.13-.08v.16l-.13.08v-.16ZM25.41,97.07l-.21.12v-.09c.12-.07.21-.18.23-.35l.09-.05v1.09l-.12.07v-.79ZM25.66,97.36l.11-.07c0,.17.1.21.26.12.13-.08.22-.2.22-.36,0-.14-.09-.16-.25-.07l-.06.03v-.1l.06-.03c.15-.08.22-.2.22-.31s-.09-.14-.2-.07c-.14.08-.22.23-.22.38l-.11.07c0-.22.13-.43.33-.55.17-.1.31-.07.31.12,0,.12-.06.23-.16.32h0c.13-.03.19.03.19.17,0,.21-.15.41-.34.52-.21.12-.37.08-.38-.17ZM26.48,96.94l.12-.07c0,.11.08.16.21.09.07-.04.12-.09.16-.16.06-.1.08-.24.08-.4h0c-.06.12-.15.22-.26.29-.17.1-.31.02-.31-.18,0-.2.14-.45.33-.56.09-.05.16-.06.22-.04.11.03.14.17.14.41,0,.22-.04.4-.13.55-.06.09-.13.16-.22.21-.19.11-.32.06-.33-.13ZM27.03,96.18c0-.15-.1-.2-.23-.13s-.22.23-.22.39.1.2.22.13c.14-.08.23-.24.23-.39ZM27.26,96.48c0-.16.09-.29.19-.39h0c-.09,0-.15-.04-.15-.15,0-.17.14-.36.31-.46s.31-.07.31.11c0,.11-.06.22-.14.31h0c.11-.02.19.03.19.18,0,.25-.18.44-.35.54s-.36.12-.36-.13ZM27.85,96.13c0-.14-.09-.18-.24-.09s-.24.23-.24.37.09.17.24.08.24-.22.24-.36ZM27.81,95.65c0-.11-.08-.13-.2-.06s-.2.18-.2.29.08.13.2.06.2-.18.2-.29ZM28.03,95.42c0-.11.08-.24.17-.29s.17-.01.17.1-.08.24-.17.29-.17.01-.17-.1ZM28.3,95.27c0-.07-.04-.1-.1-.06s-.1.11-.1.18.04.1.1.07.1-.11.1-.18ZM28.66,94.84l.13-.07.16.65c.02.07.04.17.04.17h0s.02-.14.04-.22l.18-.84.13-.08.17.64c.02.07.04.17.04.17h0s.02-.14.04-.22l.16-.83.13-.07-.27,1.29-.12.07-.18-.7c-.02-.06-.04-.15-.04-.15h0s-.02.12-.04.2l-.19.91-.12.07-.25-.99ZM39.27,93.48l.43-.25c.11-.07.2-.08.26-.04.06.03.09.1.09.21,0,.21-.12.43-.33.55l-.24.14v.41l-.21.12v-1.13ZM39.48,93.9l.21-.12c.1-.06.16-.16.16-.26s-.06-.13-.16-.08l-.21.12v.34ZM40.08,93.75c0-.24.15-.52.37-.64s.37-.03.37.22c0,.24-.15.52-.37.64s-.37.03-.37-.22ZM40.62,93.43c0-.16-.06-.23-.18-.16s-.18.21-.18.37.06.23.18.16.18-.21.18-.37ZM40.9,92.86l.18-.1v.1h0c.05-.1.11-.19.21-.25.19-.11.31,0,.31.25,0,.26-.12.5-.31.61-.1.06-.16.05-.2,0h0v.36l-.19.11v-1.08ZM41.41,92.98c0-.15-.05-.23-.16-.17s-.16.21-.16.36.06.21.17.15c.09-.05.16-.18.16-.33ZM42.13,92.97v-.1h0c-.05.1-.1.18-.2.24-.16.09-.24.03-.24-.15v-.54l.19-.11v.51c0,.1.04.13.12.08.09-.05.14-.16.14-.27v-.47l.19-.11v.81l-.18.1ZM42.43,91.66l.19-.11v1.13l-.19.11v-1.13ZM43.17,92.27c-.04.08-.09.17-.21.24-.14.08-.24.05-.24-.11,0-.18.13-.31.28-.43.12-.09.17-.13.17-.19,0-.06-.04-.07-.12-.02-.09.05-.13.11-.13.19l-.17.1c0-.15.09-.32.3-.44s.3-.07.3.13v.33c0,.05,0,.07.05.04h0s0,.13,0,.13c-.02.02-.04.04-.08.06-.09.05-.13.05-.15-.02ZM43.17,92.08v-.12s-.08.08-.13.12c-.1.08-.15.13-.15.21s.04.08.11.04c.11-.06.17-.17.17-.25ZM43.41,91.41l.1-.06v-.25l.18-.11v.25l.12-.07v.14l-.12.07v.43c0,.06.03.06.07.04.02-.01.05-.03.05-.03v.16s-.04.03-.12.07c-.09.05-.19.07-.19-.08v-.48s-.1.06-.1.06v-.14ZM43.91,90.81l.19-.11v.19l-.19.11v-.19ZM43.91,91.13l.19-.11v.81l-.19.11v-.81ZM44.18,91.38c0-.24.15-.52.37-.64s.37-.03.37.22-.15.52-.37.64-.37.03-.37-.22ZM44.73,91.06c0-.16-.06-.23-.18-.16s-.18.21-.18.37.06.23.18.16.18-.21.18-.37ZM45.19,90.5h0c.05-.12.11-.2.21-.26.15-.08.24-.01.24.16v.53l-.19.11v-.5c0-.09-.04-.12-.12-.08-.08.05-.14.16-.14.27v.46l-.19.11v-.81l.18-.11v.11ZM45.75,90.17l.2-.12v.23l-.2.12v-.23ZM45.75,90.64l.2-.12v.23l-.2.12v-.23ZM39.39,96.06c-.1-.05-.13-.18-.13-.4,0-.34.13-.63.36-.77.19-.11.28-.02.3.13l-.11.07c0-.1-.07-.15-.18-.08-.18.11-.25.32-.25.58h0c.06-.13.15-.24.26-.3.17-.1.31-.01.31.19,0,.2-.14.45-.32.55-.1.06-.18.07-.23.04ZM39.83,95.54c0-.15-.09-.21-.22-.14-.13.08-.23.23-.23.39s.1.2.23.13c.12-.07.21-.23.21-.38ZM40.03,95.45l.11-.07c.02.13.1.16.23.09s.22-.23.22-.39c0-.16-.1-.2-.22-.13-.1.06-.17.15-.21.23l-.11.06.1-.64.5-.29v.12l-.42.24-.06.36h0c.05-.09.12-.17.22-.22.17-.1.32-.05.32.19,0,.23-.14.46-.34.57s-.34.06-.35-.14ZM40.97,94.43l-.21.12v-.09c.12-.07.21-.18.23-.35l.09-.05v1.09l-.12.07v-.79ZM41.25,95.19s.06-.08.06-.17l-.06.04v-.16l.13-.08v.16c0,.12-.05.21-.13.27v-.07ZM41.47,94.58l.11-.07c0,.17.1.21.26.12.13-.08.22-.2.22-.36,0-.14-.09-.16-.25-.07l-.06.03v-.1l.06-.03c.15-.08.22-.2.22-.31s-.09-.14-.2-.07c-.14.08-.22.23-.22.38l-.11.07c0-.22.13-.43.33-.55.17-.1.31-.07.31.12,0,.12-.06.23-.16.32h0c.13-.03.19.03.19.17,0,.21-.15.41-.34.52-.21.12-.37.08-.38-.17ZM42.48,93.56l-.21.12v-.09c.12-.07.21-.18.23-.35l.09-.05v1.09l-.12.07v-.79ZM42.77,93.89l.12-.07c0,.11.08.16.21.09.07-.04.12-.09.16-.16.06-.1.08-.24.08-.4h0c-.06.12-.15.22-.26.29-.17.1-.31.02-.31-.18,0-.2.14-.45.33-.56.09-.05.16-.06.22-.04.11.03.14.17.14.41,0,.22-.04.4-.13.55-.06.09-.13.16-.22.21-.19.11-.32.06-.33-.13ZM43.32,93.12c0-.15-.1-.2-.23-.13s-.22.23-.22.39.1.2.22.13c.14-.08.23-.24.23-.39ZM51.79,86.25l-.52.3v2.72s.52-.3.52-.3v-2.72ZM52.39,85.91l-.52.3v2.72s.52-.3.52-.3v-2.72ZM52.99,85.56l-.52.3v2.72s.52-.3.52-.3v-2.72ZM53.15,85.77c0-.18.11-.37.26-.46s.26-.02.26.16-.12.37-.26.46-.26.02-.26-.16ZM53.64,85.49c0-.16-.1-.22-.23-.14s-.23.25-.23.41.1.22.23.14.23-.25.23-.41ZM53.3,85.51l.14-.08c.05-.03.09-.02.09.04,0,.04-.02.08-.05.11h0s.04,0,.05.05c0,.05,0,.07.01.07h0s-.05.04-.05.04c0,0,0-.03-.01-.07,0-.04-.02-.05-.05-.03l-.06.04v.13l-.05.03v-.34ZM53.35,85.64l.07-.04s.05-.05.05-.08c0-.03-.01-.04-.05-.02l-.07.04v.1ZM39.54,88.56l.21-.12.35.93-.21.12-.07-.2-.35.2-.06.28-.2.12.34-1.33ZM39.51,89.3l.26-.15-.09-.28c-.02-.05-.04-.15-.04-.15h0s-.02.13-.04.2l-.09.38ZM40.34,88.55h0c.04-.12.09-.19.17-.24.02-.01.03-.02.04-.02v.19h0c-.12.06-.21.18-.21.36v.4l-.19.11v-.81l.18-.1v.13ZM40.59,88.68c0-.24.14-.51.35-.63.23-.13.35,0,.35.29l-.51.3c.01.12.07.16.18.1.07-.04.12-.1.14-.18l.18-.11c-.03.16-.14.35-.32.45-.23.13-.37.02-.37-.22ZM40.78,88.49l.31-.18c0-.1-.06-.14-.15-.09-.1.06-.15.15-.16.27ZM41.8,88.3c-.04.08-.09.17-.21.24-.14.08-.24.05-.24-.11,0-.18.13-.31.28-.43.12-.09.17-.13.17-.19,0-.06-.04-.07-.12-.02-.09.05-.13.11-.13.19l-.17.1c0-.15.09-.32.3-.44s.3-.07.3.13v.33c0,.05,0,.07.05.04h0s0,.13,0,.13c-.02.02-.04.04-.08.06-.09.05-.13.05-.15-.02ZM41.8,88.11v-.12s-.08.08-.13.12c-.1.08-.15.13-.15.21s.04.08.11.04c.11-.06.17-.17.17-.25ZM42.09,87.52l.2-.12v.23l-.2.12v-.23ZM42.09,88l.2-.12v.23l-.2.12v-.23ZM39.45,90.55l-.21.12v-.09c.12-.07.21-.18.23-.35l.09-.05v1.09l-.12.07v-.79ZM39.7,90.84l.11-.07c0,.17.1.21.26.12.13-.08.22-.2.22-.36,0-.14-.09-.16-.25-.07l-.06.03v-.1l.06-.03c.15-.08.22-.2.22-.31s-.09-.14-.2-.07c-.14.08-.22.23-.22.38l-.11.07c0-.22.13-.43.33-.55.17-.1.31-.07.31.12,0,.12-.06.23-.16.32h0c.13-.03.19.03.19.17,0,.21-.15.41-.34.52-.21.12-.37.08-.38-.17ZM40.93,90.22l-.44.26v-.12l.47-.98.09-.05v.73s.16-.09.16-.09v.11l-.16.09v.27l-.11.07v-.27ZM40.6,90.3l.33-.19v-.51s0,0,0,0l-.33.7h0ZM41.29,90.12l.13-.08v.16l-.13.08v-.16ZM41.92,89.64l-.44.26v-.12l.47-.98.09-.05v.73s.16-.09.16-.09v.11l-.16.09v.27l-.11.07v-.27ZM41.59,89.73l.33-.19v-.51s0,0,0,0l-.33.7h0ZM42.47,89.33l.11-.07c.02.13.1.13.2.07.12-.07.16-.15.16-.23,0-.09-.05-.08-.19-.04-.14.05-.27.09-.27-.09,0-.14.09-.28.26-.37.18-.1.26-.05.28.1l-.11.07c-.01-.1-.06-.12-.17-.06s-.14.13-.14.2c0,.09.07.07.19.02.14-.05.26-.08.26.11,0,.17-.12.32-.28.41-.2.11-.3.07-.31-.11ZM43.68,88.79h0c-.05.11-.12.19-.22.25-.19.11-.31.01-.31-.25,0-.27.13-.51.31-.61.1-.06.17-.05.22,0h0v-.11l.11-.06v1.08l-.11.06v-.36ZM43.69,88.48c0-.19-.07-.28-.23-.19-.13.08-.2.25-.2.44,0,.19.06.28.2.21.16-.09.22-.27.22-.45ZM44.4,88.48v-.11h0c-.05.11-.11.2-.21.26-.15.08-.24.04-.24-.13v-.57l.11-.06v.56c0,.11.06.13.16.08.11-.07.19-.21.19-.34v-.5l.11-.06v.82l-.11.06ZM45.1,87.97h0c-.04.09-.11.19-.23.26-.13.08-.24.06-.24-.09,0-.19.13-.31.31-.44.11-.08.17-.13.17-.22s-.05-.11-.16-.05c-.12.07-.17.16-.18.29l-.11.06c0-.16.1-.34.29-.44.15-.09.26-.08.26.11v.46c0,.06.01.1.03.1h0s-.11.07-.11.07c-.01,0-.02-.03-.02-.1ZM45.1,87.77v-.13s-.1.1-.16.15c-.12.09-.2.15-.2.27,0,.11.08.09.15.05.15-.09.21-.25.21-.34ZM45.46,87.18h0c.04-.11.12-.22.21-.27.02-.01.03-.02.05-.02v.12h0s-.03.01-.05.02c-.11.06-.21.21-.21.37v.46l-.11.06v-.82l.11-.06v.14ZM45.75,87.29c0-.24.13-.51.34-.63.21-.12.33,0,.33.27l-.55.32c0,.16.09.24.23.16.1-.06.17-.16.2-.28l.11-.06c-.03.2-.14.36-.31.45-.22.13-.34,0-.34-.23ZM45.87,87.16l.43-.25c0-.16-.08-.22-.21-.14s-.2.23-.22.39ZM46.74,86.31l.11-.06v.12h0c.04-.11.12-.21.21-.26s.16-.04.19.04h0c.05-.12.13-.22.22-.27.13-.07.22-.03.22.14v.58l-.11.06v-.57c0-.1-.06-.13-.13-.09-.09.05-.17.19-.17.32v.51l-.11.06v-.57c0-.1-.05-.13-.12-.09-.09.05-.18.2-.18.33v.51l-.11.06v-.82ZM47.84,85.36l.11-.06v.16l-.11.06v-.16ZM47.84,85.68l.11-.06v.82l-.11.06v-.82ZM48.1,85.21l.11-.06v1.13l-.11.06v-1.13ZM48.33,85.8c0-.24.13-.51.34-.63.21-.12.33,0,.33.27l-.55.32c0,.16.09.24.23.16.1-.06.17-.16.2-.28l.11-.06c-.03.2-.14.36-.31.45-.22.13-.34,0-.34-.23ZM48.45,85.67l.43-.25c0-.16-.08-.22-.21-.14s-.2.23-.22.39ZM49.06,85.53l.11-.07c.02.13.1.13.2.07.12-.07.16-.15.16-.23,0-.09-.05-.08-.19-.04-.14.05-.27.09-.27-.09,0-.14.09-.28.26-.37.18-.1.26-.05.28.1l-.11.07c-.01-.1-.06-.12-.17-.06s-.14.13-.14.2c0,.09.07.07.19.02.14-.05.26-.08.26.11,0,.17-.12.32-.28.41-.2.11-.3.07-.31-.11Z"/>
      <path class="cls-1" d="M55.58,2.61L50.93.06c-.15-.08-.34-.08-.49,0L.25,29.05c-.15.09-.25.25-.25.43v86.53c0,.18.1.35.26.44l4.65,2.54c.08.04.16.06.24.06s.17-.02.25-.07l50.19-28.98c.15-.09.25-.25.25-.43V3.04c0-.18-.1-.35-.26-.44ZM50.7,1.07l3.88,2.12L5.14,31.74l-3.87-2.12L50.7,1.07ZM1,30.03l3.89,2.14v85.68s-3.89-2.13-3.89-2.13V30.03ZM5.4,117.84V32.17S54.84,3.62,54.84,3.62v85.67L5.4,117.84Z"/>
    </g>
  </g>
</svg>