<?xml version="1.0" encoding="UTF-8"?>
<svg id="Layer_2" data-name="Layer 2" xmlns="http://www.w3.org/2000/svg" viewBox="0 0 55.84 119.06">
  <defs>
    <style>
      .cls-1, .cls-2 {
        stroke-width: 0px;
      }

      .cls-2 {
        fill: #e4e41b;
      }
    </style>
  </defs>
  <g id="Layer_1-2" data-name="Layer 1">
    <g id="_702-yellow" data-name="702-yellow">
      <polygon class="cls-2" points="55.34 89.58 5.15 118.56 5.15 32.02 55.34 3.05 55.34 89.58"/>
      <path class="cls-1" d="M13.34,53.86l-5.84,3.37v-23.84l13.83-7.99v21.41c0,14.05-4.69,20.61-4.69,30.81v22.33l-5.84,3.37v-21.5c0-12.13,4.69-19.27,4.69-30.81v-16.06l-2.15,1.24v17.65ZM23.4,88.45V31.82c0-5.52,2.54-9.58,6.92-12.11s6.92-1.4,6.92,4.12v56.63c0,5.52-2.54,9.58-6.92,12.11s-6.92,1.4-6.92-4.12ZM29.24,85.08c0,1.59.23,1.79,1.08,1.3.92-.53,1.08-.96,1.08-2.55V27.2c0-1.59-.23-1.79-1.08-1.3-.92.53-1.08,1.04-1.08,2.55v56.63ZM53.07,46.81l-5.84,3.37v25.93l-2.15,1.24v-23.76c0-7.7,7.99-14.49,7.99-22.68V14.69c0-5.52-2.54-6.65-6.92-4.12-4.38,2.53-6.92,6.59-6.92,12.11v16.23l5.84-3.37v-16.23c0-1.51.15-2.01,1.08-2.55.85-.49,1.08-.29,1.08,1.3v16.23c0,5.69-7.99,13.06-7.99,22.68v29.95l13.83-7.99v-32.12ZM8.02,111.52l-.48.28v2.72l1.59-.92v-.46l-1.11.64v-2.26ZM10.93,112.24h0s0,.31,0,.31c-.04.05-.09.1-.19.16-.21.12-.32.11-.36-.06-.09.2-.22.41-.51.58-.35.2-.58.13-.58-.26,0-.43.3-.75.68-1.02.28-.21.41-.31.41-.46s-.11-.17-.3-.06c-.21.12-.31.26-.32.46l-.4.23c0-.35.23-.78.73-1.06.51-.3.73-.16.73.3v.8c0,.13.02.16.12.08ZM10.39,111.9c-.08.1-.2.2-.31.3-.23.2-.35.32-.35.5s.11.19.26.1c.26-.15.4-.41.4-.6v-.29ZM11.9,110.82c-.24.08-.47.2-.47.03,0-.14.12-.28.29-.38.19-.11.31-.1.33.1l.41-.23c-.03-.37-.28-.49-.73-.23-.39.22-.69.6-.69,1.02s.3.35.6.24c.23-.08.45-.18.45,0,0,.14-.11.29-.31.4-.2.12-.34.1-.37-.11l-.42.24c.03.4.3.52.79.23.42-.24.71-.65.71-1.04,0-.46-.31-.37-.6-.27ZM14.65,107.69l-.41,1.82c-.05.2-.1.49-.1.49h0s-.06-.22-.1-.37l-.42-1.34-.5.29.8,2.26.44-.25.8-3.18-.49.28ZM16.65,108.44l-1.23.71c.03.28.18.38.43.24.17-.1.28-.25.33-.43l.44-.26c-.06.38-.33.83-.77,1.08-.56.32-.88.05-.88-.53s.34-1.22.83-1.51c.54-.31.83,0,.83.7ZM16.18,108.35c-.01-.24-.16-.33-.36-.21-.24.14-.35.37-.39.65l.75-.43ZM17.98,106.54l.43-.25v1.81c0,.27-.08.5-.2.71-.14.23-.36.43-.61.57-.46.27-.75.2-.79-.15l.45-.26c.04.1.13.14.34.02.25-.15.38-.36.38-.62v-.21h0c-.1.19-.23.37-.44.49-.38.22-.75.09-.75-.5s.3-1.13.73-1.38c.21-.12.37-.12.47-.01h0v-.21ZM17.99,107.43c0-.29-.13-.45-.4-.3-.23.13-.38.42-.38.75s.15.44.38.3c.28-.16.4-.47.4-.76ZM20.26,106.85h0s0,.31,0,.31c-.04.05-.09.1-.19.16-.21.12-.32.11-.36-.06-.09.2-.22.41-.51.58-.35.2-.58.13-.58-.26,0-.43.3-.75.68-1.02.28-.21.41-.31.41-.46s-.11-.17-.3-.06c-.21.12-.31.26-.32.46l-.4.23c0-.35.23-.78.73-1.06.51-.3.73-.16.73.3v.8c0,.13.02.16.12.08ZM19.72,106.51c-.08.1-.2.2-.31.3-.23.2-.35.32-.35.5s.11.19.26.1c.26-.15.4-.41.4-.6v-.29ZM20.37,105.73c0,.43.3.35.6.24.23-.08.45-.18.45,0,0,.14-.11.29-.31.4-.2.12-.34.1-.37-.11l-.42.24c.03.4.3.52.79.23.42-.24.71-.65.71-1.04,0-.46-.31-.37-.6-.27-.24.08-.47.2-.47.03,0-.14.12-.28.29-.38.19-.11.31-.1.33.1l.41-.23c-.03-.37-.28-.49-.73-.23-.39.22-.69.6-.69,1.02ZM22.01,106.62v.19c.25-.2.48-.55.48-.94v-.52l-.48.28v.55l.24-.14c0,.24-.11.43-.24.58ZM23.81,103.72c0-.19-.01-.47-.01-.47h0s.09.18.17.28l.81,1.04.46-.27v-2.72l-.47.27v1.43c0,.19.01.46.01.46h0s-.09-.18-.17-.28l-.79-1.07-.49.28v2.72l.47-.27v-1.41ZM26.56,102.4c-.05.2-.1.49-.1.49h0s-.06-.22-.1-.37l-.42-1.34-.5.29.8,2.26.44-.25.8-3.18-.49.28-.41,1.82ZM7.89,107.88c-.16.09-.25.05-.26-.12l-.11.07c0,.25.17.29.38.17.19-.11.34-.31.34-.52,0-.14-.06-.2-.19-.17h0c.09-.09.16-.2.16-.32,0-.19-.14-.22-.31-.12-.21.12-.33.33-.33.55l.11-.07c0-.15.08-.3.22-.38.11-.07.2-.05.2.07s-.07.23-.22.31l-.06.03v.1l.06-.03c.16-.09.25-.07.25.07,0,.15-.09.28-.22.36ZM8.71,106.5c-.18.11-.25.32-.25.58h0c.06-.13.15-.24.26-.3.17-.1.31-.01.31.19,0,.2-.14.45-.32.55-.1.06-.18.07-.23.04-.1-.05-.13-.18-.13-.4,0-.34.13-.63.36-.77.19-.11.28-.02.3.13l-.11.07c0-.1-.07-.15-.18-.08ZM8.47,107.29c0,.15.1.2.23.13.12-.07.21-.23.21-.38s-.09-.21-.22-.14c-.13.08-.23.23-.23.39ZM9.12,107.26l.13-.08v-.16l-.13.08v.16ZM9.55,107.01v-1.09l-.09.05c-.02.17-.12.28-.23.35v.09l.21-.12v.79l.12-.07ZM10.08,105.71c-.18.11-.25.32-.25.58h0c.06-.13.15-.24.26-.3.17-.1.31-.01.31.19,0,.2-.14.45-.32.55-.1.06-.18.07-.24.04-.1-.05-.13-.18-.13-.4,0-.34.13-.63.36-.77.19-.11.28-.02.3.13l-.11.07c0-.1-.07-.15-.18-.08ZM9.85,106.5c0,.15.1.2.23.13.12-.07.21-.23.21-.38s-.09-.21-.22-.14c-.13.08-.23.23-.23.39ZM10.99,106.02c.06-.1.08-.24.08-.4h0c-.06.12-.15.22-.26.29-.17.1-.31.02-.31-.18,0-.2.14-.45.33-.56.09-.05.16-.06.22-.04.11.03.14.17.14.41,0,.22-.04.4-.13.55-.06.09-.13.16-.22.21-.19.11-.32.06-.33-.13l.12-.07c0,.11.08.16.21.09.07-.04.12-.09.16-.16ZM11.05,105.4c0-.15-.1-.2-.23-.13-.13.08-.22.23-.22.39s.1.2.22.13c.14-.08.23-.24.23-.39ZM11.79,105.56c.06-.1.08-.24.08-.4h0c-.06.12-.15.22-.26.29-.17.1-.31.02-.31-.18,0-.2.14-.45.33-.56.09-.05.16-.06.22-.04.11.03.14.17.14.41,0,.22-.04.4-.13.55-.06.09-.13.16-.22.21-.19.11-.32.06-.33-.13l.12-.07c0,.11.08.16.21.09.07-.04.12-.09.16-.16ZM11.85,104.94c0-.15-.1-.2-.23-.13-.13.08-.22.23-.22.39s.1.2.22.13c.14-.08.23-.24.23-.39ZM12.24,104.74c-.09.05-.17.01-.17-.1s.08-.24.17-.29c.1-.06.17-.01.17.1s-.08.24-.17.29ZM12.24,104.67c.06-.03.1-.11.1-.18s-.04-.1-.1-.07c-.06.03-.1.11-.1.18s.04.1.1.07ZM13.53,104.71v-1.13l-.12.07v.93h0s-.04-.06-.07-.1l-.45-.53-.13.08v1.13l.12-.07v-.93h0s.04.06.07.1l.45.53.13-.07ZM23.58,98.91l.12-.07v-1.09l-.09.05c-.02.17-.12.28-.23.35v.09l.21-.12v.79ZM24.17,98.57v-1.09l-.09.05c-.02.17-.12.28-.23.35v.09l.21-.12v.79l.12-.07ZM24.42,98.11l-.11.07c0,.2.15.25.35.14.2-.11.34-.34.34-.57s-.15-.29-.32-.19c-.09.05-.16.13-.22.22h0s.06-.36.06-.36l.42-.24v-.12l-.5.29-.1.64.11-.06c.04-.09.11-.18.21-.23.12-.07.22-.03.22.13s-.09.31-.22.39c-.13.08-.22.04-.23-.09ZM25.1,98.04l.13-.08v-.16l-.13.08v.16ZM25.52,97.79v-1.09l-.09.05c-.02.17-.12.28-.23.35v.09l.21-.12v.79l.12-.07ZM26.03,97.41c-.16.09-.25.05-.26-.12l-.11.07c0,.25.17.29.38.17.19-.11.34-.31.34-.52,0-.14-.06-.2-.19-.17h0c.09-.09.16-.2.16-.32,0-.19-.14-.22-.31-.12-.21.12-.33.33-.33.55l.11-.07c0-.15.08-.3.22-.38.11-.07.2-.05.2.07s-.07.23-.22.32l-.06.03v.1l.06-.03c.16-.09.25-.07.25.07,0,.15-.09.28-.22.36ZM26.96,96.8c.06-.1.08-.24.08-.4h0c-.06.12-.15.22-.26.29-.17.1-.31.02-.31-.18,0-.2.14-.45.33-.56.09-.05.16-.06.22-.04.11.03.14.17.14.41,0,.22-.04.4-.13.55-.06.09-.13.16-.22.21-.19.11-.32.06-.33-.13l.12-.07c0,.11.08.16.21.09.07-.04.12-.09.16-.16ZM27.03,96.18c0-.15-.1-.2-.23-.13-.13.08-.22.23-.22.39s.1.2.22.13c.14-.08.23-.24.23-.39ZM27.97,96.07c0,.25-.18.44-.35.54s-.36.12-.36-.13c0-.16.09-.29.19-.39h0c-.09,0-.15-.04-.15-.15,0-.17.14-.36.31-.46.17-.1.31-.07.31.11,0,.11-.06.22-.14.31h0c.11-.02.19.03.19.18ZM27.61,95.94c.12-.07.2-.18.2-.29s-.08-.13-.2-.06c-.12.07-.2.18-.2.29s.08.13.2.06ZM27.85,96.13c0-.14-.09-.18-.24-.09-.15.09-.24.23-.24.37s.09.17.24.08c.15-.08.24-.22.24-.36ZM28.38,95.22c0,.11-.08.24-.17.29-.09.05-.17.01-.17-.1s.08-.24.17-.29c.1-.06.17-.01.17.1ZM28.3,95.27c0-.07-.04-.1-.1-.07-.06.03-.1.11-.1.18s.04.1.1.07c.06-.03.1-.11.1-.18ZM29.59,95.04c-.02.08-.04.21-.04.21h0s-.02-.1-.04-.17l-.17-.64-.13.08-.18.84c-.02.08-.04.22-.04.22h0s-.02-.1-.04-.17l-.16-.65-.13.07.25.99.12-.07.19-.91c.02-.08.04-.19.04-.19h0s.02.09.04.15l.18.7.12-.07.27-1.29-.13.07-.16.83ZM40.05,93.4c0,.21-.12.43-.33.55l-.24.14v.41l-.21.12v-1.13l.43-.25c.11-.07.2-.08.26-.04.06.03.09.1.09.21ZM39.84,93.52c0-.11-.06-.13-.16-.08l-.21.12v.34l.21-.12c.1-.06.16-.16.16-.26ZM40.81,93.32c0,.24-.15.52-.37.64-.22.13-.37.03-.37-.22s.15-.52.37-.64c.22-.13.37-.03.37.22ZM40.62,93.43c0-.16-.06-.23-.18-.16-.12.07-.18.21-.18.37s.06.23.18.16c.11-.07.18-.21.18-.37ZM41.29,93.47c-.1.06-.16.05-.2,0h0v.36l-.19.11v-1.08l.18-.1v.1h0c.05-.1.11-.19.21-.25.19-.11.31,0,.31.25s-.12.5-.3.61ZM41.25,93.32c.09-.05.16-.18.16-.33s-.05-.23-.16-.17c-.12.07-.16.21-.16.36s.06.21.17.15ZM42.31,92.86v-.81l-.19.11v.47c0,.11-.05.22-.14.27-.08.05-.12.02-.12-.08v-.51l-.19.11v.54c0,.18.09.24.24.15.1-.06.15-.13.2-.23h0s0,.09,0,.09l.18-.1ZM42.43,92.79l.19-.11v-1.13l-.19.11v1.13ZM43.16,91.78c0-.06-.04-.07-.12-.02-.09.05-.13.11-.13.19l-.17.1c0-.15.09-.32.3-.44.21-.12.3-.07.3.13v.33c0,.05,0,.07.05.04h0s0,.13,0,.13c-.02.02-.04.04-.08.06-.09.05-.13.05-.15-.02-.04.08-.09.17-.21.24-.14.08-.24.05-.24-.11,0-.18.13-.31.28-.43.12-.09.17-.13.17-.19ZM43.04,92.08c-.1.08-.15.13-.15.21s.04.08.11.04c.11-.06.17-.17.17-.25v-.12s-.08.08-.13.12ZM43.69,91.83v-.43l.12-.07v-.14l-.12.07v-.25l-.18.11v.25l-.1.06v.14l.1-.06v.48c0,.15.1.14.19.08.07-.04.12-.07.12-.07v-.16s-.03.02-.05.03c-.04.02-.07.02-.07-.04ZM43.91,91l.19-.11v-.19l-.19.11v.19ZM43.91,91.94l.19-.11v-.81l-.19.11v.81ZM44.92,90.95c0,.24-.15.52-.37.64-.22.13-.37.03-.37-.22s.15-.52.37-.64c.22-.13.37-.03.37.22ZM44.73,91.06c0-.16-.06-.23-.18-.16-.12.07-.18.21-.18.37s.06.23.18.16c.11-.07.18-.21.18-.37ZM45.4,90.24c-.1.06-.16.14-.21.25h0s0-.11,0-.11l-.18.11v.81l.19-.11v-.46c0-.11.06-.22.14-.27.08-.05.12,0,.12.08v.5l.19-.11v-.53c0-.18-.1-.25-.24-.16ZM45.75,90.87l.2-.12v-.23l-.2.12v.23ZM45.75,90.4l.2-.12v-.23l-.2.12v.23ZM39.94,95.47c0,.2-.14.45-.32.55-.1.06-.18.07-.23.04-.1-.05-.13-.18-.13-.4,0-.34.13-.63.36-.77.19-.11.28-.02.3.13l-.11.07c0-.1-.07-.15-.18-.08-.18.11-.25.32-.25.58h0c.06-.13.15-.24.26-.3.17-.1.31-.01.31.19ZM39.83,95.54c0-.15-.09-.21-.22-.14-.13.08-.23.23-.23.39s.1.2.23.13c.12-.07.21-.23.21-.38ZM40.39,94.82c-.09.05-.16.13-.22.22h0s.06-.36.06-.36l.42-.24v-.12l-.5.29-.1.64.11-.06c.04-.09.11-.18.21-.23.12-.07.22-.03.22.13s-.09.31-.22.39c-.13.08-.22.04-.23-.09l-.11.07c0,.2.15.25.35.14.2-.11.34-.34.34-.57s-.15-.29-.32-.19ZM40.76,94.46v.09l.21-.12v.79l.12-.07v-1.09l-.09.05c-.02.17-.12.28-.23.35ZM41.25,95.06l.06-.04c0,.09-.03.14-.06.17v.07c.08-.06.13-.16.13-.27v-.16l-.13.08v.16ZM41.99,94.05h0c.09-.09.16-.2.16-.32,0-.19-.14-.22-.31-.12-.21.12-.33.33-.33.55l.11-.06c0-.15.08-.3.22-.38.11-.07.2-.05.2.07s-.07.23-.22.31l-.06.03v.1l.06-.03c.16-.09.25-.07.25.07,0,.15-.09.28-.22.36-.16.09-.25.05-.26-.12l-.11.07c0,.25.17.29.38.17.19-.11.34-.31.34-.52,0-.14-.06-.2-.19-.17ZM42.27,93.59v.09l.21-.12v.79l.12-.07v-1.09l-.09.05c-.02.17-.12.28-.23.35ZM43.3,92.84c.11.03.14.17.14.41,0,.22-.04.4-.13.55-.06.09-.13.16-.22.22-.19.11-.32.06-.33-.13l.12-.07c0,.11.08.16.21.09.07-.04.12-.09.16-.16.06-.1.08-.24.08-.4h0c-.06.12-.15.22-.26.29-.17.1-.31.02-.31-.18,0-.2.14-.45.33-.56.09-.05.16-.06.22-.04ZM43.32,93.12c0-.15-.1-.2-.23-.13-.13.08-.22.23-.22.39s.1.2.22.13c.14-.08.23-.24.23-.39ZM51.27,89.28l.52-.3v-2.72l-.52.3v2.72ZM51.87,88.93l.52-.3v-2.72l-.52.3v2.72ZM52.47,88.58l.52-.3v-2.72l-.52.3v2.72ZM53.35,85.82l-.05.03v-.34l.14-.08c.05-.03.09-.02.09.04,0,.04-.02.08-.05.11h0s.04,0,.05.05c0,.05,0,.07.01.07h0s-.05.04-.05.04c0,0,0-.03-.01-.07,0-.04-.02-.05-.05-.03l-.06.04v.13ZM53.35,85.63l.07-.04s.05-.05.05-.08c0-.03-.01-.04-.05-.02l-.07.04v.1ZM53.15,85.77c0-.18.11-.37.26-.46.15-.08.26-.02.26.16s-.12.37-.26.46c-.15.08-.26.02-.26-.16ZM53.18,85.75c0,.16.1.22.23.14.13-.08.23-.25.23-.41s-.1-.22-.23-.14c-.13.08-.23.25-.23.41ZM39.4,89.78l-.2.12.34-1.33.21-.12.35.93-.21.12-.07-.2-.35.2-.06.28ZM39.51,89.3l.26-.15-.09-.28c-.02-.05-.04-.15-.04-.15h0s-.02.13-.04.2l-.09.38ZM40.16,88.52v.81l.19-.11v-.4c0-.17.09-.3.21-.35h0v-.19s-.02,0-.04.02c-.08.05-.13.12-.17.24h0s0-.13,0-.13l-.18.1ZM41.29,88.34l-.51.3c.01.12.07.16.18.1.07-.04.12-.1.14-.18l.18-.11c-.03.16-.14.35-.32.45-.23.14-.37.02-.37-.22s.14-.51.35-.63c.23-.13.35,0,.35.29ZM41.09,88.31c0-.1-.06-.14-.15-.09-.1.06-.15.15-.16.27l.31-.18ZM41.79,87.81c0-.06-.04-.07-.12-.02-.09.05-.13.11-.13.19l-.17.1c0-.15.09-.32.3-.44.21-.12.3-.07.3.13v.33c0,.05,0,.07.05.04h0s0,.13,0,.13c-.02.02-.04.04-.08.07-.09.05-.13.05-.15-.02-.04.08-.09.17-.21.24-.14.08-.24.05-.24-.11,0-.18.13-.31.28-.43.12-.09.17-.13.17-.19ZM41.66,88.11c-.1.08-.15.13-.15.21s.04.08.11.04c.11-.06.17-.17.17-.25v-.12s-.08.08-.13.12ZM42.09,87.75l.2-.12v-.23l-.2.12v.23ZM42.09,88.23l.2-.12v-.23l-.2.12v.23ZM39.56,91.27v-1.09l-.09.05c-.02.17-.12.28-.23.35v.09l.21-.12v.79l.12-.07ZM40.07,90.89c-.16.09-.25.05-.26-.12l-.11.07c0,.25.17.29.38.17.19-.11.34-.31.34-.52,0-.14-.06-.2-.19-.17h0c.09-.09.16-.2.16-.32,0-.19-.14-.22-.31-.12-.21.12-.33.33-.33.55l.11-.06c0-.15.08-.3.22-.38.11-.07.2-.05.2.07s-.07.23-.22.31l-.06.03v.1l.06-.03c.16-.09.25-.07.25.07,0,.15-.09.28-.22.36ZM40.49,90.35l.47-.98.09-.05v.73l.16-.09v.11l-.16.09v.27l-.11.07v-.27l-.44.26v-.12ZM40.6,90.3l.33-.19v-.51h0s-.33.7-.33.7h0ZM41.29,90.27l.13-.08v-.16l-.13.08v.16ZM42.04,88.75v.73l.16-.09v.11l-.16.09v.27l-.11.07v-.27l-.44.26v-.12l.47-.98.09-.05ZM41.92,89.03h0s-.33.7-.33.7h0s.33-.19.33-.19v-.51ZM43.07,89.02c0-.19-.12-.16-.26-.11-.12.04-.19.06-.19-.02,0-.06.04-.14.14-.2.11-.06.16-.04.17.06l.11-.07c-.02-.15-.1-.2-.28-.1-.16.1-.26.24-.26.37,0,.18.12.14.27.09.13-.04.19-.05.19.04,0,.08-.05.16-.16.23-.11.06-.19.07-.2-.07l-.11.07c.01.18.12.22.31.11.16-.09.28-.25.28-.41ZM43.68,89.16v-.36h0c-.05.11-.12.19-.22.25-.19.11-.31.01-.31-.25s.13-.51.31-.61c.1-.06.17-.05.22,0h0v-.11l.11-.06v1.08l-.11.06ZM43.69,88.48c0-.19-.07-.28-.23-.19-.13.08-.2.25-.2.44s.06.28.2.21c.16-.09.22-.27.22-.45ZM43.94,87.92v.57c0,.17.09.22.24.13.1-.06.16-.15.21-.26h0s0,.11,0,.11l.11-.06v-.82l-.11.06v.5c0,.13-.07.27-.19.34-.1.06-.16.03-.16-.08v-.56l-.11.06ZM45.1,87.48c0-.09-.05-.11-.16-.05-.12.07-.17.16-.18.29l-.11.06c0-.16.1-.34.29-.44.15-.09.26-.08.26.11v.46c0,.06.01.1.03.1h0s-.11.07-.11.07c-.01,0-.02-.03-.02-.1h0c-.04.09-.11.19-.23.26-.13.08-.24.06-.24-.09,0-.19.13-.31.31-.44.11-.08.17-.13.17-.22ZM44.94,87.79c-.12.09-.2.15-.2.27,0,.11.08.09.15.05.15-.09.21-.25.21-.34v-.13s-.1.1-.16.15ZM45.46,87.18h0s0-.14,0-.14l-.11.06v.82l.11-.06v-.46c0-.15.1-.3.21-.37.02-.01.03-.02.05-.02h0v-.13s-.02,0-.05.02c-.09.05-.17.16-.21.27ZM46.42,86.94l-.55.32c0,.16.09.24.23.16.1-.06.17-.16.2-.28l.11-.06c-.03.2-.14.36-.31.45-.22.13-.34,0-.34-.23s.13-.51.34-.63c.21-.12.33,0,.33.27ZM46.3,86.91c0-.16-.08-.22-.21-.14-.13.08-.2.23-.22.39l.43-.25ZM47.47,85.87c-.09.05-.17.15-.22.27h0c-.03-.08-.1-.09-.19-.04-.09.05-.16.15-.21.26h0s0-.12,0-.12l-.11.06v.82l.11-.06v-.51c0-.13.1-.28.18-.33.07-.04.12-.01.12.09v.57l.11-.06v-.51c0-.13.08-.27.17-.32.07-.04.13-.02.13.09v.57l.11-.06v-.58c0-.17-.09-.21-.22-.14ZM47.84,85.52l.11-.06v-.16l-.11.06v.16ZM47.84,86.5l.11-.06v-.82l-.11.06v.82ZM48.1,86.34l.11-.06v-1.13l-.11.06v1.13ZM48.99,85.45l-.55.32c0,.16.09.24.23.16.1-.06.17-.16.2-.28l.11-.06c-.03.2-.14.36-.31.45-.22.13-.34,0-.34-.23s.13-.51.34-.63c.21-.12.33,0,.33.27ZM48.87,85.42c0-.16-.08-.22-.21-.14-.13.08-.2.23-.22.39l.43-.25ZM49.39,85.12c-.12.04-.19.06-.19-.02,0-.06.04-.14.14-.2.11-.06.16-.04.17.06l.11-.07c-.02-.15-.1-.2-.28-.1-.16.1-.26.24-.26.37,0,.18.12.14.27.09.13-.04.19-.05.19.04,0,.08-.05.16-.16.23-.11.06-.19.07-.2-.07l-.11.07c.01.18.12.22.31.11.16-.09.28-.25.28-.41,0-.19-.12-.16-.26-.11ZM55.84,3.04v86.53c0,.18-.1.34-.25.43L5.4,118.99c-.08.04-.16.07-.25.07s-.17-.02-.24-.06l-4.65-2.54c-.16-.09-.26-.26-.26-.44V29.48c0-.18.1-.34.25-.43L50.44.07c.15-.09.34-.09.49,0l4.65,2.54c.16.09.26.26.26.44ZM4.9,117.85V32.17s-3.9-2.14-3.9-2.14v85.68l3.9,2.13ZM54.57,3.2l-3.88-2.12L1.27,29.61l3.87,2.12L54.57,3.2ZM54.84,3.62L5.39,32.17v85.67s49.44-28.55,49.44-28.55V3.62Z"/>
    </g>
  </g>
</svg>