<?xml version="1.0" encoding="UTF-8"?>
<svg id="Layer_1" data-name="Layer 1" xmlns="http://www.w3.org/2000/svg" viewBox="0 0 400 852.9">
  <defs>
    <style>
      .cls-1 {
        fill: #101d20;
      }

      .cls-1, .cls-2 {
        stroke-width: 0px;
      }

      .cls-2 {
        fill: #eb5e24;
      }
    </style>
  </defs>
  <g id="_702-orange" data-name="702-orange">
    <polygon class="cls-2" points="396.42 641.74 36.87 849.32 36.87 229.42 396.42 21.84 396.42 641.74"/>
    <path class="cls-1" d="M213.16,674.92l.9-.52-1.96,9.26-.85.49-1.29-4.99c-.11-.42-.26-1.09-.26-1.09h-.02s-.15.86-.27,1.4l-1.38,6.53-.89.51-1.82-7.08.93-.54,1.11,4.64c.12.48.27,1.22.27,1.22h.02s.17-.97.29-1.58l1.27-6,.96-.55,1.23,4.55c.13.47.29,1.23.29,1.23h.02s.17-.98.28-1.55l1.17-5.96ZM290.06,647.27l3.34-7.03.65-.37v5.19l1.11-.64v.76l-1.11.64v1.91l-.81.47v-1.91l-3.18,1.84v-.85ZM290.85,646.9l2.38-1.37v-3.65h-.02s-2.36,4.99-2.36,4.99v.03ZM203.3,682.17c0,.77-.54,1.71-1.23,2.11-.68.39-1.23.08-1.23-.69s.55-1.72,1.23-2.11c.69-.4,1.23-.09,1.23.69ZM202.76,682.49c0-.49-.27-.71-.69-.47-.41.24-.69.77-.69,1.26s.28.71.69.47c.42-.24.69-.76.69-1.26ZM65.36,768.38l.95-.55v-1.13l-.95.55v1.13ZM283.43,653.86v-7.83l-.64.37c-.13,1.22-.84,1.98-1.66,2.48v.64l1.48-.85v5.67l.83-.48ZM62.36,762.95c-1.32.76-1.79,2.26-1.82,4.19h.02c.43-.95,1.04-1.69,1.85-2.16,1.24-.72,2.22-.1,2.22,1.33,0,1.45-1,3.24-2.26,3.97-.74.43-1.28.48-1.68.28-.72-.34-.95-1.27-.95-2.87,0-2.42.9-4.54,2.61-5.53,1.35-.78,2.02-.13,2.13.93l-.82.47c-.06-.7-.51-1.06-1.29-.61ZM60.69,768.61c0,1.1.72,1.45,1.66.9.88-.51,1.52-1.63,1.52-2.73s-.67-1.48-1.55-.97c-.96.56-1.63,1.68-1.63,2.8ZM57.49,798.91l-3.43,1.98v19.51l11.37-6.56v-3.3l-7.94,4.58v-16.21ZM295.76,632.88l-3.66,2.11c.1.84.53,1.15,1.29.71.52-.3.83-.75.98-1.28l1.32-.76c-.19,1.14-.98,2.48-2.28,3.23-1.67.97-2.62.16-2.62-1.58s1.01-3.66,2.49-4.51c1.62-.94,2.49,0,2.49,2.07ZM294.36,632.62c-.04-.72-.46-.98-1.07-.63-.71.41-1.05,1.1-1.17,1.93l2.24-1.3ZM56.53,772.86c-1.11.64-1.81.35-1.84-.88l-.82.47c.03,1.76,1.2,2.05,2.69,1.19,1.37-.79,2.42-2.25,2.42-3.74,0-1.01-.41-1.47-1.36-1.21v-.03c.65-.63,1.11-1.4,1.11-2.28,0-1.35-.99-1.56-2.24-.84-1.49.86-2.38,2.4-2.39,3.94l.81-.47c0-1.08.58-2.14,1.56-2.71.81-.47,1.47-.34,1.47.52s-.53,1.65-1.59,2.26l-.41.24v.74l.42-.24c1.13-.65,1.77-.5,1.77.49,0,1.1-.66,2.02-1.6,2.56ZM84.44,756.22c.4-.73.56-1.7.6-2.88h-.02c-.43.89-1.05,1.61-1.86,2.07-1.24.72-2.23.11-2.24-1.32,0-1.45.99-3.23,2.36-4.02.66-.38,1.17-.44,1.56-.32.77.24,1.01,1.21,1.01,2.95,0,1.58-.28,2.88-.94,3.94-.4.64-.95,1.17-1.59,1.54-1.33.77-2.27.4-2.33-.94l.84-.48c.06.82.57,1.15,1.48.63.51-.3.88-.68,1.14-1.17ZM84.92,751.75c0-1.1-.74-1.43-1.64-.9-.94.54-1.6,1.67-1.6,2.77s.71,1.46,1.59.95c1.01-.59,1.65-1.72,1.65-2.82ZM287.03,651.15c-1.11.64-1.81.35-1.84-.88l-.82.47c.03,1.76,1.2,2.05,2.69,1.19,1.37-.79,2.42-2.25,2.42-3.74,0-1.01-.41-1.47-1.36-1.2v-.03c.65-.62,1.11-1.4,1.11-2.28,0-1.35-.99-1.56-2.24-.84-1.49.86-2.38,2.4-2.39,3.94l.81-.47c0-1.08.58-2.14,1.56-2.71.81-.47,1.47-.33,1.47.52s-.53,1.65-1.58,2.26l-.41.24v.74l.42-.24c1.13-.65,1.77-.5,1.77.49,0,1.1-.66,2.02-1.6,2.56ZM287.71,634.18v5.83l1.34-.77v-2.84c0-1.23.63-2.12,1.51-2.53l.03-.02v-1.35c-.08.01-.17.05-.31.14-.59.34-.94.88-1.24,1.72l-.03.02v-.93l-1.29.75ZM286.12,683.93c.01,1.45-1,3.24-2.26,3.97-.74.43-1.28.48-1.68.28-.72-.34-.96-1.27-.96-2.87,0-2.42.9-4.54,2.61-5.53,1.35-.78,2.02-.13,2.13.93l-.82.47c-.06-.7-.51-1.06-1.29-.61-1.32.76-1.79,2.26-1.82,4.19h.02c.43-.95,1.04-1.69,1.85-2.16,1.24-.72,2.22-.1,2.22,1.33ZM285.36,684.41c0-1.1-.67-1.48-1.55-.97-.96.56-1.63,1.68-1.63,2.8s.72,1.45,1.66.9c.88-.51,1.52-1.62,1.52-2.73ZM286.89,669.09c0,1.54-.88,3.07-2.35,3.93l-1.73,1v2.94l-1.48.85v-8.13l3.09-1.78c.82-.47,1.43-.55,1.84-.3.39.24.63.74.63,1.49ZM285.42,669.95c0-.76-.41-.96-1.12-.55l-1.5.86v2.41l1.48-.85c.75-.43,1.14-1.14,1.14-1.87ZM78.71,759.53c.4-.73.56-1.7.6-2.88h-.02c-.43.89-1.05,1.61-1.86,2.07-1.24.72-2.24.11-2.24-1.32-.01-1.45.99-3.23,2.36-4.02.66-.38,1.17-.44,1.56-.32.77.24,1.01,1.21,1.01,2.95,0,1.58-.28,2.88-.95,3.94-.4.64-.94,1.17-1.58,1.54-1.33.77-2.27.4-2.33-.94l.84-.48c.06.82.57,1.15,1.48.62.51-.3.88-.68,1.14-1.17ZM79.19,755.05c0-1.1-.74-1.43-1.64-.9-.94.54-1.59,1.67-1.59,2.77s.71,1.46,1.59.95c1.01-.59,1.65-1.72,1.65-2.82ZM119.26,776.81l-8.79,5.08c.24,2.02,1.28,2.76,3.1,1.71,1.25-.72,1.99-1.8,2.34-3.07l3.17-1.83c-.45,2.74-2.36,5.95-5.48,7.75-4.02,2.32-6.29.38-6.29-3.79s2.43-8.77,5.98-10.82c3.9-2.25,5.98-.01,5.98,4.98ZM115.9,776.18c-.09-1.72-1.11-2.36-2.58-1.51-1.7.98-2.53,2.63-2.81,4.63l5.39-3.11ZM128.81,763.25l3.1-1.79v12.94c0,1.96-.54,3.62-1.44,5.09-1.02,1.68-2.58,3.07-4.37,4.11-3.31,1.91-5.34,1.45-5.67-1.09l3.19-1.84c.26.72.95,1.01,2.43.15,1.82-1.05,2.69-2.57,2.69-4.48v-1.53l-.07.04c-.71,1.34-1.63,2.58-3.17,3.47-2.69,1.55-5.34.63-5.34-3.6s2.17-8.1,5.25-9.88c1.51-.87,2.62-.83,3.36-.08l.05-.03v-1.47ZM128.9,769.58c0-2.05-.95-3.25-2.88-2.13-1.63.94-2.72,3.04-2.72,5.39s1.09,3.14,2.74,2.18c2.03-1.17,2.86-3.37,2.86-5.44ZM85.24,793.89c-1.73.59-3.33,1.41-3.33.2,0-1.01.83-2.03,2.08-2.76,1.37-.79,2.2-.72,2.34.7l2.91-1.68c-.24-2.68-2.01-3.48-5.2-1.64-2.77,1.6-4.94,4.3-4.94,7.33s2.13,2.51,4.3,1.75c1.65-.57,3.19-1.32,3.19.01,0,.98-.8,2.08-2.22,2.89-1.44.83-2.43.7-2.65-.79l-2.98,1.72c.19,2.86,2.15,3.7,5.67,1.66,3.03-1.75,5.11-4.64,5.11-7.45,0-3.27-2.25-2.63-4.28-1.95ZM96.95,750.14v-8.13l-.83.48v6.7h-.02s-.28-.46-.51-.74l-3.21-3.8-.94.54v8.13l.83-.48v-6.67h.02s.3.43.52.7l3.23,3.8.91-.52ZM87.66,750.34c-.68.39-1.23.09-1.23-.69s.55-1.72,1.23-2.11c.69-.4,1.23-.09,1.23.69s-.54,1.71-1.23,2.11ZM87.66,749.8c.42-.24.69-.76.69-1.26s-.27-.71-.69-.47c-.41.24-.69.77-.69,1.26s.28.71.69.47ZM104.98,771.49l-2.95,13c-.33,1.45-.73,3.53-.73,3.53l-.05.03s-.4-1.6-.73-2.69l-2.98-9.58-3.59,2.07,5.7,16.22,3.12-1.8,5.7-22.8-3.47,2.01ZM145.14,765.44l.07-.04v2.26c-.28.33-.66.71-1.37,1.12-1.54.89-2.32.82-2.58-.4-.64,1.43-1.61,2.92-3.69,4.12-2.48,1.43-4.18.94-4.18-1.84,0-3.08,2.17-5.35,4.87-7.34,2.01-1.49,2.93-2.21,2.93-3.27s-.76-1.23-2.15-.42c-1.51.87-2.22,1.88-2.29,3.29l-2.86,1.65c.07-2.5,1.63-5.55,5.2-7.62,3.69-2.13,5.2-1.12,5.2,2.16v5.73c0,.9.14,1.15.85.6ZM141.27,763.04c-.57.71-1.44,1.43-2.25,2.11-1.68,1.41-2.51,2.29-2.51,3.6s.76,1.34,1.89.68c1.84-1.06,2.86-2.96,2.86-4.33v-2.07ZM190.25,733.56c-.33,1.45-.73,3.53-.73,3.53l-.05.03s-.4-1.6-.73-2.69l-2.98-9.58-3.59,2.07,5.7,16.23,3.12-1.8,5.7-22.8-3.47,2.01-2.95,13ZM186.45,697.84c-1.11.64-1.81.35-1.84-.88l-.82.47c.03,1.76,1.2,2.05,2.69,1.19,1.37-.79,2.42-2.25,2.42-3.74,0-1.01-.41-1.47-1.36-1.21v-.03c.65-.63,1.11-1.4,1.11-2.28,0-1.35-.99-1.56-2.24-.84-1.49.86-2.38,2.4-2.39,3.94l.81-.47c0-1.08.58-2.14,1.56-2.71.81-.47,1.47-.33,1.47.52s-.53,1.65-1.59,2.26l-.41.24v.74l.42-.24c1.13-.65,1.77-.5,1.77.49,0,1.1-.66,2.02-1.59,2.56ZM193.14,693.46c.4-.73.56-1.7.6-2.88h-.02c-.43.89-1.05,1.61-1.86,2.07-1.24.72-2.24.11-2.24-1.32-.01-1.45.99-3.23,2.36-4.02.66-.38,1.17-.44,1.56-.32.77.24,1.01,1.21,1.01,2.95,0,1.58-.28,2.88-.94,3.94-.4.64-.95,1.17-1.59,1.54-1.33.77-2.27.4-2.33-.94l.84-.48c.06.82.57,1.15,1.48.62.51-.3.88-.68,1.14-1.17ZM193.62,688.99c0-1.1-.74-1.43-1.64-.9-.93.54-1.59,1.67-1.59,2.77s.71,1.46,1.59.95c1.01-.59,1.65-1.72,1.65-2.82ZM78.29,804.04l.07-.04v2.26c-.28.33-.66.71-1.37,1.12-1.54.89-2.32.82-2.58-.4-.64,1.43-1.61,2.92-3.69,4.12-2.48,1.43-4.18.94-4.18-1.84,0-3.08,2.17-5.35,4.87-7.34,2.01-1.49,2.93-2.21,2.93-3.27s-.76-1.23-2.15-.42c-1.51.87-2.22,1.88-2.29,3.29l-2.86,1.65c.07-2.5,1.63-5.55,5.2-7.62,3.69-2.13,5.2-1.12,5.2,2.16v5.73c0,.9.14,1.15.85.6ZM74.41,801.64c-.57.71-1.44,1.43-2.25,2.11-1.68,1.41-2.51,2.29-2.51,3.6s.76,1.34,1.89.68c1.84-1.06,2.86-2.96,2.86-4.33v-2.07ZM182.85,700.55v-7.83l-.64.37c-.13,1.22-.84,1.98-1.66,2.48v.64l1.48-.85v5.67l.83-.48ZM200.37,688.21c0,1.77-1.28,3.14-2.52,3.85-1.24.72-2.58.85-2.58-.91,0-1.12.63-2.1,1.39-2.82v-.03c-.63.09-1.05-.24-1.05-1.05,0-1.24.97-2.6,2.22-3.31s2.22-.49,2.22.76c0,.81-.4,1.61-1.03,2.26v.03c.76-.18,1.37.18,1.37,1.23ZM197.82,687.27c.87-.5,1.41-1.29,1.41-2.09s-.54-.96-1.41-.46c-.87.5-1.41,1.29-1.41,2.09s.54.96,1.41.46ZM199.54,688.68c0-1.02-.64-1.29-1.72-.66-1.06.61-1.7,1.62-1.7,2.64s.65,1.23,1.73.6c1.05-.61,1.69-1.58,1.69-2.58ZM179.81,702.31l.95-.55v-1.12l-.95.55v1.13ZM68.4,766.63v-7.83l-.64.37c-.13,1.22-.84,1.98-1.66,2.48v.64l1.48-.85v5.67l.83-.48ZM72.23,757.25c-1.32.76-1.79,2.26-1.82,4.19h.02c.43-.95,1.04-1.69,1.85-2.16,1.24-.72,2.22-.1,2.23,1.33,0,1.45-1,3.24-2.26,3.97-.74.43-1.28.48-1.68.28-.72-.34-.95-1.27-.95-2.87,0-2.42.9-4.54,2.61-5.53,1.35-.78,2.02-.13,2.13.93l-.82.47c-.06-.7-.51-1.06-1.29-.61ZM70.56,762.92c0,1.1.72,1.45,1.66.9.88-.51,1.52-1.62,1.52-2.73s-.67-1.48-1.55-.97c-.96.56-1.63,1.68-1.63,2.8ZM302.83,670.46v.64l1.48-.85v5.67l.83-.48v-7.83l-.64.37c-.13,1.22-.84,1.98-1.66,2.48ZM367.28,639.57l3.76-2.17v-19.51l-3.76,2.17v19.51ZM353.82,609.75c-.88.3-1.37.46-1.37-.18,0-.47.3-1.01,1.02-1.43.76-.44,1.12-.31,1.2.42l.82-.47c-.12-1.08-.74-1.41-2-.69-1.18.68-1.83,1.69-1.83,2.67,0,1.28.9,1.01,1.9.67.94-.31,1.33-.37,1.33.29,0,.55-.34,1.16-1.18,1.65-.76.44-1.35.49-1.46-.47l-.82.47c.08,1.27.86,1.58,2.25.78,1.17-.68,2.01-1.76,2.01-2.95,0-1.35-.86-1.12-1.88-.77ZM344.6,618.54l.8-.46v-8.13l-.8.46v8.13ZM350.98,612.14l-3.94,2.27c.06,1.16.62,1.74,1.64,1.15.74-.43,1.23-1.12,1.41-2.02l.78-.45c-.24,1.4-1.03,2.57-2.19,3.24-1.56.9-2.46.03-2.46-1.67s.96-3.65,2.41-4.48c1.53-.88,2.34.01,2.34,1.96ZM350.12,611.94c-.05-1.14-.57-1.56-1.49-1.03-.95.55-1.46,1.66-1.58,2.8l3.06-1.77ZM375.88,634.61l3.76-2.17v-19.51l-3.76,2.17v19.51ZM371.58,637.09l3.76-2.17v-19.51l-3.76,2.17v19.51ZM332.52,622.8l-3.94,2.27c.06,1.16.62,1.75,1.64,1.15.74-.43,1.23-1.12,1.41-2.02l.78-.45c-.24,1.4-1.03,2.57-2.19,3.24-1.56.9-2.46.03-2.46-1.67s.96-3.65,2.41-4.48c1.53-.88,2.34.01,2.34,1.96ZM331.66,622.6c-.05-1.14-.57-1.56-1.49-1.03-.94.55-1.46,1.66-1.57,2.8l3.06-1.77ZM342.69,612.65l.8-.46v-1.14l-.8.46v1.14ZM327.76,647.58l1.44-.83v-1.65l-1.44.83v1.65ZM382.21,614.77l-.39.22v-2.4l.98-.57c.39-.23.67-.13.67.29,0,.29-.12.56-.39.82h0c.23-.05.31.06.33.34.03.33.04.51.09.52v.03l-.39.23s-.05-.2-.08-.51c-.02-.28-.13-.33-.39-.18l-.44.25v.95ZM382.21,613.47l.5-.29c.25-.14.37-.36.37-.58,0-.24-.1-.31-.35-.17l-.52.3v.75ZM342.69,619.64l.8-.46v-5.88l-.8.46v5.88ZM340.08,615.13c-.62.36-1.23,1.09-1.56,1.94h-.02c-.22-.55-.71-.63-1.33-.27-.64.37-1.18,1.09-1.5,1.84h-.02s0-.83,0-.83l-.8.46v5.88l.8-.46v-3.66c0-.92.69-1.98,1.31-2.34.52-.3.88-.07.88.65v4.08l.8-.46v-3.66c0-.92.59-1.92,1.25-2.3.51-.3.94-.11.94.62v4.08l.8-.46v-4.13c0-1.22-.64-1.52-1.55-1ZM327.76,651.01l1.44-.83v-1.65l-1.44.83v1.65ZM145.95,757.44c0,3.06,2.13,2.51,4.3,1.75,1.65-.57,3.19-1.32,3.19.01,0,.98-.8,2.07-2.22,2.89-1.44.83-2.43.7-2.65-.79l-2.98,1.72c.19,2.87,2.15,3.7,5.67,1.66,3.03-1.75,5.11-4.64,5.11-7.45,0-3.27-2.25-2.63-4.28-1.95-1.73.59-3.33,1.41-3.33.2,0-1.01.83-2.03,2.08-2.76,1.37-.79,2.2-.72,2.34.7l2.91-1.68c-.24-2.68-2.01-3.48-5.2-1.64-2.77,1.6-4.94,4.3-4.94,7.33ZM157.65,763.79v1.34c1.82-1.43,3.43-3.94,3.43-6.73v-3.74l-3.45,1.99v3.96l1.73-1c0,1.69-.78,3.1-1.7,4.18ZM170.58,743.06c0-1.36-.09-3.36-.09-3.36l.05-.03s.66,1.28,1.21,2.01l5.77,7.45,3.31-1.91v-19.51l-3.38,1.95v10.23c0,1.37.09,3.33.09,3.33l-.05.03s-.64-1.3-1.18-2.05l-5.63-7.64-3.47,2.01v19.51l3.38-1.95v-10.07ZM95.54,259.38l15.42-8.9v115.06c0,82.7-33.58,133.85-33.58,220.74v154.01l41.84-24.16v-160c0-73.11,33.58-120.06,33.58-220.74v-153.41l-99.1,57.22v170.79l41.84-24.16v-126.44ZM168.92,708.59l.83-.48v-7.83l-.64.37c-.13,1.22-.84,1.98-1.66,2.48v.64l1.48-.85v5.67ZM400,21.81v619.91c0,1.28-.68,2.46-1.79,3.1L38.66,852.42c-.55.32-1.17.48-1.79.48s-1.18-.15-1.72-.44l-33.29-18.22c-1.15-.63-1.86-1.83-1.86-3.14V211.19c0-1.28.68-2.46,1.79-3.1L361.34.48c1.08-.63,2.41-.64,3.51-.04l33.29,18.22c1.15.63,1.86,1.83,1.86,3.14ZM35.08,844.26l-.02-613.79-27.89-15.3v613.81l27.92,15.28ZM390.95,22.89l-27.78-15.2L9.1,212.15l27.72,15.21L390.95,22.89ZM392.84,25.94L38.64,230.45l.02,613.71,354.17-204.51V25.94ZM167.66,633.62V227.93c0-39.55,18.17-68.62,49.55-86.74,31.38-18.12,49.55-10.03,49.55,29.52v405.69c0,39.55-18.17,68.62-49.55,86.73-31.38,18.12-49.55,10.03-49.55-29.52ZM209.5,609.46c0,11.39,1.65,12.83,7.71,9.33,6.61-3.81,7.71-6.85,7.71-18.23V194.87c0-11.39-1.65-12.83-7.71-9.33-6.61,3.81-7.71,7.45-7.71,18.23v405.69ZM173.16,706.15v-7.83l-.64.37c-.13,1.22-.84,1.98-1.66,2.48v.64l1.48-.85v5.67l.83-.48ZM380.17,335.35l-41.84,24.16v185.77l-15.42,8.9v-170.19c0-55.13,57.26-103.77,57.26-162.5v-116.25c0-39.55-18.17-47.64-49.55-29.52-31.38,18.12-49.55,47.18-49.55,86.74v116.25l41.84-24.16v-116.25c0-10.79,1.1-14.42,7.71-18.23,6.06-3.5,7.71-2.05,7.71,9.33v116.26c0,40.75-57.26,93.58-57.26,162.5v214.53l99.1-57.22v-230.11ZM282.26,643.15l-1.45.84,2.45-9.54,1.48-.85,2.48,6.7-1.49.86-.47-1.46-2.54,1.47-.46,2ZM283.06,639.7l1.86-1.07-.63-1.98c-.12-.36-.29-1.09-.29-1.09h-.02s-.18.93-.3,1.43l-.63,2.71ZM380.73,614.44c0-1.27.82-2.68,1.87-3.29s1.88-.15,1.88,1.12-.83,2.68-1.88,3.29c-1.05.61-1.87.14-1.87-1.12ZM380.97,614.3c0,1.13.7,1.55,1.63,1.02.94-.54,1.63-1.78,1.63-2.9s-.7-1.57-1.63-1.03c-.93.54-1.63,1.79-1.63,2.92ZM174.97,702.85l-.82.47c.06,1.41,1.08,1.8,2.48.99,1.4-.81,2.42-2.44,2.42-4.1s-1.09-2.09-2.29-1.39c-.65.37-1.16.91-1.55,1.55h-.02s.44-2.59.44-2.59l3.01-1.74v-.85l-3.59,2.07-.75,4.62.8-.46c.29-.63.79-1.26,1.52-1.68.89-.51,1.59-.23,1.59.94s-.62,2.24-1.59,2.8c-.95.55-1.55.28-1.65-.63ZM292.38,668.52c0,1.74-1.07,3.7-2.64,4.6-1.57.9-2.64.18-2.64-1.56s1.07-3.7,2.64-4.6c1.56-.9,2.64-.18,2.64,1.56ZM291.02,669.31c0-1.14-.46-1.64-1.28-1.17-.83.48-1.28,1.51-1.28,2.65s.45,1.64,1.28,1.16c.82-.47,1.28-1.5,1.28-2.64ZM301.53,632.03l1.44-.83v-1.65l-1.44.83v1.65ZM301.53,628.61l1.44-.83v-1.65l-1.44.83v1.65ZM295.81,646.71l.96-.55v-1.13l-.96.55v1.13ZM295.5,681.01l.45-.26c0,.64-.23.98-.44,1.2v.51c.56-.45.94-1.14.94-1.97v-1.16l-.96.55v1.13ZM303.11,665.24v-5.83l-1.34.77v3.37c0,.77-.38,1.54-1.01,1.9-.57.33-.84.11-.84-.57v-3.63l-1.33.77v3.89c0,1.27.63,1.74,1.75,1.09.71-.41,1.1-.94,1.45-1.68l.03-.02v.68l1.29-.75ZM304,664.73l1.34-.77v-8.13l-1.34.77v8.13ZM300.82,673.77v-.03c.65-.63,1.11-1.4,1.11-2.28,0-1.35-.99-1.56-2.24-.84-1.49.86-2.38,2.4-2.39,3.94l.81-.47c0-1.08.58-2.14,1.56-2.71.81-.47,1.47-.33,1.47.52s-.53,1.65-1.58,2.26l-.41.24v.74l.42-.24c1.13-.65,1.77-.5,1.77.49,0,1.1-.66,2.02-1.6,2.56-1.11.64-1.81.35-1.84-.88l-.82.47c.03,1.76,1.2,2.05,2.69,1.19,1.37-.79,2.42-2.25,2.42-3.74,0-1.01-.41-1.47-1.36-1.21ZM289.35,679.31c-.65.37-1.16.91-1.55,1.55h-.02s.44-2.59.44-2.59l3.01-1.74v-.85l-3.59,2.08-.75,4.62.8-.46c.29-.63.79-1.26,1.52-1.68.89-.51,1.59-.23,1.59.94s-.62,2.24-1.59,2.8c-.95.55-1.55.28-1.65-.63l-.82.47c.06,1.41,1.08,1.8,2.48.99,1.4-.81,2.42-2.44,2.42-4.1s-1.09-2.09-2.29-1.39ZM292,676.72v.64l1.48-.85v5.67l.83-.48v-7.83l-.64.37c-.13,1.22-.84,1.98-1.66,2.48ZM301.15,635.76v5.2l1.11-.64v.76l-1.11.64v1.91l-.81.47v-1.91l-3.18,1.84v-.85l3.34-7.03.65-.38ZM300.34,637.77h-.02s-2.36,4.99-2.36,4.99v.03l2.38-1.38v-3.65ZM299.38,629.08c0-.42-.32-.51-.9-.18-.63.36-.93.79-.96,1.37l-1.19.69c.03-1.04.68-2.31,2.17-3.17,1.54-.89,2.17-.47,2.17.9v2.39c0,.38.06.48.35.25l.03-.02v.94c-.12.14-.28.3-.57.47-.64.37-.96.34-1.07-.16-.27.6-.67,1.22-1.54,1.72-1.03.6-1.74.39-1.74-.77,0-1.28.91-2.23,2.03-3.06.84-.62,1.22-.92,1.22-1.37ZM298.48,631.21c-.7.59-1.04.95-1.04,1.5s.31.56.79.29c.77-.44,1.19-1.23,1.19-1.8v-.86c-.24.3-.6.6-.94.88ZM325.68,624.56h-.02s0-.97,0-.97l-.8.46v5.88l.8-.46v-3.26c0-1.1.69-2.18,1.48-2.64.16-.09.24-.13.36-.15l.03-.02v-.89c-.1.01-.18.03-.32.12-.68.39-1.21,1.18-1.52,1.92ZM295.82,669.62c-.71.41-1.17.35-1.46.01h-.02v2.58l-1.34.77v-7.74l1.29-.74v.73l.03-.02c.32-.7.8-1.35,1.49-1.75,1.34-.77,2.19,0,2.19,1.81s-.89,3.59-2.18,4.34ZM295.53,668.5c.68-.39,1.11-1.29,1.11-2.39s-.33-1.68-1.16-1.21c-.84.48-1.17,1.51-1.17,2.55s.42,1.51,1.22,1.05ZM321.78,651.55c0,1.74-1.07,3.7-2.64,4.6-1.57.9-2.64.18-2.64-1.56s1.07-3.7,2.64-4.6c1.56-.9,2.64-.18,2.64,1.56ZM320.42,652.33c0-1.14-.46-1.64-1.28-1.17-.83.48-1.28,1.51-1.28,2.65s.45,1.64,1.28,1.16c.82-.47,1.28-1.5,1.28-2.64ZM314.8,629.86v4.07c0,1.22.67,1.56,1.71.95.74-.43,1.17-1.05,1.54-1.83h.02s0,.8,0,.8l.8-.46v-5.88l-.8.46v3.61c0,.93-.52,1.94-1.33,2.4-.72.42-1.14.22-1.14-.55v-4.05l-.8.46ZM325.24,646.47c-.69.4-1.15.99-1.5,1.82l-.03.02v-.79l-1.31.76v5.83l1.34-.77v-3.31c0-.8.43-1.59,1.02-1.93.56-.32.88-.06.88.56v3.58l1.34-.77v-3.81c0-1.27-.7-1.78-1.74-1.18ZM314.54,651.9l1.34-.77v-1.39l-1.34.77v1.39ZM323.08,626.7c0-.66-.38-.81-1.11-.39-.83.48-1.25,1.14-1.31,2.05l-.77.44c.06-1.14.72-2.4,2.07-3.18,1.08-.63,1.85-.6,1.85.8v3.28c0,.43.1.68.19.7v.03l-.78.45c-.09-.05-.15-.21-.16-.72h0c-.31.64-.79,1.38-1.65,1.88-.97.56-1.75.45-1.75-.66,0-1.37.95-2.23,2.23-3.12.78-.54,1.2-.93,1.2-1.57ZM321.91,628.93c-.88.63-1.42,1.1-1.42,1.94,0,.78.54.68,1.06.37,1.06-.61,1.54-1.78,1.54-2.47v-.9c-.27.31-.74.73-1.18,1.05ZM309.22,657.53c0-.42-.31-.51-.9-.18-.63.36-.93.79-.96,1.37l-1.19.69c.03-1.04.68-2.31,2.17-3.17,1.54-.89,2.17-.47,2.17.9v2.39c0,.38.06.48.35.25l.03-.02v.94c-.12.14-.28.3-.57.47-.64.37-.97.34-1.07-.16-.27.6-.67,1.22-1.54,1.72-1.03.6-1.74.39-1.74-.77,0-1.28.91-2.23,2.03-3.06.84-.62,1.22-.92,1.22-1.37ZM308.32,659.65c-.7.59-1.04.95-1.04,1.5s.32.56.79.28c.77-.44,1.19-1.23,1.19-1.8v-.86c-.24.3-.6.6-.94.88ZM308.52,637.75c0-1.35-.86-1.12-1.88-.77-.88.3-1.37.46-1.37-.18,0-.47.3-1.01,1.02-1.43.76-.44,1.12-.31,1.2.42l.82-.47c-.12-1.08-.74-1.41-2-.69-1.18.68-1.83,1.69-1.83,2.67,0,1.28.9,1.01,1.9.66.94-.31,1.33-.37,1.33.29,0,.55-.34,1.16-1.18,1.65-.76.44-1.35.49-1.46-.47l-.82.47c.08,1.27.86,1.58,2.25.78,1.17-.68,2.01-1.76,2.01-2.94ZM312.95,638.7v-2.6h-.02c-.38.8-.85,1.39-1.58,1.81-1.38.8-2.22.07-2.22-1.81s.95-3.64,2.19-4.35c.74-.43,1.25-.38,1.6,0h.02v-.79l.8-.46v7.76l-.8.46ZM313,633.87c0-1.36-.5-2.03-1.61-1.39-.96.56-1.43,1.82-1.43,3.14s.46,2.04,1.44,1.48c1.17-.68,1.6-1.9,1.6-3.23ZM310.22,665.12c.77.24,1.01,1.21,1.01,2.95,0,1.58-.28,2.88-.95,3.94-.4.64-.94,1.17-1.58,1.54-1.33.77-2.27.4-2.33-.94l.84-.48c.06.82.57,1.15,1.48.63.51-.3.88-.68,1.14-1.17.4-.73.56-1.7.6-2.88h-.02c-.43.89-1.05,1.61-1.86,2.07-1.24.72-2.23.11-2.24-1.32,0-1.45.99-3.23,2.36-4.02.66-.38,1.17-.44,1.56-.32ZM310.31,667.12c0-1.1-.74-1.43-1.64-.9-.94.54-1.6,1.67-1.6,2.77s.71,1.46,1.59.95c1.01-.59,1.65-1.72,1.65-2.82ZM312.99,657.82v-3.09l.87-.5v-1.02l-.87.5v-1.82l-1.31.76v1.82l-.7.4v1.02l.7-.4v3.42c0,1.1.72.98,1.37.61.53-.31.84-.51.84-.51v-1.14s-.23.14-.39.24c-.3.17-.5.14-.5-.29ZM314.54,658.64l1.34-.77v-5.83l-1.34.77v5.83Z"/>
  </g>
</svg>