<?xml version="1.0" encoding="UTF-8"?>
<svg id="Layer_2" data-name="Layer 2" xmlns="http://www.w3.org/2000/svg" viewBox="0 0 55.84 119.06">
  <defs>
    <style>
      .cls-1, .cls-2, .cls-3 {
        stroke-width: 0px;
      }

      .cls-2 {
        fill: #171b1e;
      }

      .cls-3 {
        fill: #e6e7e8;
      }
    </style>
  </defs>
  <g id="Layer_1-2" data-name="Layer 1">
    <g>
      <g>
        <polygon class="cls-2" points="55.34 89.58 5.15 118.56 5.15 32.02 55.34 3.05 55.34 89.58"/>
        <g>
          <path class="cls-3" d="M14.41,28.89c4.38-2.53,6.92-1.48,6.92,4.12v17.06c0,2.43-1.15,5.1-3.23,7.3,2.08-.19,3.23,1.32,3.23,3.57v28.69c0,5.44-2.54,9.58-6.92,12.11s-6.92,1.32-6.92-4.12v-28.69c0-2.26,1.15-5.1,3.23-7.3-2.08.19-3.23-1.15-3.23-3.57v-17.06c0-5.6,2.54-9.58,6.92-12.11ZM14.41,35.08c-.92.53-1.08,1.12-1.08,2.55v17.65c0,1.42.15,1.84,1.08,1.3.85-.49,1.08-.96,1.08-2.55v-17.65c0-1.59-.23-1.79-1.08-1.3ZM14.41,95.56c.85-.49,1.08-.96,1.08-2.55v-29.28c0-1.51-.15-1.84-1.08-1.3-.85.49-1.08.96-1.08,2.55v29.28c0,1.51.15,1.84,1.08,1.3Z"/>
          <path class="cls-3" d="M30.24,92.61c-4.38,2.53-6.92,1.4-6.92-4.12V31.86c0-5.52,2.54-9.58,6.92-12.11,4.38-2.53,6.92-1.4,6.92,4.12v56.63c0,5.52-2.54,9.58-6.92,12.11ZM30.24,25.94c-.92.53-1.08,1.04-1.08,2.55v56.63c0,1.59.23,1.79,1.08,1.3.92-.53,1.08-.96,1.08-2.55V27.25c0-1.59-.23-1.79-1.08-1.3Z"/>
          <path class="cls-3" d="M46.08,10.61c4.38-2.53,6.92-1.48,6.92,4.12v17.06c0,2.43-1.15,5.1-3.23,7.3,2.08-.19,3.23,1.32,3.23,3.57v28.69c0,5.44-2.54,9.58-6.92,12.11-4.38,2.53-6.92,1.32-6.92-4.12v-28.69c0-2.26,1.15-5.1,3.23-7.3-2.08.19-3.23-1.15-3.23-3.57v-17.06c0-5.6,2.54-9.58,6.92-12.11ZM46.08,16.8c-.92.53-1.08,1.12-1.08,2.55v17.65c0,1.42.15,1.84,1.08,1.3.85-.49,1.08-.96,1.08-2.55v-17.65c0-1.59-.23-1.79-1.08-1.3ZM46.08,77.28c.85-.49,1.08-.96,1.08-2.55v-29.28c0-1.51-.15-1.84-1.08-1.3-.85.49-1.08.96-1.08,2.55v29.28c0,1.51.15,1.84,1.08,1.3Z"/>
        </g>
        <g>
          <path class="cls-3" d="M7.55,111.8l.48-.28v1.07s.93-.54.93-.54v-1.07l.48-.28v2.72s-.48.28-.48.28v-1.2s-.93.54-.93.54v1.2l-.48.28v-2.72Z"/>
          <path class="cls-3" d="M9.68,112.32c0-.58.36-1.24.88-1.54s.88-.06.88.52c0,.58-.36,1.24-.88,1.54s-.88.06-.88-.52ZM10.99,111.56c0-.38-.16-.55-.43-.39s-.43.51-.43.89c0,.38.15.55.43.39s.43-.5.43-.88Z"/>
          <path class="cls-3" d="M12.09,110.21h0c.12-.28.27-.48.5-.62.35-.2.58-.03.58.39v1.28l-.45.26v-1.2c0-.21-.11-.3-.29-.19-.2.11-.34.38-.34.65v1.11l-.45.26v-1.95l.44-.25v.27Z"/>
          <path class="cls-3" d="M13.38,110.18c0-.58.36-1.24.88-1.54s.88-.06.88.52c0,.58-.36,1.24-.88,1.54s-.88.06-.88-.52ZM14.69,109.42c0-.38-.16-.55-.43-.39s-.43.51-.43.89c0,.38.15.55.43.39s.43-.5.43-.88Z"/>
          <path class="cls-3" d="M15.36,107.28l.45-.26v2.72s-.45.26-.45.26v-2.72Z"/>
          <path class="cls-3" d="M17.18,108.96v-.23h0c-.12.25-.25.43-.49.57-.38.22-.59.06-.59-.37v-1.3l.45-.26v1.22c0,.23.09.3.28.19.21-.12.34-.38.34-.64v-1.13l.45-.26v1.95l-.43.25Z"/>
          <path class="cls-3" d="M17.91,105.81l.45-.26v2.72s-.45.26-.45.26v-2.72Z"/>
          <path class="cls-3" d="M19.72,107.49v-.23h0c-.12.25-.25.43-.49.57-.38.22-.59.06-.59-.37v-1.3l.45-.26v1.22c0,.23.09.3.28.19.21-.12.34-.38.34-.64v-1.13l.45-.26v1.95l-.43.25Z"/>
          <path class="cls-3" d="M20.42,107.53c.13-.15.24-.35.24-.58l-.24.14v-.55l.48-.28v.52c0,.39-.22.74-.48.94v-.19Z"/>
          <path class="cls-3" d="M21.76,103.59l.48-.28v1.07s.93-.54.93-.54v-1.07l.48-.28v2.72s-.48.28-.48.28v-1.2s-.93.54-.93.54v1.2l-.48.28v-2.72Z"/>
          <path class="cls-3" d="M24.01,102.29l.48-.28v2.72l-.48.28v-2.72Z"/>
        </g>
        <g>
          <path class="cls-3" d="M7.89,107.46c.12-.15.2-.25.2-.38s-.08-.18-.2-.11c-.07.04-.12.09-.15.15-.04.07-.05.14-.05.25l-.12.07c0-.14.03-.25.09-.35.06-.1.15-.19.24-.24.19-.11.31-.04.31.15,0,.21-.12.35-.27.53-.1.12-.23.29-.26.42l.51-.3v.13l-.65.38c.01-.3.19-.51.35-.71Z"/>
          <path class="cls-3" d="M8.51,106.82l-.21.12v-.09c.12-.07.21-.18.23-.35l.09-.05v1.09l-.12.07v-.79Z"/>
          <path class="cls-3" d="M8.8,107.29l.13-.08v.16l-.13.08v-.16Z"/>
          <path class="cls-3" d="M9.02,106.96l.11-.07c0,.17.1.21.26.12.13-.08.22-.2.22-.36,0-.14-.09-.16-.25-.07l-.06.03v-.1l.06-.03c.15-.08.22-.2.22-.32s-.09-.14-.2-.07c-.14.08-.22.23-.22.38l-.11.07c0-.22.13-.43.33-.55.17-.1.31-.07.31.12,0,.12-.06.23-.16.32h0c.13-.03.19.03.19.17,0,.21-.15.41-.34.52-.21.12-.37.08-.38-.17Z"/>
          <path class="cls-3" d="M9.83,106.31c0-.35.14-.65.37-.78s.36,0,.36.36c0,.35-.13.64-.37.78s-.37-.01-.37-.36ZM10.44,105.95c0-.28-.08-.41-.24-.31s-.25.32-.25.6c0,.28.08.41.25.31s.24-.31.24-.59Z"/>
          <path class="cls-3" d="M10.82,106.21c-.1-.05-.13-.18-.13-.4,0-.34.13-.63.36-.77.19-.11.28-.02.3.13l-.11.07c0-.1-.07-.15-.18-.08-.18.11-.25.32-.25.58h0c.06-.13.15-.24.26-.3.17-.1.31-.01.31.19,0,.2-.14.45-.32.55-.1.06-.18.07-.24.04ZM11.26,105.68c0-.15-.09-.21-.22-.14-.13.08-.23.23-.23.39s.1.2.23.13c.12-.07.21-.23.21-.38Z"/>
          <path class="cls-3" d="M11.47,105.61l.12-.07c0,.11.08.16.21.09.07-.04.12-.09.16-.16.06-.1.08-.24.08-.4h0c-.06.12-.15.22-.26.29-.17.1-.31.02-.31-.18,0-.2.14-.45.33-.56.09-.05.16-.06.22-.04.11.03.14.17.14.41,0,.22-.04.4-.13.55-.06.09-.13.16-.22.21-.19.11-.32.06-.33-.13ZM12.02,104.84c0-.15-.1-.2-.23-.13s-.22.23-.22.39.1.2.22.13c.14-.08.23-.24.23-.39Z"/>
          <path class="cls-3" d="M12.24,104.55c0-.11.08-.24.17-.29s.17-.01.17.1c0,.11-.08.24-.17.29s-.17.01-.17-.1ZM12.5,104.39c0-.07-.04-.1-.1-.06s-.1.11-.1.18.04.1.1.07.1-.11.1-.18Z"/>
          <path class="cls-3" d="M12.94,103.92l.13-.08.45.53s.07.1.07.1h0v-.94l.12-.07v1.13l-.13.07-.45-.53s-.07-.1-.07-.1h0v.93l-.12.07v-1.13Z"/>
        </g>
        <g>
          <path class="cls-3" d="M23.58,98.12l-.21.12v-.09c.12-.07.21-.18.23-.35l.09-.05v1.09l-.12.07v-.79Z"/>
          <path class="cls-3" d="M23.83,98.45l.11-.07c.02.13.1.16.23.09s.22-.23.22-.39-.1-.2-.22-.13c-.1.06-.17.15-.21.23l-.11.06.1-.64.5-.29v.12l-.42.24-.06.36h0c.05-.09.13-.17.22-.22.17-.1.32-.05.32.19s-.14.46-.34.57-.34.06-.35-.14Z"/>
          <path class="cls-3" d="M25.12,97.06h0s-.54.31-.54.31v-.12l.66-.38v.11c-.19.31-.38.77-.4,1.21l-.12.07c.02-.39.19-.88.4-1.2Z"/>
          <path class="cls-3" d="M25.23,97.8l.13-.08v.16l-.13.08v-.16Z"/>
          <path class="cls-3" d="M25.47,97.51c0-.16.09-.29.19-.39h0c-.09,0-.15-.04-.15-.15,0-.17.14-.36.31-.46s.31-.07.31.11c0,.11-.06.22-.14.31h0c.11-.02.19.03.19.18,0,.25-.18.44-.35.54s-.36.12-.36-.13ZM26.07,97.17c0-.14-.09-.18-.24-.09s-.24.23-.24.37.09.17.24.08.24-.22.24-.36ZM26.02,96.68c0-.11-.08-.13-.2-.06s-.2.18-.2.29.08.13.2.06.2-.18.2-.29Z"/>
          <path class="cls-3" d="M26.26,97.05l.11-.07c.02.13.1.16.23.09s.22-.23.22-.39-.1-.2-.22-.13c-.1.06-.17.15-.21.23l-.11.06.1-.64.5-.29v.12l-.42.24-.06.36h0c.05-.09.13-.17.22-.22.17-.1.32-.05.32.19s-.14.46-.34.57-.34.06-.35-.14Z"/>
          <path class="cls-3" d="M27.04,96.61c0-.16.09-.29.19-.39h0c-.09,0-.15-.04-.15-.15,0-.17.14-.36.31-.46s.31-.07.31.11c0,.11-.06.22-.14.31h0c.11-.02.19.03.19.18,0,.25-.18.44-.35.54s-.36.12-.36-.13ZM27.63,96.26c0-.14-.09-.18-.24-.09s-.24.23-.24.37.09.17.24.08.24-.22.24-.36ZM27.59,95.77c0-.11-.08-.13-.2-.06s-.2.18-.2.29.08.13.2.06.2-.18.2-.29Z"/>
          <path class="cls-3" d="M27.82,96.11l.11-.07c0,.17.1.21.26.12.13-.08.22-.2.22-.36,0-.14-.09-.16-.25-.07l-.06.03v-.1l.06-.03c.15-.08.22-.2.22-.31s-.09-.14-.2-.07c-.14.08-.22.23-.22.38l-.11.07c0-.22.13-.43.33-.55.17-.1.31-.07.31.12,0,.12-.06.23-.16.32h0c.13-.03.19.03.19.17,0,.21-.15.41-.34.52-.21.12-.37.08-.38-.17Z"/>
          <path class="cls-3" d="M28.61,95.09c0-.11.08-.24.17-.29s.17-.01.17.1-.08.24-.17.29-.17.01-.17-.1ZM28.88,94.94c0-.07-.04-.1-.1-.06s-.1.11-.1.18.04.1.1.07.1-.11.1-.18Z"/>
          <path class="cls-3" d="M29.24,94.51l.13-.07.16.65c.02.07.04.17.04.17h0s.02-.14.04-.22l.18-.84.13-.08.17.64c.02.07.04.17.04.17h0s.02-.14.04-.22l.16-.83.13-.07-.27,1.29-.12.07-.18-.7c-.02-.06-.04-.15-.04-.15h0s-.02.12-.04.2l-.19.91-.12.07-.25-.99Z"/>
        </g>
        <g>
          <path class="cls-3" d="M39.27,93.48l.43-.25c.11-.07.2-.08.26-.04.06.03.09.1.09.21,0,.21-.12.43-.33.55l-.24.14v.41l-.21.12v-1.13ZM39.48,93.9l.21-.12c.1-.06.16-.16.16-.26s-.06-.13-.16-.08l-.21.12v.34Z"/>
          <path class="cls-3" d="M40.08,93.75c0-.24.15-.52.37-.64s.37-.03.37.22c0,.24-.15.52-.37.64s-.37.03-.37-.22ZM40.62,93.43c0-.16-.06-.23-.18-.16s-.18.21-.18.37c0,.16.06.23.18.16s.18-.21.18-.37Z"/>
          <path class="cls-3" d="M40.9,92.86l.18-.1v.1s0,0,0,0c.05-.1.11-.19.21-.24.19-.11.31,0,.31.25,0,.26-.12.5-.31.61-.1.06-.16.05-.2,0h0v.36l-.19.11v-1.08ZM41.41,92.98c0-.15-.05-.23-.16-.17s-.16.21-.16.36c0,.15.06.21.17.15.09-.05.16-.18.16-.33Z"/>
          <path class="cls-3" d="M42.13,92.97v-.1s0,0,0,0c-.05.1-.1.18-.2.23-.16.09-.24.03-.24-.15v-.54l.19-.11v.51c0,.1.04.13.12.08.09-.05.14-.16.14-.27v-.47l.19-.11v.81l-.18.1Z"/>
          <path class="cls-3" d="M42.44,91.66l.19-.11v1.13l-.19.11v-1.13Z"/>
          <path class="cls-3" d="M43.17,92.27c-.04.08-.09.17-.21.24-.14.08-.24.05-.24-.11,0-.18.13-.31.28-.43.12-.09.17-.13.17-.19,0-.06-.04-.07-.12-.02-.09.05-.13.11-.13.19l-.17.1c0-.15.09-.32.3-.44s.3-.07.3.13v.33c0,.05,0,.07.05.04h0s0,.13,0,.13c-.02.02-.04.04-.08.06-.09.05-.13.05-.15-.02ZM43.17,92.08v-.12s-.08.08-.13.12c-.1.08-.15.13-.15.21s.04.08.11.04c.11-.06.17-.17.17-.25Z"/>
          <path class="cls-3" d="M43.41,91.41l.1-.06v-.25l.18-.11v.25l.12-.07v.14l-.12.07v.43c0,.06.03.06.07.04.02-.01.05-.03.05-.03v.16s-.04.03-.12.07c-.09.05-.19.07-.19-.08v-.48s-.1.06-.1.06v-.14Z"/>
          <path class="cls-3" d="M43.91,90.81l.19-.11v.19l-.19.11v-.19ZM43.91,91.13l.19-.11v.81l-.19.11v-.81Z"/>
          <path class="cls-3" d="M44.18,91.38c0-.24.15-.52.37-.64s.37-.03.37.22-.15.52-.37.64-.37.03-.37-.22ZM44.73,91.06c0-.16-.06-.23-.18-.16s-.18.21-.18.37.06.23.18.16.18-.21.18-.37Z"/>
          <path class="cls-3" d="M45.19,90.5h0c.05-.12.11-.2.21-.26.15-.08.24-.01.24.16v.53l-.19.11v-.5c0-.09-.04-.12-.12-.08-.08.05-.14.16-.14.27v.46l-.19.11v-.81l.18-.11v.11Z"/>
          <path class="cls-3" d="M45.75,90.17l.2-.12v.23l-.2.12v-.23ZM45.75,90.64l.2-.12v.23l-.2.12v-.23Z"/>
          <path class="cls-3" d="M39.22,95.88l.11-.07c0,.17.1.21.26.12.13-.08.22-.2.22-.36,0-.14-.09-.16-.25-.07l-.06.03v-.1l.06-.03c.15-.08.22-.2.22-.31s-.09-.14-.2-.07c-.14.08-.22.23-.22.38l-.11.07c0-.22.13-.43.33-.55.17-.1.31-.07.31.12,0,.12-.06.23-.16.32h0c.13-.03.19.03.19.17,0,.21-.15.41-.34.52-.21.12-.37.08-.38-.17Z"/>
          <path class="cls-3" d="M40.01,95.46l.11-.07c.02.13.1.16.23.09s.22-.23.22-.39-.1-.2-.22-.13c-.1.06-.17.15-.21.23l-.11.06.1-.64.5-.29v.12l-.42.24-.06.36h0c.05-.09.12-.17.22-.22.17-.1.32-.05.32.19s-.14.46-.34.57-.34.06-.35-.14Z"/>
          <path class="cls-3" d="M40.95,94.44l-.21.12v-.09c.12-.07.21-.18.23-.35l.09-.05v1.09l-.12.07v-.79Z"/>
          <path class="cls-3" d="M41.24,95.2s.06-.08.06-.17l-.06.04v-.16l.13-.08v.16c0,.12-.05.21-.13.27v-.07Z"/>
          <path class="cls-3" d="M41.96,93.69h0s-.54.31-.54.31v-.12l.66-.38v.11c-.19.31-.38.77-.4,1.21l-.12.07c.02-.39.19-.88.4-1.2Z"/>
          <path class="cls-3" d="M42.15,94.25l.12-.07c0,.11.08.16.21.09.07-.04.12-.09.16-.16.06-.1.08-.24.08-.4h0c-.06.12-.15.22-.26.29-.17.1-.31.02-.31-.18,0-.2.14-.45.33-.56.09-.05.16-.06.22-.04.11.03.14.17.14.41,0,.22-.04.4-.13.55-.06.09-.13.16-.22.21-.19.11-.32.06-.33-.13ZM42.7,93.48c0-.15-.1-.2-.23-.13s-.22.23-.22.39.1.2.22.13c.14-.08.23-.24.23-.39Z"/>
          <path class="cls-3" d="M43.27,93.39c.12-.15.2-.25.2-.38s-.08-.18-.2-.11c-.07.04-.12.09-.15.15-.04.07-.05.14-.05.25l-.12.07c0-.14.03-.25.09-.35.06-.1.15-.19.24-.24.19-.11.31-.04.31.15,0,.21-.12.35-.27.53-.1.12-.23.29-.26.42l.51-.3v.13l-.65.38c.01-.3.19-.51.35-.71Z"/>
        </g>
        <g>
          <g>
            <polygon class="cls-3" points="51.79 86.25 51.27 86.55 51.27 89.28 51.79 88.98 51.79 86.25"/>
            <polygon class="cls-3" points="52.39 85.9 51.87 86.21 51.87 88.93 52.39 88.63 52.39 85.9"/>
            <polygon class="cls-3" points="52.99 85.56 52.47 85.86 52.47 88.59 52.99 88.28 52.99 85.56"/>
          </g>
          <path class="cls-3" d="M53.15,85.77c0-.18.11-.37.26-.46s.26-.02.26.16-.12.37-.26.46-.26.02-.26-.16ZM53.64,85.49c0-.16-.1-.22-.23-.14s-.23.25-.23.41.1.22.23.14.23-.25.23-.41ZM53.3,85.51l.14-.08c.05-.03.09-.02.09.04,0,.04-.02.08-.05.11h0s.04,0,.05.05c0,.05,0,.07.01.07h0s-.05.04-.05.04c0,0,0-.03-.01-.07,0-.04-.02-.05-.05-.03l-.06.04v.13l-.05.03v-.34ZM53.35,85.64l.07-.04s.05-.05.05-.08c0-.03-.01-.04-.05-.02l-.07.04v.1Z"/>
        </g>
        <path class="cls-3" d="M39.54,88.56l.21-.12.35.93-.21.12-.07-.2-.35.2-.06.28-.2.12.34-1.33ZM39.51,89.3l.26-.15-.09-.28c-.02-.05-.04-.15-.04-.15h0s-.02.13-.04.2l-.09.38Z"/>
        <path class="cls-3" d="M40.34,88.55h0c.04-.12.09-.19.17-.24.02-.01.03-.02.04-.02v.19h0c-.12.06-.21.18-.21.36v.4l-.19.11v-.81l.18-.1v.13Z"/>
        <path class="cls-3" d="M40.59,88.68c0-.24.14-.51.35-.63.23-.13.35,0,.35.29l-.51.3c.01.12.07.16.18.1.07-.04.12-.1.14-.18l.18-.11c-.03.16-.14.35-.32.45-.23.13-.37.02-.37-.22ZM40.78,88.49l.31-.18c0-.1-.06-.14-.15-.09-.1.06-.15.15-.16.27Z"/>
        <path class="cls-3" d="M41.8,88.3c-.04.08-.09.17-.21.24-.14.08-.24.05-.24-.11,0-.18.13-.31.28-.43.12-.09.17-.13.17-.19,0-.06-.04-.07-.12-.02-.09.05-.13.11-.13.19l-.17.1c0-.15.09-.32.3-.44s.3-.07.3.13v.33c0,.05,0,.07.05.04h0s0,.13,0,.13c-.02.02-.04.04-.08.06-.09.05-.13.05-.15-.02ZM41.8,88.11v-.12s-.08.08-.13.12c-.1.08-.15.13-.15.21s.04.08.11.04c.11-.06.17-.17.17-.25Z"/>
        <path class="cls-3" d="M42.09,87.52l.2-.12v.23l-.2.12v-.23ZM42.09,88l.2-.12v.23l-.2.12v-.23Z"/>
        <path class="cls-3" d="M39.39,91.3c-.1-.05-.13-.18-.13-.4,0-.34.13-.63.36-.77.19-.11.28-.02.3.13l-.11.07c0-.1-.07-.15-.18-.08-.18.11-.25.32-.25.58h0c.06-.13.15-.24.26-.3.17-.1.31-.01.31.19,0,.2-.14.45-.32.55-.1.06-.18.07-.23.04ZM39.83,90.77c0-.15-.09-.21-.22-.14-.13.08-.23.23-.23.39s.1.2.23.13c.12-.07.21-.23.21-.38Z"/>
        <path class="cls-3" d="M40.04,90.69c0-.16.09-.29.19-.39h0c-.09,0-.15-.04-.15-.15,0-.17.14-.36.31-.46s.31-.07.31.11c0,.11-.06.22-.14.31h0c.11-.02.19.03.19.18,0,.25-.18.44-.35.54s-.36.12-.36-.13ZM40.64,90.34c0-.14-.09-.18-.24-.09s-.24.23-.24.37.09.17.24.08.24-.22.24-.36ZM40.59,89.85c0-.11-.08-.13-.2-.06s-.2.18-.2.29c0,.11.08.13.2.06s.2-.18.2-.29Z"/>
        <path class="cls-3" d="M40.86,90.37l.13-.08v.16l-.13.08v-.16Z"/>
        <path class="cls-3" d="M41.49,89.89l-.44.26v-.12l.47-.98.09-.05v.73s.16-.09.16-.09v.11l-.16.09v.27l-.11.07v-.27ZM41.16,89.98l.33-.19v-.51s0,0,0,0l-.33.7h0Z"/>
        <path class="cls-3" d="M42.04,89.58l.11-.07c.02.13.1.13.2.07.12-.07.16-.15.16-.23,0-.09-.05-.08-.19-.04-.14.05-.27.09-.27-.09,0-.14.09-.28.26-.37.18-.1.26-.05.28.1l-.11.07c-.01-.1-.06-.12-.17-.06s-.14.13-.14.2c0,.09.07.07.19.02.14-.05.26-.08.26.11,0,.17-.12.32-.28.41-.2.11-.3.07-.31-.11Z"/>
        <path class="cls-3" d="M43.25,89.04h0c-.05.11-.12.19-.22.25-.19.11-.31.01-.31-.25,0-.27.13-.51.31-.61.1-.06.17-.05.22,0h0v-.11l.11-.06v1.08l-.11.06v-.36ZM43.26,88.73c0-.19-.07-.28-.23-.19-.13.08-.2.25-.2.44s.06.28.2.21c.16-.09.22-.27.22-.45Z"/>
        <path class="cls-3" d="M43.97,88.73v-.11s0,0,0,0c-.05.11-.11.2-.21.26-.15.08-.24.04-.24-.13v-.57l.11-.06v.56c0,.11.06.13.16.08.11-.07.19-.21.19-.34v-.5l.11-.06v.82l-.11.06Z"/>
        <path class="cls-3" d="M44.66,88.22h0c-.04.09-.11.19-.23.26-.13.08-.24.06-.24-.09,0-.19.13-.31.31-.44.11-.08.17-.13.17-.22s-.05-.11-.16-.05c-.12.07-.17.16-.18.29l-.11.06c0-.16.1-.34.29-.44.15-.09.26-.08.26.11v.46c0,.06.01.1.03.1h0s-.11.07-.11.07c-.01,0-.02-.03-.02-.1ZM44.67,88.02v-.13s-.1.1-.16.15c-.12.09-.2.15-.2.27,0,.11.08.09.15.05.15-.09.21-.25.21-.34Z"/>
        <path class="cls-3" d="M45.03,87.44h0c.04-.11.12-.22.21-.27.02-.01.03-.02.05-.02v.12h0s-.03.01-.05.02c-.11.06-.21.21-.21.37v.46l-.11.06v-.82l.11-.06v.14Z"/>
        <path class="cls-3" d="M45.32,87.54c0-.24.13-.51.34-.63.21-.12.33,0,.33.27l-.55.32c0,.16.09.24.23.16.1-.06.17-.16.2-.28l.11-.06c-.03.2-.14.36-.31.45-.22.13-.34,0-.34-.23ZM45.44,87.41l.43-.25c0-.16-.08-.22-.21-.14s-.2.23-.22.39Z"/>
        <path class="cls-3" d="M46.31,86.56l.11-.06v.12h0c.04-.11.12-.21.21-.26s.16-.04.19.04h0c.05-.12.13-.22.22-.27.13-.07.22-.03.22.14v.58l-.11.06v-.57c0-.1-.06-.13-.13-.09-.09.05-.17.19-.17.32v.51l-.11.06v-.57c0-.1-.05-.13-.12-.09-.09.05-.18.2-.18.33v.51l-.11.06v-.82Z"/>
        <path class="cls-3" d="M47.4,85.61l.11-.06v.16l-.11.06v-.16ZM47.4,85.93l.11-.06v.82l-.11.06v-.82Z"/>
        <path class="cls-3" d="M47.67,85.46l.11-.06v1.13l-.11.06v-1.13Z"/>
        <path class="cls-3" d="M47.9,86.05c0-.24.13-.51.34-.63.21-.12.33,0,.33.27l-.55.32c0,.16.09.24.23.16.1-.06.17-.16.2-.28l.11-.06c-.03.2-.14.36-.31.45-.22.13-.34,0-.34-.23ZM48.01,85.92l.43-.25c0-.16-.08-.22-.21-.14s-.2.23-.22.39Z"/>
        <path class="cls-3" d="M48.62,85.78l.11-.07c.02.13.1.13.2.07.12-.07.16-.15.16-.23,0-.09-.05-.08-.19-.04-.14.05-.27.09-.27-.09,0-.14.09-.28.26-.37.18-.1.26-.05.28.1l-.11.07c-.01-.1-.06-.12-.17-.06s-.14.13-.14.2c0,.09.07.07.19.02.14-.05.26-.08.26.11,0,.17-.12.32-.28.41-.2.11-.3.07-.31-.11Z"/>
      </g>
      <g>
        <path class="cls-1" d="M5.15,119.06c-.08,0-.17-.02-.24-.06l-4.65-2.54c-.16-.09-.26-.26-.26-.44V29.48c0-.18.1-.34.25-.43L50.44.07c.15-.09.34-.09.49,0l4.65,2.54c.16.09.26.26.26.44v86.53c0,.18-.1.34-.25.43L5.4,118.99c-.08.04-.16.07-.25.07ZM1,115.72l4.14,2.27,49.7-28.69V3.34l-4.14-2.27L1,29.77v85.95Z"/>
        <rect class="cls-1" x="2.57" y="28.1" width=".5" height="5.29" transform="translate(-25.49 18.43) rotate(-61.25)"/>
        <rect class="cls-1" x="1.26" y="17.28" width="57.96" height=".5" transform="translate(-4.72 17.48) rotate(-30.02)"/>
        <rect class="cls-1" x="4.9" y="32.02" width=".5" height="86.53"/>
      </g>
    </g>
  </g>
</svg>